<svg xmlns="http://www.w3.org/2000/svg" xml:space="preserve" id="HouseRelocationService" x="0" y="0" version="1.1" viewBox="0 0 3800 3000" enable-background="new 0 0 3800 3000">
  <path d="M3011.32 2021.42c-51.51 220.08-197.78 368.48-375.79 444.01-66.09 28.15-136.44 46.52-210.81 56.49-128.53 17.31-268.96 9.6-419.85-15.68-93.31-16.38-184.65-36.82-272.11-60.18-134.64-36.02-260.05-78.99-369.01-124.91-178.61-78.52-312.49-165.05-342.19-307.97-29.04-139.4 52.5-323.62 232.57-498.97 178.27-172.63 455.07-336.38 775.34-372.6 319.07-40.67 607.46 63.43 784.38 240.08 179.92 175.32 248.31 423.17 197.47 639.73z" fill="#f6f6f6" class="colorf6f6f6 svgShape"></path>
  <path d="M2600.98 2325.06s372.29-60.23 262.25-566.65c0 0-469.81 169.52-262.25 566.65z" fill="#c9ccd3" class="colord3c9cf svgShape"></path>
  <g opacity=".52" fill="#000000" class="color000000 svgShape">
    <path d="m2859.07 1764.81-74.31 134.58c-24.53 44.93-48.96 89.86-72.23 135.36-11.76 22.68-23.27 45.49-34.25 68.53-11.17 22.95-21.8 46.15-31.87 69.56-9.92 23.47-19.41 47.13-27.12 71.38-7.85 24.16-14.08 49.07-13.78 74.79-1.65-12.69-1.88-25.8-.04-38.59 1.38-12.86 3.92-25.56 6.82-38.15 6.15-25.1 14.29-49.64 23.39-73.75 18.22-48.24 40.32-94.78 63.68-140.54 23.67-45.62 48.76-90.45 75.42-134.33 26.47-43.99 54.51-87.03 84.29-128.84z" fill="#eaecef" class="coloreaefee svgShape"></path>
  </g>
  <path d="M2894.23 2100.28c1.93-19.63-55.01 7.82-70.01 15.38 9.76-17.66 19.5-34.8 28.9-50.71 1.53.1 63.07 4.02 63.19-14.77.12-18.66-60.87 13.5-63.15 14.7 7.87-13.33 15.5-25.76 22.68-36.87 7.7.79 68.26 6.48 64.5-11.3-3.69-17.39-55.42 6.49-64.05 10.61 1.63-2.51 3.23-4.95 4.81-7.31.13.48.2.73.2.73s.06-.47.15-1.24c7.15-10.69 13.78-19.83 19.67-26.94 13.7-8.64 67.88-44.7 55.34-67.49-11.67-21.2-43.07 38.13-54.33 60.9l-.05-.06c-5.85 6.59-12.54 15.49-19.81 26.1 2.1-20.43 6.08-69.23-4.64-62.54-11.12 6.93-1.46 50.67 2.31 65.97-7.91 11.74-16.47 25.39-25.39 40.3 2.83-19.15 7.65-61.8-5.15-64.45-14.05-2.92-1.59 52.26 2.48 68.93-9.96 16.79-20.33 35.02-30.72 53.8 2.36-16.02 11.11-82.48-6.18-84.44-18.1-2.04 1.89 74.1 5.19 86.23-9.02 16.35-18.03 33.07-26.8 49.59 2.91-28.45 8.84-102.85-8.77-100.78-18.74 2.19.4 83.37 6.08 105.87a4844.45 4844.45 0 0 0-33.93 65.37c.48-11.7 5.23-135.57-10.58-132.05-15.94 3.55 8.48 123.09 10.4 132.38-12.81 25.13-23.7 46.96-31.37 62.45-.31-14.32-3.53-132.76-23.97-131.49-20.76 1.3 19.95 121.13 23.7 132.04-7.17 14.51-11.45 23.32-11.68 23.8l2.96 1.85c.25-.51 4.96-10.23 12.82-26.11 7.19-1.19 72-12.55 74.1-36.13 2.08-23.29-64.75 28.38-73.76 35.44 7.75-15.65 18.48-37.13 30.97-61.6 16.07-1.83 79.64-10.39 75.25-31.13-4.19-19.8-56.27 15.35-73.42 27.56a5021.14 5021.14 0 0 1 29.79-57.38c.12.46.21.78.21.78s.07-.55.18-1.51c.64-1.21 1.26-2.4 1.91-3.62 8.22-.41 71.28-4.14 66.55-21.88-4.62-17.36-57.17 15.35-66.12 21.07 9.28-17.53 18.87-35.33 28.45-52.69 12.55.71 69.12 2.72 71.09-17.36z" fill="#ffffff" class="colorffffff svgShape"></path>
  <path d="M2646.55 2361c-18-10.5-36.19-20.53-54.56-30.08a1785.41 1785.41 0 0 0-14.27-51.9c.15-.37 1.86-76.46 20.68-97.16 19.06-21.31 50.3 2.49 69.5-2.62 19.42-5.67 8.6-38.55 22.5-44.16 14.11-6.13 38.52 26.21 53.42 21.23 15.18-5.57-5.09-32.88 25.19-43.45 30.5-10.9 27.8 17.28 50.44 24.95 21.68 9.29 108.57-86.41 121.36-31.68 11.11 57.28-76.84 67.07-80.04 78.08-3.48 11.19 20.56 28.23 5.19 51.72-15.21 23.07-69.66 3.9-72.71 13.94-2.94 9.71 10.62 23.68 3.56 43.09-7 19.21-62.53 2.1-67.78 16.31-2.47 6.64-1.88 8.7-2.14 12.02-.07.87-.19 1.83-.45 2.99-.83 3.72-3.04 9.51-8.99 20.79-14.8 28.04-70.85 15.79-70.9 15.93z" fill="#d7dbe2" class="colore2d7de svgShape"></path>
  <path d="M2762.78 2204.29c9.81-29.48 19.75-59.19 29.8-89.15-11.43 30.96-22.69 61.58-33.79 91.87-7.23 4.94-14.51 9.94-22.02 15.12-17.87 12.33-34.85 24.16-50.24 34.84-.34.24-.67.47-1.01.7-1.39.98-2.74 1.9-4.1 2.86 1.43-14.88 16.71-114.3 16.66-114.17-7.94 11.28-13.99 60.77-17.27 91.54-1.4 13.29-2.25 23.02-2.36 24.25.17.03.32.07.48.1-19.51 13.54-36 24.93-48.05 33.24-2.59-9.83-15.87-58.42-14.18-90.66.6-10.43 5.29-27.34 5.29-27.35-4.84 6.22-7.23 14.95-8.04 24.97-2.6 34.53 12.94 87.92 14.62 94.62-11.95 8.24-18.93 13.02-19.15 13.2.6.8 1.2 1.61 1.8 2.41.45-.33 9.57-6.58 24.64-16.95 30.4 8.84 60.6 18.36 90.56 28.54.47-1.78-87.47-31.14-87.67-30.53 12.8-8.8 29.4-20.27 48.65-33.62 35.9 9.33 71.56 19.58 106.93 30.76a1929.976 1929.976 0 0 0-103.84-32.9c20.96-14.53 44.87-31.13 69.89-48.24a2706.92 2706.92 0 0 1 106.54 20.49 2357.84 2357.84 0 0 0-102.94-22.95c64.32-43.43 176.2-102.38 176.67-102.82-33.33 5.44-95.88 43.57-177.87 99.83z" fill="#eaecef" class="coloreaefee svgShape"></path>
  <path d="M1030.43 2145.15s-309.29-113.83-130.33-529.86c0 .01 374.69 223.87 130.33 529.86z" fill="#c9ccd3" class="colord3c9cf svgShape"></path>
  <g opacity=".52" fill="#000000" class="color000000 svgShape">
    <path d="m902.6 1621.47 41.27 127.85c13.54 42.63 26.99 85.26 39.35 128.17 6.3 21.41 12.36 42.91 17.93 64.5 5.75 21.55 11 43.23 15.73 64.99 4.59 21.79 8.78 43.67 11.35 65.76 2.7 22.03 3.88 44.44-.67 66.45 3.53-10.61 5.92-21.82 6.48-33.09.96-11.26.91-22.58.52-33.87-1.09-22.56-3.97-44.96-7.75-67.16-7.58-44.42-18.76-88.03-31.16-131.19-12.69-43.09-26.73-85.73-42.26-127.82-15.36-42.14-32.23-83.74-50.79-124.59z" fill="#eaecef" class="coloreaefee svgShape"></path>
  </g>
  <path d="M816.42 1903.37c1.62-17.16 45.88 15.89 57.49 24.88-5.43-16.78-10.92-33.11-16.32-48.32-1.33-.17-54.77-7.09-51.74-23.22 3.01-16.02 49.96 21.74 51.71 23.16-4.53-12.75-8.99-24.69-13.3-35.42-6.74-.61-59.64-5.84-53.44-20.46 6.07-14.3 46.45 14.82 53.17 19.8-.98-2.42-1.94-4.78-2.9-7.07-.19.39-.29.6-.29.6l.08-1.09c-4.35-10.36-8.51-19.31-12.38-26.39-10.31-9.7-50.76-49.68-36.2-67.13 13.55-16.23 30.58 39.9 36.44 61.31l.06-.05c3.92 6.63 8.17 15.38 12.64 25.7 1.61-17.88 6.34-60.41 14.43-52.88 8.38 7.8-7.2 43.71-13 56.2 4.83 11.39 9.89 24.53 15.05 38.81.77-16.9 3.76-54.29 15.18-54.43 12.54-.16-7.36 45.09-13.64 58.72 5.74 16.06 11.59 33.43 17.36 51.28.65-14.14 4.24-72.61 19.4-71.4 15.86 1.27-13.99 63.24-18.85 73.1 5.01 15.53 9.95 31.37 14.71 47.01 2.26-24.89 9.59-89.7 24.35-84.98 15.71 5.01-14.26 71.45-22.89 89.8 6.55 21.6 12.73 42.69 18.19 61.74 1.54-10.12 18.15-117.17 31.12-111.5 13.08 5.71-27.83 104.17-31.03 111.82 6.79 23.69 12.49 44.24 16.48 58.8 2.66-12.23 25.19-113.3 42.52-108.79 17.59 4.58-37.34 100.58-42.38 109.31 3.73 13.64 5.93 21.92 6.05 22.37l-2.85 1.09c-.13-.47-2.55-9.6-6.64-24.54-5.97-2.22-59.66-22.78-57.53-43.37 2.1-20.33 50.81 35.15 57.35 42.72-4.03-14.72-9.65-34.93-16.28-58.02-13.48-4.25-66.58-22.21-59.35-39.27 6.9-16.28 45.7 22.57 58.38 35.9-4.88-16.94-10.28-35.35-15.97-54.2-.18.38-.31.63-.31.63s.03-.49.1-1.33c-.35-1.15-.68-2.27-1.03-3.42-6.99-1.73-60.45-15.45-53.43-29.88 6.86-14.12 46.48 22.72 53.2 29.12-5.04-16.59-10.28-33.46-15.6-49.95-10.92-1.48-59.77-9.2-58.11-26.76z" fill="#eaecef" class="coloreaefee svgShape"></path>
  <path d="M985.34 2168.37c17.19-6 34.47-11.57 51.82-16.69 6.9-14.43 13.87-28.48 20.91-42.13-.07-.34 11.17-65.89-1.51-86.8-12.79-21.46-43.56-6.26-59.18-13.85-15.71-8.1-.94-34.5-11.92-41.64-11.08-7.61-37.42 16.05-49.37 9.29-12.09-7.31 9.86-27.36-14.35-41.48-24.35-14.44-26.74 10.18-47.43 12.98-20.15 4.35-78.7-92.25-98.81-47.44-19.09 47.28 54.71 70.37 55.62 80.34 1.11 10.18-22.35 20.78-13.09 43.5 9.2 22.33 59.11 14.97 60.04 24.1.9 8.82-13.06 18.53-10.25 36.36 2.8 17.64 53.29 12.24 55.42 25.31 1.01 6.1.16 7.78-.17 10.66-.09.76-.14 1.61-.11 2.64.09 3.33 1.02 8.67 4.24 19.34 8 26.53 58.12 25.38 58.14 25.51z" fill="#d7dbe2" class="colore2d7de svgShape"></path>
  <path d="M911.81 2014.54c-3.49-26.92-7.06-54.07-10.68-81.45 4.64 28.47 9.18 56.62 13.64 84.45 5.37 5.45 10.79 10.95 16.36 16.64 13.27 13.56 25.86 26.55 37.28 38.28.25.26.5.51.75.77 1.03 1.07 2.03 2.09 3.04 3.13 1.26-13 4.75-100.84 4.78-100.72 4.93 11 1.85 54.46-.48 81.41-1.02 11.63-1.91 20.12-2.02 21.2-.15 0-.29.01-.43.01 14.47 14.88 26.71 27.4 35.67 36.53 3.86-8 23.36-47.46 27.3-75.4 1.23-9.05.03-24.33.03-24.35 3.11 6.15 3.7 14.03 2.72 22.76-3.53 30.05-25.78 73.26-28.34 78.73 8.88 9.06 14.06 14.33 14.22 14.52-.65.59-1.3 1.18-1.94 1.77-.33-.36-7.11-7.24-18.3-18.66-27.56 2.51-55.04 5.63-82.45 9.36-.11-1.61 80.23-12.11 80.3-11.55-9.51-9.68-21.83-22.3-36.12-36.96-32.35 2.01-64.65 4.85-96.86 8.53 31.42-4.51 62.96-8.15 94.57-10.88-15.56-15.96-33.29-34.19-51.9-53.05-31.58-.7-63.19-.78-94.81-.21 30.7-1.52 61.42-2.35 92.14-2.5-47.92-47.99-134.05-117.24-134.38-117.7 27.69 10.23 74.97 53.39 135.91 115.34z" fill="#eaecef" class="coloreaefee svgShape"></path>
  <path d="m1979.71 1820.44-67.36 50.17h-767.99l39.84-18.6 44.58-20.8 23.09-10.77z" fill="#c9ccd3" class="colord3c9cf svgShape"></path>
  <path d="M1144.38 1870.61h767.96v517.2h-767.96z" fill="#d7dbe2" class="colore2d7de svgShape"></path>
  <g opacity=".5" fill="#000000" class="color000000 svgShape">
    <path d="M1244.36 2349.49h-51v-37.84h51v37.84zm-47.51-3.5h44v-30.84h-44v30.84z" fill="#3a3d49" class="color493a41 svgShape"></path>
    <path d="M1220.01 2330.49h14.71s-2.48-12.37-15.86-12.37c-11.76 0-15.86 12.37-15.86 12.37h14.71v9.68h-3.45v2.85h9.11v-2.85h-3.35v-9.68zM1302.86 2349.49h-51v-37.84h51v37.84zm-47.5-3.5h44v-30.84h-44v30.84z" fill="#3a3d49" class="color493a41 svgShape"></path>
    <path d="M1282.4 2343.03h-11.96v-11.97h11.96v11.97zm-8.46-3.5h4.96v-4.97h-4.96v4.97zM1294.99 2343.03h-11.97v-11.97h11.97v11.97zm-8.47-3.5h4.97v-4.97h-4.97v4.97zM1360.85 2349.49h-51v-37.84h51v37.84zm-47.5-3.5h44v-30.84h-44v30.84z" fill="#3a3d49" class="color493a41 svgShape"></path>
    <path d="M1341.83 2321.31v6.88c0 3.51-2.84 6.35-6.35 6.35s-6.35-2.84-6.35-6.35v-6.88h-5.8v7.41c0 6.71 5.44 12.16 12.16 12.16s12.16-5.44 12.16-12.16v-7.41h-5.82z" fill="#3a3d49" class="color493a41 svgShape"></path>
  </g>
  <path d="M1483.82 1866.95v103.44l14.11-9.4 4.44 9.4 4.96-8.1 10.19 8.1 7.05-7.58 6.01 7.58 10.97-6.79 7.05 6.79 15.94-9.4 8.35 9.4v-103.44z" fill="#c9ccd3" class="colord3c9cf svgShape"></path>
  <path d="m1572.89 1870.61 26.85-18.61-16.55 1.69-2-1.69-7.06 1.45-8.09-1.45-9.02 1.36-4.04-1.36-12.73 1.22-5.29-1.22-18.38 1.69-5.92-1.69-26.84 18.61zM1557.71 1820.45l-26.84 18.62 16.55-1.7 2 1.7 7.06-1.46 8.09 1.46 9.02-1.37 4.04 1.37 12.73-1.23 5.29 1.23 18.37-1.7 5.92 1.7 26.85-18.62z" fill="#3a3d49" opacity=".5" class="color493a41 svgShape"></path>
  <path d="M1572.89 2392.59v-103.43l-14.1 9.4-4.44-9.4-4.96 8.09-10.19-8.09-7.05 7.57-6.01-7.57-10.97 6.79-7.06-6.79-15.93 9.4-8.36-9.4v103.43z" fill="#c9ccd3" class="colord3c9cf svgShape"></path>
  <path d="M1677.25 1929.12h184.94v103.44h-184.94zM1196.85 2056.59h665.33v156.73h-665.33zM1912.34 1870.61l67.39-50.16v510.64l-67.39 56.72z" fill="#eaecef" class="coloreaefee svgShape"></path>
  <path d="M1940.67 1849.52v47.47l3.54-5.09 1.18 1.44 1.96-3.4 1.96 2.22 2.22-5.62 1.96 2.48 1.83-5.62s1.7 2.22 1.7 1.7c0-.52 1.96-3 1.96-3l2.48.52v-48.56h-66.35l2.06 1.77-3.13.39 1.37 1.86-2.35.49.39 1.57-3.13-.1.49 2.16-2.55.69 2.06 2.06-3.33.59 1.76 1.86-2.45.98 2.74 1.67 51.63-.53zM1260.23 1836.78l-7.06 1.83 1.44 1.83-6.01 1.7 1.57 2.09-5.58.86s1.28 2.66.75 2.66-5.75.78-5.75.78l-.78 3.48h-54.61l44.59-20.8 35.1.87-5.1 3.56 1.44 1.14z" fill="#3a3d49" opacity=".5" class="color493a41 svgShape"></path>
  <path d="M1646.79 1870.61h265.55v517.2h-265.55z" opacity=".35" fill="#3a3d49" class="color493a41 svgShape"></path>
  <path d="m1671.2 1929.33 74.48-40.85 760.88-9.3-67.4 181.8z" fill="#3a3d49" class="color493a41 svgShape"></path>
  <path d="M1937.56 1967.04c1.16-4.51 24.54-4.42 24.54-4.42s-17.64-.54-20.07-5.95c-2.43-5.4-7.91-33.98.48-36.54 7.68-2.34 169.94 3.81 197.28 4.87-.02 2.24.46 4.46.97 6.64-2.17.08-14.57.52-21.39.23 7.03 1.54 19.86 4.91 19.86 4.91l-.17 12.76-21.6 3.32 21.53 1.73-.2 15.07-22.14 2.23 22.08 2.7s.59 10.88.55 13.99c-.04 3.11-178.52 4.6-196.87 2.69-10.02-3.46-5.9-20.12-4.85-24.23z" fill="#ffffff" class="colorffffff svgShape"></path>
  <path d="M1962.1 1962.63s-17.64-.54-20.07-5.95c-1.79-3.97-5.2-20.41-3.58-29.89.2.57.4 1.14.6 1.67 1.88 5 4.25 10.19 7.36 14.56 4.18 5.88 11.65 8.11 16.66 13.07 1.09 1.08 2 2.28 2.46 3.76.63 2.01-.1 3.63-.95 5.44-1.42 3.04-2.15 6.08.1 8.92 3.78 4.75 11.24 5.55 16.8 6.52 10.48 1.82 20.83.65 31.33-.32 5.28-.48 10.59-.84 15.9-.57 5.41.27 10.77 1.11 16.14 1.86 8.31 1.17 16.75 1.74 25.14 2.01 3.3.11 6.84.12 10.03-.89 2.54-.81 5.63-2.93 6.09-5.76.52-3.18-3.34-4.6-4.89-6.76-1.06-1.49-1.67-3.26-.92-5.01 1.59-3.68 6.05-5.94 8.8-8.66 3.14-3.1 4.84-7.01 2.97-11.29-2.67-6.12-9.57-9.13-15.55-11.02-6.73-2.13-13.72-3.05-20.64-4.32-9.5-1.74-19.26-3.92-28.24-7.52-1.11-.45-2.22-.93-3.31-1.46 47.55 1.4 100.83 3.42 115.46 3.99-.02 2.24.46 4.46.97 6.64-2.17.08-14.57.52-21.39.23 7.03 1.54 19.86 4.91 19.86 4.91l-.17 12.76-21.6 3.32 21.53 1.73-.2 15.07-22.14 2.23 22.08 2.7s.59 10.88.55 13.99c-.04 3.11-178.52 4.6-196.87 2.69-10.02-3.47-5.9-20.13-4.85-24.24 1.16-4.51 24.54-4.41 24.54-4.41z" opacity=".1" fill="#080e24" class="color231f20 svgShape"></path>
  <path d="M2096.46 1990.7c1.16-3.68 2.68-7.33 4.01-10.96 1.16-3.17 3.08-6.12 3.49-9.53.39-3.17-1.41-5.26-3.64-7.22-5.59-4.91-.02-11.9 2.05-17.15 2.56-6.51-.15-13.5-5.69-17.52-3.39-2.45-7.5-3.62-11.31-5.3 25.21.88 46.09 1.68 54.42 2-.02 2.24.46 4.46.97 6.64-2.17.08-14.57.52-21.39.23 7.03 1.54 19.86 4.91 19.86 4.91l-.17 12.76-21.6 3.32 21.53 1.73-.2 15.07-22.14 2.23 22.08 2.7s.59 10.88.55 13.99c-.01.98-17.9 1.81-42.91 2.41l.09-.31z" opacity=".1" fill="#080e24" class="color231f20 svgShape"></path>
  <path d="M2027.88 1927.26s-83.77-1.93-84.6-2.15c-.83-.22-.24 2.09-.03 2.09l84.63.06zM2027.11 1985.94s-83.77-1.93-84.6-2.15c-.83-.22-.24 2.09-.03 2.09l84.63.06zM2027.57 1950.65s-83.77-1.93-84.6-2.15c-.83-.22-.24 2.09-.03 2.09.22.01 84.63.06 84.63.06zM1997.83 1944.58s-54.39-1.54-54.93-1.76c-.54-.22-.16 2.09-.03 2.09l54.96-.33zM2027.21 1978.44s-83.77-1.93-84.6-2.15c-.83-.22-.24 2.08-.03 2.09.21.01 84.63.06 84.63.06zM1997.47 1972.37s-54.39-1.54-54.93-1.76c-.54-.22-.16 2.09-.03 2.09.13.01 54.96-.33 54.96-.33zM1975.76 1932.25s-32.49-1.25-32.81-1.47c-.32-.21-.11 2.09-.03 2.09.08.01 32.84-.62 32.84-.62z" fill="#080e24" opacity=".2" class="color231f20 svgShape"></path>
  <path d="M2156.22 1906.31c-1.04-4.54-24.41-5.06-24.41-5.06s17.64-.08 20.22-5.42c2.58-5.34 8.79-33.77.48-36.54-7.61-2.54-169.98-.64-197.34-.31-.04 2.24-.58 4.45-1.14 6.61 2.17.14 14.55.9 21.38.79-7.07 1.36-19.98 4.39-19.98 4.39l-.17 12.76 21.5 3.89-21.57 1.16-.2 15.07 22.07 2.81-22.14 2.12s-.87 10.86-.91 13.97c-.04 3.11 178.34 9.27 196.73 7.85 10.1-3.2 6.42-19.96 5.48-24.09z" fill="#ffffff" class="colorffffff svgShape"></path>
  <path d="M2131.8 1901.25s17.64-.08 20.22-5.42c1.89-3.92 5.74-20.27 4.36-29.79-.21.57-.43 1.12-.64 1.66-2.01 4.95-4.51 10.07-7.74 14.36-4.34 5.77-11.85 7.8-17 12.63-1.12 1.05-2.06 2.23-2.56 3.7-.68 2 0 3.63.8 5.46 1.34 3.07 1.99 6.14-.34 8.92-3.9 4.65-11.38 5.26-16.96 6.08-10.52 1.55-20.84.1-31.31-1.14-5.27-.62-10.57-1.12-15.88-.99-5.42.13-10.8.83-16.18 1.44-8.33.95-16.79 1.3-25.18 1.35-3.3.02-6.84-.06-10-1.15-2.52-.87-5.55-3.07-5.94-5.91-.44-3.19 3.46-4.51 5.07-6.63 1.1-1.46 1.76-3.21 1.05-4.99-1.49-3.72-5.89-6.1-8.57-8.89-3.06-3.19-4.65-7.13-2.67-11.36 2.83-6.05 9.81-8.88 15.83-10.61 6.78-1.95 13.79-2.69 20.74-3.77 9.54-1.49 19.36-3.41 28.43-6.78 1.12-.42 2.24-.87 3.35-1.37-47.57.15-100.89.78-115.53.96-.04 2.24-.58 4.45-1.14 6.61 2.17.14 14.55.9 21.38.79-7.07 1.36-19.98 4.39-19.98 4.39l-.17 12.76 21.5 3.89-21.57 1.16-.2 15.07 22.07 2.81-22.14 2.12s-.87 10.86-.91 13.97c-.04 3.11 178.34 9.27 196.73 7.85 10.11-3.21 6.43-19.97 5.48-24.11-1.02-4.56-24.4-5.07-24.4-5.07z" opacity=".1" fill="#080e24" class="color231f20 svgShape"></path>
  <path d="M1996.75 1925.79c-1.06-3.71-2.49-7.4-3.72-11.06-1.08-3.2-2.92-6.2-3.24-9.62-.3-3.18 1.55-5.22 3.83-7.12 5.72-4.76.33-11.89-1.6-17.2-2.39-6.58.5-13.49 6.15-17.36 3.45-2.36 7.59-3.42 11.44-5-25.22.22-46.12.47-54.46.57-.04 2.24-.58 4.45-1.14 6.61 2.17.14 14.55.9 21.38.79-7.07 1.36-19.98 4.39-19.98 4.39l-.17 12.76 21.5 3.89-21.57 1.16-.2 15.07 22.07 2.81-22.14 2.12s-.87 10.86-.91 13.97c-.01.99 17.84 2.28 42.83 3.53-.02-.1-.04-.21-.07-.31z" opacity=".1" fill="#080e24" class="color231f20 svgShape"></path>
  <path d="M2066.97 1864.17s83.79.27 84.63.07c.84-.2.18 2.09-.03 2.09s-84.6-2.16-84.6-2.16zM2066.2 1922.85s83.79.27 84.63.07c.84-.2.18 2.09-.03 2.09s-84.6-2.16-84.6-2.16zM2066.66 1887.56s83.79.27 84.63.07c.84-.2.18 2.09-.03 2.09-.2 0-84.6-2.16-84.6-2.16zM2096.55 1882.27s54.42-.12 54.96-.32c.54-.2.11 2.09-.03 2.09-.13 0-54.93-1.77-54.93-1.77zM2066.3 1915.35s83.79.27 84.63.07c.84-.2.18 2.09-.03 2.09s-84.6-2.16-84.6-2.16zM2096.19 1910.06s54.42-.12 54.96-.32c.55-.2.11 2.09-.03 2.09-.13 0-54.93-1.77-54.93-1.77zM2118.95 1870.53s32.51-.4 32.84-.61c.33-.2.05 2.09-.03 2.09-.09 0-32.81-1.48-32.81-1.48z" fill="#080e24" opacity=".2" class="color231f20 svgShape"></path>
  <path d="m2430.26 1893.16-23.69 121.73c-2.35 12.1-14.06 19.99-26.16 17.64l-188.15-36.62c-12.08-2.35-19.97-14.06-17.62-26.16l23.69-121.73 231.93 45.14z" fill="#dce1ea" class="colordceaea svgShape"></path>
  <path d="m2430.32 1892.91-23.74 121.98c-2.35 12.1-14.06 19.99-26.16 17.64l-174.84-34.03c-12.08-2.35-19.97-14.06-17.62-26.16l23.74-121.98 218.62 42.55z" fill="#efefef" class="colorefefef svgShape"></path>
  <path d="m2432.58 1881.26-2.27 11.65-218.62-42.55 2.27-11.65c2.35-12.1 14.06-19.97 26.14-17.62l174.84 34.03c12.1 2.35 20 14.04 17.64 26.14z" fill="#c9ccd3" class="colord3c9cf svgShape"></path>
  <path d="M2240.1 1821.09c-12.08-2.35-23.78 5.53-26.14 17.62l-2.27 11.65-13.31-2.59 2.27-11.65c2.35-12.1 14.06-19.97 26.14-17.62l13.31 2.59z" fill="#d7dbe2" class="colore2d7de svgShape"></path>
  <path d="m2282.38 1884.31-53.86-10.48a.318.318 0 0 1-.25-.37l1.3-6.68c.03-.17.2-.28.37-.25l53.85 10.48c.17.03.28.2.25.37l-1.3 6.68c-.02.17-.19.28-.36.25zM2243.7 1909.06l-19.69-3.83a.92.92 0 0 1-.73-1.08l4.06-20.85c.1-.5.58-.83 1.08-.73l19.7 3.83c.5.1.83.58.73 1.08l-4.06 20.85c-.11.5-.59.83-1.09.73zM2274.8 1915.11l-19.69-3.83a.92.92 0 0 1-.73-1.08l4.06-20.85c.1-.5.58-.83 1.08-.73l19.69 3.83c.5.1.83.58.73 1.08l-4.06 20.85c-.1.5-.58.83-1.08.73zM2305.91 1921.17l-19.69-3.83a.92.92 0 0 1-.73-1.08l4.06-20.85c.1-.5.58-.83 1.08-.73l19.69 3.83c.5.1.83.58.73 1.08l-4.06 20.85c-.1.5-.59.82-1.08.73zM2337.01 1927.22l-19.69-3.83a.92.92 0 0 1-.73-1.08l4.06-20.85c.1-.5.58-.83 1.08-.73l19.69 3.83c.5.1.83.58.73 1.08l-4.06 20.85c-.1.5-.58.83-1.08.73zM2368.11 1933.27l-19.7-3.83a.92.92 0 0 1-.73-1.08l4.06-20.85c.1-.5.58-.83 1.08-.73l19.69 3.83c.5.1.83.58.73 1.08l-4.06 20.85c-.09.5-.57.83-1.07.73zM2399.21 1939.33l-19.69-3.83a.92.92 0 0 1-.73-1.08l4.06-20.85c.1-.5.58-.83 1.08-.73l19.69 3.83c.5.1.83.58.73 1.08l-4.06 20.85c-.09.5-.58.82-1.08.73z" fill="#ffffff" class="colorffffff svgShape"></path>
  <path d="m2237.12 1942.85-19.7-3.83a.92.92 0 0 1-.73-1.08l4.06-20.85c.1-.5.58-.83 1.08-.73l19.69 3.83c.5.1.83.58.73 1.08l-4.06 20.85c-.08.5-.57.83-1.07.73zM2268.23 1948.9l-19.69-3.83a.92.92 0 0 1-.73-1.08l4.06-20.85c.1-.5.58-.83 1.08-.73l19.69 3.83c.5.1.83.58.73 1.08l-4.06 20.85c-.1.51-.59.83-1.08.73z" fill="#76a4ff" class="color3fc9bc svgShape"></path>
  <path d="m2330.43 1961.01-19.69-3.83a.92.92 0 0 1-.73-1.08l4.06-20.85c.1-.5.58-.83 1.08-.73l19.69 3.83c.5.1.83.58.73 1.08l-4.06 20.85c-.1.5-.58.83-1.08.73zM2361.53 1967.06l-19.69-3.83a.92.92 0 0 1-.73-1.08l4.06-20.85c.1-.5.58-.83 1.08-.73l19.7 3.83c.5.1.83.58.73 1.08l-4.06 20.85c-.1.5-.59.83-1.09.73zM2392.64 1973.12l-19.7-3.83a.92.92 0 0 1-.73-1.08l4.06-20.85c.1-.5.58-.83 1.08-.73l19.7 3.83c.5.1.83.58.73 1.08l-4.06 20.85c-.1.5-.58.82-1.08.73zM2230.55 1976.64l-19.7-3.83a.92.92 0 0 1-.73-1.08l4.06-20.85c.1-.5.58-.83 1.08-.73l19.69 3.83c.5.1.83.58.73 1.08l-4.06 20.85c-.09.5-.57.83-1.07.73zM2261.65 1982.7l-19.69-3.83a.92.92 0 0 1-.73-1.08l4.06-20.85c.1-.5.58-.83 1.08-.73l19.69 3.83c.5.1.83.58.73 1.08l-4.06 20.85c-.1.5-.58.82-1.08.73zM2292.75 1988.75l-19.69-3.83a.92.92 0 0 1-.73-1.08l4.06-20.85c.1-.5.58-.83 1.08-.73l19.69 3.83c.5.1.83.58.73 1.08l-4.06 20.85c-.1.5-.58.83-1.08.73zM2323.85 1994.8l-19.69-3.83a.92.92 0 0 1-.73-1.08l4.06-20.85c.1-.5.58-.83 1.08-.73l19.69 3.83c.5.1.83.58.73 1.08l-4.06 20.85c-.09.5-.58.83-1.08.73zM2354.96 2000.86l-19.69-3.83a.92.92 0 0 1-.73-1.08l4.06-20.85c.1-.5.58-.83 1.08-.73l19.69 3.83c.5.1.83.58.73 1.08l-4.06 20.85c-.1.5-.58.82-1.08.73zM2386.06 2006.91l-19.69-3.83a.92.92 0 0 1-.73-1.08l4.06-20.85c.1-.5.58-.83 1.08-.73l19.69 3.83c.5.1.83.58.73 1.08l-4.06 20.85c-.1.5-.58.83-1.08.73z" fill="#ffffff" class="colorffffff svgShape"></path>
  <path d="M2228.6 1934.28c-.15-.03-.3-.07-.44-.13-.57-.24-1.01-.69-1.24-1.26l-2.31-5.77a2.285 2.285 0 0 1 4.24-1.7l1.45 3.62 12.11-5.09c1.16-.49 2.5.06 2.99 1.22.49 1.16-.06 2.5-1.22 2.99l-14.25 5.99c-.43.17-.89.22-1.33.13zM2258.29 1940.06c-.15-.03-.3-.07-.44-.13-.57-.24-1.01-.69-1.24-1.26l-2.31-5.77a2.285 2.285 0 0 1 4.24-1.7l1.45 3.62 12.1-5.08c1.16-.49 2.5.06 2.99 1.22.49 1.16-.06 2.5-1.22 2.99l-14.25 5.99c-.42.16-.88.21-1.32.12z" fill="#f1f6ff" class="colorf7f1ff svgShape"></path>
  <path d="m2299.33 1954.96-19.69-3.83a.92.92 0 0 1-.73-1.08l4.06-20.85c.1-.5.58-.83 1.08-.73l19.69 3.83c.5.1.83.58.73 1.08l-4.06 20.85c-.1.5-.58.82-1.08.73z" fill="#76a4ff" class="color3fc9bc svgShape"></path>
  <path d="M2287.99 1945.84c-.15-.03-.3-.07-.44-.14-.57-.24-1.01-.69-1.24-1.26l-2.31-5.77a2.285 2.285 0 0 1 4.24-1.7l1.45 3.61 12.1-5.08c1.16-.49 2.5.06 2.99 1.22.49 1.16-.06 2.5-1.22 2.99l-14.25 5.99c-.42.18-.88.23-1.32.14z" fill="#f1f6ff" class="colorf7f1ff svgShape"></path>
  <path d="m2274.8 1915.11-19.69-3.83a.92.92 0 0 1-.73-1.08l4.06-20.85c.1-.5.58-.83 1.08-.73l19.69 3.83c.5.1.83.58.73 1.08l-4.06 20.85c-.1.5-.58.83-1.08.73z" fill="#76a4ff" class="color3fc9bc svgShape"></path>
  <path d="M2263.46 1906c-.15-.03-.3-.07-.44-.14-.57-.24-1.01-.69-1.24-1.26l-2.31-5.77a2.285 2.285 0 0 1 4.24-1.7l1.45 3.61 12.11-5.08c1.16-.49 2.5.06 2.99 1.22.49 1.16-.06 2.5-1.22 2.99l-14.25 5.99c-.43.18-.89.22-1.33.14z" fill="#f1f6ff" class="colorf7f1ff svgShape"></path>
  <path d="M2246.8 1838.06a6.648 6.648 0 0 1-7.8 5.26c-3.6-.7-5.96-4.19-5.26-7.8a6.653 6.653 0 0 1 13.06 2.54zM2277.9 1844.11c-.7 3.6-4.19 5.96-7.8 5.26a6.648 6.648 0 0 1-5.26-7.8c.7-3.61 4.19-5.96 7.8-5.26 3.61.71 5.97 4.2 5.26 7.8zM2309.01 1850.17a6.648 6.648 0 0 1-7.8 5.26 6.648 6.648 0 0 1-5.26-7.8c.7-3.6 4.19-5.96 7.8-5.26 3.6.7 5.96 4.19 5.26 7.8zM2340.11 1856.22a6.648 6.648 0 0 1-7.8 5.26 6.648 6.648 0 0 1-5.26-7.8c.7-3.6 4.19-5.96 7.8-5.26 3.61.7 5.96 4.19 5.26 7.8zM2371.21 1862.27c-.7 3.6-4.19 5.96-7.8 5.26-3.61-.7-5.96-4.19-5.26-7.8s4.19-5.96 7.8-5.26c3.61.71 5.97 4.2 5.26 7.8zM2402.32 1868.33c-.7 3.61-4.19 5.96-7.8 5.26s-5.96-4.19-5.26-7.8c.7-3.6 4.19-5.96 7.8-5.26 3.6.7 5.96 4.19 5.26 7.8z" fill="#d7dbe2" class="colore2d7de svgShape"></path>
  <path d="m2244.45 1836.11-7.85-1.53a.365.365 0 0 1-.29-.43l4.05-20.8c.04-.2.23-.33.43-.29l7.85 1.53c.2.04.33.23.29.43l-4.05 20.8c-.04.2-.23.33-.43.29zM2275.53 1842.16l-7.85-1.53a.365.365 0 0 1-.29-.43l4.05-20.8c.04-.2.23-.33.43-.29l7.85 1.53c.2.04.33.23.29.43l-4.05 20.8c-.04.2-.23.33-.43.29zM2306.6 1848.21l-7.85-1.53a.365.365 0 0 1-.29-.43l4.05-20.8c.04-.2.23-.33.43-.29l7.85 1.53c.2.04.33.23.29.43l-4.05 20.8a.36.36 0 0 1-.43.29zM2337.68 1854.26l-7.85-1.53a.365.365 0 0 1-.29-.43l4.05-20.8c.04-.2.23-.33.43-.29l7.85 1.53c.2.04.33.23.29.43l-4.05 20.8c-.04.2-.23.33-.43.29zM2368.76 1860.31l-7.85-1.53a.365.365 0 0 1-.29-.43l4.05-20.8c.04-.2.23-.33.43-.29l7.85 1.53c.2.04.33.23.29.43l-4.05 20.8c-.04.2-.23.33-.43.29zM2399.84 1866.36l-7.85-1.53a.365.365 0 0 1-.29-.43l4.05-20.8c.04-.2.23-.33.43-.29l7.85 1.53c.2.04.33.23.29.43l-4.05 20.8a.38.38 0 0 1-.43.29z" fill="#4b5370" class="color704b67 svgShape"></path>
  <path d="M1671.2 1929.33h767.96v517.2H1671.2z" fill="#d7dbe2" class="colore2d7de svgShape"></path>
  <g opacity=".5" fill="#000000" class="color000000 svgShape">
    <path d="M1771.18 2408.21h-51v-37.84h51v37.84zm-47.5-3.5h44v-30.84h-44v30.84z" fill="#3a3d49" class="color493a41 svgShape"></path>
    <path d="M1746.84 2389.21h14.71s-2.48-12.37-15.86-12.37c-11.76 0-15.86 12.37-15.86 12.37h14.71v9.68h-3.45v2.85h9.11v-2.85h-3.35v-9.68zM1829.69 2408.21h-51v-37.84h51v37.84zm-47.51-3.5h44v-30.84h-44v30.84z" fill="#3a3d49" class="color493a41 svgShape"></path>
    <path d="M1809.23 2401.75h-11.96v-11.97h11.96v11.97zm-8.47-3.5h4.96v-4.97h-4.96v4.97zM1821.81 2401.75h-11.97v-11.97h11.97v11.97zm-8.47-3.5h4.97v-4.97h-4.97v4.97zM1887.68 2408.21h-51v-37.84h51v37.84zm-47.51-3.5h44v-30.84h-44v30.84z" fill="#3a3d49" class="color493a41 svgShape"></path>
    <path d="M1868.66 2380.03v6.88c0 3.51-2.84 6.35-6.35 6.35s-6.35-2.84-6.35-6.35v-6.88h-5.8v7.41c0 6.71 5.44 12.16 12.16 12.16s12.16-5.44 12.16-12.16v-7.41h-5.82z" fill="#3a3d49" class="color493a41 svgShape"></path>
  </g>
  <path d="M2099.72 2451.32v-103.44l-14.11 9.4-4.44-9.4-4.96 8.09-10.19-8.09-7.05 7.57-6.01-7.57-10.97 6.79-7.05-6.79-15.94 9.4-8.35-9.4v103.44z" fill="#c9ccd3" class="colord3c9cf svgShape"></path>
  <path d="M2204.07 1987.84h184.94v103.44h-184.94zM1723.68 2115.31h665.33v156.73h-665.33z" fill="#eaecef" class="coloreaefee svgShape"></path>
  <g opacity=".35" fill="#000000" class="color000000 svgShape">
    <path d="M1870.55 2179.05c0 2.39-.59 4.56-1.76 6.51-1.18 1.95-2.75 3.59-4.72 4.9 1.04.21 1.94.56 2.7 1.06.76.5 1.39 1.11 1.89 1.84s.88 1.55 1.14 2.46c.26.92.39 1.88.39 2.88 0 1.97-.46 3.69-1.37 5.16s-2.1 2.68-3.55 3.63c-1.45.95-3.07 1.66-4.85 2.13s-3.55.7-5.32.7c-.97 0-1.94-.07-2.91-.21-.97-.14-1.88-.38-2.75-.73-.31-.1-.57-.53-.78-1.27-.21-.74-.37-1.65-.49-2.72-.12-1.07-.22-2.23-.29-3.48-.07-1.25-.12-2.44-.16-3.58-.03-1.14-.05-2.14-.05-3.01v-5.48c0-1.23.03-2.45.1-3.66 0-.31.01-.8.03-1.45.02-.66.03-1.39.05-2.2.02-.81.05-1.67.1-2.57.05-.9.12-1.74.21-2.52s.21-1.44.36-2c.16-.55.34-.9.54-1.04.8-.52 1.68-1.01 2.65-1.48s1.97-.87 3.01-1.22c1.04-.35 2.08-.62 3.11-.83 1.04-.21 2.02-.31 2.96-.31 1.28 0 2.52.18 3.71.54 1.19.36 2.23.91 3.11 1.63.88.73 1.59 1.62 2.13 2.67s.81 2.3.81 3.65zm-8.61 2.75c0-.59-.18-1.02-.54-1.3-.36-.28-.84-.42-1.43-.42-.48 0-.99.1-1.53.31s-.99.48-1.37.83c-.1.1-.2.4-.29.88-.09.48-.16 1.03-.21 1.63-.05.61-.09 1.18-.1 1.71-.02.54-.03.89-.03 1.06v.34c0 .16.01.32.03.49.02.17.04.33.08.47.03.14.09.21.16.21.59 0 1.19-.22 1.82-.65.62-.43 1.18-.97 1.69-1.61.5-.64.92-1.32 1.25-2.05.3-.71.47-1.35.47-1.9zm-.21 14.99c0-.59-.21-1-.62-1.24-.42-.24-.88-.36-1.4-.36-.48 0-.99.11-1.53.34-.54.23-.98.49-1.32.8-.1.07-.18.24-.23.52-.05.28-.09.58-.1.91-.02.33-.03.64-.05.93-.02.29-.03.49-.03.6v.42c0 .21.01.42.03.65.02.22.05.43.1.62s.11.29.18.29c.48 0 1.02-.14 1.61-.42.59-.28 1.13-.62 1.63-1.04.5-.42.92-.89 1.24-1.43.33-.54.49-1.07.49-1.59zM1885.39 2211.21c-1.76 0-3.3-.47-4.62-1.4-1.31-.93-2.42-2.13-3.32-3.58-.9-1.45-1.57-3.07-2.02-4.85-.45-1.78-.67-3.54-.67-5.27 0-1.83.22-3.73.67-5.68.45-1.95 1.14-3.73 2.08-5.34a12.23 12.23 0 0 1 3.58-3.94c1.45-1.02 3.18-1.53 5.19-1.53 1.94 0 3.59.53 4.95 1.58 1.37 1.05 2.46 2.37 3.29 3.94.83 1.57 1.42 3.29 1.76 5.16.35 1.87.47 3.63.36 5.29-.1 1.83-.39 3.68-.86 5.55-.47 1.87-1.15 3.54-2.05 5.03-.9 1.49-2.04 2.7-3.42 3.63-1.37.94-3.01 1.41-4.92 1.41zm.52-23.45c-.52 0-.98.28-1.37.83-.4.55-.73 1.23-.99 2.02-.26.8-.46 1.63-.6 2.52-.14.88-.21 1.65-.21 2.31 0 .83.08 1.73.23 2.7.16.97.37 1.86.65 2.67.28.81.61 1.49 1.01 2.02.4.54.86.8 1.37.8.55 0 1.03-.26 1.43-.78.4-.52.72-1.18.96-1.97.24-.8.42-1.67.52-2.62.1-.95.16-1.84.16-2.67 0-.76-.07-1.6-.21-2.52-.14-.92-.34-1.77-.6-2.57-.26-.8-.59-1.45-.99-1.97-.38-.51-.84-.77-1.36-.77zM1911.81 2211.21c-1.76 0-3.3-.47-4.62-1.4-1.31-.93-2.42-2.13-3.32-3.58-.9-1.45-1.57-3.07-2.02-4.85-.45-1.78-.67-3.54-.67-5.27 0-1.83.23-3.73.67-5.68.45-1.95 1.14-3.73 2.07-5.34a12.23 12.23 0 0 1 3.58-3.94c1.45-1.02 3.18-1.53 5.19-1.53 1.94 0 3.59.53 4.95 1.58s2.46 2.37 3.29 3.94c.83 1.57 1.42 3.29 1.76 5.16.35 1.87.47 3.63.36 5.29-.1 1.83-.39 3.68-.86 5.55-.47 1.87-1.15 3.54-2.05 5.03-.9 1.49-2.04 2.7-3.42 3.63-1.36.94-3.01 1.41-4.91 1.41zm.52-23.45c-.52 0-.98.28-1.37.83-.4.55-.73 1.23-.99 2.02-.26.8-.46 1.63-.6 2.52-.14.88-.21 1.65-.21 2.31 0 .83.08 1.73.23 2.7.16.97.37 1.86.65 2.67.28.81.61 1.49 1.01 2.02.4.54.86.8 1.38.8.55 0 1.03-.26 1.43-.78.4-.52.72-1.18.96-1.97.24-.8.42-1.67.52-2.62.1-.95.16-1.84.16-2.67 0-.76-.07-1.6-.21-2.52-.14-.92-.34-1.77-.6-2.57-.26-.8-.59-1.45-.99-1.97-.39-.51-.85-.77-1.37-.77zM1951.4 2181.8c0 .97-.25 1.95-.75 2.96-.5 1-1.11 2-1.82 2.98-.71.99-1.45 1.92-2.23 2.8-.78.88-1.46 1.69-2.05 2.41.48.76 1.09 1.77 1.82 3.03.73 1.26 1.42 2.6 2.08 4.02.66 1.42 1.22 2.8 1.69 4.15.47 1.35.7 2.47.7 3.37 0 .73-.23 1.39-.67 2-.45.6-1.07.91-1.87.91-.59 0-1.18-.25-1.79-.75-.61-.5-1.21-1.16-1.82-1.97-.6-.81-1.18-1.72-1.74-2.72-.55-1-1.06-1.99-1.53-2.96s-.88-1.88-1.25-2.72c-.36-.85-.65-1.53-.86-2.05-.45.45-.93.82-1.43 1.12-.5.29-.99.63-1.48 1.01 0 .73-.03 1.75-.08 3.06a24.17 24.17 0 0 1-.47 3.89c-.26 1.28-.68 2.4-1.27 3.35-.59.95-1.45 1.43-2.59 1.43-.9 0-1.59-.41-2.08-1.22-.48-.81-.84-1.76-1.06-2.85-.22-1.09-.35-2.2-.39-3.32-.03-1.12-.05-1.98-.05-2.57 0-2.56.07-5.12.21-7.68.14-2.56.22-5.12.26-7.68 0-.59.01-1.36.03-2.31.02-.95.08-1.98.18-3.09.1-1.11.26-2.23.47-3.37.21-1.14.5-2.17.88-3.09.38-.92.87-1.66 1.48-2.23.61-.57 1.34-.86 2.2-.86.62 0 1.15.23 1.58.7.43.47.78 1.06 1.04 1.79s.45 1.54.57 2.44c.12.9.21 1.79.26 2.67.05.88.08 1.7.08 2.46v1.82c0 .31-.01.77-.03 1.37-.02.61-.03 1.24-.05 1.89-.02.66-.03 1.26-.03 1.82 0 .55.03.95.1 1.19.24 0 .61-.23 1.09-.7.48-.47 1.05-1.06 1.69-1.79.64-.73 1.33-1.5 2.08-2.31.74-.81 1.5-1.58 2.28-2.31.78-.73 1.55-1.32 2.31-1.79s1.47-.7 2.13-.7c.69 0 1.23.24 1.61.73.38.49.57 1.05.57 1.67zM1999.77 2202.39c.31.41.69.93 1.14 1.56.45.62.88 1.29 1.3 2 .42.71.77 1.4 1.06 2.07.29.67.44 1.24.44 1.69 0 .83-.29 1.5-.88 2-.59.5-1.25.75-1.97.75-.52 0-1.12-.22-1.82-.65-.69-.43-1.38-.94-2.08-1.53-.69-.59-1.36-1.18-2-1.79-.64-.61-1.13-1.1-1.48-1.48-1.59 1.04-3.42 1.83-5.5 2.39-2.07.55-4.05.83-5.91.83-1.63 0-3.1-.24-4.44-.73-1.33-.48-2.49-1.18-3.48-2.1-.99-.92-1.75-2.04-2.28-3.37-.54-1.33-.8-2.83-.8-4.49 0-1.31.27-2.57.8-3.76.54-1.19 1.22-2.3 2.05-3.32s1.75-1.95 2.75-2.8c1-.85 1.99-1.62 2.96-2.31-.48-.62-.92-1.31-1.3-2.05-.38-.74-.7-1.51-.96-2.31s-.46-1.6-.6-2.41c-.14-.81-.21-1.58-.21-2.31 0-1.25.22-2.41.67-3.5a9.019 9.019 0 0 1 1.84-2.85 8.15 8.15 0 0 1 2.8-1.89c1.09-.45 2.27-.67 3.55-.67 1.18 0 2.32.24 3.42.73 1.11.48 2.09 1.13 2.96 1.95.86.81 1.56 1.76 2.1 2.85s.8 2.26.8 3.5c0 .97-.16 1.88-.49 2.72-.33.85-.76 1.65-1.3 2.41-.54.76-1.12 1.49-1.76 2.18-.64.69-1.27 1.35-1.89 1.97 1 1.52 2.03 3.01 3.09 4.46 1.05 1.45 2.12 2.92 3.19 4.41.42-.41.88-.86 1.4-1.32.52-.47 1.07-.9 1.66-1.3.59-.4 1.19-.73 1.82-.99.62-.26 1.25-.39 1.87-.39.86 0 1.5.23 1.89.7.4.47.6 1.1.6 1.89 0 .73-.17 1.44-.52 2.15s-.77 1.38-1.27 2c-.5.62-1.05 1.2-1.63 1.74-.57.53-1.11.99-1.59 1.37zm-16.39-9.44c-1.11.8-1.98 1.74-2.62 2.83-.64 1.09-.96 2.31-.96 3.66 0 2.28 1.18 3.42 3.53 3.42.97 0 1.98-.18 3.03-.54 1.05-.36 2.01-.82 2.88-1.37-.55-.73-1.07-1.4-1.56-2.02-.48-.62-.95-1.25-1.4-1.87-.45-.62-.91-1.26-1.37-1.92-.47-.67-.98-1.39-1.53-2.19zm1.71-16.55c-.69 0-1.18.22-1.45.67-.28.45-.42 1.05-.42 1.82 0 .86.18 1.65.54 2.36.36.71.87 1.34 1.53 1.89.69-.59 1.31-1.28 1.84-2.07.54-.8.8-1.63.8-2.49 0-.59-.32-1.1-.96-1.53-.63-.43-1.26-.65-1.88-.65zM2042.74 2173.29c0 .8-.25 1.49-.75 2.08-.5.59-1.1 1.07-1.79 1.45-.62.38-1.26.79-1.92 1.22-.66.43-1.26.92-1.82 1.45-.55.54-1 1.13-1.35 1.79-.35.66-.52 1.4-.52 2.23 0 .73.17 1.38.52 1.97.35.59.77 1.17 1.27 1.74.5.57 1.05 1.16 1.66 1.76.61.6 1.16 1.28 1.66 2.02s.92 1.58 1.27 2.52c.35.93.52 2.02.52 3.27 0 .86-.18 1.84-.54 2.93a18.65 18.65 0 0 1-1.48 3.29c-.62 1.11-1.36 2.18-2.21 3.22-.85 1.04-1.75 1.96-2.7 2.78-.95.81-1.95 1.47-2.98 1.97-1.04.5-2.04.75-3.01.75-1.07 0-2.02-.29-2.85-.88-.83-.59-1.25-1.47-1.25-2.65 0-.8.19-1.53.57-2.2.38-.67.85-1.32 1.4-1.95.55-.62 1.17-1.23 1.84-1.82.67-.59 1.29-1.18 1.84-1.76.55-.59 1.02-1.2 1.4-1.84.38-.64.57-1.32.57-2.05 0-1-.35-2.03-1.06-3.09-.71-1.05-1.5-2.14-2.36-3.27-.87-1.12-1.65-2.27-2.36-3.45-.71-1.18-1.06-2.37-1.06-3.58 0-1.49.4-3.05 1.19-4.69.8-1.64 1.82-3.15 3.06-4.51 1.24-1.37 2.65-2.5 4.2-3.4 1.56-.9 3.09-1.35 4.62-1.35 1.21 0 2.25.36 3.11 1.09.88.73 1.31 1.72 1.31 2.96zM2059.3 2211.57c-2.46 0-4.37-.32-5.73-.96-1.37-.64-2.39-1.55-3.06-2.72-.67-1.18-1.08-2.59-1.22-4.25a66.51 66.51 0 0 1-.21-5.55c0-1.63.05-3.26.16-4.9.1-1.64.26-3.4.47-5.27-.48 0-.86.01-1.14.03-.28.02-.5.03-.67.03-1.11 0-2.07-.24-2.88-.73-.81-.48-1.22-1.23-1.22-2.23 0-.62.23-1.18.7-1.66s1.06-.9 1.79-1.25 1.51-.62 2.36-.83c.85-.21 1.65-.35 2.41-.42 0-.97.07-2.04.21-3.22.14-1.18.39-2.27.75-3.29s.86-1.88 1.48-2.57 1.42-1.04 2.39-1.04c.55 0 1.05.16 1.48.49.43.33.79.74 1.06 1.24.28.5.48 1.06.62 1.69.14.62.21 1.23.21 1.82 0 .69-.05 1.4-.16 2.13-.1.73-.29 1.63-.57 2.7.59-.07.99-.11 1.19-.13.21-.02.4-.03.57-.03.59 0 1.2.05 1.84.16.64.1 1.23.28 1.76.52.54.24.98.56 1.32.96.35.4.52.87.52 1.43 0 .62-.25 1.18-.75 1.66s-1.13.9-1.89 1.24c-.76.35-1.57.61-2.44.8-.86.19-1.68.32-2.44.39-.21 1.42-.35 2.72-.44 3.92-.09 1.19-.18 2.4-.29 3.61-.07.59-.13 1.18-.18 1.79-.05.6-.08 1.22-.08 1.84 0 .45.02.98.05 1.58.03.6.16 1.18.36 1.74.21.55.54 1.03.99 1.43.45.4 1.07.6 1.87.6.48 0 .99-.04 1.5-.13.52-.09 1.04-.13 1.56-.13.9 0 1.55.31 1.95.93s.6 1.42.6 2.39c0 .73-.22 1.36-.65 1.89-.43.54-.98.97-1.63 1.3-.66.33-1.39.58-2.2.75-.82.17-1.59.25-2.32.25zM2091.84 2202.39c0 .62-.03 1.44-.08 2.44s-.2 1.98-.44 2.93c-.24.95-.62 1.77-1.14 2.46-.52.69-1.25 1.04-2.18 1.04-1.28 0-2.27-.41-2.96-1.24-.69-.83-1.02-1.87-.99-3.11-1.11.97-2.36 1.73-3.76 2.28-1.4.55-2.83.83-4.28.83-1 0-1.95-.24-2.85-.73-.9-.48-1.7-1.11-2.39-1.87-.69-.76-1.24-1.62-1.66-2.57s-.62-1.89-.62-2.83c0-1.66.51-3.11 1.53-4.36 1.02-1.25 2.27-2.31 3.76-3.19 1.49-.88 3.07-1.58 4.75-2.1 1.68-.52 3.17-.86 4.49-1.04 0-.17.01-.33.03-.47.02-.14.03-.29.03-.47 0-1.07-.29-1.94-.88-2.59-.59-.66-1.42-.99-2.49-.99-.87 0-1.61.15-2.23.44-.62.29-1.21.62-1.76.99-.55.36-1.11.69-1.66.99-.55.29-1.18.44-1.87.44-.76 0-1.41-.24-1.95-.73-.54-.48-.8-1.11-.8-1.87 0-1.14.34-2.18 1.01-3.11.67-.93 1.52-1.72 2.54-2.36 1.02-.64 2.13-1.14 3.32-1.5 1.19-.36 2.29-.54 3.29-.54.93 0 1.87.11 2.8.34.93.22 1.82.57 2.65 1.04.83.47 1.58 1.04 2.26 1.71a8.02 8.02 0 0 1 1.63 2.36c.62 1.28 1.12 2.64 1.5 4.07.38 1.44.67 2.9.88 4.41.21 1.5.35 3.01.41 4.51.07 1.51.11 2.97.11 4.39zm-8.3-1.66-.16-3.53c-.07 0-.14-.01-.21-.03a.761.761 0 0 0-.21-.03c-.45 0-1.01.11-1.69.34-.67.22-1.32.54-1.95.93-.62.4-1.15.84-1.58 1.32-.43.48-.65.99-.65 1.5 0 .48.17.81.52.99.35.17.74.26 1.19.26.76 0 1.57-.2 2.44-.6.88-.38 1.64-.77 2.3-1.15zM2109.69 2211.57c-2.46 0-4.37-.32-5.73-.96s-2.39-1.55-3.06-2.72c-.67-1.18-1.08-2.59-1.22-4.25a66.51 66.51 0 0 1-.21-5.55c0-1.63.05-3.26.16-4.9.1-1.64.26-3.4.47-5.27-.48 0-.86.01-1.14.03-.28.02-.5.03-.67.03-1.11 0-2.07-.24-2.88-.73-.81-.48-1.22-1.23-1.22-2.23 0-.62.23-1.18.7-1.66s1.06-.9 1.79-1.25 1.51-.62 2.36-.83 1.65-.35 2.41-.42c0-.97.07-2.04.21-3.22.14-1.18.39-2.27.75-3.29s.86-1.88 1.48-2.57 1.42-1.04 2.39-1.04c.55 0 1.05.16 1.48.49.43.33.79.74 1.06 1.24.28.5.48 1.06.62 1.69.14.62.21 1.23.21 1.82 0 .69-.05 1.4-.16 2.13-.1.73-.29 1.63-.57 2.7.59-.07.99-.11 1.19-.13.21-.02.4-.03.57-.03.59 0 1.2.05 1.84.16.64.1 1.23.28 1.76.52.54.24.98.56 1.32.96.35.4.52.87.52 1.43 0 .62-.25 1.18-.75 1.66s-1.13.9-1.89 1.24c-.76.35-1.57.61-2.44.8-.86.19-1.68.32-2.44.39-.21 1.42-.35 2.72-.44 3.92-.09 1.19-.18 2.4-.29 3.61-.07.59-.13 1.18-.18 1.79-.05.6-.08 1.22-.08 1.84 0 .45.02.98.05 1.58.03.6.16 1.18.36 1.74.21.55.54 1.03.99 1.43.45.4 1.07.6 1.87.6.48 0 .99-.04 1.5-.13.52-.09 1.04-.13 1.56-.13.9 0 1.55.31 1.95.93s.6 1.42.6 2.39c0 .73-.22 1.36-.65 1.89-.43.54-.98.97-1.63 1.3-.66.33-1.39.58-2.2.75-.82.17-1.59.25-2.32.25zM2129.16 2191.14v1.53c0 .54-.02 1.05-.05 1.53-.03.59-.05 1.37-.05 2.36 0 .99-.03 2.05-.1 3.19-.07 1.14-.18 2.3-.34 3.48-.16 1.18-.41 2.25-.75 3.22-.35.97-.8 1.76-1.37 2.36-.57.61-1.29.93-2.15.96-.66.03-1.21-.22-1.66-.78-.45-.55-.82-1.27-1.12-2.15-.29-.88-.51-1.87-.65-2.96s-.24-2.14-.31-3.16-.1-1.96-.1-2.83V2193.61c0-1.02.03-2.12.1-3.29.07-1.18.2-2.37.39-3.58s.47-2.32.83-3.32.84-1.82 1.43-2.44c.59-.62 1.33-.93 2.23-.93.93 0 1.64.47 2.13 1.4.48.93.85 2.02 1.09 3.27.24 1.25.38 2.48.42 3.71.01 1.21.03 2.12.03 2.71zm-.42-17.64c0 .48-.13.92-.39 1.3s-.6.72-1.01 1.01c-.42.29-.86.52-1.35.67-.48.16-.93.23-1.35.23-.69 0-1.3-.17-1.82-.52s-.78-.88-.78-1.61c0-.52.13-.98.39-1.37s.58-.73.96-.99.81-.46 1.3-.6c.48-.14.95-.21 1.4-.21.66 0 1.26.16 1.82.47.55.32.83.86.83 1.62zM2145.35 2211.21c-1.76 0-3.3-.47-4.62-1.4-1.31-.93-2.42-2.13-3.32-3.58-.9-1.45-1.57-3.07-2.02-4.85-.45-1.78-.67-3.54-.67-5.27 0-1.83.22-3.73.67-5.68.45-1.95 1.14-3.73 2.07-5.34a12.23 12.23 0 0 1 3.58-3.94c1.45-1.02 3.18-1.53 5.19-1.53 1.94 0 3.59.53 4.95 1.58 1.37 1.05 2.46 2.37 3.29 3.94.83 1.57 1.42 3.29 1.76 5.16.35 1.87.47 3.63.36 5.29-.1 1.83-.39 3.68-.86 5.55-.47 1.87-1.15 3.54-2.05 5.03-.9 1.49-2.04 2.7-3.42 3.63-1.36.94-3 1.41-4.91 1.41zm.52-23.45c-.52 0-.98.28-1.37.83-.4.55-.73 1.23-.99 2.02-.26.8-.46 1.63-.6 2.52-.14.88-.21 1.65-.21 2.31 0 .83.08 1.73.23 2.7.16.97.37 1.86.65 2.67s.61 1.49 1.01 2.02c.4.54.86.8 1.37.8.55 0 1.03-.26 1.43-.78.4-.52.72-1.18.96-1.97s.42-1.67.52-2.62c.1-.95.16-1.84.16-2.67 0-.76-.07-1.6-.21-2.52-.14-.92-.34-1.77-.6-2.57s-.59-1.45-.99-1.97c-.38-.51-.84-.77-1.36-.77zM2176.64 2211.16c-.59 0-1.05-.27-1.4-.8-.35-.54-.6-1.15-.78-1.84-.17-.69-.29-1.39-.34-2.1-.05-.71-.08-1.25-.08-1.63 0-1.04.06-2.08.18-3.11.12-1.04.26-2.08.42-3.11.16-1.04.29-2.08.42-3.11.12-1.04.18-2.07.18-3.11 0-.42-.02-.86-.05-1.35-.03-.48-.11-.94-.23-1.37-.12-.43-.32-.79-.6-1.06-.28-.28-.64-.42-1.09-.42-.31 0-.66.25-1.04.75s-.73 1.07-1.06 1.71c-.33.64-.6 1.28-.83 1.92-.22.64-.34 1.12-.34 1.43 0 .76.01 1.53.03 2.31.02.78.03 1.56.03 2.36v3.01c-.03.62-.09 1.26-.16 1.92-.07.66-.17 1.3-.31 1.92-.1.62-.26 1.22-.47 1.79-.21.57-.48 1.07-.8 1.5-.33.43-.72.79-1.17 1.06-.45.28-.99.42-1.61.42-.69 0-1.26-.22-1.71-.67-.45-.45-.81-1.03-1.09-1.74s-.48-1.5-.6-2.39c-.12-.88-.21-1.75-.26-2.59s-.07-1.63-.05-2.33c.02-.71.03-1.27.03-1.69v-2.44c0-1.31-.03-2.61-.08-3.89a98.377 98.377 0 0 1-.05-6.49c.02-1.08.15-2.12.39-3.14.24-1.02.64-1.89 1.19-2.62.55-.73 1.37-1.09 2.44-1.09.48 0 .92.16 1.3.47.38.31.72.69 1.01 1.14.29.45.54.93.73 1.45.19.52.34.97.44 1.35.35-.48.75-.95 1.22-1.4.47-.45.99-.85 1.58-1.19.59-.35 1.25-.62 1.97-.83.73-.21 1.56-.31 2.49-.31 1.76 0 3.14.42 4.12 1.27.99.85 1.71 1.9 2.18 3.16.47 1.26.75 2.62.86 4.07.1 1.45.16 2.77.16 3.94 0 .59-.05 1.46-.16 2.62-.1 1.16-.27 2.44-.49 3.84-.23 1.4-.53 2.84-.91 4.31-.38 1.47-.83 2.81-1.35 4.02-.52 1.21-1.13 2.2-1.84 2.96-.71.74-1.52 1.12-2.42 1.12zM2211.1 2200.47c0 1.18-.37 2.33-1.12 3.45-.74 1.12-1.68 2.13-2.8 3.01-1.12.88-2.33 1.59-3.6 2.13-1.28.54-2.46.8-3.53.8-1.83 0-3.47-.46-4.9-1.37a12.41 12.41 0 0 1-3.61-3.5c-.97-1.42-1.7-2.98-2.2-4.69-.5-1.71-.75-3.38-.75-5.01 0-1.73.24-3.58.73-5.55.48-1.97 1.22-3.79 2.2-5.45.99-1.66 2.23-3.04 3.74-4.15 1.5-1.11 3.29-1.66 5.37-1.66 1.18 0 2.3.2 3.37.6a8.37 8.37 0 0 1 4.72 4.28c.48 1 .73 2.13.73 3.37 0 1.63-.35 3.15-1.04 4.57-.69 1.42-1.61 2.65-2.75 3.68a14.113 14.113 0 0 1-3.94 2.52c-1.49.64-3.01.99-4.56 1.06.14 1 .54 1.73 1.22 2.18.67.45 1.48.67 2.41.67.69 0 1.37-.17 2.02-.52.66-.35 1.3-.73 1.92-1.17.62-.43 1.24-.82 1.84-1.17.6-.35 1.22-.52 1.84-.52.69 0 1.31.23 1.87.67.54.46.82 1.05.82 1.77zm-8.4-12.71c0-.45-.12-.92-.36-1.4-.24-.48-.62-.73-1.14-.73-.76 0-1.4.2-1.92.6-.52.4-.95.9-1.3 1.5-.35.61-.61 1.25-.8 1.95-.19.69-.3 1.33-.34 1.92.48-.1 1.06-.24 1.74-.42.67-.17 1.31-.41 1.92-.7.6-.29 1.12-.67 1.56-1.11.42-.45.64-.98.64-1.61zM2233.83 2190.31c-.48.03-.9-.01-1.25-.13-.35-.12-.69-.25-1.04-.39-.31-.14-.62-.27-.93-.39-.31-.12-.66-.16-1.04-.13-.69.03-1.31.23-1.84.57-.54.35-1.02.78-1.45 1.3-.43.52-.8 1.1-1.12 1.74-.31.64-.55 1.27-.73 1.89-.1.42-.18 1.05-.23 1.89-.05.85-.08 1.75-.08 2.72-.03 1-.05 1.95-.05 2.85 0 .9-.03 1.61-.1 2.13-.03.55-.12 1.2-.26 1.95-.14.74-.35 1.44-.65 2.1-.29.66-.68 1.21-1.17 1.66-.48.45-1.11.67-1.87.67-.59 0-1.1-.17-1.53-.52-.43-.35-.8-.8-1.09-1.37-.29-.57-.54-1.24-.73-2-.19-.76-.34-1.54-.44-2.33-.1-.83-.18-1.66-.23-2.49-.05-.83-.09-1.62-.1-2.36-.02-.74-.02-1.43 0-2.05.02-.62.03-1.12.03-1.5-.03-1.21-.1-2.43-.18-3.66-.09-1.23-.13-2.45-.13-3.66 0-.76.03-1.61.1-2.54.07-.93.26-1.81.57-2.62.31-.81.77-1.5 1.38-2.05.6-.55 1.44-.83 2.52-.83.59 0 1.09.19 1.5.57.42.38.75.85 1.01 1.4.26.55.46 1.14.6 1.76.14.62.22 1.19.26 1.71.83-1.35 1.76-2.45 2.8-3.29 1.04-.85 2.39-1.31 4.05-1.37.83-.03 1.65.04 2.46.23s1.56.5 2.23.93c.67.43 1.23.99 1.66 1.69.43.69.67 1.5.7 2.44.07 1.11-.26 1.95-.99 2.54-.72.59-1.6.9-2.64.94zM2252.15 2224.8c-.83 0-1.77-.13-2.83-.39a12.99 12.99 0 0 1-2.98-1.12c-.93-.48-1.72-1.07-2.36-1.76-.64-.69-.96-1.49-.96-2.39 0-.35.09-.69.26-1.04.17-.35.41-.65.7-.91s.61-.47.96-.62c.35-.16.71-.23 1.09-.23.42 0 .82.06 1.22.18s.8.27 1.22.44c.45.17.89.33 1.32.47.43.14.89.21 1.37.21.86 0 1.62-.29 2.26-.88.64-.59 1.18-1.36 1.63-2.31.45-.95.81-2.01 1.09-3.16.28-1.16.49-2.31.65-3.45.16-1.14.27-2.21.34-3.22.07-1 .12-1.82.16-2.44-1.21 1.83-2.41 3.24-3.61 4.23s-2.65 1.48-4.38 1.48c-1.31 0-2.46-.28-3.45-.83a8.23 8.23 0 0 1-2.52-2.18c-.69-.9-1.26-1.93-1.71-3.09-.45-1.16-.79-2.36-1.01-3.61s-.37-2.46-.44-3.66a25.75 25.75 0 0 1 0-3.29c.03-.76.13-1.76.29-2.98.16-1.23.41-2.43.75-3.61.35-1.18.83-2.17 1.45-2.98s1.44-1.18 2.44-1.12c.66.03 1.19.32 1.61.86.42.54.75 1.2 1.01 2s.45 1.67.57 2.62c.12.95.2 1.89.23 2.83.03.93.04 1.79.03 2.57s-.03 1.37-.03 1.79c0 .59.02 1.18.05 1.76.03.59.16 1.12.36 1.58.21.47.53.84.96 1.12.43.28 1.05.42 1.84.42.9 0 1.62-.23 2.15-.67.54-.45.93-1.01 1.19-1.69.26-.67.42-1.4.49-2.18.07-.78.1-1.51.1-2.2v-1.76c0-.69.01-1.42.03-2.18s.09-1.51.21-2.26c.12-.74.31-1.42.57-2.02.26-.61.61-1.1 1.04-1.48.43-.38.99-.57 1.69-.57.86 0 1.61.34 2.23 1.01.62.68 1.15 1.56 1.58 2.65.43 1.09.78 2.29 1.04 3.6s.46 2.62.6 3.92c.14 1.3.23 2.49.28 3.58.05 1.09.08 1.95.08 2.57 0 1.45-.05 3.1-.16 4.95-.1 1.85-.3 3.75-.6 5.71-.29 1.95-.73 3.87-1.32 5.76-.59 1.88-1.36 3.57-2.31 5.06-.95 1.49-2.12 2.68-3.5 3.58-1.37.88-3.03 1.33-4.97 1.33z" fill="#3a3d49" class="color493a41 svgShape"></path>
  </g>
  <path d="m2439.16 1929.33 67.4-50.15v510.63l-67.4 56.72z" fill="#eaecef" class="coloreaefee svgShape"></path>
  <path d="M1671.2 2039.56v48.58h717.81l50.15-158.81z" opacity=".15" fill="#3a3d49" class="color493a41 svgShape"></path>
  <path d="M2374.03 2060.98h-767.96l65.13-131.65h767.96z" fill="#c9ccd3" class="colord3c9cf svgShape"></path>
  <path d="m2439.16 1929.33 39.18 102.65 27.43-10.18v-41.14z" opacity=".15" fill="#3a3d49" class="color493a41 svgShape"></path>
  <path d="m2439.16 1929.33 77.58 114.41 71.31-65.14-81.49-99.42z" fill="#c9ccd3" class="colord3c9cf svgShape"></path>
  <path d="M1534.96 1852s92.32 573.25-221.61 535.81C999.42 2350.36 1534.96 1852 1534.96 1852z" fill="#3a3d49" opacity=".5" class="color493a41 svgShape"></path>
  <path d="M1222.57 2375.97c-73.52-8.81-135.39-59.42-174.59-141.61-37.47-78.58-50.04-177.67-35.9-279.37 14.04-100.98 52.96-194 109.86-262.74 58.9-71.14 130.81-108.97 203.08-106.22 73.35 2.79 137.61 46.99 180.6 125.38 42.41 77.32 59.04 178.92 46.24 285.77-12.9 107.66-54.03 207-115.49 278.8-62.99 73.57-139.14 108.94-213.8 99.99z" fill="#c9ccd3" class="colord3c9cf svgShape"></path>
  <path d="M1533.58 1995.76c-26.03 216.04-166.14 379.6-308.75 362.78-138.55-16.35-224.71-197.46-196.35-402.26 27.95-201.88 158.07-359.15 294.39-353.72 140.21 5.57 236.35 180.4 210.71 393.2z" opacity=".15" fill="#3a3d49" class="color493a41 svgShape"></path>
  <path d="M1225.96 2349.83c-133.63-15.65-216.89-192.88-189.25-392.91 27.25-197.24 153.57-351.45 285.09-346.11 135.15 5.49 227.75 176.69 202.68 384.23-25.44 210.63-161.11 370.88-298.52 354.79z" fill="#eaecef" class="coloreaefee svgShape"></path>
  <path d="M1521.45 2016.68a564.774 564.774 0 0 1-13.88 63.47c-58.73-23.97-118.91-66.51-120.91-60.29-1.77 5.5 111.49 90.6 109.54 96.07a514.94 514.94 0 0 1-11.97 30.49l-415.12-314.98c6.12-15.76 12.89-30.92 20.24-45.4 1.96-3.87 82.6 61.49 84.67 57.68 1.03-1.9-76.61-72.88-75.58-74.73 8.7-15.53 18.09-30.17 28.07-43.81l394.94 291.5zM1469.05 2178.56a440.375 440.375 0 0 1-19.66 34.37L1046.9 1902.6c3.11-13.17 6.71-26.05 10.69-38.6l411.46 314.56zM1327.21 1823.44l185.32 150.36 3.93-32.45zM1059.71 1939.32l219.7 176.53-224.88-138.87c0 .01-1.83-8.36 5.18-37.66z" fill="#ffffff" class="colorffffff svgShape"></path>
  <path d="M863.93 2092.41h480.26v323.44H863.93z" fill="#d7dbe2" class="colore2d7de svgShape"></path>
  <g opacity=".5" fill="#000000" class="color000000 svgShape">
    <path d="M926.45 2391.89h-31.9v-23.66h31.9v23.66zm-29.71-2.19h27.52v-19.28h-27.52v19.28z" fill="#3a3d49" class="color493a41 svgShape"></path>
    <path d="M911.23 2380.01h9.2s-1.55-7.73-9.92-7.73c-7.36 0-9.92 7.73-9.92 7.73h9.2v6.06h-2.16v1.78h5.7v-1.78h-2.09v-6.06zM963.04 2391.89h-31.9v-23.66h31.9v23.66zm-29.71-2.19h27.52v-19.28h-27.52v19.28z" fill="#3a3d49" class="color493a41 svgShape"></path>
    <path d="M950.24 2387.84h-7.48v-7.48h7.48v7.48zm-5.29-2.18h3.1v-3.11h-3.1v3.11zM958.11 2387.84h-7.48v-7.48h7.48v7.48zm-5.29-2.18h3.11v-3.11h-3.11v3.11zM999.3 2391.89h-31.9v-23.66h31.9v23.66zm-29.7-2.19h27.52v-19.28H969.6v19.28z" fill="#3a3d49" class="color493a41 svgShape"></path>
    <path d="M987.41 2374.26v4.3c0 2.19-1.78 3.97-3.97 3.97-2.19 0-3.97-1.78-3.97-3.97v-4.3h-3.63v4.63c0 4.2 3.4 7.6 7.6 7.6 4.2 0 7.6-3.4 7.6-7.6v-4.63h-3.63z" fill="#3a3d49" class="color493a41 svgShape"></path>
  </g>
  <path d="M1076.2 2090.12v64.69l8.83-5.88 2.77 5.88 3.11-5.06 6.37 5.06 4.41-4.74 3.75 4.74 6.87-4.25 4.41 4.25 9.96-5.88 5.23 5.88v-64.69zM1131.91 2418.84v-64.68l-8.82 5.88-2.78-5.88-3.1 5.06-6.37-5.06-4.42 4.73-3.75-4.73-6.86 4.24-4.41-4.24-9.97 5.88-5.23-5.88v64.68z" fill="#c9ccd3" class="colord3c9cf svgShape"></path>
  <path d="M1197.17 2129h115.65v64.69h-115.65zM896.74 2208.72h416.08v98.01H896.74z" fill="#eaecef" class="coloreaefee svgShape"></path>
  <g opacity=".35" fill="#000000" class="color000000 svgShape">
    <path d="M1052.29 2249.53c0 .56-.07 1.15-.2 1.77-.13.62-.35 1.19-.64 1.72-.29.53-.68.97-1.15 1.33-.47.35-1.05.53-1.72.53-1.03 0-1.8-.18-2.3-.55s-.86-.83-1.06-1.39c-.21-.56-.32-1.16-.33-1.79-.01-.63-.04-1.23-.07-1.79-.03-.56-.13-1.02-.29-1.39-.16-.37-.51-.55-1.04-.55-.59 0-1.11.21-1.55.64-.44.43-.83.98-1.15 1.66-.32.68-.6 1.44-.82 2.3-.22.85-.4 1.7-.53 2.54-.13.84-.23 1.64-.29 2.39-.06.75-.09 1.36-.09 1.84 0 .62.02 1.36.07 2.21.04.85.18 1.67.42 2.45.24.78.59 1.44 1.06 1.99.47.55 1.15.82 2.03.82.59 0 1.16-.07 1.72-.22s1.12-.32 1.68-.51c.56-.19 1.13-.36 1.7-.51.58-.15 1.16-.22 1.75-.22.68 0 1.24.27 1.68.82.44.54.66 1.16.66 1.83 0 .94-.3 1.82-.88 2.63-.59.81-1.32 1.53-2.19 2.15-.87.62-1.81 1.11-2.83 1.46-1.02.35-1.94.53-2.76.53-2.12 0-3.92-.48-5.4-1.44-1.47-.96-2.67-2.2-3.58-3.71-.91-1.52-1.57-3.21-1.97-5.09-.4-1.87-.6-3.74-.6-5.59 0-1.24.12-2.59.35-4.07.24-1.47.59-2.96 1.06-4.44.47-1.49 1.07-2.93 1.79-4.31.72-1.39 1.57-2.61 2.54-3.67s2.07-1.92 3.29-2.57c1.22-.65 2.57-.97 4.05-.97 1.44 0 2.65.36 3.63 1.08.97.72 1.75 1.64 2.34 2.74.59 1.11 1 2.31 1.24 3.63.26 1.29.38 2.54.38 3.72zM1064.59 2245.24c0 1.59-.07 3.19-.2 4.8-.13 1.61-.2 3.22-.2 4.84 0 2.09.07 4.19.2 6.28s.2 4.2.2 6.32a20 20 0 0 1-.09 1.79c-.06.66-.2 1.28-.42 1.83a3.57 3.57 0 0 1-1 1.42c-.44.38-1.03.57-1.77.57-.71 0-1.32-.35-1.84-1.04-.52-.69-.94-1.58-1.28-2.65-.34-1.08-.62-2.28-.84-3.6-.22-1.33-.38-2.62-.49-3.87-.1-1.25-.18-2.4-.22-3.45-.04-1.05-.07-1.82-.07-2.32 0-.56.02-1.37.07-2.43.04-1.06.14-2.21.29-3.45.15-1.24.35-2.5.6-3.78.25-1.28.58-2.45 1-3.49.41-1.05.91-1.9 1.48-2.56.58-.66 1.26-.99 2.06-.99.65 0 1.14.21 1.48.64.34.43.58.94.73 1.55.15.6.24 1.24.27 1.9.03.65.04 1.22.04 1.69zM1078.62 2273.32c-1.5 0-2.82-.4-3.94-1.19-1.12-.8-2.06-1.81-2.83-3.05-.77-1.24-1.34-2.62-1.72-4.14-.38-1.52-.57-3.01-.57-4.49 0-1.56.19-3.18.57-4.84.38-1.67.97-3.18 1.77-4.55.8-1.37 1.81-2.49 3.05-3.36 1.24-.87 2.71-1.3 4.42-1.3 1.65 0 3.06.45 4.22 1.35 1.16.9 2.1 2.02 2.81 3.36.71 1.34 1.21 2.81 1.5 4.4.29 1.59.4 3.1.31 4.51-.09 1.56-.33 3.14-.73 4.73-.4 1.59-.98 3.02-1.75 4.29a9.855 9.855 0 0 1-2.92 3.1c-1.17.78-2.57 1.18-4.19 1.18zm.45-19.99c-.44 0-.83.24-1.17.71-.34.47-.62 1.05-.84 1.72-.22.68-.39 1.39-.51 2.14-.12.75-.18 1.41-.18 1.97 0 .71.07 1.47.2 2.3.13.83.32 1.58.55 2.28.24.69.52 1.27.86 1.72.34.46.73.69 1.17.69.47 0 .88-.22 1.22-.66.34-.44.61-1 .82-1.68.21-.68.35-1.42.44-2.23.09-.81.13-1.57.13-2.28 0-.65-.06-1.36-.18-2.14s-.29-1.51-.51-2.19c-.22-.68-.5-1.24-.84-1.68-.33-.45-.72-.67-1.16-.67zM1103.04 2273.63c-2.09 0-3.72-.27-4.89-.82-1.16-.54-2.03-1.32-2.61-2.32-.57-1-.92-2.21-1.04-3.63-.12-1.41-.18-2.99-.18-4.73 0-1.39.04-2.78.13-4.18s.22-2.9.4-4.49c-.41 0-.74.01-.97.02-.24.01-.43.02-.57.02-.94 0-1.76-.21-2.45-.62-.69-.41-1.04-1.05-1.04-1.9 0-.53.2-1 .6-1.42.4-.41.91-.77 1.53-1.06.62-.29 1.29-.53 2.01-.71.72-.18 1.41-.3 2.06-.35 0-.83.06-1.74.18-2.74.12-1 .33-1.94.64-2.81.31-.87.73-1.6 1.26-2.19.53-.59 1.21-.88 2.03-.88.47 0 .89.14 1.26.42.37.28.67.63.91 1.06.24.43.41.91.53 1.44.12.53.18 1.05.18 1.55 0 .59-.04 1.19-.13 1.81-.09.62-.25 1.39-.49 2.3.5-.06.84-.1 1.02-.11.18-.01.34-.02.49-.02.5 0 1.02.04 1.57.13.54.09 1.05.24 1.5.44.46.21.83.48 1.13.82.29.34.44.74.44 1.22 0 .53-.21 1-.64 1.42-.43.41-.97.77-1.61 1.06-.65.29-1.34.52-2.08.69-.74.16-1.43.27-2.08.33-.18 1.21-.3 2.32-.38 3.34-.07 1.02-.15 2.04-.24 3.07-.06.5-.11 1.01-.16 1.53-.04.52-.07 1.04-.07 1.57 0 .38.01.83.04 1.35.03.52.13 1.01.31 1.48s.46.88.84 1.22c.38.34.91.51 1.59.51.41 0 .84-.04 1.28-.11.44-.07.88-.11 1.33-.11.77 0 1.32.27 1.66.8.34.53.51 1.21.51 2.03 0 .62-.18 1.16-.55 1.61-.37.46-.83.83-1.39 1.11-.56.28-1.19.49-1.88.64-.7.14-1.36.21-1.98.21zM1132.06 2260.58c0 .5-.01 1.25-.02 2.23-.02.99-.06 2.02-.13 3.1s-.17 2.09-.29 3.05c-.12.96-.27 1.66-.44 2.1-.24.56-.55 1.05-.93 1.46-.38.41-.9.62-1.55.62-1 0-1.72-.4-2.17-1.19-.44-.8-.74-1.78-.88-2.96a26.11 26.11 0 0 1-.18-3.85c.03-1.39.01-2.67-.04-3.85-.06-1.18-.22-2.17-.49-2.96-.27-.8-.75-1.19-1.46-1.19-.97 0-1.72.15-2.23.46-.52.31-.88.71-1.11 1.22-.22.5-.35 1.08-.4 1.72-.04.65-.1 1.33-.15 2.03-.06.68-.1 1.59-.13 2.74-.03 1.15-.16 2.28-.4 3.4-.24 1.12-.63 2.09-1.17 2.9-.55.81-1.35 1.22-2.41 1.22-.65 0-1.17-.25-1.57-.75-.4-.5-.71-1.15-.95-1.95s-.41-1.68-.51-2.65-.16-1.92-.18-2.85c-.02-.93-.02-1.78 0-2.54.01-.77.02-1.34.02-1.72 0-.59.02-1.56.07-2.92.04-1.36.14-2.87.29-4.53.15-1.67.34-3.38.58-5.15.24-1.77.55-3.38.93-4.84s.85-2.65 1.39-3.56c.55-.91 1.19-1.36 1.92-1.33.47.03.88.24 1.22.62.34.38.62.88.84 1.48.22.6.41 1.26.55 1.97.15.71.26 1.41.33 2.1.07.69.12 1.33.13 1.92.02.59.02 1.05.02 1.37a58.81 58.81 0 0 1-.17 4.6c.68-.91 1.59-1.67 2.72-2.26 1.13-.59 2.28-.88 3.43-.88 1.47 0 2.59.41 3.34 1.22s1.29 1.81 1.61 3.01c.32 1.19.5 2.46.53 3.8.03 1.33.04 2.53.04 3.59zM1155.99 2264.17c0 1-.32 1.98-.95 2.94-.63.96-1.43 1.81-2.39 2.56-.96.75-1.98 1.36-3.07 1.81-1.09.46-2.09.69-3.01.69-1.56 0-2.95-.39-4.18-1.17-1.22-.78-2.25-1.78-3.07-2.99-.82-1.21-1.45-2.54-1.88-4-.43-1.46-.64-2.88-.64-4.27 0-1.47.21-3.05.62-4.73.41-1.68 1.04-3.23 1.88-4.64.84-1.41 1.9-2.59 3.18-3.54 1.28-.94 2.81-1.42 4.58-1.42 1 0 1.96.17 2.87.51.91.34 1.71.82 2.39 1.44.68.62 1.22 1.36 1.64 2.21.41.86.62 1.81.62 2.87 0 1.39-.29 2.68-.88 3.89-.59 1.21-1.37 2.26-2.34 3.14-.97.88-2.09 1.6-3.36 2.15-1.27.55-2.56.85-3.89.91.12.85.46 1.47 1.04 1.86.57.38 1.26.57 2.06.57.59 0 1.16-.15 1.72-.44.56-.29 1.11-.63 1.64-.99.53-.37 1.05-.7 1.57-1 .52-.29 1.04-.44 1.57-.44.59 0 1.12.19 1.59.58.46.38.69.88.69 1.5zm-7.16-10.84c0-.38-.1-.78-.31-1.19-.21-.41-.53-.62-.97-.62-.65 0-1.19.17-1.64.51s-.81.77-1.11 1.28c-.3.52-.52 1.07-.69 1.66a8.23 8.23 0 0 0-.29 1.64c.41-.09.91-.21 1.48-.35.57-.15 1.12-.35 1.64-.6.52-.25.96-.57 1.33-.95.37-.39.56-.85.56-1.38zM1172.98 2247.71c0 .86-.29 1.49-.86 1.9-.57.41-1.22.8-1.92 1.17-.71.37-1.35.8-1.92 1.31-.57.5-.86 1.25-.86 2.26 0 .53.13.99.38 1.37.25.38.56.73.93 1.04s.77.63 1.22.95c.44.32.85.69 1.22 1.11.37.41.68.91.93 1.5s.38 1.31.38 2.17c0 1.24-.32 2.45-.95 3.65a11.95 11.95 0 0 1-2.43 3.18c-.99.93-2.1 1.67-3.34 2.23-1.24.56-2.46.84-3.67.84-.5 0-1-.04-1.5-.11s-.95-.21-1.35-.42c-.4-.21-.73-.49-1-.86s-.4-.85-.4-1.44c0-.83.16-1.47.49-1.92a3.4 3.4 0 0 1 1.24-1.08c.5-.26 1.04-.47 1.61-.62.57-.15 1.11-.33 1.61-.55.5-.22.91-.51 1.24-.86.32-.35.49-.86.49-1.5 0-.62-.24-1.26-.73-1.92-.49-.66-1.02-1.37-1.61-2.12a18.38 18.38 0 0 1-1.61-2.41c-.49-.85-.73-1.8-.73-2.83 0-1.27.26-2.44.77-3.52a9.18 9.18 0 0 1 2.08-2.81c.87-.8 1.87-1.42 2.99-1.88 1.12-.46 2.3-.69 3.54-.69.47 0 .94.04 1.39.13.46.09.86.24 1.22.46.35.22.64.52.86.88.18.37.29.83.29 1.39z" fill="#3a3d49" class="color493a41 svgShape"></path>
  </g>
  <path d="m1969.75 1123.61 252.83-155.28s74.92-4.56 88.17-15.32c13.26-10.76 35.8-25.78 35.8-25.78h-59.88l-314.61 70.71-2.31 125.67z" fill="#f2d58b" class="colorf2aa8b svgShape"></path>
  <path d="m1680.56 1279.3 138.54 1186.44 103.41.95 87.79-1159.22z" fill="#232633" class="color33232a svgShape"></path>
  <path d="M1799.08 2280.83c9.28-19.47 13.07-41.08 11.83-62.57-2.75-47.51-28.72-90.1-31.63-137.65-1.66-27.15 4.25-52.44 14.69-77.33 5.55-13.23 11.44-26.34 15.48-40.13 4.3-14.69 5.67-28.84 4.25-44.06-5.11-54.65-35.06-103.44-40.45-158.1-1.99-20.15-.21-40.86 1.51-60.98 1.89-22.23 4.68-44.38 8.32-66.39 7.19-43.44 16.73-89.56 38.81-128.2 9.76-17.07 23.01-30.23 39.76-40.54 20.52-12.64 41.91-22.35 58.57-40.4 10.88-11.79 19.76-25.67 28.18-39.27a428.829 428.829 0 0 0 23.29-42.88c5.67-12.02 10.58-24.36 15.06-36.86l-306.19-26.16 117.24 1003.98c.4-.84.88-1.63 1.28-2.46z" opacity=".15" fill="#000000" class="color000000 svgShape"></path>
  <path d="M1895.53 2548.13s18.26-100.56 3.92-106.56c-14.34-6-47.36-6.77-54.55.31-7.19 7.08 1.56 112.43 15.1 125.39 13.53 12.96 29.72 7.47 35.53-19.14z" fill="#ffe49f" class="colorffbf9f svgShape"></path>
  <path d="M1866.01 2527.87c8.3-14.37 15.78-29.19 23.01-44.13 3.5-7.23 6.91-14.46 10.87-21.46 1.53-2.7 3.06-5.4 4.57-8.11 2.97 28.4-8.93 93.96-8.93 93.96-5.81 26.61-22 32.1-35.53 19.14-2.45-2.34-4.73-7.74-6.8-15 4.06-8.24 8.2-16.43 12.81-24.4z" fill="#efd48f" class="colorefac8f svgShape"></path>
  <path d="M1887.64 2486.91c5.97-1.54 11.75-3.71 17.68-5.41 3.52 44.66-8.98 67.49-8.98 67.49-6.07 27.83-23.01 33.57-37.16 20.01-8.27-7.92-14.83-48.83-17.35-82.95 13.41 6.69 32.88 4.21 45.81.86z" fill="#bdd2fd" class="colorced9ef svgShape"></path>
  <path d="M1861.58 2650.73s176.24-15.69 169.29-35.92c-6.95-20.23-10.93-15.78-10.93-15.78s-187.04 21.06-186.33 33.71c.7 12.64-6.64 23.1 27.97 17.99z" fill="#0039a9" class="color00a99d svgShape"></path>
  <path d="M2027.57 2607.85s-178.14 43.03-192.47 32.73c-14.32-10.3-.95-125.52 9.81-126.91 10.76-1.4 46.85-3.68 48.77-2.47 1.92 1.21-5.67 44.99 21.8 63.55 27.48 18.55 55.17 12.77 56.7 11.63 1.51-1.15 49.94-14.44 55.39 21.47z" fill="#232633" class="color33232a svgShape"></path>
  <path d="M1908.39 2514.34c6.68 5.3 2.02 30.6 3.05 49.06.34-.29.59-.65.97-.91 9.16-6.33 56.75 26.69 56.75 26.69s-37.81-.03-50.86-1.91c-54.77-7.86-19.87-80.83-9.91-72.93z" fill="#3a3d49" class="color493a41 svgShape"></path>
  <path d="M1933.41 2435.18c-.61 15.8 3.73 36.59-7.38 37.32-11.12.73-106.57-1.33-109.81-3.43-3.24-2.1-16-44.87-5.72-41.38 10.28 3.5 123.45-6.61 122.91 7.49z" fill="#ffffff" class="colorffffff svgShape"></path>
  <path d="M1718.13 2555.16s17.02-100.78 2.61-106.6c-14.41-5.83-47.44-6.19-54.54.98-7.1 7.17 2.94 112.4 16.63 125.2 13.69 12.78 29.82 7.1 35.3-19.58z" fill="#ffe49f" class="colorffbf9f svgShape"></path>
  <path d="M1688.36 2535.26c8.12-14.47 15.42-29.39 22.47-44.41 3.41-7.27 6.73-14.55 10.61-21.59 1.5-2.72 3-5.44 4.47-8.17 3.32 28.37-7.77 94.06-7.77 94.06-5.48 26.68-21.6 32.37-35.3 19.57-2.48-2.31-4.83-7.68-6.99-14.91 3.96-8.28 8-16.52 12.51-24.55z" fill="#efd48f" class="colorefac8f svgShape"></path>
  <path d="M1709.48 2494.04c5.95-1.62 11.71-3.86 17.61-5.63 4.07 44.61-8.15 67.6-8.15 67.6-5.73 27.9-22.59 33.85-36.91 20.47-8.37-7.82-15.43-48.64-18.37-82.73 13.5 6.52 32.93 3.8 45.82.29z" fill="#bdd2fd" class="colorced9ef svgShape"></path>
  <path d="M1674.48 2653.48s176.7 9.18 172.65-11.82c-4.04-21.01-8.61-17.15-8.61-17.15s-188.15-5.38-189.22 7.24c-1.06 12.62-9.8 21.94 25.18 21.73z" fill="#0039a9" class="color00a99d svgShape"></path>
  <path d="M1844.84 2634.31s-182.42 17.62-195.15 5.41c-12.74-12.21 4.98-118.67 15.83-118.54 10.85.13 58.58-2.82 60.31-1.35 1.73 1.47-11.93 43.75 12.67 65.98 24.6 22.22 52.84 20.38 54.5 19.46 1.67-.91 51.49-7.28 51.84 29.04z" fill="#232633" class="color33232a svgShape"></path>
  <path d="M1739.96 2525.01c5.87 6.19-2.29 30.58-3.86 49.01.38-.24.67-.56 1.09-.77 9.96-4.98 52.44 34.39 52.44 34.39s-37.43-5.33-50.09-9.02c-53.13-15.48-8.33-82.83.42-73.61zM1564.69 1332.5l91.96 1131.96 103.26 5.62 140.12-1154.06z" fill="#3a3d49" class="color493a41 svgShape"></path>
  <path d="M1771.81 2443.74c-.05 15.81 5.03 36.44-6.05 37.56-11.09 1.12-106.55 2.46-109.86.47-3.31-1.99-17.58-44.28-7.18-41.15 10.39 3.14 123.13-10.99 123.09 3.12z" fill="#ffffff" class="colorffffff svgShape"></path>
  <path d="M1742.63 698.83c-111.12 12.56-194.85 234.41-177.94 661.55 0 0 219.06 150.86 462.88 0 0-.01-30.82-690.29-284.94-661.55z" fill="#76a4ff" class="color3fc9bc svgShape"></path>
  <path d="M1626.91 926.35c.26 7.12.45 14.24.64 21.36.36 13.57.68 27.14 1.43 40.7 1.47 26.64 4.77 53.22 12.42 78.85 8.16 27.34 20.73 53.85 36.74 77.45 7.92 11.68 16.84 22.4 26.17 32.96 7.24 8.19 15.15 15.67 25.34 20 18.78 7.98 40.12 3.92 59.6 1.35 13.5-1.78 27.29-2.66 40.89-3.2 12.79-.5 25.63-.21 38.28 1.84 12.9 2.1 25.28 6.1 37.36 11.05 7.63 3.13 15.29 6.73 21.39 12.39 5.36 4.97 9.16 11.3 13.01 17.44 4.71 7.52 9.18 14.49 16.34 19.94 14.84 11.31 34.1 16.58 52.37 18.75 4.03.48 8.2.85 12.44 1.04-5.51-57.51-15.47-138.73-32.79-222.28-28.7 7.15-59.44 6.73-88.41 2.64-43.03-6.08-85.15-20.29-123.72-40.2-37.82-19.52-72.34-45.22-97.75-79.75-14.37-19.53-25.73-41.14-34.53-63.71-4.51-11.55-8.36-23.36-11.71-35.3-2.19-7.81-3.71-15.87-6.14-23.61-4.56 10.7-8.92 22.14-13.06 34.29 3.12 19.29 10.24 37.78 12.66 57.18.8 6.21.8 12.56 1.03 18.82z" opacity=".05" fill="#000000" class="color000000 svgShape"></path>
  <path d="M1711.65 586.99s-33.59 29.69-59.56-4.42.45-45.24.45-45.24-44.8-32.16-3.6-59.79c0 0-15.94-33.43 20.94-54.57 36.89-21.14 56.71 3.65 56.71 3.65s10.88-46.4 54.05-35.79c43.17 10.61 42.77 42.16 42.77 42.16s63.61-6.73 48.88 36.25c0 0 27.48 66.18-20.22 78.25-47.7 12.07-85.69 46.69-140.42 39.5z" fill="#232633" class="color33232a svgShape"></path>
  <path d="m1737.84 623.02-11.85 97.53s47.22 27.53 84.03 6.39l-16.89-102.86-55.29-1.06z" fill="#ffe49f" class="colorffbf9f svgShape"></path>
  <path d="M1784.84 666.52c-3.16-2.91-7.37-3.6-11.52-3.33-4.6.3-9.04 1.74-13.67 1.76-4.11.01-8.21-.74-11.91-2.58-5.74-2.85-9.85-7.84-13.07-13.3l3.16-26.05 55.29 1.06 6.81 41.5c.01-.01-11.09 4.63-15.09.94z" fill="#efd48f" class="colorefac8f svgShape"></path>
  <path d="M1681.71 576.43c1.66-18.34 24.88-11.24 24.88-11.24s-23.56-19.03-10.38-59.11c13.18-40.08 105.29-50.69 143.53-8.14 38.24 42.55 8.07 84.53 8.07 84.53s15.66 28.38-30.4 58.38c-46.06 30.01-54.9 12.51-80-2.95-21.59-13.3-23.44-29.34-23.44-29.34s-35.14-.36-32.26-32.13z" fill="#ffe49f" class="colorffbf9f svgShape"></path>
  <path d="M1832.03 607.76c-11.11 1.88-21.93 5.33-33.2 2.22-4.97-1.37-8.96-4.66-13.67-6.59-5.03-2.06-10.08-2.04-15.32-.8-9.9 2.33-18.94 7.42-29.35 7.33-4.97-.04-9.84-1.14-14-3.92-3.08-2.06-6.16-5.28-9.8-6.53-.73 4.11-1.34 8.24-1.91 12.38 1.72 5.37 6.98 16.42 22.63 26.05 25.1 15.46 33.95 32.96 80 2.95 17.63-11.48 26.2-22.72 30.08-32.23-4.8-2.21-10.38-1.72-15.46-.86zM1863.27 535.04s-17.18-2.2-33.56-32.18c0 0-19.46 1.46-35.2-15.17 0 0-35.83 34.19-55.81 23.15-19.98-11.04-38.39-5.31-26.95 20.26 11.44 25.57 17.09 48.04 5.59 49.01-11.5.96-30.9-32.9-30.9-32.9s-26.18-65.32 65.41-96.11c91.6-30.8 120.8 64.11 111.42 83.94zM1691.06 584.93c-.47 0-.91-.28-1.09-.74-4-10.22 6.23-16.26 6.33-16.32.57-.33 1.27-.13 1.6.43.32.56.13 1.27-.42 1.6-.35.21-8.58 5.11-5.32 13.44.24.6-.06 1.28-.66 1.52-.15.04-.3.07-.44.07z" fill="#232633" class="color33232a svgShape"></path>
  <path d="M1733.96 588.69c-.73 4.34 4 8.76 10.56 9.86 6.56 1.11 12.48-1.51 13.21-5.85.73-4.34-4-8.75-10.56-9.86-6.56-1.11-12.48 1.52-13.21 5.85zM1770.4 629.12c-.73 4.34 4 8.76 10.56 9.86 6.56 1.11 12.48-1.51 13.21-5.85.73-4.34-4-8.75-10.56-9.86-6.56-1.1-12.48 1.52-13.21 5.85zM1808.7 592.56c-.73 4.34 4 8.76 10.56 9.86 6.56 1.11 12.48-1.51 13.21-5.85.73-4.34-4-8.75-10.56-9.86-6.56-1.11-12.47 1.52-13.21 5.85z" fill="#efd48f" class="colorefac8f svgShape"></path>
  <path d="M1790.48 594.57c.64 0 1.26-.09 1.87-.27 3.89-1.13 5.54-5.52 5.6-5.7.2-.55.13-1.15-.19-1.64-6.58-10.11-4.83-23.75-4.82-23.89a1.83 1.83 0 0 0-1.57-2.06c-1.03-.15-1.93.57-2.06 1.57-.08.6-1.85 14.41 4.83 25.52-.53.96-1.51 2.3-2.84 2.68-1.24.35-2.75-.14-4.48-1.46a1.84 1.84 0 0 0-2.57.34c-.62.81-.46 1.96.34 2.57 2.04 1.55 4.01 2.34 5.89 2.34z" fill="#232633" class="color33232a svgShape"></path>
  <path d="M1811.29 618.47s-20.93 9.48-44.38-1.42c-5.32 9.74 22.47 35.11 44.38 1.42z" fill="#eaecef" class="coloreaefee svgShape"></path>
  <path d="M1765.98 557.35c0 5.73-3.15 10.35-7.06 10.35-3.91 0-7.06-4.62-7.06-10.35 0-5.69 3.15-10.35 7.06-10.35 1.73 0 3.33.89 4.58 2.44-1.38.36-2.35 1.56-2.35 2.98 0 1.73 1.38 3.11 3.11 3.11.58 0 1.11-.13 1.55-.44.13.71.17 1.51.17 2.26zM1778.01 540.08s-31.24-1.57-34.39-4.65c-3.14-3.08 6.63-9.57 20.41-6.08 13.77 3.48 17.55 10.62 13.98 10.73zM1825.42 557.35c0 5.73-3.15 10.35-7.06 10.35-3.91 0-7.07-4.62-7.07-10.35 0-5.69 3.15-10.35 7.07-10.35 1.73 0 3.33.89 4.58 2.44-1.38.36-2.35 1.56-2.35 2.98 0 1.73 1.38 3.11 3.11 3.11.58 0 1.11-.13 1.56-.44.12.71.16 1.51.16 2.26zM1837.45 540.08s-31.24-1.57-34.39-4.65c-3.14-3.08 6.63-9.57 20.41-6.08 13.77 3.48 17.55 10.62 13.98 10.73z" fill="#232633" class="color33232a svgShape"></path>
  <path d="M2013.99 590.13h556.84v329.44h-556.84z" fill="#f9b300" class="colorf9c300 svgShape"></path>
  <path d="m2570.83 666.53-556.84-50.18v-26.22h556.84z" opacity=".2" fill="#3a3d49" class="color493a41 svgShape"></path>
  <path d="M2577.38 723.02h-569.94c-10.65 0-19.29-1.01-19.29 9.64h608.52c0-10.65-8.64-9.64-19.29-9.64zM2597.26 590.13h-625.19l53.12-130.84h518.95z" fill="#d69d0d" class="colord6980d svgShape"></path>
  <path d="M2436.01 721.82h84.51v143.87h-84.51z" transform="rotate(-90 2478.263 793.752)" fill="#d69d0d" class="colord6980d svgShape"></path>
  <path d="M2441.54 725.91h73.44v135.68h-73.44z" transform="rotate(-90 2478.262 793.752)" fill="#e8ebf0" class="colore8f0f0 svgShape"></path>
  <path d="m2489.4 757.03 56.7 73.44h-16.84l-28.67-33.11 11.56 33.11h-42.98l-58.75-73.44h37.08l26 36.72-14.44-36.72z" fill="#ebeef4" class="colorf4f2eb svgShape"></path>
  <path d="M2437.45 791.88h81.62v3.74h-81.62z" transform="rotate(-90 2478.262 793.752)" fill="#d69d0d" class="colord6980d svgShape"></path>
  <path d="M2063.13 721.82h84.51v143.87h-84.51z" transform="rotate(-90 2105.388 793.752)" fill="#d69d0d" class="colord6980d svgShape"></path>
  <path d="M2068.67 725.91h73.44v135.68h-73.44z" transform="rotate(-90 2105.388 793.752)" fill="#e8ebf0" class="colore8f0f0 svgShape"></path>
  <path d="m2116.52 757.03 56.71 73.44h-16.84l-28.67-33.11 11.55 33.11h-42.97l-58.75-73.44h37.08l26 36.72-14.45-36.72z" fill="#ebeef4" class="colorf4f2eb svgShape"></path>
  <path d="M2064.58 791.88h81.62v3.74h-81.62z" transform="rotate(-90 2105.388 793.752)" fill="#d69d0d" class="colord6980d svgShape"></path>
  <path d="M2233.77 767.23h117.51v153.91h-117.51z" fill="#d9dbe0" class="colord9e0df svgShape"></path>
  <path d="M2238.51 771.54h108.04v149.59h-108.04z" fill="#e8ebf0" class="colore8f0f0 svgShape"></path>
  <path d="m2346.55 853.75-108.04 59.03v-17.53l48.71-29.84-48.71 12.03V832.7l108.04-61.16v38.6l-54.02 27.07 54.02-15.04z" fill="#ebeef4" class="colorf4f2eb svgShape"></path>
  <path d="M2290.99 768.33h3.08v152.8h-3.08zM2298.01 847.77h8.63v1.42h-8.63zM2277.26 847.77h8.63v1.42h-8.63z" fill="#d9dbe0" class="colord9e0df svgShape"></path>
  <path d="M2070.34 882.51h20.2v8.08h-20.2z" transform="rotate(-180 2080.438 886.548)" fill="#d9dbe0" opacity=".55" class="colord9e0df svgShape"></path>
  <path d="M2059.52 874.43h20.2v8.08h-20.2z" transform="rotate(-180 2069.619 878.47)" opacity=".31" fill="#d9dbe0" class="colord9e0df svgShape"></path>
  <path d="M2050.05 866.3h20.2v8.08h-20.2z" transform="rotate(-180 2060.148 870.335)" fill="#d9dbe0" opacity=".5" class="colord9e0df svgShape"></path>
  <path d="M2070.34 866.35h20.2v8.08h-20.2z" transform="rotate(-180 2080.438 870.39)" fill="#d9dbe0" opacity=".35" class="colord9e0df svgShape"></path>
  <path d="M2140.28 649.28h20.2v8.08h-20.2z" transform="rotate(-180 2150.382 653.316)" fill="#d9dbe0" opacity=".55" class="colord9e0df svgShape"></path>
  <path d="M2129.46 641.2h20.2v8.08h-20.2z" transform="rotate(-180 2139.563 645.237)" opacity=".31" fill="#d9dbe0" class="colord9e0df svgShape"></path>
  <path d="M2119.99 633.06h20.2v8.08h-20.2z" transform="rotate(-180 2130.092 637.103)" fill="#d9dbe0" opacity=".5" class="colord9e0df svgShape"></path>
  <path d="M2140.28 633.12h20.2v8.08h-20.2z" transform="rotate(-180 2150.382 637.159)" fill="#d9dbe0" opacity=".35" class="colord9e0df svgShape"></path>
  <path d="M2502.01 878.53h20.2v8.08h-20.2z" transform="rotate(-180 2512.108 882.565)" opacity=".31" fill="#d9dbe0" class="colord9e0df svgShape"></path>
  <path d="M2492.54 870.39h20.2v8.08h-20.2z" transform="rotate(-180 2502.638 874.43)" fill="#d9dbe0" opacity=".5" class="colord9e0df svgShape"></path>
  <path d="M2512.83 870.45h20.2v8.08h-20.2z" transform="rotate(-180 2522.927 874.486)" fill="#d9dbe0" opacity=".35" class="colord9e0df svgShape"></path>
  <path d="M2455.37 672.78h20.2v8.08h-20.2z" opacity=".31" fill="#d9dbe0" class="colord9e0df svgShape"></path>
  <path d="M2464.84 680.91h20.2v8.08h-20.2z" fill="#d9dbe0" opacity=".5" class="colord9e0df svgShape"></path>
  <path d="M2444.55 680.86h20.2v8.08h-20.2z" fill="#d9dbe0" opacity=".35" class="colord9e0df svgShape"></path>
  <path d="M2190.87 580.7h26.45V600h-26.45zM2190.87 602h26.45v19.3h-26.45zM2190.87 623.31h26.45v19.3h-26.45zM2190.87 644.61h26.45v19.3h-26.45zM2190.87 665.92h26.45v19.3h-26.45zM2190.87 687.22h26.45v19.3h-26.45zM2190.87 708.53h26.45v19.3h-26.45zM2190.87 729.84h26.45v19.3h-26.45zM2190.87 751.14h26.45v19.3h-26.45zM2190.87 772.45h26.45v19.3h-26.45zM2190.87 793.75h26.45v19.3h-26.45zM2190.87 815.06h26.45v19.3h-26.45zM2190.87 836.36h26.45v19.3h-26.45zM2190.87 857.67h26.45v19.3h-26.45zM2190.87 878.97h26.45v19.3h-26.45zM2190.87 900.28h26.45v19.3h-26.45zM2366.41 580.7h26.45V600h-26.45zM2366.41 602h26.45v19.3h-26.45zM2366.41 623.31h26.45v19.3h-26.45zM2366.41 644.61h26.45v19.3h-26.45zM2366.41 665.92h26.45v19.3h-26.45zM2366.41 687.22h26.45v19.3h-26.45zM2366.41 708.53h26.45v19.3h-26.45zM2366.41 729.84h26.45v19.3h-26.45zM2366.41 751.14h26.45v19.3h-26.45zM2366.41 772.45h26.45v19.3h-26.45zM2366.41 793.75h26.45v19.3h-26.45zM2366.41 815.06h26.45v19.3h-26.45zM2366.41 836.36h26.45v19.3h-26.45zM2366.41 857.67h26.45v19.3h-26.45zM2366.41 878.97h26.45v19.3h-26.45zM2366.41 900.28h26.45v19.3h-26.45z" fill="#d69d0d" class="colord6980d svgShape"></path>
  <path d="M2379.64 754.43H2204.1V571.3l88.31-56.19 87.23 56.19z" fill="#ffc531" class="colorffbb01 svgShape"></path>
  <path d="M2247.15 642.02h86.74v113.61h-86.74z" fill="#d9dbe0" class="colord9e0df svgShape"></path>
  <path d="M2250.64 645.21h79.75v110.42h-79.75z" fill="#e8ebf0" class="colore8f0f0 svgShape"></path>
  <path d="m2330.39 705.89-79.75 43.58v-12.94l35.95-22.03-35.95 8.88v-33.03l79.75-45.14v28.49l-39.87 19.98 39.87-11.1z" fill="#ebeef4" class="colorf4f2eb svgShape"></path>
  <path d="M2379.62 571.31v36.62l-87.23-56.2-88.3 56.2v-36.62l88.3-56.2z" opacity=".5" fill="#e8ebf0" class="colore8f0f0 svgShape"></path>
  <path d="M2493.47 590.13h-74.58l-126.5-73.1-126.5 73.1h-74.54l163.79-94.6 37.25-21.51 37.29 21.51z" opacity=".2" fill="#3a3d49" class="color493a41 svgShape"></path>
  <path d="m2317.24 514.53-24.83-14.34-24.83 14.34-118.95 68.71 12.42 21.51 131.36-75.88 131.36 75.88 12.41-21.51zM2180.05 749.91h220.94v9.04h-220.94z" fill="#d69d0d" class="colord6980d svgShape"></path>
  <path d="M2182.9 708.74h6v46.03h-6z" fill="#d69d0d" class="colord6980d svgShape"></path>
  <path d="m2188.9 733.33-6-17.58v-7.01h6z" opacity=".5" fill="#d69d0d" class="colord6980d svgShape"></path>
  <path d="M2224.51 708.74h6v46.03h-6z" fill="#d69d0d" class="colord6980d svgShape"></path>
  <path d="m2230.52 733.33-6.01-17.58v-7.01h6.01z" opacity=".5" fill="#d69d0d" class="colord6980d svgShape"></path>
  <path d="M2266.13 708.74h6v46.03h-6z" fill="#d69d0d" class="colord6980d svgShape"></path>
  <path d="m2272.14 733.33-6.01-17.58v-7.01h6.01z" opacity=".5" fill="#d69d0d" class="colord6980d svgShape"></path>
  <path d="M2307.75 708.74h6v46.03h-6z" fill="#d69d0d" class="colord6980d svgShape"></path>
  <path d="m2313.76 733.33-6.01-17.58v-7.01h6.01z" opacity=".5" fill="#d69d0d" class="colord6980d svgShape"></path>
  <path d="M2349.37 708.74h6v46.03h-6z" fill="#d69d0d" class="colord6980d svgShape"></path>
  <path d="m2355.38 733.33-6.01-17.58v-7.01h6.01z" opacity=".5" fill="#d69d0d" class="colord6980d svgShape"></path>
  <path d="M2390.99 708.74h6v46.03h-6z" fill="#d69d0d" class="colord6980d svgShape"></path>
  <path d="m2396.99 733.33-6-17.58v-7.01h6z" opacity=".5" fill="#d69d0d" class="colord6980d svgShape"></path>
  <path d="M2177.32 706.09h226.39v5.3h-226.39z" fill="#d69d0d" class="colord6980d svgShape"></path>
  <path d="M2279.74 612.89h20.2v8.08h-20.2z" transform="rotate(-180 2289.842 616.925)" opacity=".31" fill="#c9ccd3" class="colord3c9cf svgShape"></path>
  <path d="M2270.27 604.75h20.2v8.08h-20.2z" transform="rotate(-180 2280.372 608.79)" opacity=".5" fill="#c9ccd3" class="colord3c9cf svgShape"></path>
  <path d="M2290.56 604.81h20.2v8.08h-20.2z" transform="rotate(-180 2300.662 608.846)" opacity=".35" fill="#c9ccd3" class="colord3c9cf svgShape"></path>
  <path d="M2577.38 919.58h-569.94c-10.65 0-19.29-1.01-19.29 9.64h608.52c0-10.65-8.64-9.64-19.29-9.64z" fill="#d69d0d" class="colord6980d svgShape"></path>
  <path d="m1775.07 813.05 106.56 165.4 319.22-40.17 6.69 25.86s-284.2 171.73-367.5 158.78c-87.34-13.58-192.04-185.29-195.07-248.54-2.93-61.24 69.12-18.22 130.1-61.33z" fill="#ffe49f" class="colorffbf9f svgShape"></path>
  <path d="M2213.51 932.02c-13.23 6.92-44.23 19.78-47.24 20.98s-2.86 22.45-.45 26.96c0 0 50.7-21.8 72.65-23.31 21.96-1.5 28.57-9.32 42.11-12.03 13.53-2.68 53.14-11.45 53.24-15.92.05-3.05-11.15-3.03-25.45-2.18h-.02c-21.31 1.3-49.42 4.44-57.17 2.11-4.35-1.32-8.56-2.15-12.72-2.41-8.18-.49-16.18 1.22-24.95 5.8z" fill="#ffe49f" class="colorffbf9f svgShape"></path>
  <path d="M2238.45 926.24c1.27.79 2.57 1.53 3.86 2.24 6.11 3.33 12.63 6.08 19.46 7.52 7.01 1.5 14.25 1.43 21.24-.05 7.17-1.53 13.86-4.42 20.54-7.33 1.6-.69 3.17-1.39 4.79-2.08-21.31 1.3-49.42 4.44-57.17 2.11-4.35-1.32-8.56-2.16-12.72-2.41z" fill="#f4d995" class="colorf4c095 svgShape"></path>
  <path d="M2238.48 938.73s13.53 3.01 23.16-1.65c9.62-4.66 22.53-4.74 25.11-7.82 2.26-2.69 1.99-8.1-7.22-8.12-12.34-.02-15.94 5.41-23.91 2.41-7.97-3.01-16.94-3.5-28.49 1.54-11.22 4.88.52 10.33 11.35 13.64z" fill="#ffe49f" class="colorffbf9f svgShape"></path>
  <path d="M2263.32 936.31c-2.48.63-4.94 1.25-7.4 1.81-1.24.26-2.47.53-3.7.71-1.24.19-2.43.31-3.63.15-2.43-.27-4.88-1.02-7.4-1.51-2.51-.51-5.14-.79-7.67-.38 2.56.09 5.01.68 7.44 1.34 2.44.67 4.86 1.49 7.49 1.81 2.73.27 5.26-.47 7.71-1.16 2.47-.74 4.85-1.68 7.16-2.77z" fill="#e8cb80" class="colore8ad80 svgShape"></path>
  <path d="M2332.84 929.38s-7.9.27-7.97 1.17c-.07.89.04 1.65 1.24 1.65 1.19-.01 7.14-1.79 6.73-2.82zM2278.02 931.57s-1.37-1.93-.34-3.37c1.03-1.44 8.93-1.12 9-.03.06 1.08-8.66 3.4-8.66 3.4z" opacity=".2" fill="#ffffff" class="colorffffff svgShape"></path>
  <path d="M1668.3 727.83c55.92-26.51 162.07 131.53 163.06 158.7.99 27.18-127.83 134.02-145.42 129.44-17.59-4.58-121.12-239.09-17.64-288.14z" fill="#0039a9" class="color00a99d svgShape"></path>
  <path d="m2830.28 2101.07-58.84 43.82h-670.79l34.79-16.25 38.95-18.16 20.16-9.41z" fill="#d7dbe2" class="colore2d7de svgShape"></path>
  <path d="M2100.66 2144.89h670.77v451.74h-670.77z" fill="#d7dbe2" class="colore2d7de svgShape"></path>
  <g opacity=".5" fill="#000000" class="color000000 svgShape">
    <path d="M2187.99 2563.17h-44.55v-33.05h44.55v33.05zm-41.49-3.06h38.44v-26.93h-38.44v26.93z" fill="#3a3d49" class="color493a41 svgShape"></path>
    <path d="M2166.73 2546.57h12.84s-2.17-10.8-13.86-10.8c-10.27 0-13.86 10.8-13.86 10.8h12.84v8.46h-3.02v2.49h7.96v-2.49h-2.92v-8.46zM2239.09 2563.17h-44.55v-33.05h44.55v33.05zm-41.49-3.06h38.43v-26.93h-38.43v26.93z" fill="#3a3d49" class="color493a41 svgShape"></path>
    <path d="M2221.22 2557.52h-10.45v-10.45h10.45v10.45zm-7.39-3.06h4.34v-4.34h-4.34v4.34zM2232.21 2557.52h-10.45v-10.45h10.45v10.45zm-7.39-3.06h4.34v-4.34h-4.34v4.34zM2289.74 2563.17h-44.55v-33.05h44.55v33.05zm-41.49-3.06h38.43v-26.93h-38.43v26.93z" fill="#3a3d49" class="color493a41 svgShape"></path>
    <path d="M2273.13 2538.55v6.01a5.55 5.55 0 0 1-11.1 0v-6.01h-5.07v6.47c0 5.86 4.75 10.62 10.62 10.62 5.87 0 10.62-4.75 10.62-10.62v-6.47h-5.07z" fill="#3a3d49" class="color493a41 svgShape"></path>
  </g>
  <path d="M2397.15 2141.69v90.35l12.32-8.21 3.88 8.21 4.33-7.07 8.9 7.07 6.16-6.61 5.25 6.61 9.58-5.93 6.16 5.93 13.92-8.21 7.3 8.21v-90.35z" fill="#c9ccd3" class="colord3c9cf svgShape"></path>
  <path d="m2474.95 2144.89 23.44-16.26-14.45 1.48-1.75-1.48-6.17 1.28-7.06-1.28-7.88 1.19-3.53-1.19-11.12 1.07-4.62-1.07-16.05 1.48-5.17-1.48-23.44 16.26zM2461.69 2101.08l-23.45 16.26 14.45-1.48 1.75 1.48 6.17-1.27 7.06 1.27 7.88-1.19 3.53 1.19 11.12-1.07 4.62 1.07 16.05-1.48 5.17 1.48 23.45-16.26z" fill="#3a3d49" opacity=".5" class="color493a41 svgShape"></path>
  <path d="M2474.95 2600.81v-90.35l-12.32 8.22-3.88-8.22-4.34 7.08-8.89-7.08-6.16 6.62-5.25-6.62-9.58 5.94-6.16-5.94-13.92 8.22-7.3-8.22v90.35z" fill="#c9ccd3" class="colord3c9cf svgShape"></path>
  <path d="M2566.09 2195.99h161.53v90.35h-161.53zM2146.5 2307.33h581.13v136.89H2146.5zM2771.43 2144.89l58.86-43.81v446.01l-58.86 49.54z" fill="#eaecef" class="coloreaefee svgShape"></path>
  <path d="M2796.18 2126.47v41.46l3.09-4.45 1.03 1.26 1.71-2.97 1.71 1.94 1.94-4.91 1.71 2.17 1.6-4.91s1.48 1.94 1.48 1.48c0-.46 1.71-2.62 1.71-2.62l2.17.46v-42.41h-57.95l1.8 1.55-2.74.34 1.2 1.63-2.05.43.34 1.37-2.74-.09.43 1.88-2.23.6 1.8 1.8-2.91.51 1.54 1.63-2.14.86 2.4 1.45 45.1-.46zM2201.85 2115.34l-6.17 1.59 1.25 1.6-5.25 1.48 1.37 1.83-4.88.75s1.12 2.33.66 2.33c-.46 0-5.02.68-5.02.68l-.68 3.04h-47.7l38.94-18.17 30.65.76-4.46 3.11 1.29 1z" fill="#3a3d49" opacity=".5" class="color493a41 svgShape"></path>
  <path d="m1579.21 2277.97-42.88 31.94h-488.86l25.36-11.84 28.38-13.24 14.7-6.86z" fill="#c9ccd3" class="colord3c9cf svgShape"></path>
  <path d="M1047.48 2309.91h488.84v329.22h-488.84z" fill="#d7dbe2" class="colore2d7de svgShape"></path>
  <g opacity=".5" fill="#000000" class="color000000 svgShape">
    <path d="M1111.13 2614.74h-32.47v-24.08h32.47v24.08zm-30.24-2.23h28.01v-19.63h-28.01v19.63z" fill="#3a3d49" class="color493a41 svgShape"></path>
    <path d="M1095.63 2602.64h9.36s-1.58-7.87-10.1-7.87c-7.49 0-10.1 7.87-10.1 7.87h9.36v6.16h-2.2v1.81h5.8v-1.81h-2.13v-6.16zM1148.37 2614.74h-32.47v-24.08h32.47v24.08zm-30.24-2.23h28.01v-19.63h-28.01v19.63z" fill="#3a3d49" class="color493a41 svgShape"></path>
    <path d="M1135.34 2610.62h-7.62V2603h7.62v7.62zm-5.39-2.23h3.16v-3.16h-3.16v3.16zM1143.35 2610.62h-7.62V2603h7.62v7.62zm-5.39-2.23h3.16v-3.16h-3.16v3.16zM1185.28 2614.74h-32.47v-24.08h32.47v24.08zm-30.24-2.23h28.01v-19.63h-28.01v19.63z" fill="#3a3d49" class="color493a41 svgShape"></path>
    <path d="M1173.17 2596.8v4.38c0 2.23-1.81 4.04-4.04 4.04s-4.04-1.81-4.04-4.04v-4.38h-3.69v4.72a7.74 7.74 0 1 0 15.48 0v-4.72h-3.71z" fill="#3a3d49" class="color493a41 svgShape"></path>
  </g>
  <path d="M1263.55 2307.58v65.84l8.98-5.98 2.83 5.98 3.16-5.15 6.48 5.15 4.49-4.82 3.83 4.82 6.98-4.32 4.49 4.32 10.14-5.98 5.32 5.98v-65.84z" fill="#c9ccd3" class="colord3c9cf svgShape"></path>
  <path d="m1320.25 2309.91 17.09-11.85-10.53 1.08-1.28-1.08-4.49.93-5.15-.93-5.74.87-2.57-.87-8.11.78-3.37-.78-11.69 1.08-3.77-1.08-17.08 11.85zM1310.59 2277.98l-17.09 11.85 10.54-1.08 1.27 1.08 4.5-.93 5.14.93 5.74-.87 2.58.87 8.1-.78 3.37.78 11.69-1.08 3.77 1.08 17.09-11.85z" fill="#3a3d49" opacity=".5" class="color493a41 svgShape"></path>
  <path d="M1320.25 2642.17v-65.84l-8.98 5.98-2.82-5.98-3.16 5.15-6.49-5.15-4.48 4.82-3.83-4.82-6.98 4.32-4.49-4.32-10.14 5.98-5.33-5.98v65.84z" fill="#c9ccd3" class="colord3c9cf svgShape"></path>
  <path d="M1386.68 2347.15h117.72v65.84h-117.72zM1080.89 2428.29h423.51v99.76h-423.51zM1536.32 2309.91l42.9-31.93v325.04l-42.9 36.1z" fill="#eaecef" class="coloreaefee svgShape"></path>
  <path d="M1554.36 2296.48v30.21l2.25-3.24.75.91 1.25-2.16 1.25 1.41 1.41-3.57 1.25 1.58 1.16-3.57s1.08 1.41 1.08 1.08 1.25-1.91 1.25-1.91l1.58.33v-30.91h-42.23l1.31 1.13-1.99.25.87 1.18-1.5.31.25 1-1.99-.06.31 1.37-1.62.44 1.31 1.31-2.12.37 1.12 1.19-1.56.62 1.75 1.06 32.86-.33zM1121.23 2288.37l-4.49 1.16.91 1.16-3.82 1.08 1 1.33-3.55.55s.81 1.7.48 1.7c-.34 0-3.66.5-3.66.5l-.5 2.21h-34.76l28.38-13.24 22.34.55-3.25 2.27.92.73z" fill="#3a3d49" opacity=".5" class="color493a41 svgShape"></path>
  <path d="M1105.18 1343.15h134v53.6h-134z" transform="rotate(180 1172.176 1369.95)" opacity=".55" fill="#eaecef" class="coloreaefee svgShape"></path>
  <path d="M1033.3 1289.67h134v53.6h-134z" transform="rotate(180 1100.305 1316.465)" opacity=".31" fill="#eaecef" class="coloreaefee svgShape"></path>
  <path d="M970.39 1235.8h134v53.6h-134z" transform="rotate(180 1037.387 1262.595)" opacity=".5" fill="#eaecef" class="coloreaefee svgShape"></path>
  <path d="M1105 1235.95h134v53.6h-134z" transform="rotate(180 1172.004 1262.75)" opacity=".35" fill="#eaecef" class="coloreaefee svgShape"></path>
  <path d="M2257.18 1476.3h134v53.6h-134z" transform="translate(-2.412 3.736)" fill="#eaecef" class="coloreaefee svgShape"></path>
  <path d="M2329.05 1529.78h134v53.6h-134z" transform="translate(-2.497 3.851)" fill="#eaecef" class="coloreaefee svgShape"></path>
  <path d="M2391.97 1583.65h134v53.6h-134z" transform="translate(-2.584 3.952)" fill="#eaecef" class="coloreaefee svgShape"></path>
  <path d="M2257.35 1583.5h134v53.6h-134z" transform="translate(-2.584 3.736)" fill="#eaecef" class="coloreaefee svgShape"></path>
  <path d="M809.43 344.52h274.66v365.11H809.43zM1124.02 344.52h274.66v365.11h-274.66zM809.43 755.7h274.66v365.11H809.43zM1124.02 755.7h274.66v365.11h-274.66zM2724.39 1098.69c-8.55 0-12.98-3.97-16.9-7.47-3.84-3.44-7.16-6.41-14.12-6.41-6.96 0-10.28 2.97-14.12 6.41-3.91 3.5-8.35 7.47-16.9 7.47-8.55 0-12.98-3.97-16.9-7.47-3.84-3.44-7.16-6.41-14.11-6.41s-10.27 2.97-14.11 6.41c-3.91 3.5-8.35 7.47-16.89 7.47-8.55 0-12.98-3.97-16.9-7.47-3.84-3.44-7.16-6.41-14.11-6.41-1.15 0-2.08-.93-2.08-2.08s.93-2.08 2.08-2.08c8.55 0 12.98 3.97 16.89 7.47 3.84 3.44 7.16 6.41 14.11 6.41 6.96 0 10.27-2.97 14.11-6.41 3.91-3.5 8.35-7.47 16.89-7.47s12.98 3.97 16.89 7.47c3.84 3.44 7.16 6.41 14.12 6.41 6.96 0 10.28-2.97 14.12-6.41 3.91-3.5 8.35-7.47 16.9-7.47 8.55 0 12.98 3.97 16.9 7.47 3.84 3.44 7.16 6.41 14.12 6.41 1.15 0 2.08.93 2.08 2.08.01 1.15-.92 2.08-2.07 2.08z" fill="#eaecef" class="coloreaefee svgShape"></path>
  <path d="M2724.39 1080.74c-8.55 0-12.98-3.97-16.9-7.48-3.84-3.44-7.16-6.41-14.12-6.41-6.96 0-10.28 2.97-14.12 6.41-3.91 3.5-8.35 7.47-16.9 7.47-8.55 0-12.98-3.97-16.9-7.48-3.84-3.44-7.16-6.41-14.11-6.41s-10.27 2.97-14.11 6.41c-3.91 3.5-8.35 7.48-16.89 7.48-8.55 0-12.98-3.97-16.9-7.48-3.84-3.44-7.16-6.41-14.11-6.41-1.15 0-2.08-.93-2.08-2.08s.93-2.08 2.08-2.08c8.55 0 12.98 3.97 16.89 7.47 3.84 3.44 7.16 6.41 14.11 6.41 6.96 0 10.27-2.97 14.11-6.41 3.91-3.5 8.35-7.47 16.89-7.47s12.98 3.97 16.89 7.47c3.84 3.44 7.16 6.41 14.12 6.41 6.96 0 10.28-2.97 14.12-6.41 3.91-3.5 8.35-7.47 16.9-7.47 8.55 0 12.98 3.97 16.9 7.47 3.84 3.44 7.16 6.41 14.12 6.41 1.15 0 2.08.93 2.08 2.08.01 1.17-.92 2.1-2.07 2.1z" fill="#eaecef" class="coloreaefee svgShape"></path>
</svg>
