<svg xmlns="http://www.w3.org/2000/svg" xml:space="preserve" id="Moverspickingupsofa" x="0" y="0" version="1.1" viewBox="0 0 3800 3000" enable-background="new 0 0 3800 3000">
  <path d="M2304.7 1806.34h675.5v257.45h-675.5z" fill="#d7dbe2" class="colore2d7de svgShape"></path>
  <path d="M2918.21 1842.97v184.21H2366.7v-184.21h213.17c0 20.21 16.37 36.58 36.58 36.58h59.11c10.14 0 19.28-4.11 25.84-10.73 6.63-6.56 10.73-15.71 10.73-25.84h206.08z" fill="#eaecef" class="coloreaefee svgShape"></path>
  <path d="M2304.7 2063.78h675.5v257.45h-675.5z" fill="#d7dbe2" class="colore2d7de svgShape"></path>
  <path d="M2918.21 2100.42v184.21H2366.7v-184.21h213.17c0 20.21 16.37 36.58 36.58 36.58h59.11c10.14 0 19.28-4.11 25.84-10.73 6.63-6.56 10.73-15.71 10.73-25.84h206.08z" fill="#eaecef" class="coloreaefee svgShape"></path>
  <path d="M2304.7 2321.23h675.5v257.45h-675.5z" fill="#d7dbe2" class="colore2d7de svgShape"></path>
  <path d="M2918.21 2357.86v184.21H2366.7v-184.21h213.17c0 20.21 16.37 36.58 36.58 36.58h59.11c10.14 0 19.28-4.11 25.84-10.73 6.63-6.56 10.73-15.71 10.73-25.84h206.08z" fill="#eaecef" class="coloreaefee svgShape"></path>
  <path d="M658.25 2339.95s-262.93-42.02-185.91-399.72c0 0 331.92 119.06 185.91 399.72z" fill="#c9ccd3" class="colord3c9cf svgShape"></path>
  <g opacity=".52" fill="#080e24" class="color000000 svgShape">
    <path d="m475.28 1944.74 52.65 94.92c17.38 31.69 34.69 63.38 51.18 95.47 8.34 15.99 16.49 32.09 24.27 48.34 7.92 16.19 15.46 32.55 22.6 49.07 7.04 16.55 13.77 33.25 19.24 50.36 5.57 17.05 10 34.63 9.83 52.78 1.15-8.96 1.3-18.22-.02-27.24-.99-9.08-2.8-18.04-4.87-26.93-4.38-17.71-10.16-35.03-16.61-52.03-12.93-34.03-28.59-66.86-45.15-99.14-16.77-32.18-34.55-63.8-53.43-94.74-18.75-31.03-38.61-61.38-59.69-90.86z" fill="#eaecef" class="coloreaefee svgShape"></path>
  </g>
  <path d="M478.86 2202.5c-5.71-12.7 38.57-7.16 50.31-5.48-10.51-9.61-20.89-18.89-30.76-27.42-1 .41-41.3 16.89-45.61 4.35-4.28-12.46 43.77-4.68 45.57-4.39-8.27-7.14-16.17-13.75-23.48-19.56-4.98 2.27-44.22 19.71-45.7 6.97-1.45-12.47 38.54-8.14 45.25-7.33-1.65-1.31-3.28-2.58-4.86-3.81l.03.53s-.14-.3-.38-.8c-7.19-5.54-13.69-10.16-19.23-13.59-11.11-2.69-55.49-14.62-52.24-32.69 3.03-16.81 37.41 15.81 50.07 28.51l.02-.05c5.4 3.09 11.88 7.54 19.14 13-6.01-13.2-19.67-44.96-10.98-42.9 9.01 2.13 12.39 33.57 13.31 44.66 7.94 6.07 16.74 13.28 26.07 21.25-6.21-12.18-19.04-39.63-11.07-44.29 8.75-5.12 12.83 34.61 13.87 46.68 10.45 8.99 21.49 18.85 32.67 29.08-5.19-10.19-26.02-52.69-14.89-57.89 11.65-5.44 15.43 50.01 15.96 58.87 9.72 8.91 19.51 18.06 29.1 27.14-8.35-18.38-29.09-66.82-16.84-69.41 13.03-2.75 18.51 55.88 19.79 72.21 13.22 12.56 25.98 24.9 37.43 36.1-2.96-7.72-34.04-89.54-22.67-90.74 11.47-1.22 22.06 84.27 22.86 90.93 14.23 13.93 26.44 26.08 35.06 34.72-3.02-9.65-27.55-89.63-13.58-93.38 14.18-3.81 13.94 85.55 13.89 93.69 8.07 8.09 12.91 13.03 13.18 13.3l-1.56 1.91c-.28-.28-5.62-5.73-14.46-14.58-5.08.82-51 7.83-57.72-7.48-6.64-15.12 49.72 4.4 57.34 7.1-8.71-8.72-20.73-20.68-34.6-34.24-11.16 2.4-55.63 10.99-57.36-3.88-1.65-14.19 41.11-2.4 55.34 1.9-10.19-9.95-21.34-20.72-32.86-31.68.02.34.04.57.04.57s-.17-.35-.46-.97c-.7-.67-1.39-1.32-2.09-1.99-5.6 1.58-48.63 13.29-49.46.35-.82-12.66 41.71-2.61 48.99-.8a2474.34 2474.34 0 0 0-30.9-28.85c-8.3 3.29-45.7 17.37-51.53 4.38z" fill="#eaecef" class="coloreaefee svgShape"></path>
  <path d="M662.7 2357.96a907.58 907.58 0 0 1 29.73-32.42c-.92-12.89-1.63-25.54-2.14-37.94-.18-.21-18.47-50.74-35.72-60.35-17.56-9.97-33.09 13-47.09 13.91-14.27.58-14.44-23.86-25-24.48-10.82-.92-19.87 26.21-30.96 26.24-11.41-.3-4-23.15-26.64-23.4-22.87-.42-14.71 17.83-28.13 28.06-12.41 11.1-92.11-33.36-88.34 6.14 5.47 40.83 66.53 27.57 71.15 34.21 4.85 6.7-7.4 23.52 8.18 35.78 15.38 12.01 47.49-13.09 51.79-7.05 4.15 5.84-1.77 18.23 7.32 29.63 9.01 11.27 42.31-12.68 49.03-4.36 3.15 3.89 3.22 5.4 4.14 7.56.24.57.54 1.18.98 1.9 1.39 2.31 4.18 5.68 10.7 11.89 16.19 15.42 50.94-5.4 51-5.32z" fill="#d7dbe2" class="colore2d7de svgShape"></path>
  <path d="M549.63 2279.29c-13.2-17.51-26.55-35.16-40.03-52.94 14.62 18.14 29.06 36.09 43.31 53.86 5.95 1.68 11.95 3.38 18.14 5.16 14.73 4.23 28.76 8.32 41.47 12l.83.24c1.15.34 2.26.66 3.39.99-4.31-9.63-36.93-72.72-36.86-72.64 7.85 5.76 23.05 37.51 32.18 57.36 3.93 8.58 6.69 14.89 7.04 15.69l-.3.18c16.1 4.67 29.7 8.57 39.64 11.42-.48-7.16-2.54-42.66-10.93-63.86-2.75-6.84-9.7-17.1-9.7-17.11 4.64 3.07 8.21 8.38 11 14.9 9.52 22.52 11.15 61.75 11.53 66.61 9.85 2.82 15.6 4.45 15.79 4.52-.22.67-.44 1.34-.66 2.02-.38-.12-7.88-2.25-20.3-5.79a1507.416 1507.416 0 0 0-54.17 39.5c-.72-1.09 51.51-40.54 51.78-40.18-10.55-3-24.24-6.94-40.13-11.53a1513.739 1513.739 0 0 0-64.62 44.67c20.27-15.72 40.96-30.86 62.07-45.41-17.3-5-37.03-10.72-57.63-16.53a1918.08 1918.08 0 0 0-66.67 37.71c20.95-13.32 42.2-26.18 63.71-38.55-52.82-14.57-140.96-28.81-141.38-29 23.52-3.9 73.96 7.53 141.5 26.71z" fill="#eaecef" class="coloreaefee svgShape"></path>
  <path d="M2588.11 2511.46s364.81-94.26 208.61-587.9c0 0-451.73 211.98-208.61 587.9z" fill="#c9ccd3" class="colord3c9cf svgShape"></path>
  <g opacity=".52" fill="#080e24" class="color000000 svgShape">
    <path d="m2793.17 1930.3-61.51 140.74c-20.25 46.96-40.41 93.91-59.37 141.32-9.61 23.64-18.95 47.4-27.75 71.33-9 23.86-17.43 47.92-25.29 72.14-7.71 24.26-14.96 48.68-20.4 73.51-5.58 24.76-9.48 50.11-6.81 75.67-2.81-12.47-4.25-25.49-3.6-38.38.19-12.92 1.54-25.79 3.27-38.58 3.81-25.54 9.64-50.7 16.47-75.52 13.68-49.67 31.36-98.01 50.38-145.69 19.34-47.57 40.17-94.48 62.63-140.59 22.3-46.2 46.22-91.6 71.98-135.95z" fill="#eaecef" class="coloreaefee svgShape"></path>
  </g>
  <path d="M2859.1 2260.79c.11-19.71-54 12.85-68.23 21.76 8.08-18.46 16.19-36.42 24.07-53.11 1.53-.04 63.11-1.82 61.5-20.52-1.6-18.57-59.31 19.04-61.47 20.45 6.6-13.98 13.04-27.06 19.17-38.77 7.74.08 68.5.15 63.12-17.19-5.27-16.96-54.53 11.57-62.74 16.47 1.39-2.64 2.76-5.22 4.11-7.72.17.46.26.71.26.71s.01-.47.03-1.25c6.13-11.29 11.88-21 17.09-28.61 12.83-9.86 63.41-50.73 48.83-72.25-13.56-20.01-39.33 41.91-48.43 65.6l-.06-.06c-5.21 7.09-11.04 16.57-17.3 27.8.2-20.52-.34-69.44-10.39-61.79-10.43 7.92 3.22 50.54 8.39 65.42-6.79 12.41-14.04 26.78-21.54 42.43 1.05-19.31 1.91-62.18-11.07-63.64-14.25-1.61 3.24 52.13 8.83 68.35-8.36 17.62-16.99 36.71-25.59 56.36.87-16.16 3.44-83.08-13.94-83.43-18.19-.36 8.72 73.54 13.12 85.31-7.47 17.09-14.89 34.56-22.08 51.8.27-28.57-.69-103.13-18.02-99.45-18.44 3.91 8.09 82.9 15.81 104.76-9.91 23.83-19.34 47.11-27.73 68.17-.6-11.68-7.3-135.35-22.7-130.39-15.53 5 19.79 121.67 22.56 130.74-10.43 26.18-19.25 48.9-25.44 65.02-1.63-14.22-15.76-131.75-35.98-128.6-20.53 3.21 31.02 118.66 35.76 129.17-5.8 15.09-9.24 24.26-9.43 24.76l3.11 1.57c.2-.53 3.99-10.63 10.35-27.16 7.04-1.84 70.47-19.12 70.38-42.78-.08-23.37-61.8 34.2-70.11 42.06 6.27-16.28 14.96-38.64 25.13-64.14 15.81-3.3 78.27-17.69 71.99-37.91-6-19.31-54.56 20.46-70.5 34.19 7.48-18.72 15.72-39.04 24.34-59.83.16.45.28.76.28.76s.02-.56.04-1.52c.52-1.26 1.03-2.51 1.56-3.78 8.14-1.17 70.53-10.69 64.19-27.91-6.2-16.84-55.46 20.55-63.83 27.06 7.62-18.3 15.51-36.89 23.44-55.04 12.56-.49 69.02-3.71 69.12-23.87z" fill="#eaecef" class="coloreaefee svgShape"></path>
  <path d="M2636.76 2543.01c-18.88-8.79-37.89-17.09-57.05-24.89-6.2-17.2-12.53-33.97-18.98-50.31.12-.38-5.2-76.23 11.6-98.56 17-22.96 50.26-2.16 68.9-9.01 18.8-7.43 5-39.14 18.31-46.01 13.47-7.4 40.74 22.52 55.1 16.19 14.59-6.94-8.1-32.24 21.05-45.55 29.34-13.66 29.26 14.63 52.48 20.17 22.42 7.24 100.03-95.98 117.8-42.71 16.33 55.95-70.25 73.81-72.42 85.06-2.43 11.45 23.06 26.19 9.94 50.98-13.01 24.36-68.94 10.3-71.04 20.58-2.03 9.93 12.75 22.57 7.52 42.53-5.19 19.75-62.01 7.86-65.93 22.48-1.84 6.83-1.07 8.83-1.02 12.15.01.87-.02 1.84-.17 3.01-.48 3.78-2.15 9.75-7.03 21.52-12.13 29.24-69.02 22.22-69.06 22.37z" fill="#d7dbe2" class="colore2d7de svgShape"></path>
  <path d="M2737.93 2376.4c7.04-30.23 14.19-60.71 21.43-91.44-8.52 31.85-16.9 63.36-25.14 94.51a9187.29 9187.29 0 0 0-20.51 17.07c-16.64 13.92-32.44 27.25-46.77 39.3-.31.27-.63.53-.94.79-1.29 1.1-2.55 2.14-3.82 3.22.05-14.93 6.08-115.25 6.04-115.11-6.85 11.95-8.31 61.74-8.73 92.66-.17 13.35-.12 23.1-.11 24.34l.49.06a18239.68 18239.68 0 0 1-44.73 37.5c-3.48-9.54-21.17-56.65-22.47-88.88-.37-10.43 2.74-27.68 2.74-27.7-4.24 6.64-5.81 15.54-5.69 25.59.6 34.59 20.98 86.27 23.28 92.78-11.13 9.3-17.63 14.7-17.83 14.9.67.74 1.34 1.49 2.01 2.24.42-.37 8.91-7.43 22.94-19.14 31.06 5.99 61.98 12.67 92.73 20.04.31-1.82-89.89-22.91-90.03-22.29 11.92-9.93 27.37-22.88 45.3-37.93 36.58 5.97 72.99 12.88 109.21 20.73-35.23-8.72-70.69-16.44-106.34-23.15 19.52-16.39 41.76-35.1 65.08-54.44 36.01 2.8 71.97 6.31 107.87 10.56-34.75-5.22-69.6-9.67-104.53-13.34 59.98-49.14 165.84-118.11 166.27-118.59-32.67 8.47-91.38 52.18-167.75 115.72z" fill="#eaecef" class="coloreaefee svgShape"></path>
  <path d="M2280.87 2169.03s-230.18-84.71-97-394.33c0 0 278.85 166.61 97 394.33z" fill="#c9ccd3" class="colord3c9cf svgShape"></path>
  <g opacity=".52" fill="#080e24" class="color000000 svgShape">
    <path d="m2185.73 1779.3 30.72 95.15c10.07 31.73 20.09 63.45 29.29 95.39 4.69 15.94 9.2 31.93 13.35 48 4.28 16.04 8.18 32.17 11.7 48.37 3.42 16.21 6.53 32.5 8.44 48.94 2.01 16.4 2.89 33.08-.5 49.45 2.63-7.9 4.41-16.24 4.82-24.63.72-8.38.67-16.81.39-25.2-.81-16.79-2.96-33.46-5.77-49.98-5.64-33.06-13.96-65.52-23.19-97.64-9.44-32.07-19.89-63.8-31.45-95.13-11.44-31.36-23.98-62.32-37.8-92.72z" fill="#eaecef" class="coloreaefee svgShape"></path>
  </g>
  <path d="M2121.6 1989.09c1.21-12.77 34.15 11.83 42.79 18.52-4.04-12.48-8.13-24.64-12.15-35.96-.99-.13-40.76-5.27-38.5-17.28 2.24-11.93 37.18 16.18 38.49 17.24-3.37-9.49-6.69-18.37-9.9-26.36-5.02-.45-44.38-4.35-39.77-15.23 4.51-10.64 34.57 11.03 39.57 14.73-.73-1.8-1.45-3.56-2.16-5.27-.14.29-.22.44-.22.44s.02-.3.06-.81c-3.24-7.71-6.33-14.37-9.21-19.64-7.67-7.22-37.78-36.97-26.94-49.96 10.08-12.08 22.76 29.69 27.12 45.63l.04-.03c2.91 4.93 6.08 11.45 9.4 19.13 1.2-13.3 4.72-44.95 10.74-39.35 6.24 5.81-5.36 32.53-9.68 41.83 3.59 8.48 7.36 18.25 11.2 28.88.57-12.58 2.8-40.4 11.3-40.51 9.33-.12-5.48 33.56-10.15 43.7 4.27 11.96 8.63 24.88 12.92 38.17.48-10.52 3.16-54.04 14.44-53.14 11.8.95-10.42 47.07-14.03 54.41 3.73 11.56 7.4 23.35 10.95 34.99 1.68-18.52 7.13-66.75 18.12-63.25 11.69 3.73-10.62 53.17-17.04 66.83 4.87 16.08 9.47 31.77 13.54 45.95 1.15-7.53 13.51-87.2 23.16-82.98 9.74 4.25-20.71 77.53-23.09 83.22 5.06 17.63 9.3 32.92 12.26 43.76 1.98-9.1 18.75-84.32 31.64-80.96 13.09 3.41-27.79 74.85-31.54 81.35 2.78 10.15 4.41 16.31 4.5 16.65l-2.12.81c-.09-.35-1.9-7.15-4.94-18.26-4.44-1.65-44.4-16.96-42.82-32.28 1.57-15.13 37.81 26.16 42.68 31.79-3-10.95-7.19-26-12.12-43.18-10.03-3.16-49.55-16.53-44.17-29.23 5.14-12.12 34.01 16.79 43.45 26.72-3.63-12.61-7.65-26.31-11.89-40.33-.14.28-.23.47-.23.47s.02-.36.07-.99c-.26-.85-.51-1.69-.77-2.55-5.2-1.28-44.99-11.5-39.77-22.24 5.11-10.51 34.59 16.91 39.59 21.67-3.75-12.35-7.65-24.9-11.61-37.17-8.09-1.11-44.45-6.86-43.21-19.93z" fill="#eaecef" class="coloreaefee svgShape"></path>
  <path d="M2247.31 2186.31c12.8-4.47 25.65-8.61 38.57-12.42 5.13-10.74 10.32-21.19 15.56-31.36-.05-.25 8.31-49.04-1.12-64.59-9.52-15.97-32.42-4.66-44.04-10.31-11.69-6.03-.7-25.68-8.87-30.99-8.25-5.67-27.85 11.94-36.74 6.91-9-5.44 7.34-20.36-10.68-30.87-18.12-10.75-19.9 7.58-35.3 9.66-14.99 3.24-58.57-68.66-73.54-35.3-14.21 35.18 40.72 52.37 41.39 59.79.83 7.57-16.64 15.47-9.74 32.37 6.84 16.62 43.99 11.14 44.68 17.94.67 6.57-9.72 13.79-7.63 27.06 2.08 13.13 39.66 9.11 41.24 18.83.75 4.54.12 5.79-.12 7.94-.07.56-.11 1.2-.08 1.96.07 2.48.76 6.45 3.16 14.39 5.94 19.75 43.25 18.9 43.26 18.99z" fill="#d7dbe2" class="colore2d7de svgShape"></path>
  <path d="M2192.58 2071.83c-2.6-20.04-5.25-40.24-7.95-60.62 3.45 21.18 6.83 42.13 10.15 62.85 4 4.05 8.03 8.15 12.18 12.39 9.87 10.1 19.25 19.76 27.74 28.49.19.19.37.38.56.57.77.8 1.51 1.55 2.27 2.33.94-9.67 3.54-75.04 3.56-74.95 3.67 8.18 1.38 40.53-.35 60.59-.76 8.66-1.42 14.97-1.51 15.77-.11 0-.21 0-.32.01 10.77 11.07 19.88 20.39 26.54 27.19 2.87-5.95 17.39-35.32 20.32-56.11.91-6.73.02-18.11.02-18.12 2.32 4.57 2.76 10.44 2.03 16.94-2.63 22.37-19.19 54.52-21.09 58.59 6.61 6.74 10.47 10.67 10.59 10.8-.48.44-.97.88-1.45 1.32-.25-.27-5.29-5.39-13.62-13.88-20.51 1.87-40.96 4.19-61.36 6.97-.08-1.2 59.71-9.01 59.76-8.6-7.08-7.21-16.25-16.59-26.88-27.51-24.08 1.49-48.11 3.61-72.08 6.35 23.39-3.36 46.85-6.06 70.38-8.1-11.58-11.88-24.77-25.45-38.62-39.48-23.51-.52-47.03-.58-70.56-.16 22.85-1.13 45.71-1.75 68.57-1.86-35.66-35.72-99.76-87.26-100-87.6 20.59 7.61 55.77 39.73 101.12 85.83zM1924.17 1774.7v758.7c0 24.58-19.97 44.55-44.55 44.55h-626.99c-24.58 0-44.55-19.97-44.55-44.55v-758.7h716.09z" fill="#eaecef" class="coloreaefee svgShape"></path>
  <path d="M1924.17 1613.65v161.05h-716.09v-161.05c0-24.58 19.97-44.55 44.55-44.55h626.99c24.58 0 44.55 19.97 44.55 44.55z" fill="#d7dbe2" class="colore2d7de svgShape"></path>
  <circle cx="1566.12" cy="2110.45" r="226.13" transform="rotate(-45.001 1566.104 2110.481)" fill="#d7dbe2" class="colore2d7de svgShape"></circle>
  <path d="M1765.95 2110.44c0 62.94-29.05 119.1-74.54 155.65-20.11 16.36-43.47 28.77-68.92 36.12-17.88 5.33-36.77 8.15-56.38 8.15-110.37 0-199.84-89.54-199.84-199.91 0-64.74 30.78-122.27 78.51-158.75 13.99-10.74 29.34-19.61 45.92-26.31 23.29-9.52 48.73-14.78 75.41-14.78 110.37-.01 199.84 89.45 199.84 199.83z" fill="#ffffff" class="colorffffff svgShape"></path>
  <path d="M1691.4 2266.08c-20.11 16.36-43.47 28.77-68.92 36.12l-42.1-58.54 32.15 24.37-95.09-174.68 12.83-7.71-85.5-133.95c13.99-10.74 29.34-19.61 45.92-26.31 26.31 44.19 73.46 124.79 75.34 128.03-1.87-1.22-33.16-22.35-33.16-20.47 0 1.95 47.51 77.5 47.51 77.5l3.89-15.86 107.13 171.5zM1691.4 1705.31h68.1v33.41h-68.1zM1786.48 1705.31h68.1v33.41h-68.1z" fill="#eaecef" class="coloreaefee svgShape"></path>
  <path d="M1758.2 2458.76h110.65v54.28H1758.2zM646.47 2006.25h832.67v560.78H646.47z" fill="#d7dbe2" class="colore2d7de svgShape"></path>
  <g opacity=".5" fill="#080e24" class="color000000 svgShape">
    <path d="M754.87 2525.49h-55.3v-41.02h55.3v41.02zm-51.5-3.79h47.71v-33.43h-47.71v33.43z" fill="#3a3d49" class="color493a41 svgShape"></path>
    <path d="M728.48 2504.89h15.94s-2.69-13.41-17.2-13.41c-12.75 0-17.2 13.41-17.2 13.41h15.94v10.5h-3.74v3.09h9.88v-3.09h-3.63v-10.5zM818.31 2525.49h-55.3v-41.02h55.3v41.02zm-51.51-3.79h47.71v-33.43H766.8v33.43z" fill="#3a3d49" class="color493a41 svgShape"></path>
    <path d="M796.12 2518.48h-12.97v-12.97h12.97v12.97zm-9.17-3.8h5.38v-5.38h-5.38v5.38zM809.77 2518.48h-12.98v-12.97h12.98v12.97zm-9.18-3.8h5.38v-5.38h-5.38v5.38zM881.18 2525.49h-55.3v-41.02h55.3v41.02zm-51.5-3.79h47.71v-33.43h-47.71v33.43z" fill="#3a3d49" class="color493a41 svgShape"></path>
    <path d="M860.56 2494.93v7.46a6.89 6.89 0 0 1-13.78 0v-7.46h-6.29v8.03c0 7.28 5.9 13.18 13.18 13.18 7.28 0 13.18-5.9 13.18-13.18v-8.03h-6.29z" fill="#3a3d49" class="color493a41 svgShape"></path>
  </g>
  <path d="M1014.51 2002.29v112.15l15.3-10.19 4.81 10.19 5.38-8.78 11.05 8.78 7.65-8.21 6.51 8.21 11.9-7.36 7.64 7.36 17.28-10.19 9.06 10.19v-112.15zM1111.09 2572.22v-112.15l-15.29 10.19-4.82-10.19-5.38 8.78-11.04-8.78-7.65 8.21-6.52-8.21-11.89 7.36-7.65-7.36-17.27 10.19-9.07-10.19v112.15z" fill="#c9ccd3" class="colord3c9cf svgShape"></path>
  <path d="M1224.24 2069.7h200.52v112.16h-200.52zM703.37 2207.91h721.39v169.93H703.37z" fill="#eaecef" class="coloreaefee svgShape"></path>
  <g opacity=".35" fill="#080e24" class="color000000 svgShape">
    <path d="M973.05 2278.67c0 .97-.11 1.99-.34 3.07-.23 1.07-.6 2.07-1.11 2.99-.51.92-1.18 1.69-1.99 2.3-.82.61-1.82.92-2.99.92-1.79 0-3.12-.32-3.99-.96-.87-.64-1.48-1.44-1.84-2.42-.36-.97-.55-2.01-.57-3.1-.03-1.1-.06-2.13-.11-3.11-.05-.97-.22-1.78-.5-2.42-.28-.64-.88-.96-1.8-.96-1.02 0-1.92.37-2.68 1.11-.77.74-1.43 1.7-1.99 2.88s-1.04 2.5-1.42 3.99c-.38 1.48-.69 2.95-.92 4.41-.23 1.46-.4 2.84-.5 4.14-.1 1.3-.15 2.36-.15 3.18 0 1.07.04 2.35.11 3.83.08 1.48.32 2.9.73 4.26.41 1.35 1.02 2.5 1.84 3.45.82.95 1.99 1.42 3.53 1.42 1.02 0 2.02-.13 2.99-.38.97-.26 1.94-.55 2.91-.88.97-.33 1.95-.63 2.95-.88 1-.26 2.01-.38 3.03-.38 1.18 0 2.15.47 2.91 1.42.77.95 1.15 2.01 1.15 3.18 0 1.64-.51 3.16-1.53 4.56-1.02 1.41-2.29 2.65-3.79 3.72a19.36 19.36 0 0 1-4.91 2.53c-1.76.61-3.36.92-4.79.92-3.68 0-6.8-.83-9.35-2.49a19.609 19.609 0 0 1-6.21-6.44c-1.58-2.63-2.72-5.57-3.41-8.82s-1.03-6.48-1.03-9.7c0-2.15.2-4.5.61-7.05.41-2.56 1.02-5.12 1.84-7.71.82-2.58 1.85-5.07 3.11-7.48 1.25-2.4 2.72-4.52 4.41-6.36 1.69-1.84 3.59-3.32 5.71-4.45 2.12-1.12 4.46-1.69 7.02-1.69 2.5 0 4.6.63 6.29 1.88 1.69 1.25 3.04 2.84 4.06 4.75 1.02 1.92 1.74 4.01 2.15 6.29.37 2.27.57 4.43.57 6.48zM994.38 2271.23c0 2.76-.11 5.53-.35 8.32-.23 2.79-.34 5.58-.34 8.4 0 3.63.12 7.26.34 10.89.23 3.63.35 7.28.35 10.96 0 .92-.05 1.96-.15 3.1-.1 1.15-.35 2.21-.73 3.18-.38.97-.96 1.79-1.73 2.45-.77.66-1.79 1-3.07 1-1.23 0-2.29-.6-3.18-1.8-.89-1.2-1.63-2.73-2.22-4.6-.59-1.87-1.07-3.95-1.46-6.25-.38-2.3-.66-4.54-.84-6.71-.18-2.17-.31-4.17-.38-5.98-.08-1.81-.12-3.16-.12-4.03 0-.97.04-2.38.12-4.22.08-1.84.24-3.83.5-5.98.26-2.15.6-4.33 1.03-6.56.43-2.22 1.01-4.24 1.73-6.06.72-1.82 1.57-3.3 2.57-4.45 1-1.15 2.18-1.72 3.56-1.72 1.13 0 1.98.37 2.57 1.11.59.74 1.01 1.64 1.26 2.68.26 1.05.41 2.15.46 3.3.06 1.17.08 2.15.08 2.97zM1018.71 2319.92c-2.61 0-4.88-.69-6.82-2.07-1.94-1.38-3.58-3.14-4.91-5.29s-2.33-4.54-2.99-7.17c-.66-2.63-1-5.23-1-7.78 0-2.71.33-5.51 1-8.4.67-2.89 1.69-5.52 3.07-7.9 1.38-2.38 3.14-4.32 5.29-5.83 2.15-1.51 4.7-2.26 7.67-2.26 2.86 0 5.3.78 7.32 2.34 2.02 1.56 3.64 3.5 4.87 5.83s2.1 4.87 2.61 7.63c.51 2.76.69 5.37.54 7.82-.15 2.71-.57 5.44-1.26 8.2-.69 2.76-1.7 5.24-3.03 7.44-1.33 2.2-3.02 3.99-5.06 5.37-2.06 1.37-4.49 2.07-7.3 2.07zm.76-34.66c-.77 0-1.44.41-2.03 1.23-.59.82-1.07 1.81-1.46 2.99-.38 1.18-.68 2.42-.88 3.72-.2 1.3-.31 2.44-.31 3.41 0 1.23.11 2.56.34 3.99.23 1.43.55 2.75.96 3.95.41 1.2.91 2.2 1.5 2.99s1.26 1.19 2.03 1.19c.82 0 1.52-.38 2.11-1.15.59-.77 1.06-1.74 1.42-2.91.36-1.18.61-2.47.77-3.87.15-1.41.23-2.72.23-3.95 0-1.12-.1-2.36-.31-3.72-.2-1.35-.5-2.62-.88-3.79-.38-1.18-.87-2.15-1.46-2.91-.58-.79-1.26-1.17-2.03-1.17zM1061.04 2320.45c-3.63 0-6.45-.47-8.47-1.42-2.02-.95-3.53-2.29-4.52-4.02-1-1.74-1.6-3.83-1.8-6.29-.2-2.45-.31-5.19-.31-8.2 0-2.4.08-4.82.23-7.25s.38-5.02.69-7.78c-.72 0-1.28.01-1.69.04-.41.03-.74.04-1 .04-1.64 0-3.05-.36-4.26-1.07-1.2-.72-1.8-1.81-1.8-3.3 0-.92.34-1.74 1.03-2.45.69-.72 1.57-1.33 2.65-1.84 1.07-.51 2.24-.92 3.49-1.23 1.25-.31 2.44-.51 3.56-.61 0-1.43.1-3.02.31-4.75.2-1.74.57-3.36 1.11-4.87.54-1.51 1.27-2.77 2.19-3.79.92-1.02 2.1-1.53 3.53-1.53.82 0 1.55.24 2.18.73s1.16 1.1 1.57 1.84c.41.74.72 1.57.92 2.49.2.92.31 1.81.31 2.68 0 1.02-.08 2.07-.23 3.14-.15 1.07-.43 2.4-.84 3.99.87-.1 1.46-.17 1.76-.19.31-.03.59-.04.84-.04.87 0 1.78.08 2.72.23.95.15 1.81.41 2.61.77.79.36 1.44.83 1.96 1.42.51.59.77 1.29.77 2.11 0 .92-.37 1.74-1.11 2.45s-1.67 1.33-2.8 1.84c-1.12.51-2.33.91-3.6 1.19-1.28.28-2.48.47-3.6.57-.31 2.1-.52 4.02-.65 5.79-.13 1.76-.27 3.54-.42 5.33-.1.87-.19 1.75-.27 2.65-.08.89-.12 1.8-.12 2.72 0 .66.03 1.44.08 2.34.05.89.23 1.75.54 2.57.31.82.79 1.52 1.46 2.11.66.59 1.58.88 2.76.88.72 0 1.46-.06 2.22-.19.77-.13 1.53-.19 2.3-.19 1.33 0 2.29.46 2.88 1.38.59.92.88 2.09.88 3.53 0 1.07-.32 2.01-.96 2.8-.64.79-1.44 1.43-2.42 1.92-.97.49-2.06.86-3.26 1.11-1.21.22-2.34.35-3.42.35zM1111.36 2297.83c0 .87-.01 2.16-.04 3.87s-.1 3.5-.23 5.37-.29 3.63-.5 5.29c-.2 1.66-.46 2.88-.77 3.64-.41.97-.95 1.82-1.61 2.53-.66.72-1.56 1.07-2.68 1.07-1.74 0-2.99-.69-3.76-2.07-.77-1.38-1.28-3.09-1.53-5.14-.26-2.04-.36-4.27-.31-6.67.05-2.4.03-4.63-.08-6.67-.1-2.04-.38-3.76-.84-5.14s-1.3-2.07-2.53-2.07c-1.69 0-2.98.27-3.87.8-.89.54-1.53 1.24-1.92 2.11-.38.87-.61 1.87-.69 2.99-.08 1.12-.17 2.3-.27 3.53-.1 1.18-.18 2.76-.23 4.75-.05 1.99-.28 3.96-.69 5.9-.41 1.94-1.09 3.62-2.03 5.02-.95 1.41-2.34 2.11-4.18 2.11-1.12 0-2.03-.43-2.72-1.3-.69-.87-1.24-1.99-1.65-3.37-.41-1.38-.7-2.91-.88-4.6a56.68 56.68 0 0 1-.31-4.95c-.03-1.61-.03-3.08 0-4.41s.04-2.33.04-2.99c0-1.02.04-2.71.11-5.06.08-2.35.24-4.97.5-7.86.26-2.89.59-5.87 1-8.93.41-3.07.95-5.87 1.61-8.4.66-2.53 1.47-4.59 2.42-6.17s2.06-2.35 3.34-2.3c.82.05 1.52.41 2.11 1.07.59.66 1.07 1.52 1.46 2.57.38 1.05.7 2.19.96 3.41.26 1.23.45 2.44.57 3.64.13 1.2.2 2.31.23 3.34.03 1.02.04 1.81.04 2.38a106.207 106.207 0 0 1-.31 7.98c1.18-1.58 2.75-2.89 4.72-3.91s3.95-1.53 5.94-1.53c2.56 0 4.48.7 5.79 2.11 1.3 1.41 2.24 3.14 2.8 5.21.56 2.07.87 4.27.92 6.59.04 2.34.07 4.42.07 6.26zM1152.85 2304.04c0 1.74-.55 3.44-1.65 5.1-1.1 1.66-2.48 3.14-4.14 4.45a23.04 23.04 0 0 1-5.33 3.14c-1.89.79-3.63 1.19-5.21 1.19-2.71 0-5.12-.68-7.25-2.03-2.12-1.35-3.9-3.08-5.33-5.18-1.43-2.1-2.52-4.41-3.26-6.94-.74-2.53-1.11-5-1.11-7.4 0-2.56.36-5.29 1.07-8.2.72-2.91 1.8-5.6 3.26-8.05 1.46-2.45 3.3-4.5 5.52-6.13 2.22-1.64 4.87-2.45 7.94-2.45 1.74 0 3.4.29 4.98.88 1.58.59 2.96 1.42 4.14 2.49 1.18 1.07 2.12 2.35 2.84 3.83.72 1.48 1.07 3.14 1.07 4.98 0 2.4-.51 4.65-1.53 6.75a17.82 17.82 0 0 1-4.06 5.44c-1.69 1.53-3.63 2.77-5.83 3.72-2.2.95-4.45 1.47-6.75 1.57.2 1.48.81 2.56 1.8 3.22 1 .67 2.19 1 3.57 1 1.02 0 2.02-.26 2.99-.77.97-.51 1.92-1.09 2.84-1.72.92-.64 1.83-1.21 2.72-1.73.89-.51 1.8-.77 2.72-.77 1.02 0 1.94.33 2.76 1 .82.67 1.23 1.54 1.23 2.61zm-12.42-18.78c0-.66-.18-1.35-.54-2.07s-.92-1.07-1.69-1.07c-1.12 0-2.07.29-2.84.88a7.38 7.38 0 0 0-1.92 2.22c-.51.89-.91 1.85-1.19 2.87-.28 1.02-.45 1.97-.5 2.84.72-.15 1.57-.36 2.57-.61 1-.26 1.94-.6 2.84-1.03a7.9 7.9 0 0 0 2.3-1.65c.65-.67.97-1.46.97-2.38zM1182.31 2275.52c0 1.48-.5 2.58-1.5 3.3-1 .72-2.11 1.39-3.34 2.03-1.23.64-2.34 1.39-3.33 2.26-1 .87-1.49 2.17-1.49 3.91 0 .92.22 1.71.65 2.38.43.66.97 1.27 1.61 1.8.64.54 1.34 1.09 2.11 1.65.77.56 1.47 1.2 2.11 1.92s1.18 1.58 1.61 2.61c.43 1.02.65 2.27.65 3.76 0 2.15-.55 4.26-1.65 6.33-1.1 2.07-2.5 3.91-4.22 5.52-1.71 1.61-3.64 2.9-5.79 3.87-2.15.97-4.27 1.46-6.36 1.46-.87 0-1.74-.06-2.61-.19-.87-.13-1.65-.37-2.34-.73s-1.27-.86-1.73-1.49c-.46-.64-.69-1.47-.69-2.49 0-1.43.28-2.54.84-3.34.56-.79 1.28-1.42 2.15-1.88.87-.46 1.8-.82 2.8-1.07 1-.26 1.93-.57 2.8-.96.87-.38 1.58-.88 2.15-1.5.56-.61.84-1.48.84-2.61 0-1.07-.42-2.18-1.27-3.33-.84-1.15-1.78-2.38-2.8-3.68-1.02-1.3-1.96-2.7-2.8-4.18-.84-1.48-1.26-3.12-1.26-4.91 0-2.2.45-4.23 1.34-6.1.89-1.87 2.09-3.49 3.6-4.87 1.51-1.38 3.23-2.47 5.18-3.26 1.94-.79 3.99-1.19 6.13-1.19.82 0 1.62.08 2.42.23.79.15 1.5.42 2.11.81.61.38 1.11.89 1.49 1.53s.59 1.44.59 2.41z" fill="#3a3d49" class="color493a41 svgShape"></path>
  </g>
  <path d="M1478.31 2037.98c-31.47 16.78-63.17 34.44-89.84 58.4-26.02 23.37-45.58 53.25-50.11 88.46-1.22 9.51-1.56 19.26-.61 28.8.78 7.83 2.45 15.47 3.79 23.2.86 4.95 1.57 10.24-.09 15.11-1.89 5.57-6.61 9.54-11.37 12.69-6.83 4.53-14.14 7.9-22.19 9.52-8.77 1.76-17.83 1.84-26.73 1.39-19.66-1-39.06-4.88-58.72-5.8-9.08-.43-18.17-.16-26.99 2.18-7.99 2.12-15.76 5.17-22.84 9.46-12.14 7.34-21.28 18.32-27.31 31.08-12.41 26.25-13.86 56.34-20.45 84.27-3.42 14.5-8.09 28.81-15.55 41.77-7.78 13.52-18.61 24.95-24.95 39.37-4.93 11.22-5.89 22.94-5.19 35.06.45 7.76 1.3 15.5 2.06 23.24.95 9.65 1.51 19.35 2.5 29 .06.62.13 1.25.2 1.87h395.2v-529.49c-.26.13-.54.27-.81.42z" fill="#3a3d49" opacity=".15" class="color493a41 svgShape"></path>
  <path d="m876.63 1196.09 221.48-186.98s71.69-15.37 82.92-27.7c11.23-12.34 30.8-30.13 30.8-30.13l-57.83 8.76-293.52 114.34 16.15 121.71z" fill="#f2d58b" class="colorf2aa8b svgShape"></path>
  <path d="m633.05 1377.49 147.1 1079.27 94.3-.95 59.73-1058.41z" fill="#0039a9" class="color00a99d svgShape"></path>
  <path d="M784.24 2254.56c4.93-17.49 8.64-35.34 9.98-53.49 1.44-19.5-.84-38.5-3.06-57.84-1.75-15.3-2.98-30.64-.46-45.93 3.12-18.91 11.17-36.5 15.15-55.22 7.85-36.9 6.89-74.84 9.06-112.31 1.15-19.71 2.88-39.08 6.76-58.47 3.83-19.11 8.93-37.93 14.15-56.7 5.55-19.97 11.53-39.94 15.7-60.25 3.93-19.16 5.56-38.76 4.89-58.31-.31-8.89-.68-18.09-2.57-26.81-1.47-6.82-3.61-13.48-5.54-20.18-3.3-11.44-8.17-25.11-3.87-36.88 4.6-12.59 16.33-19.29 27.36-25.56 13.8-7.84 24.55-18 34.38-30.44 7.62-9.65 14.42-19.88 20.76-30.4l7.24-128.36-301.12-19.91 128.87 945.54c7.5-22.81 15.8-45.36 22.32-68.48z" opacity=".15" fill="#080e24" class="color000000 svgShape"></path>
  <path d="M851.27 2530.53s14.88-92 1.7-97.22c-13.18-5.22-43.29-5.34-49.72 1.24s3.39 102.48 15.96 114.06c12.57 11.57 27.24 6.29 32.06-18.08z" fill="#ffe49f" class="colorffbf9f svgShape"></path>
  <path d="M824 2512.58c7.31-13.25 13.88-26.89 20.21-40.63 3.07-6.65 6.05-13.31 9.54-19.75 1.35-2.49 2.7-4.98 4.02-7.48 3.2 25.84-6.49 85.82-6.49 85.82-4.83 24.37-19.5 29.65-32.06 18.07-2.27-2.09-4.45-6.97-6.47-13.55 3.56-7.59 7.19-15.13 11.25-22.48z" fill="#efd48f" class="colorefac8f svgShape"></path>
  <path d="M843.01 2474.86c5.41-1.51 10.65-3.59 16.02-5.24 3.99 40.65-7 61.69-7 61.69-5.05 25.48-20.39 31-33.53 18.9-7.68-7.08-14.37-44.26-17.27-75.32 12.34 5.85 30.04 3.25 41.78-.03z" fill="#bdd2fd" class="colorced9ef svgShape"></path>
  <path d="M822.11 2624.67s160.4-17.4 153.71-35.72c-6.69-18.32-10.24-14.19-10.24-14.19s-170.16 22.48-169.29 34c.87 11.52-5.64 21.18 25.82 15.91z" fill="#0039a9" class="color00a99d svgShape"></path>
  <path d="M972.7 2582.67s-161.66 42.35-174.9 33.21c-13.24-9.14-3.07-114.42 6.72-115.88 9.78-1.46 42.65-4.18 44.42-3.1 1.77 1.07-4.38 41.12 20.99 57.55 25.37 16.43 50.53 10.68 51.89 9.61 1.37-1.07 45.28-14.03 50.88 18.61z" fill="#232633" class="color33232a svgShape"></path>
  <path d="M862.41 2499.51c6.18 4.72 2.38 27.86 3.64 44.68.31-.27.52-.6.87-.85 8.24-5.93 52.2 23.34 52.2 23.34s-34.47.63-46.41-.85c-50.07-6.22-19.52-73.35-10.3-66.32z" fill="#3a3d49" class="color493a41 svgShape"></path>
  <path d="M883.83 2426.9c-.28 14.41 4.05 33.3-6.08 34.15-10.13.86-97.18.65-100.17-1.21s-15.37-40.63-5.94-37.62c9.43 3.01 112.44-8.19 112.19 4.68z" fill="#ffffff" class="colorffffff svgShape"></path>
  <path d="M689.66 2540.05s13.75-92.18.51-97.24c-13.24-5.06-43.36-4.81-49.7 1.85-6.35 6.66 4.65 102.43 17.36 113.85 12.7 11.43 27.3 5.96 31.83-18.46z" fill="#ffe49f" class="colorffbf9f svgShape"></path>
  <path d="M662.17 2522.43c7.15-13.34 13.54-27.06 19.7-40.88 2.98-6.69 5.89-13.38 9.29-19.87 1.32-2.51 2.64-5.01 3.93-7.53 3.52 25.8-5.44 85.89-5.44 85.89-4.53 24.42-19.13 29.89-31.84 18.46-2.3-2.07-4.54-6.92-6.63-13.47 3.47-7.61 7.02-15.2 10.99-22.6z" fill="#efd48f" class="colorefac8f svgShape"></path>
  <path d="M680.7 2484.48c5.39-1.58 10.6-3.72 15.96-5.44 4.49 40.6-6.25 61.77-6.25 61.77-4.74 25.54-20 31.25-33.29 19.31-7.77-6.98-14.92-44.08-18.2-75.11 12.42 5.72 30.09 2.9 41.78-.53z" fill="#bdd2fd" class="colorced9ef svgShape"></path>
  <path d="M651.58 2630.46s161.26 5.28 157.2-13.8c-4.05-19.08-8.15-15.49-8.15-15.49s-171.63-1.61-172.39 9.91c-.74 11.53-8.55 20.18 23.34 19.38z" fill="#0039a9" class="color00a99d svgShape"></path>
  <path d="M806.57 2610s-166 19.26-177.83 8.35c-11.83-10.91 2.47-108.28 12.36-108.35 9.89-.07 53.36-3.6 54.96-2.28 1.6 1.31-10.11 40.1 12.71 59.93s48.53 17.66 50.03 16.79c1.51-.87 46.81-7.55 47.77 25.56z" fill="#232633" class="color33232a svgShape"></path>
  <path d="M709.03 2512.18c5.46 5.54-1.55 27.92-2.66 44.75.34-.23.6-.52.98-.72 8.99-4.72 48.41 30.43 48.41 30.43s-34.22-4.21-45.83-7.35c-48.7-13.17-9.04-75.36-.9-67.11z" fill="#3a3d49" class="color493a41 svgShape"></path>
  <path d="m528.35 1428.03 103.67 1030.41 94.24 3.32L833.8 1407.13z" fill="#3f6dc9" class="color3fc9bc svgShape"></path>
  <path d="M565.94 1675.49c6.19-7.11 9.89-16.03 13.3-24.7 6.89-17.54 13.39-37.84 29.83-48.93 12.12-8.17 25.32-5.5 37.87.06 10.61 4.71 23.43 12.82 35.21 7.25 17-8.04 17.67-29.14 24.29-44.33 8.3-19.02 29.39-29.6 49.39-22.28 20.57 7.52 35.79 28.49 44.42 47.81 5.28 11.83 8.77 24.18 11.11 36.79l22.44-220.04-305.45 20.9 25.78 256.23c4.47-2.06 8.54-5 11.81-8.76z" opacity=".25" fill="#0039a9" class="color00a99d svgShape"></path>
  <path d="M695.82 1508.45s-8.79 66.97-72.13 89.44l9.37 19.9s81.66-45.16 80.3-99.07l-17.54-10.27z" fill="#76a4ff" class="color57ddd0 svgShape"></path>
  <path d="M736.65 2437.54c.23 14.41 5.23 33.13-4.86 34.35-10.09 1.22-97.1 4.11-100.15 2.35-3.06-1.75-16.81-40.06-7.27-37.39 9.53 2.67 112.07-12.19 112.28.69z" fill="#ffffff" class="colorffffff svgShape"></path>
  <path d="M595.1 819.04c-105.48 28.4-153.9 254.93-75.05 665.01 0 0 233.66 113.65 447.08-67.74-.01 0-130.79-662.21-372.03-597.27z" fill="#3f6dc9" class="color3fc9bc svgShape"></path>
  <path d="M889.21 1139.79c-6.33.18-12.67.21-18.99-.05-19.74-.84-40.01-4-58.03-12.44-8.47-3.96-16.32-9.07-23.08-15.54-7.49-7.16-12.9-15.85-17.16-25.25-18.53-40.91-15.64-87.26-27.55-129.92-2.23 24.93-1.68 50.06-3.76 75.01-2.04 24.52-6.65 49.75-20.14 70.79-15.81 24.66-42.85 39.13-70.57 46.51-13.81 3.67-28.29 4.93-42.46 2.81-12.8-1.92-25.01-6.41-36.56-12.17-25.26-12.61-48.03-29.58-73.27-42.27-.85 2.59-1.47 5.24-1.72 7.98-.84 9.24.91 18.61 3.24 27.52 2.79 10.68 6.72 21.05 11 31.21 8.2 19.45 18.07 38.09 27.03 57.18 10.39 22.14 18.8 45.25 32.39 65.76 7.59 11.45 16.74 22.75 28.12 30.63 10.43 7.22 22.15 10.76 34.75 11.33 12.16.55 24.32-.79 36.48-.49 12.3.3 24.78 3.04 36.03 8.07 19.88 8.89 34.42 25.01 46.35 42.8 6.21 9.26 11.88 18.87 17.69 28.39 6.83 11.2 14.1 21.17 24.85 28.95 20.24 14.63 45.34 19.83 66.45 32.88 4.34 2.69 8.4 5.7 12.18 8.97 31.45-15.21 63.26-35.46 94.63-62.13.01-.02-26.59-134.64-77.9-276.53z" opacity=".1" fill="#080e24" class="color000000 svgShape"></path>
  <path d="m573.88 841.11 9.95-81.89 60.04 1.15 13.26 80.74s.1 15.3-41.62 15.66c-35.12.29-41.63-15.66-41.63-15.66z" fill="#ffe49f" class="colorffbf9f svgShape"></path>
  <path d="M634.86 806.45c-3.43-3.16-8-3.91-12.51-3.61-4.99.33-9.81 1.89-14.84 1.91-4.47.01-8.91-.81-12.93-2.8-6.23-3.09-10.7-8.51-14.19-14.44l3.44-28.29 60.03 1.15 6.71 40.87c0-.01-11.36 9.21-15.71 5.21z" fill="#efd48f" class="colorefac8f svgShape"></path>
  <path d="M701.78 620.99s13.83 46.99 1.26 49.35c-12.57 2.36-41.32-46.03-34.04-49.35 7.28-3.33 32.78 0 32.78 0z" fill="#232633" class="color33232a svgShape"></path>
  <path d="M522.89 708.64c1.81-19.91 27.01-12.21 27.01-12.21s-25.57-20.66-11.27-64.18c14.31-43.52 101.23-66.52 142.74-20.33 41.51 46.2 21.86 103.26 21.86 103.26s17 30.81-33.01 63.39-59.61 13.58-86.86-3.21c-23.44-14.44-25.45-31.86-25.45-31.86s-38.15-.37-35.02-34.86z" fill="#ffe49f" class="colorffbf9f svgShape"></path>
  <path d="M593.01 633.19s-10.47 31.85-22.32 43.5c-11.85 11.65-1.98 46.23-10.42 38.63-8.44-7.59-34.48-22.68-30.62-46.11 3.87-23.44 63.36-36.02 63.36-36.02z" fill="#232633" class="color33232a svgShape"></path>
  <path d="M533.05 717.86c-.51 0-.99-.31-1.18-.81-4.34-11.09 6.76-17.65 6.87-17.72.61-.36 1.38-.14 1.74.46.35.61.14 1.38-.46 1.74-.38.22-9.32 5.55-5.78 14.59a1.273 1.273 0 0 1-1.19 1.74zM599.05 658.86c-.03-.84.44-1.67 1.26-2.03 18.17-7.96 29.83 10.08 29.95 10.26.64 1 .32 2.29-.66 2.92-.98.62-2.29.33-2.92-.65-.4-.62-9.86-15.14-24.67-8.65a2.12 2.12 0 0 1-2.79-1.09c-.11-.25-.16-.51-.17-.76zM655.12 670.99a2.12 2.12 0 0 1 .47-2.34c14.2-13.85 31.47-1.07 31.64-.94a2.1 2.1 0 0 1 .41 2.96c-.7.93-2.03 1.12-2.96.42-.59-.44-14.56-10.7-26.13.59-.84.82-2.18.8-3-.04-.18-.19-.33-.42-.43-.65z" fill="#232633" class="color33232a svgShape"></path>
  <path d="M636.14 770.57c7.15 1.21 13.56-1.63 14.35-6.32.09-.6.09-1.16.05-1.76-.19-1.35-.79-2.65-1.77-3.86-8.64 3.58-15.7-.42-19.74-3.9-1.39.65-2.51 1.58-3.3 2.65-.51.74-.93 1.58-1.07 2.51-.78 4.69 4.38 9.52 11.48 10.68z" fill="#efd48f" class="colorefac8f svgShape"></path>
  <path d="M658.36 749.93h-40.92c-.03 1.08.16 1.96.46 2.34.07.07 2.22 2.8 5.77 5.7 7.04 5.8 19.55 12.18 31.81-.82.73-.69 1.5-1.56 2.21-2.41.85-1.08 1.12-2.85.78-4.33 0-.18-.08-.32-.11-.48z" fill="#ffffff" class="colorffffff svgShape"></path>
  <path d="M579.62 721.95c-.79 4.71 4.34 9.51 11.47 10.71 7.13 1.2 13.55-1.64 14.34-6.36.79-4.71-4.34-9.5-11.47-10.71-7.12-1.2-13.54 1.65-14.34 6.36zM660.77 726.15c-.79 4.71 4.34 9.51 11.47 10.71 7.13 1.2 13.55-1.64 14.34-6.36.79-4.71-4.34-9.5-11.47-10.71-7.12-1.2-13.54 1.65-14.34 6.36z" fill="#efd48f" class="colorefac8f svgShape"></path>
  <path d="M640.98 728.32c.69 0 1.37-.1 2.03-.29 4.22-1.23 6.01-5.99 6.08-6.19.22-.59.14-1.25-.2-1.78-7.15-10.97-5.25-25.79-5.23-25.94.15-1.09-.62-2.09-1.71-2.24-1.12-.16-2.09.62-2.24 1.71-.09.65-2.01 15.65 5.25 27.7-.57 1.04-1.64 2.49-3.08 2.91-1.34.38-2.99-.15-4.87-1.59a1.99 1.99 0 0 0-2.42 3.16c2.21 1.71 4.35 2.55 6.39 2.55zM614.39 687.92c0 6.22-3.43 11.24-7.67 11.24-4.25 0-7.67-5.02-7.67-11.24 0-6.18 3.43-11.24 7.67-11.24 1.88 0 3.62.96 4.97 2.65-1.5.39-2.56 1.69-2.56 3.23 0 1.88 1.49 3.38 3.38 3.38.63 0 1.21-.14 1.69-.48.14.77.19 1.64.19 2.46zM678.92 687.92c0 6.22-3.43 11.24-7.67 11.24s-7.67-5.02-7.67-11.24c0-6.18 3.43-11.24 7.67-11.24 1.88 0 3.62.96 4.97 2.65-1.5.39-2.56 1.69-2.56 3.23 0 1.88 1.5 3.38 3.38 3.38.63 0 1.21-.14 1.69-.48.14.77.19 1.64.19 2.46z" fill="#232633" class="color33232a svgShape"></path>
  <path d="m705.55 627.63-118.02 9.7-57.88 31.87s-30.14-89.3 44.64-115.86c112.37-39.91 131.26 74.29 131.26 74.29z" fill="#0039a9" class="color00a99d svgShape"></path>
  <path d="M705.55 627.63s-37.85-76.21-78.78-77.04c-40.93-.83-34.25 86.02-34.25 86.02l113.03-8.98z" fill="#3f6dc9" class="color3fc9bc svgShape"></path>
  <path d="M592.52 636.61s51.56-75.53 105.44-70.15c65.87 6.58 7.58 61.17 7.58 61.17l-113.02 8.98z" fill="#eaecef" class="coloreaefee svgShape"></path>
  <path d="M709.6 568.42c7.17 8.64 10.96 20.25 3.29 29.81-7.6 9.46-20.61 11.27-30.62 17.1-5.3 3.09-9.13 7.66-15.25 9.4-6.91 1.96-14.7.98-21.73.39-8.18-.69-14.95-.42-22.12 3.91-3.18 1.92-6.31 3.93-9.47 5.89l91.85-7.29s50.67-47.47 4.05-59.21z" opacity=".15" fill="#080e24" class="color000000 svgShape"></path>
  <path d="M581.84 553.34s-42.94 53.3-27.05 101.46c0 0-27.05-42.25 27.05-101.46z" fill="#3f6dc9" class="color3fc9bc svgShape"></path>
  <path d="m2919.22 1196.09-221.48-186.98s-71.69-15.37-82.92-27.7c-11.23-12.34-30.8-30.13-30.8-30.13l57.83 8.76 293.52 114.34-16.15 121.71z" fill="#f2d58b" class="colorf2aa8b svgShape"></path>
  <path d="m3229.97 1358.46-88.83 457.1 184.67 552.86-85 40.83s-228.64-349.85-271.75-481.07c-40.69-123.85-62.81-517.64-62.81-517.64l323.72-52.08z" fill="#0039a9" class="color00a99d svgShape"></path>
  <path d="M3308.08 2461.43s-61.25-70.25-52.81-81.65c8.43-11.4 33.94-27.41 42.87-25.22 8.94 2.19 51.26 88.8 46.71 105.27-4.56 16.48-19.8 19.74-36.77 1.6z" fill="#ffe49f" class="colorffbf9f svgShape"></path>
  <path d="M3321.75 2431.78c-13.21-7.38-25.99-15.5-38.62-23.82-6.12-4.03-12.17-8.1-18.53-11.74-2.46-1.4-4.92-2.8-7.37-4.22 10.93 23.64 50.85 69.43 50.85 69.43 16.97 18.14 32.22 14.87 36.77-1.6.82-2.98.1-8.27-1.67-14.92-7.03-4.55-14.11-9.03-21.43-13.13z" fill="#efd48f" class="colorefac8f svgShape"></path>
  <path d="M3285.68 2409.8c-5.39 1.58-10.94 2.58-16.37 4.02 18.09 36.62 38.54 48.68 38.54 48.68 17.75 18.96 33.69 15.55 38.45-1.67 2.78-10.07-11.18-45.17-25.13-73.08-7.38 11.49-23.79 18.63-35.49 22.05z" fill="#bdd2fd" class="colorced9ef svgShape"></path>
  <path d="M3382.57 2525.96s-145.38 69.98-149.38 50.88c-4-19.09 1.2-17.46 1.2-17.46s156.35-70.82 161.7-60.58c5.34 10.24 15.98 15.01-13.52 27.16z" fill="#0039a9" class="color00a99d svgShape"></path>
  <path d="M3232.53 2569.86s159.63-49.45 166.04-64.21c6.41-14.75-57.84-98.77-66.93-94.84-9.08 3.93-38.42 18.98-39.35 20.83-.94 1.85 25.45 32.6 12.59 59.95-12.86 27.36-37.26 35.76-38.98 35.57-1.73-.17-45.87 12.02-33.37 42.7z" fill="#232633" class="color33232a svgShape"></path>
  <path d="M3282.23 2440.97c-2.76 7.27 12.7 24.91 20.51 39.86-.4-.07-.76-.23-1.18-.26-10.13-.68-31.99 47.4-31.99 47.4s29.6-17.67 38.95-25.24c39.23-31.73-22.17-72.6-26.29-61.76z" fill="#3a3d49" class="color493a41 svgShape"></path>
  <path d="M3219.6 2387.46c6.62 12.8 11.09 31.66 20.55 27.95 9.46-3.71 87.46-42.37 89.32-45.36 1.86-2.99-4.17-43.24-11.3-36.37-7.13 6.86-104.48 42.34-98.57 53.78z" fill="#ffffff" class="colorffffff svgShape"></path>
  <path d="M3106.19 2540.05s-13.75-92.18-.51-97.24c13.24-5.06 43.36-4.81 49.71 1.85 6.35 6.66-4.65 102.43-17.36 113.85-12.71 11.43-27.31 5.96-31.84-18.46z" fill="#ffe49f" class="colorffbf9f svgShape"></path>
  <path d="M3133.68 2522.43c-7.15-13.34-13.55-27.06-19.7-40.88-2.98-6.69-5.89-13.38-9.29-19.87-1.32-2.51-2.64-5.01-3.93-7.53-3.52 25.8 5.44 85.89 5.44 85.89 4.53 24.42 19.13 29.89 31.84 18.46 2.3-2.07 4.54-6.92 6.63-13.47-3.48-7.61-7.02-15.2-10.99-22.6z" fill="#efd48f" class="colorefac8f svgShape"></path>
  <path d="M3115.14 2484.48c-5.39-1.58-10.6-3.72-15.96-5.44-4.49 40.6 6.25 61.77 6.25 61.77 4.74 25.54 20 31.25 33.29 19.31 7.77-6.98 14.92-44.08 18.2-75.11-12.42 5.72-30.09 2.9-41.78-.53z" fill="#bdd2fd" class="colorced9ef svgShape"></path>
  <path d="M3144.26 2630.46s-161.26 5.28-157.2-13.8c4.05-19.08 8.15-15.49 8.15-15.49s171.63-1.61 172.39 9.91c.75 11.53 8.55 20.18-23.34 19.38z" fill="#0039a9" class="color00a99d svgShape"></path>
  <path d="M2989.27 2610s166 19.26 177.83 8.35c11.83-10.91-2.47-108.28-12.36-108.35-9.89-.07-53.36-3.6-54.96-2.28-1.6 1.31 10.11 40.1-12.71 59.93s-48.53 17.66-50.03 16.79c-1.5-.87-46.81-7.55-47.77 25.56z" fill="#232633" class="color33232a svgShape"></path>
  <path d="M3086.81 2512.18c-5.46 5.54 1.55 27.92 2.66 44.75-.34-.23-.6-.52-.98-.72-8.99-4.72-48.41 30.43-48.41 30.43s34.22-4.21 45.83-7.35c48.7-13.17 9.04-75.36.9-67.11z" fill="#3a3d49" class="color493a41 svgShape"></path>
  <path d="m3267.5 1428.03-103.67 1030.41-94.25 3.32-107.53-1054.63z" fill="#3f6dc9" class="color3fc9bc svgShape"></path>
  <path d="M3032.92 1570.29c13.02-6.06 27.89-9.75 42.03-5.63 12.11 3.52 21.59 12.62 28.86 22.58 8.62 11.81 14.31 25.18 21.85 37.61 5.64 9.3 13.19 18.44 24.61 19.89 10.13 1.29 20.56-1.27 30.67-1.83 16.25-.89 31.13 2.57 46.53 7.51 5.67 1.82 11.38 3.61 17.13 5.11l22.89-227.5-305.45-20.9 22.06 216.33c8.09-23.24 26.13-42.62 48.82-53.17z" opacity=".25" fill="#0039a9" class="color00a99d svgShape"></path>
  <path d="M3100.03 1508.45s8.79 66.97 72.13 89.44l-9.37 19.9s-81.66-45.16-80.3-99.07l17.54-10.27z" fill="#76a4ff" class="color57ddd0 svgShape"></path>
  <path d="M3059.2 2437.54c-.23 14.41-5.23 33.13 4.86 34.35 10.09 1.22 97.1 4.11 100.15 2.35 3.06-1.75 16.81-40.06 7.27-37.39-9.54 2.67-112.08-12.19-112.28.69z" fill="#ffffff" class="colorffffff svgShape"></path>
  <path d="M3200.75 819.04c105.49 28.4 153.9 254.93 75.05 665.01 0 0-185.57 118.14-398.99-63.25 0 0 82.7-666.7 323.94-601.76z" fill="#3f6dc9" class="color3fc9bc svgShape"></path>
  <path d="M2895.7 1379.42c28.39-16.35 50.95-41.54 82.01-53.41 16.54-6.32 34.05-8.41 51.67-7.44 17.5.96 34.73 4.49 52.04 7 16.35 2.37 32.84 4.55 49.12.75 14.65-3.42 28.46-9.88 41.88-16.55 13.82-6.87 27.37-14.31 41.52-20.49 12.42-5.42 25.63-10.1 39.28-10.75 14.28-.68 27.65 3.73 38.51 13.13 4.54 3.93 8.46 8.4 11.96 13.21 12.14-105.29 13.94-194.06 7.18-265.75-4.2 3.38-8.19 7.01-11.83 10.96-14.01 15.19-19.56 35.68-25.93 54.86-7.62 22.97-16.46 45.26-33.93 62.63-15.03 14.94-33.67 25.39-53.66 32.13-20.85 7.03-42.62 10.37-64.18 14.43-48.2 9.07-97.33 13.43-146.35 14.02-20.78.25-41.63-.24-62.42-1.56-15.43 66.41-25.42 124.75-30.81 159.73 4.84-2 9.53-4.36 13.94-6.9z" opacity=".1" fill="#080e24" class="color000000 svgShape"></path>
  <path d="M3155.18 638.39s46.78 78.58 100.89 76.55c66.16-2.48 11.36-60.59 11.36-60.59l-112.25-15.96z" fill="#eaecef" class="coloreaefee svgShape"></path>
  <path d="M3267.8 713.7c7.69-8.18 12.2-19.53 5.13-29.55-7-9.92-19.87-12.53-29.5-18.96-5.1-3.41-8.64-8.21-14.64-10.32-6.78-2.39-14.61-1.89-21.66-1.74-8.2.18-14.95-.51-21.83-5.28-3.06-2.12-6.05-4.32-9.08-6.47l91.22 12.98c0-.01 47.62 50.52.36 59.34z" opacity=".15" fill="#080e24" class="color000000 svgShape"></path>
  <path d="m3221.96 841.11-9.95-81.89-60.04 1.15-13.26 80.74s-.1 15.3 41.62 15.66c35.12.29 41.63-15.66 41.63-15.66z" fill="#ffe49f" class="colorffbf9f svgShape"></path>
  <path d="M3160.98 806.45c3.43-3.16 8-3.91 12.51-3.61 4.99.33 9.81 1.89 14.84 1.91 4.47.01 8.91-.81 12.93-2.8 6.23-3.09 10.7-8.51 14.19-14.44l-3.44-28.29-60.04 1.15-6.71 40.87c.01-.01 11.38 9.21 15.72 5.21z" fill="#efd48f" class="colorefac8f svgShape"></path>
  <path d="M3094.06 620.99s-13.83 46.99-1.26 49.35c12.57 2.36 41.32-46.03 34.04-49.35-7.28-3.33-32.78 0-32.78 0z" fill="#232633" class="color33232a svgShape"></path>
  <path d="M3272.95 708.64c-1.8-19.91-27.01-12.21-27.01-12.21s25.57-20.66 11.27-64.18c-14.31-43.52-101.23-66.52-142.74-20.33-41.51 46.2-21.86 103.26-21.86 103.26s-17 30.81 33.01 63.39 59.61 13.58 86.86-3.21c23.44-14.44 25.45-31.86 25.45-31.86s38.15-.37 35.02-34.86z" fill="#ffe49f" class="colorffbf9f svgShape"></path>
  <path d="M3202.83 633.19s7.28 8.53 19.13 20.17c11.85 11.65 21.96 32.61 22.48 51.7 8.44-7.59 12.11-17.14 21.75-35.86 10.88-21.11-63.36-36.01-63.36-36.01z" fill="#232633" class="color33232a svgShape"></path>
  <path d="M3095.83 623.89s12.66 27.03 32.17 21.08c19.52-5.95-.82-2.47 27.17-3.59 27.99-1.12 39.78 16.03 50.68-4.77 10.9-20.81-95.38-25.37-110.02-12.72zM3262.8 717.86c.51 0 .99-.31 1.18-.81 4.34-11.09-6.76-17.65-6.87-17.72-.61-.36-1.38-.14-1.74.46-.35.61-.14 1.38.46 1.74.38.22 9.32 5.55 5.78 14.59a1.273 1.273 0 0 0 1.19 1.74zM3196.8 658.86c.03-.84-.44-1.67-1.26-2.03-18.17-7.96-29.83 10.08-29.95 10.26-.64 1-.32 2.29.66 2.92.99.62 2.29.33 2.92-.65.4-.62 9.86-15.14 24.67-8.65a2.12 2.12 0 0 0 2.79-1.09c.1-.25.16-.51.17-.76zM3140.72 670.99c.33-.78.17-1.71-.47-2.34-14.2-13.85-31.47-1.07-31.64-.94a2.1 2.1 0 0 0-.41 2.96c.7.93 2.03 1.12 2.96.42.59-.44 14.56-10.7 26.13.59a2.119 2.119 0 0 0 3.43-.69z" fill="#232633" class="color33232a svgShape"></path>
  <path d="M3159.7 764.94c-7.15 1.21-13.56-1.63-14.35-6.32-.09-.6-.09-1.16-.05-1.77.19-1.35.79-2.65 1.77-3.86 8.64-5.17 15.7-.42 19.74-3.9 1.39.65 2.51 1.58 3.3 2.65.51.74.93 1.58 1.07 2.51.78 4.7-4.37 9.53-11.48 10.69z" fill="#efd48f" class="colorefac8f svgShape"></path>
  <path d="M3174.65 755.87c.33-.78.17-1.71-.47-2.34-14.2-13.85-31.47-1.07-31.64-.94a2.1 2.1 0 0 0-.41 2.96c.7.93 2.03 1.12 2.96.42.59-.44 14.56-10.7 26.13.59a2.119 2.119 0 0 0 3.43-.69z" fill="#232633" class="color33232a svgShape"></path>
  <path d="M3216.22 721.95c.79 4.71-4.34 9.51-11.47 10.71-7.13 1.2-13.55-1.64-14.34-6.36-.79-4.71 4.34-9.5 11.47-10.71 7.13-1.2 13.55 1.65 14.34 6.36zM3135.07 726.15c.79 4.71-4.34 9.51-11.47 10.71-7.13 1.2-13.55-1.64-14.34-6.36-.79-4.71 4.34-9.5 11.47-10.71 7.12-1.2 13.54 1.65 14.34 6.36z" fill="#efd48f" class="colorefac8f svgShape"></path>
  <path d="M3154.86 728.32c-.69 0-1.37-.1-2.03-.29-4.22-1.23-6.01-5.99-6.08-6.19-.22-.59-.14-1.25.2-1.78 7.15-10.97 5.25-25.79 5.23-25.94-.15-1.09.62-2.09 1.71-2.24 1.12-.16 2.09.62 2.24 1.71.09.65 2.01 15.65-5.25 27.7.57 1.04 1.64 2.49 3.08 2.91 1.34.38 2.99-.15 4.87-1.59a1.99 1.99 0 0 1 2.42 3.16c-2.21 1.71-4.35 2.55-6.39 2.55zM3181.46 687.92c0 6.22 3.42 11.24 7.67 11.24s7.67-5.02 7.67-11.24c0-6.18-3.43-11.24-7.67-11.24-1.88 0-3.62.96-4.97 2.65 1.5.39 2.56 1.69 2.56 3.23 0 1.88-1.5 3.38-3.38 3.38-.63 0-1.21-.14-1.69-.48-.14.77-.19 1.64-.19 2.46zM3116.92 687.92c0 6.22 3.43 11.24 7.67 11.24s7.67-5.02 7.67-11.24c0-6.18-3.43-11.24-7.67-11.24-1.88 0-3.62.96-4.97 2.65 1.5.39 2.56 1.69 2.56 3.23 0 1.88-1.5 3.38-3.38 3.38-.63 0-1.21-.14-1.69-.48-.14.77-.19 1.64-.19 2.46z" fill="#232633" class="color33232a svgShape"></path>
  <path d="m3090.29 627.63 118.02 9.7 57.88 31.87s30.14-89.3-44.64-115.86c-112.37-39.91-131.26 74.29-131.26 74.29z" fill="#0039a9" class="color00a99d svgShape"></path>
  <path d="M3090.29 627.63s37.85-76.21 78.78-77.04c40.93-.83 34.25 86.02 34.25 86.02l-113.03-8.98z" fill="#3f6dc9" class="color3fc9bc svgShape"></path>
  <path d="M3128.01 605.85c1.27 0 49.78-3.32 54.34 2.07 4.56 5.39 1.24 15.96 1.24 15.96s-56.22-.21-59-5.39c-2.77-5.18 3.42-12.64 3.42-12.64z" fill="#0039a9" class="color00a99d svgShape"></path>
  <path d="M3214.01 553.34s42.94 53.3 27.05 101.46c0 0 27.05-42.25-27.05-101.46z" fill="#3f6dc9" class="color3fc9bc svgShape"></path>
  <path d="m1165.15 1603.17-99.36 4.9-11.94-242 154.22-7.61zM2535.42 1535.53l99.36-4.91-11.95-242-154.22 7.61z" fill="#efae07" class="colorefac07 svgShape"></path>
  <path d="m2365.84 328.75-1075 53.07c-176.39 8.71-312.33 158.76-303.62 335.16l23.45 475.04c1.22 24.7 22.23 43.73 46.92 42.51l1624.34-80.19c24.7-1.22 43.73-22.23 42.51-46.93L2701 632.37c-8.71-176.39-158.76-312.33-335.16-303.62z" fill="#f9b300" class="colorf9c300 svgShape"></path>
  <path d="M2682.06 921.93c-56.82 54.73-130.13 87.53-209.52 87.56-57.95.02-111.24-17.52-166.42-33.04-28.62-8.05-57.84-15.12-87.7-15.88-29.93-.75-56.88 7.21-82.94 21.61-23.34 12.9-44.75 28.93-67.46 42.85-25.59 15.69-53.11 26.86-81.62 36.13-57.51 18.69 148.82 12.52 88.5 10.95-117.08-3.05-231.05-35.98-348.13-39.21-112.74-3.11-216.99 47.39-328.58 53.49-55.95 3.06-110.84-8.3-160.58-34.29-45.07-23.56-85.03-57.17-117.8-95.93-62.45-73.87-127.14-190.03-131.09-209.08l19.76 400.22c2.44 49.39 44.45 87.45 93.84 85.01l1534.93-75.77c49.39-2.44 87.45-44.45 85.01-93.84l-8.65-175.18c-9.95 11.96-20.31 23.58-31.55 34.4z" opacity=".15" fill="#080e24" class="color000000 svgShape"></path>
  <path d="M1563.01 552.95c-2.56-25.66-5.21-53.48-15.61-77.63-4.17 24.23-7.33 48.64-9.53 73.11-5.29 58.86-6.39 118.78 1.1 177.5 6.13 48.06 17.71 101.03 49.44 139.32 18.41-16.43 21.8-43.28 20.87-66.9-2.03-52.11-22.43-100.98-34.29-151.16-7.31-30.9-8.83-62.74-11.98-94.24zM2027.31 487.37c-3.31 19.19-6.35 38.44-8.86 57.75-7.17 55.1-11.6 111.15-7.97 166.69 2.75 42.15 9.84 93.73 40.98 125.48 16.15-19.6 24.75-44.35 28.37-69.33 8.35-57.53-3.13-117.23-17.74-172.81-9.6-36.54-21.54-72.41-34.78-107.78z" opacity=".15" fill="#080e24" class="color000000 svgShape"></path>
  <path d="M2854.78 1324.41 902.34 1420.8c-10.17-206.02 155.48-241.89 361.49-252.06l1206.38-59.55c206.02-10.18 374.4 9.21 384.57 215.22z" fill="#ffc531" class="colorffbb01 svgShape"></path>
  <path d="M1001.01 996.37c-3.86-78.27-70.45-138.59-148.72-134.73-78.27 3.86-138.59 70.45-134.73 148.72l11.34 229.68c3.86 78.27 70.45 138.59 148.72 134.73 78.27-3.86 138.59-70.45 134.73-148.72l-11.34-229.68z" fill="#efae07" class="colorefac07 svgShape"></path>
  <path d="M852.29 861.64c-36.81 1.82-69.52 17.61-93.58 41.86 45.78 4.04 90.94 19.84 128.17 45.75 48.17 33.51 81.85 85.89 79.1 146.03-.78 16.91-4.63 33.03-9.48 49.17-4.92 16.38-14.69 29.28-22.62 44.2-5.01 9.41-8.2 18.89-6.62 29.61 1.25 8.49 3.92 16.7 6.12 24.97 4.82 18.12 6.39 36.16-.14 54.1-13.68 37.55-48.37 62.34-85.8 75.67 9.79 1.61 19.88 2.29 30.2 1.78 78.27-3.86 138.59-70.45 134.73-148.72l-11.34-229.68c-3.88-78.29-70.47-138.61-148.74-134.74z" opacity=".15" fill="#080e24" class="color000000 svgShape"></path>
  <path d="M2975.84 898.88c-3.86-78.27-70.45-138.59-148.72-134.73-78.27 3.86-138.59 70.45-134.73 148.72l11.34 229.68c3.86 78.27 70.45 138.59 148.72 134.73 78.27-3.86 138.59-70.45 134.73-148.72l-11.34-229.68z" fill="#efae07" class="colorefac07 svgShape"></path>
  <path d="M2827.12 764.15c36.81-1.82 70.92 10.68 97.25 32.44-45.16 8.53-88.54 28.7-123.04 58.15-44.63 38.1-73 93.53-64.33 153.11 2.44 16.75 7.86 32.41 14.27 47.99 6.5 15.82 17.5 27.69 26.87 41.75 5.91 8.87 10.02 17.99 9.51 28.82-.41 8.57-2.26 17-3.63 25.45-3.01 18.51-2.8 36.61 5.47 53.82 17.31 36.03 54.28 57.28 92.84 66.85-9.58 2.57-19.56 4.23-29.88 4.74-78.27 3.86-144.86-56.46-148.72-134.73l-11.34-229.68c-3.86-78.26 56.46-144.85 134.73-148.71z" opacity=".15" fill="#080e24" class="color000000 svgShape"></path>
  <path d="M2949.34 1272.57c1.07 21.6-6.75 41.55-20.12 56.46-13.52 14.78-32.6 24.52-54.35 25.6l-1989.63 98.22c-43.21 2.13-80.06-31.12-82.19-74.32-.25-5.16.05-10.2.65-15.12 2.3-15.76 9.27-30.08 19.61-41.49 13.52-14.78 32.6-24.52 54.2-25.59l1989.63-98.22c21.88-1.08 42.25 6.86 57.19 20.65 14.49 13.52 23.95 32.34 25.01 53.81z" fill="#f9b300" class="colorf9c300 svgShape"></path>
  <path d="M2924.32 1218.75c-2.29 15.9-9.27 30.22-19.46 41.62-13.52 14.78-32.6 24.52-54.21 25.59l-1989.77 98.22c-21.88 1.08-42.26-6.99-57.19-20.79 2.3-15.76 9.27-30.08 19.61-41.49 13.52-14.78 32.6-24.52 54.2-25.59l1989.63-98.22c21.89-1.07 42.26 6.87 57.19 20.66z" fill="#d69d0d" class="colord6980d svgShape"></path>
  <path d="m605.51 1032.02 55.18 134.86 331.29 10.38 1.18 46.83s-316.93 86.92-392.52 54.23c-79.25-34.27-86.4-130.98-100.08-187.84-14.01-58.24 36.72-32.65 104.95-58.46z" fill="#ffe49f" class="colorffbf9f svgShape"></path>
  <path d="M535.75 861.46c43.44-32.7 109.26 172.85 104.11 196.18-5.15 23.33-138.3 85.77-152.25 78-13.96-7.78-28.09-216.8 48.14-274.18z" fill="#0039a9" class="color00a99d svgShape"></path>
  <path d="M1046.32 1234.22v-.02c-3.87.33-9.43.2-17.56-.81 0 0 .06-.02.16-.03-4.07-.35-8.3-1.01-12.47-1.88-7.22-1.49-12.42-2.98-16.03-4.23-.02-.01-.03-.01-.05-.01-5.32-1.85-7.22-3.16-7.22-3.16s-71.7 7.3-80.89 5.26c-8.49-5.56-2.22-40.09-2.22-40.09 6.03-6.45 70.25-3.84 81.93-11.99 13.63-9.51 30.25-44.47 37.59-34.16 7.36 10.32-11.22 29.41-11.22 29.41s.32-.1.92-.24c3.63-.9 17.43-3.97 30.4-2.42h.01c3.6.45 7.15 1.24 10.4 2.55.57.24 1.14.47 1.69.73.98.46 1.95.99 2.86 1.58.15.09.31.19.45.29.45.3.9.61 1.32.94l.05.04v.03c.87 1.18 1.54 2.85 1.64 5.25.33 7.73-5.69 8.96-5.69 8.96s5.59 2.26 4.9 8.54c-.72 6.67-5.69 5.9-5.69 5.9s4.98 4.19 4.22 9.43c-.81 5.52-6.55 4.53-6.55 4.53s3.96 2.46 3.08 8.94c-.75 5.79-16.03 6.66-16.03 6.66z" fill="#ffe49f" class="colorffbf9f svgShape"></path>
  <path d="M1053.53 1205.99c.17.13.28.34.2.63-.84 3.25-1.51 6.35-.28 9.59.41 1.07.86 2.3.36 3.43-.23.52-.62.91-.97 1.34-.47.58-.66 1.2-.82 1.92-.53 2.36-.56 4.85-.31 7.24.11 1.1.29 2.21.54 3.32 4.39-.84 9.7-2.55 10.16-5.92.88-6.48-3.08-8.94-3.08-8.94s5.74 1 6.55-4.53c.77-5.23-4.22-9.43-4.22-9.43s4.96.77 5.69-5.9c.69-6.28-4.9-8.54-4.9-8.54s6.01-1.23 5.69-8.96c-.1-2.4-.77-4.07-1.64-5.25v-.03l-.05-.04c-.43-.33-.87-.64-1.32-.94-.15-.1-.31-.21-.45-.29-.91-.59-1.87-1.1-2.85-1.58-.56-.25-1.12-.49-1.69-.73.63 1.75.83 3.76.87 5.56.03 2.04-.17 4.25-1.41 5.95-1.29 1.8-3.44 2.63-4.88 4.26-1.49 1.73-1.56 4.33-.8 6.39.65 1.79 1.95 3.15 1.86 5.16-.09 2.24-1.26 4.22-2.18 6.2a.3.3 0 0 0-.07.09zM1026.17 1143.03s-5.23 8.47-7.02 8.62c-1.79.15-2.38-1.95-2.38-1.95s6.24-7.24 9.4-6.67z" opacity=".2" fill="#ffffff" class="colorffffff svgShape"></path>
  <path d="M640.19 1050.31c6.39.95 8.8 18.46 12.53 31.4 3.73 12.93-118.58 93.19-149.16 83.64-30.58-9.55-23.77-35.25-20.09-36.57 3.68-1.33 156.72-78.47 156.72-78.47z" fill="#76a4ff" class="color57ddd0 svgShape"></path>
  <path d="m3184.97 1041.77-55.18 134.86L2798.5 1187l-1.18 46.83s316.93 86.92 392.52 54.23c79.25-34.27 86.4-130.98 100.08-187.84 14.01-58.23-36.71-32.65-104.95-58.45z" fill="#ffe49f" class="colorffbf9f svgShape"></path>
  <path d="M3254.73 871.21c-43.44-32.7-109.26 172.85-104.11 196.18 5.15 23.33 138.3 85.77 152.25 78 13.96-7.78 28.09-216.8-48.14-274.18z" fill="#0039a9" class="color00a99d svgShape"></path>
  <path d="M2744.16 1243.97v-.02c3.87.33 9.43.2 17.56-.81 0 0-.06-.02-.16-.03 4.07-.35 8.3-1.01 12.47-1.88 7.22-1.49 12.42-2.98 16.03-4.23.02-.01.03-.01.05-.01 5.32-1.85 7.22-3.16 7.22-3.16s71.7 7.3 80.89 5.26c8.49-5.56 2.22-40.09 2.22-40.09-6.03-6.45-70.25-3.84-81.93-11.99-13.63-9.51-30.25-44.47-37.59-34.16-7.36 10.32 11.22 29.41 11.22 29.41s-.32-.1-.92-.24c-3.63-.9-17.43-3.97-30.4-2.42h-.01c-3.6.45-7.15 1.24-10.4 2.55-.57.24-1.14.47-1.69.73-.98.46-1.95.99-2.85 1.58-.15.09-.31.19-.45.29-.45.3-.9.61-1.32.94l-.05.04v.03c-.87 1.18-1.54 2.85-1.64 5.25-.33 7.73 5.69 8.96 5.69 8.96s-5.59 2.26-4.9 8.54c.73 6.67 5.69 5.9 5.69 5.9s-4.98 4.19-4.22 9.43c.81 5.52 6.55 4.53 6.55 4.53s-3.96 2.46-3.08 8.94c.74 5.79 16.02 6.66 16.02 6.66z" fill="#ffe49f" class="colorffbf9f svgShape"></path>
  <path d="M2736.95 1215.74c-.17.13-.28.34-.2.63.84 3.25 1.5 6.35.28 9.59-.41 1.07-.86 2.3-.36 3.43.23.52.62.91.98 1.34.47.58.66 1.2.82 1.92.53 2.36.56 4.85.31 7.24-.11 1.1-.29 2.21-.54 3.32-4.39-.84-9.7-2.55-10.16-5.92-.88-6.48 3.08-8.94 3.08-8.94s-5.74 1-6.55-4.53c-.77-5.23 4.22-9.43 4.22-9.43s-4.96.77-5.69-5.9c-.69-6.28 4.9-8.54 4.9-8.54s-6.02-1.23-5.69-8.96c.1-2.4.77-4.07 1.64-5.25v-.03l.05-.04c.43-.33.87-.64 1.32-.93.15-.1.31-.21.45-.29.91-.59 1.87-1.1 2.85-1.58.56-.25 1.12-.49 1.69-.73-.63 1.75-.83 3.76-.87 5.56-.03 2.04.17 4.25 1.41 5.95 1.29 1.8 3.44 2.63 4.88 4.26 1.49 1.73 1.56 4.33.8 6.39-.65 1.79-1.95 3.15-1.86 5.16.09 2.24 1.26 4.22 2.18 6.2.05.04.05.06.06.08zM2764.31 1152.78s5.23 8.47 7.02 8.62c1.79.15 2.38-1.95 2.38-1.95s-6.24-7.24-9.4-6.67z" opacity=".2" fill="#ffffff" class="colorffffff svgShape"></path>
  <path d="M3150.29 1060.06c-6.39.95-8.8 18.46-12.53 31.4-3.73 12.93 118.58 93.19 149.16 83.64 30.58-9.55 23.77-35.25 20.09-36.57-3.68-1.33-156.72-78.47-156.72-78.47z" fill="#76a4ff" class="color57ddd0 svgShape"></path>
  <path d="m2062.69 2260.83-39.48 29.41h-450.09l23.34-10.91 26.13-12.18 13.53-6.32z" fill="#c9ccd3" class="colord3c9cf svgShape"></path>
  <path d="M1573.13 2290.23h450.08v303.11h-450.08z" fill="#d7dbe2" class="colore2d7de svgShape"></path>
  <g opacity=".5" fill="#080e24" class="color000000 svgShape">
    <path d="M1631.72 2570.89h-29.89v-22.17h29.89v22.17zm-27.84-2.05h25.79v-18.07h-25.79v18.07z" fill="#3a3d49" class="color493a41 svgShape"></path>
    <path d="M1617.45 2559.76h8.62s-1.45-7.25-9.3-7.25c-6.89 0-9.3 7.25-9.3 7.25h8.62v5.68h-2.02v1.67h5.34v-1.67h-1.96v-5.68zM1666.01 2570.89h-29.89v-22.17h29.89v22.17zm-27.84-2.05h25.79v-18.07h-25.79v18.07z" fill="#3a3d49" class="color493a41 svgShape"></path>
    <path d="M1654.02 2567.1h-7.01v-7.01h7.01v7.01zm-4.96-2.05h2.91v-2.91h-2.91v2.91zM1661.39 2567.1h-7.01v-7.01h7.01v7.01zm-4.96-2.05h2.91v-2.91h-2.91v2.91zM1699.99 2570.89h-29.89v-22.17h29.89v22.17zm-27.84-2.05h25.79v-18.07h-25.79v18.07z" fill="#3a3d49" class="color493a41 svgShape"></path>
    <path d="M1688.85 2554.38v4.03a3.72 3.72 0 1 1-7.44 0v-4.03h-3.4v4.34c0 3.94 3.19 7.13 7.12 7.13 3.94 0 7.13-3.19 7.13-7.13v-4.34h-3.41z" fill="#3a3d49" class="color493a41 svgShape"></path>
  </g>
  <path d="M1772.06 2288.09v60.62l8.27-5.51 2.6 5.51 2.91-4.74 5.97 4.74 4.14-4.44 3.52 4.44 6.43-3.98 4.13 3.98 9.34-5.51 4.9 5.51v-60.62z" fill="#c9ccd3" class="colord3c9cf svgShape"></path>
  <path d="m1824.27 2290.24 15.73-10.91-9.7.99-1.17-.99-4.14.85-4.74-.85-5.29.8-2.36-.8-7.47.71-3.1-.71-10.77.99-3.46-.99-15.74 10.91zM1815.37 2260.84l-15.73 10.91 9.69-.99 1.18.99 4.14-.85 4.74.85 5.28-.8 2.37.8 7.46-.72 3.1.72 10.77-.99 3.47.99 15.73-10.91z" opacity=".5" fill="#3a3d49" class="color493a41 svgShape"></path>
  <path d="M1824.27 2596.16v-60.63l-8.27 5.51-2.6-5.51-2.91 4.75-5.97-4.75-4.13 4.44-3.53-4.44-6.43 3.98-4.13-3.98-9.34 5.51-4.9-5.51v60.63z" fill="#c9ccd3" class="colord3c9cf svgShape"></path>
  <path d="M1885.43 2324.53h108.39v60.62h-108.39zM1603.88 2399.23h389.93v91.85h-389.93zM2023.2 2290.23l39.5-29.39v299.27l-39.5 33.24z" fill="#eaecef" class="coloreaefee svgShape"></path>
  <path d="M2039.81 2277.88v27.82l2.07-2.99.69.84 1.15-1.99 1.15 1.3 1.3-3.29 1.15 1.45 1.07-3.29s1 1.3 1 .99 1.15-1.76 1.15-1.76l1.45.31v-28.46h-38.88l1.21 1.04-1.84.23.8 1.09-1.38.29.23.92-1.84-.06.29 1.26-1.49.4 1.21 1.21-1.95.34 1.03 1.09-1.43.57 1.61.98 30.25-.29zM1641.02 2270.41l-4.14 1.07.84 1.07-3.52 1 .92 1.22-3.27.51s.75 1.56.44 1.56-3.37.46-3.37.46l-.46 2.04h-32.01l26.13-12.19 20.57.51-2.99 2.09.86.66z" opacity=".5" fill="#3a3d49" class="color493a41 svgShape"></path>
  <path d="m2674.04 2076.65-63.18 47.05h-720.33l37.36-17.44 41.82-19.51 21.65-10.1z" fill="#c9ccd3" class="colord3c9cf svgShape"></path>
  <path d="M1890.54 2123.7h720.31v485.1h-720.31z" fill="#d7dbe2" class="colore2d7de svgShape"></path>
  <g opacity=".5" fill="#080e24" class="color000000 svgShape">
    <path d="M1984.32 2572.87h-47.84v-35.49h47.84v35.49zm-44.56-3.28h41.27v-28.92h-41.27v28.92z" fill="#3a3d49" class="color493a41 svgShape"></path>
    <path d="M1961.48 2555.05h13.79s-2.33-11.6-14.88-11.6c-11.03 0-14.88 11.6-14.88 11.6h13.79v9.08h-3.24v2.67h8.55v-2.67h-3.14v-9.08zM2039.19 2572.87h-47.84v-35.49h47.84v35.49zm-44.55-3.28h41.27v-28.92h-41.27v28.92z" fill="#3a3d49" class="color493a41 svgShape"></path>
    <path d="M2020 2566.81h-11.22v-11.22H2020v11.22zm-7.94-3.29h4.66v-4.66h-4.66v4.66zM2031.8 2566.81h-11.22v-11.22h11.22v11.22zm-7.94-3.29h4.66v-4.66h-4.66v4.66zM2093.58 2572.87h-47.84v-35.49h47.84v35.49zm-44.55-3.28h41.27v-28.92h-41.27v28.92z" fill="#3a3d49" class="color493a41 svgShape"></path>
    <path d="M2075.74 2546.44v6.45c0 3.29-2.67 5.96-5.96 5.96s-5.96-2.67-5.96-5.96v-6.45h-5.44v6.95c0 6.3 5.11 11.4 11.4 11.4 6.3 0 11.4-5.11 11.4-11.4v-6.95h-5.44z" fill="#3a3d49" class="color493a41 svgShape"></path>
  </g>
  <path d="M2208.92 2120.27v97.02l13.23-8.82 4.17 8.82 4.65-7.59 9.56 7.59 6.61-7.1 5.64 7.1 10.29-6.37 6.61 6.37 14.95-8.82 7.84 8.82v-97.02z" fill="#c9ccd3" class="colord3c9cf svgShape"></path>
  <path d="m2292.47 2123.7 25.17-17.45-15.52 1.58-1.87-1.58-6.63 1.36-7.58-1.36-8.46 1.28-3.79-1.28-11.94 1.14-4.97-1.14-17.23 1.58-5.55-1.58-25.18 17.45zM2278.23 2076.66l-25.18 17.46 15.52-1.59 1.88 1.59 6.62-1.37 7.59 1.37 8.45-1.28 3.8 1.28 11.94-1.15 4.96 1.15 17.24-1.59 5.55 1.59 25.17-17.46z" opacity=".5" fill="#3a3d49" class="color493a41 svgShape"></path>
  <path d="M2292.47 2613.3v-97.02l-13.23 8.82-4.17-8.82-4.65 7.59-9.56-7.59-6.61 7.1-5.64-7.1-10.29 6.37-6.61-6.37-14.95 8.82-7.84-8.82v97.02z" fill="#c9ccd3" class="colord3c9cf svgShape"></path>
  <path d="M2390.35 2178.58h173.46v97.02h-173.46zM1939.76 2298.14h624.05v147h-624.05z" fill="#eaecef" class="coloreaefee svgShape"></path>
  <path d="M2422.72 2600.02c.05-14.44-1.23-28.84-2.63-43.2-1.82-18.54-3.06-37.16-3.22-55.8-.16-18.63.79-37.28 3.14-55.76 2.11-16.62 5.6-32.84 4.31-49.7-1.08-14.1-5.17-27.59-10.74-40.54-3.15-7.32-6.69-14.48-10.33-21.57-3.45-6.73-6.83-13.29-8.64-20.69-3.06-12.54-1.42-25.57-1.73-38.33-.18-7.48-.76-14.83-2.95-22.02-2.17-7.13-5.42-13.97-9.37-20.27-8.3-13.25-20.1-25.13-36.12-27.72-16.29-2.63-32.53 2.95-48.85 1.37-16.02-1.55-31.06-8.45-45.74-14.55-7.8-3.24-15.69-6.32-23.87-8.45-9.16-2.38-18.68-3.38-28.1-4.17-19.14-1.62-38.37-1.49-57.55-1.23-19.58.26-39.16.29-58.74.29H2024c-16.16 0-32.31.49-48.47.61-28.69.21-59.09-1.2-84.99-14.63v445.15h531.93c.15-2.94.24-5.87.25-8.79z" fill="#3a3d49" opacity=".15" class="color493a41 svgShape"></path>
  <path d="m2610.85 2123.7 63.21-47.04v478.95l-63.21 53.2z" fill="#eaecef" class="coloreaefee svgShape"></path>
  <path d="M2637.42 2103.93v44.52l3.32-4.78 1.1 1.35 1.84-3.18 1.84 2.08 2.08-5.27 1.84 2.33 1.71-5.27s1.59 2.08 1.59 1.59 1.84-2.82 1.84-2.82l2.33.49v-45.55h-62.23l1.93 1.66-2.94.37 1.29 1.75-2.21.46.37 1.47-2.94-.09.46 2.02-2.39.64 1.93 1.93-3.12.55 1.65 1.75-2.3.92 2.57 1.56 48.44-.48zM1999.21 2091.98l-6.62 1.71 1.35 1.72-5.64 1.59 1.47 1.96-5.24.81s1.2 2.5.71 2.5-5.39.74-5.39.74l-.73 3.26h-51.22l41.82-19.51 32.92.81-4.78 3.34 1.35 1.07z" opacity=".5" fill="#3a3d49" class="color493a41 svgShape"></path>
  <path d="M1610.09 2628.88c-70.07-8.4-129.03-56.63-166.39-134.96-35.71-74.89-47.69-169.32-34.22-266.25 13.38-96.23 50.47-184.89 104.7-250.4 56.13-67.8 124.66-103.85 193.54-101.23 69.91 2.66 131.15 44.78 172.12 119.49 40.42 73.69 56.26 170.51 44.06 272.35-12.29 102.6-51.49 197.27-110.07 265.7-60.02 70.12-132.59 103.83-203.74 95.3z" fill="#c9ccd3" class="colord3c9cf svgShape"></path>
  <path d="M1906.5 2266.53c-24.8 205.9-158.33 361.77-294.25 345.74-132.04-15.58-214.15-188.19-187.13-383.37 26.64-192.4 150.65-342.28 280.56-337.11 133.63 5.32 225.25 171.93 200.82 374.74z" fill="#3a3d49" opacity=".15" class="color493a41 svgShape"></path>
  <path d="M1613.32 2603.96c-127.35-14.91-206.7-183.82-180.36-374.45 25.97-187.98 146.36-334.94 271.7-329.85 128.8 5.23 217.05 168.39 193.16 366.19-24.24 200.73-153.54 353.45-284.5 338.11z" fill="#eaecef" class="coloreaefee svgShape"></path>
  <path d="M1894.93 2286.47a538.988 538.988 0 0 1-13.23 60.49c-55.97-22.84-113.32-63.39-115.23-57.46-1.69 5.24 106.25 86.35 104.39 91.55-3.54 9.92-7.35 19.61-11.41 29.06l-395.63-300.19c5.83-15.02 12.28-29.46 19.29-43.26 1.87-3.69 78.72 58.6 80.69 54.97.98-1.81-73.01-69.46-72.03-71.22 8.29-14.8 17.24-28.75 26.76-41.75l376.4 277.81zM1844.99 2440.75a418.003 418.003 0 0 1-18.74 32.76l-383.58-295.75c2.96-12.55 6.4-24.83 10.18-36.79l392.14 299.78zM1709.82 2102.3l176.61 143.3 3.75-30.93zM1454.88 2212.74l209.38 168.24-214.31-132.34c-.01 0-1.75-7.98 4.93-35.9z" fill="#ffffff" class="colorffffff svgShape"></path>
  <path d="M2234.65 2113.66c-41.79 45.67-99.37 103.31-103.18 107.19-.13.07-.2.13-.2.13l-12.84-5.89 110.53-108.86 48.88-48.14c2.61 3.61-17.25 27.29-43.19 55.57z" fill="#b2b7c1" class="colorc1b2bc svgShape"></path>
  <path d="M2159.35 2189.05c-3.69 1.76-7.12 2.59-11.22 2.53-1.74-.02-3.49-.23-5.18-.63l-24.52 24.14 12.84 5.89s.07-.07.2-.13c1.76-1.79 15.03-15.09 32.85-33.32-1.69.29-3.35.76-4.97 1.52z" opacity=".5" fill="#3a3d49" class="color493a41 svgShape"></path>
  <path d="M2163.24 2070.75c-16.97 59.54-42.71 136.83-44.38 142-.09.12-.12.21-.12.21l-14.11.47 50.22-146.79 22.21-64.92c3.93 2.08-3.26 32.13-13.82 69.03z" fill="#b2b7c1" class="colorc1b2bc svgShape"></path>
  <path d="M2129.58 2171.85c-2.52 3.22-5.22 5.5-8.91 7.28-1.57.75-3.22 1.36-4.92 1.75l-11.14 32.56 14.11-.47s.03-.09.12-.21c.77-2.39 6.7-20.22 14.49-44.49-1.37 1.02-2.65 2.17-3.75 3.58z" opacity=".5" fill="#3a3d49" class="color493a41 svgShape"></path>
  <path d="M2009.13 2671.65c-56.49 0-113.13-3.56-168.36-10.57-54.32-7.22-95.21-56.16-93.46-111.49l7.36-239.95c1.72-54.17 42.11-100.17 93.96-107.07 53.57-6.81 108.1-10.23 162.5-10.23 87.26 0 176.02 8.76 263.82 26.04 49.74 10.3 88.09 55.01 89.86 104.13l7.36 212.93c1.84 51.39-36.17 98.3-88.42 109.03-91.74 18.08-183.95 27.18-274.62 27.18z" fill="#c9ccd3" class="colord3c9cf svgShape"></path>
  <path d="M2232.15 2578.98c-139.45 27.46-281.64 33.47-421.09 15.76-20.05-2.66-35.71-22.26-35.05-43.04l7.35-240.01c.66-20.77 16.72-40.28 35.95-42.84 133.98-17.03 270.59-11.24 404.58 15.14 19.23 3.98 35.29 22.57 35.95 40.93l7.35 212.84c.67 18.35-14.99 37.1-35.04 41.22z" fill="#eaecef" class="coloreaefee svgShape"></path>
  <circle cx="2313.28" cy="2340.35" r="30.98" transform="rotate(-7.022 2312.84 2340.155)" fill="#eaecef" class="coloreaefee svgShape"></circle>
  <path d="M2335.62 2395.1c0 3.99-10 7.22-22.34 7.22s-22.34-3.23-22.34-7.22 10-7.22 22.34-7.22 22.34 3.24 22.34 7.22zM2335.62 2424.77c0 3.99-10 7.22-22.34 7.22s-22.34-3.23-22.34-7.22 10-7.22 22.34-7.22c12.34.01 22.34 3.24 22.34 7.22zM2335.62 2454.45c0 3.99-10 7.22-22.34 7.22s-22.34-3.23-22.34-7.22 10-7.22 22.34-7.22 22.34 3.23 22.34 7.22zM2335.62 2484.12c0 3.99-10 7.22-22.34 7.22s-22.34-3.23-22.34-7.22 10-7.22 22.34-7.22 22.34 3.24 22.34 7.22z" fill="#eaecef" class="coloreaefee svgShape"></path>
  <path d="m1706.38 2293.83-41.39 30.83h-471.91l24.48-11.43 27.4-12.78 14.18-6.62z" fill="#c9ccd3" class="colord3c9cf svgShape"></path>
  <path d="M1193.09 2324.66h471.89v317.8h-471.89z" fill="#d7dbe2" class="colore2d7de svgShape"></path>
  <g opacity=".5" fill="#080e24" class="color000000 svgShape">
    <path d="M1254.53 2618.92h-31.34v-23.25h31.34v23.25zm-29.19-2.15h27.04v-18.95h-27.04v18.95z" fill="#3a3d49" class="color493a41 svgShape"></path>
    <path d="M1239.57 2607.25h9.04s-1.52-7.6-9.75-7.6c-7.23 0-9.75 7.6-9.75 7.6h9.04v5.95h-2.12v1.75h5.6v-1.75h-2.06v-5.95zM1290.48 2618.92h-31.34v-23.25h31.34v23.25zm-29.19-2.15h27.04v-18.95h-27.04v18.95z" fill="#3a3d49" class="color493a41 svgShape"></path>
    <path d="M1277.91 2614.95h-7.35v-7.35h7.35v7.35zm-5.21-2.15h3.05v-3.05h-3.05v3.05zM1285.64 2614.95h-7.35v-7.35h7.35v7.35zm-5.2-2.15h3.05v-3.05h-3.05v3.05zM1326.11 2618.92h-31.34v-23.25h31.34v23.25zm-29.19-2.15h27.04v-18.95h-27.04v18.95z" fill="#3a3d49" class="color493a41 svgShape"></path>
    <path d="M1314.42 2601.6v4.23c0 2.16-1.75 3.9-3.9 3.9-2.16 0-3.9-1.75-3.9-3.9v-4.23h-3.57v4.55c0 4.13 3.34 7.47 7.47 7.47s7.47-3.34 7.47-7.47v-4.55h-3.57z" fill="#3a3d49" class="color493a41 svgShape"></path>
  </g>
  <path d="M1401.67 2322.41v63.56l8.67-5.77 2.73 5.77 3.05-4.97 6.26 4.97 4.33-4.65 3.69 4.65 6.74-4.17 4.34 4.17 9.79-5.77 5.13 5.77v-63.56z" fill="#c9ccd3" class="colord3c9cf svgShape"></path>
  <path d="m1456.41 2324.66 16.49-11.43-10.17 1.04-1.23-1.04-4.34.89-4.97-.89-5.54.83-2.48-.83-7.83.75-3.25-.75-11.29 1.04-3.63-1.04-16.5 11.43zM1447.08 2293.84l-16.5 11.44 10.17-1.04 1.23 1.04 4.34-.89 4.97.89 5.54-.84 2.48.84 7.83-.75 3.25.75 11.29-1.04 3.64 1.04 16.49-11.44z" opacity=".5" fill="#3a3d49" class="color493a41 svgShape"></path>
  <path d="M1456.4 2645.41v-63.56l-8.66 5.77-2.73-5.77-3.05 4.97-6.26-4.97-4.33 4.65-3.7-4.65-6.74 4.17-4.33-4.17-9.79 5.77-5.14-5.77v63.56z" fill="#c9ccd3" class="colord3c9cf svgShape"></path>
  <path d="M1520.53 2360.61h113.64v63.56h-113.64zM1225.34 2438.94h408.83v96.3h-408.83zM1664.98 2324.66l41.41-30.82v313.77l-41.41 34.85z" fill="#eaecef" class="coloreaefee svgShape"></path>
  <path d="M1682.39 2311.71v29.17l2.17-3.13.72.88 1.2-2.09 1.2 1.36 1.36-3.45 1.2 1.52 1.12-3.45s1.04 1.36 1.04 1.04c0-.32 1.2-1.85 1.2-1.85l1.53.32v-29.84h-40.77l1.26 1.09-1.93.24.84 1.14-1.44.3.24.96-1.93-.06.3 1.32-1.56.42 1.26 1.26-2.05.36 1.08 1.14-1.5.6 1.69 1.02 31.77-.27zM1264.28 2303.88l-4.34 1.12.88 1.12-3.69 1.04.96 1.28-3.43.53s.79 1.64.46 1.64c-.32 0-3.53.48-3.53.48l-.48 2.14h-33.56l27.4-12.78 21.57.53-3.14 2.19.9.71z" opacity=".5" fill="#3a3d49" class="color493a41 svgShape"></path>
</svg>
