<svg xmlns="http://www.w3.org/2000/svg" enable-background="new 0 0 3000 3000" viewBox="0 0 3000 3000" id="Movinghouseservices">
  <rect width="528" height="282.4" x="1311.4" y="908" fill="#eaecef" transform="rotate(3.539 1575.44 1049.146)" class="coloreaefee svgShape"></rect>
  <rect width="700.5" height="374.6" x="1225.2" y="1581.1" fill="#eaecef" transform="rotate(3.539 1575.44 1768.409)" class="coloreaefee svgShape"></rect>
  <path fill="#d4dbe8" d="M2075.8,375.6l-755.1-54.6c-101.1-7.3-189,68.8-196.3,169.9L999.1,2224.1c-7.3,101.1,68.8,189,169.9,196.3   l755.1,54.6c101.1,7.3,189-68.8,196.3-169.9L2245.6,572C2253,470.9,2176.9,383,2075.8,375.6z M2053.7,2295   c-4.8,66.4-62.6,116.4-129,111.6l-746.4-53.9c-66.5-4.8-116.5-62.6-111.7-129l124.5-1722.6c4.8-66.4,62.6-116.4,129-111.6   l746.4,53.9c66.5,4.8,116.5,62.6,111.7,129L2053.7,2295z" class="colord4e8e6 svgShape"></path>
  <path fill="#eaecef" d="M2039.3,344.8l-755.1-54.6c-101.1-7.3-189,68.8-196.3,169.9L962.7,2193.3c-7.3,101.1,68.8,189,169.9,196.3   l755.1,54.6c101.1,7.3,189-68.8,196.3-169.9l125.2-1733.2C2216.5,440,2140.4,352.1,2039.3,344.8z M2017.3,2264.1   c-4.8,66.4-62.6,116.4-129,111.6l-746.4-53.9c-66.5-4.8-116.5-62.6-111.7-129l124.5-1722.6c4.8-66.4,62.6-116.4,129-111.6   l746.4,53.9c66.5,4.8,116.5,62.6,111.7,129L2017.3,2264.1z" class="coloreaefee svgShape"></path>
  <polygon fill="#bdd2fd" points="2068.3 1562.1 2065.2 1600.2 2132.6 1600.2 2172 1590.5 2173.6 1559" class="colorbddbd8 svgShape"></polygon>
  <polygon fill="#bdd2fd" points="1010.8 1527.4 1080.2 1527.4 1116.4 1534.2 1113.7 1572.6 1075.6 1564 1008.1 1565.3" class="colorbddbd8 svgShape"></polygon>
  <polygon fill="#bdd2fd" points="1069 719.9 1066.3 757.7 1133.8 757.7 1171 778.1 1175.4 716" class="colorbddbd8 svgShape"></polygon>
  <g fill="#080e24" class="color000000 svgShape">
    <path fill="#eaecef" d="M1377.5 485.3c0-3.3-7.8-6.1-18.5-6.9-.9-10.6-3.6-18.5-6.9-18.5-3.3 0-6.1 7.8-6.9 18.5-10.6.9-18.5 3.6-18.5 6.9s7.8 6.1 18.5 6.9c.9 10.6 3.6 18.5 6.9 18.5 3.3 0 6.1-7.8 6.9-18.5C1369.7 491.4 1377.5 488.6 1377.5 485.3zM916.1 804.9c0-1.9-4.5-3.5-10.6-4-.5-6.1-2.1-10.6-4-10.6-1.9 0-3.5 4.5-4 10.6-6.1.5-10.6 2.1-10.6 4 0 1.9 4.5 3.5 10.6 4 .5 6.1 2.1 10.6 4 10.6 1.9 0 3.5-4.5 4-10.6C911.6 808.4 916.1 806.8 916.1 804.9zM748.1 711.7c0-1.5-3.6-2.7-8.4-3.1-.4-4.8-1.6-8.4-3.1-8.4-1.5 0-2.7 3.6-3.1 8.4-4.8.4-8.4 1.6-8.4 3.1 0 1.5 3.6 2.7 8.4 3.1.4 4.8 1.6 8.4 3.1 8.4 1.5 0 2.7-3.6 3.1-8.4C744.6 714.4 748.1 713.2 748.1 711.7zM1374.4 575.2c0-1.5-3.6-2.7-8.4-3.1-.4-4.8-1.6-8.4-3.1-8.4s-2.7 3.6-3.1 8.4c-4.8.4-8.4 1.6-8.4 3.1 0 1.5 3.6 2.7 8.4 3.1.4 4.8 1.6 8.4 3.1 8.4s2.7-3.6 3.1-8.4C1370.8 577.9 1374.4 576.7 1374.4 575.2z" class="coloreaefee svgShape"></path>
  </g>
  <g fill="#080e24" class="color000000 svgShape">
    <path fill="#eaecef" d="M1119.7,2369c279.1,8.9,1382.7,70.9,1471.7,136.2c89,65.4-502.3,40.5-435.8,109   c66.4,68.5-54.2,130.4-212.6,74.1c-158.3-56.2-1414.4,52-1526.3-79c-86.5-101.3,180.8-74.3,154.8-146.9   C534.9,2360,811.2,2359.1,1119.7,2369z" class="coloreaefee svgShape"></path>
  </g>
  <g fill="#080e24" class="color000000 svgShape">
    <path fill="#d4dbe8" d="M1150.6,874.8H773.8c-17.4,0-31.5,14.1-31.5,31.5v605.4c0,17.4,14.1,31.5,31.5,31.5h376.8   c17.4,0,31.5-14.1,31.5-31.5V906.3C1182.1,888.9,1168,874.8,1150.6,874.8z" class="colord4e8e6 svgShape"></path>
    <rect width="381" height="381" x="772.2" y="906.6" fill="#ffffff" opacity=".76" class="colorffffff svgShape"></rect>
    <path fill="#ffffff" d="M1071 1179.2c-40.1-2-80.6-1.4-120.7-.3-59.4 1.7-119.6 6.2-178.1 18.3v90.4h381v-99.4C1126 1183.7 1098.5 1180.6 1071 1179.2zM809.7 990c15.7 1 31.4.9 47 .8 15.3-.2 31.7.8 46.3-4.6 1.8-.7 7.1-2.3 7.9-4.2.1-.1.1-.1.2-.2-.2 0-.4-.1-.9-.5-.9-.8-2.2-1-3.3-1.3-4.5-1.3-9.3-1-13.7-2.4-9.6-2.9-13.2-11.7-9.3-20.8 1.3-2.9 2.9-5 .5-7.8-1.4-1.6-4-2.8-6.1-3.4-4-1.1-8.6-.8-12.7-1-7.9-.5-18.6-1.7-18.6-12 0-9.6-.3-19-6.8-25.8h-68.1v77.8C784.5 987.4 797 989.2 809.7 990zM1028.3 1029.3c-1.3 1.5-1.3 1.1 1 2.5 3.7 2.2 7 4 11.3 5.1 18.9 4.9 39.2 1.9 58.5 2 18 .1 36.1.6 54.2.7V921.2c-6.8 1-13.4 2.7-19.7 5.4-6.9 3-12.8 7.1-18.3 12.2-3.3 3.1-12.6 11.7-9.1 17.1 2.4 3.7 2 8.2-2.3 10.5-7.2 3.8-14.9 5.8-22.6 8.2-4 1.2-7.9 2.6-11.7 4.5-1.8.9-7.8 3.7-8.6 6-.7 1.8 3.2 7 4.8 9.6 3.2 5.1 1.4 9.1-2 13.7-6.9 9.3-17.5 12.3-27.7 16.7C1033.9 1026.1 1030 1027.3 1028.3 1029.3z" class="colorffffff svgShape"></path>
    <rect width="241.7" height="143" x="841.4" y="1057.9" fill="#eaecef" transform="rotate(-180 962.293 1129.373)" class="coloreaefee svgShape"></rect>
    <polygon fill="#e8ebf0" points="841.5 1090.9 1083.2 1069.4 1083.3 1058 841.5 1057.7" opacity=".5" class="colore8f0f0 svgShape"></polygon>
    <path fill="#d9dbe0" d="M838.6,1115.4l247.4,0.3c4.6,0,8.4-0.4,8.4,4.2l-264.2-0.3C830.2,1115,834,1115.4,838.6,1115.4z" class="colord9e0df svgShape"></path>
    <polygon fill="#c9ccd3" points="830 1057.7 1101.4 1058 1078.5 1001.2 853.2 1000.9" class="colord3c9cf svgShape"></polygon>
    <rect width="36.7" height="62.5" x="863.2" y="1114.9" fill="#d9dbe0" transform="rotate(-89.93 881.587 1146.16)" class="colord9e0df svgShape"></rect>
    <rect width="31.9" height="58.9" x="865.6" y="1116.7" fill="#e8ebf0" transform="rotate(-89.93 881.588 1146.16)" class="colore8f0f0 svgShape"></rect>
    <polygon fill="#ebeef4" points="876.8 1130.2 852.1 1162.1 859.4 1162.1 871.9 1147.7 866.9 1162.1 885.5 1162.1 911.1 1130.3 895 1130.2 883.7 1146.2 889.9 1130.2" class="colorf4f2eb svgShape"></polygon>
    <rect width="35.4" height="1.6" x="863.9" y="1145.4" fill="#d9dbe0" transform="rotate(-89.93 881.588 1146.16)" class="colord9e0df svgShape"></rect>
    <rect width="36.7" height="62.5" x="1025.1" y="1115.1" fill="#d9dbe0" transform="rotate(-89.929 1043.464 1146.358)" class="colord9e0df svgShape"></rect>
    <rect width="31.9" height="58.9" x="1027.5" y="1116.9" fill="#e8ebf0" transform="rotate(-89.93 1043.464 1146.358)" class="colore8f0f0 svgShape"></rect>
    <polygon fill="#ebeef4" points="1038.6 1130.4 1014 1162.3 1021.3 1162.3 1033.8 1147.9 1028.7 1162.3 1047.4 1162.3 1072.9 1130.5 1056.8 1130.4 1045.5 1146.4 1051.8 1130.4" class="colorf4f2eb svgShape"></polygon>
    <rect width="35.4" height="1.6" x="1025.7" y="1145.5" fill="#d9dbe0" transform="rotate(-89.93 1043.464 1146.358)" class="colord9e0df svgShape"></rect>
    <rect width="51" height="66.8" x="936.7" y="1134.7" fill="#d9dbe0" transform="rotate(-180 962.193 1168.151)" class="colord9e0df svgShape"></rect>
    <rect width="46.9" height="64.9" x="938.7" y="1136.6" fill="#e8ebf0" transform="rotate(-180 962.191 1169.088)" class="colore8f0f0 svgShape"></rect>
    <polygon fill="#ebeef4" points="938.7 1172.3 985.6 1198 985.6 1190.4 964.5 1177.4 985.6 1182.6 985.7 1163.2 938.8 1136.6 938.8 1153.3 962.2 1165.1 938.8 1158.6" class="colorf4f2eb svgShape"></polygon>
    <rect width="1.3" height="66.3" x="961.5" y="1135.2" fill="#d9dbe0" transform="rotate(-180 962.193 1168.39)" class="colord9e0df svgShape"></rect>
    <rect width="3.7" height=".6" x="956.1" y="1169.7" fill="#d9dbe0" transform="rotate(-180 957.938 1170.016)" class="colord9e0df svgShape"></rect>
    <rect width="3.7" height=".6" x="965.1" y="1169.7" fill="#d9dbe0" transform="rotate(-180 966.946 1170.026)" class="colord9e0df svgShape"></rect>
    <rect width="8.8" height="3.5" x="1049.9" y="1184.9" fill="#d9dbe0" opacity=".55" transform="translate(1.427 -1.266)" class="colord9e0df svgShape"></rect>
    <rect width="8.8" height="3.5" x="1054.6" y="1181.4" fill="#d9dbe0" opacity=".31" transform="translate(1.422 -1.272)" class="colord9e0df svgShape"></rect>
    <rect width="8.8" height="3.5" x="1058.7" y="1177.9" fill="#d9dbe0" opacity=".5" transform="translate(1.502 -1.351)" class="colord9e0df svgShape"></rect>
    <rect width="8.8" height="3.5" x="1049.9" y="1177.9" fill="#d9dbe0" opacity=".35" transform="translate(1.418 -1.266)" class="colord9e0df svgShape"></rect>
    <g fill="#080e24" class="color000000 svgShape">
      <rect width="8.8" height="3.5" x="1019.6" y="1083.6" fill="#d9dbe0" opacity=".55" transform="translate(1.382 -1.302)" class="colord9e0df svgShape"></rect>
      <rect width="8.8" height="3.5" x="1024.3" y="1080.1" fill="#d9dbe0" opacity=".31" transform="translate(1.3 -1.235)" class="colord9e0df svgShape"></rect>
      <rect width="8.8" height="3.5" x="1028.4" y="1076.6" fill="#d9dbe0" opacity=".5" transform="translate(1.296 -1.24)" class="colord9e0df svgShape"></rect>
      <rect width="8.8" height="3.5" x="1019.6" y="1076.6" fill="#d9dbe0" opacity=".35" transform="translate(1.296 -1.23)" class="colord9e0df svgShape"></rect>
    </g>
    <g fill="#080e24" class="color000000 svgShape">
      <rect width="8.8" height="3.5" x="862.5" y="1182.9" fill="#d9dbe0" opacity=".31" transform="translate(1.424 -1.04)" class="colord9e0df svgShape"></rect>
      <rect width="8.8" height="3.5" x="866.6" y="1179.4" fill="#d9dbe0" opacity=".5" transform="translate(1.503 -1.107)" class="colord9e0df svgShape"></rect>
      <rect width="8.8" height="3.5" x="857.8" y="1179.4" fill="#d9dbe0" opacity=".35" transform="translate(1.42 -1.035)" class="colord9e0df svgShape"></rect>
    </g>
    <g fill="#080e24" class="color000000 svgShape">
      <rect width="8.8" height="3.5" x="882.8" y="1093.7" fill="#d9dbe0" opacity=".31" transform="rotate(-180 887.202 1095.404)" class="colord9e0df svgShape"></rect>
      <rect width="8.8" height="3.5" x="878.7" y="1097.2" fill="#d9dbe0" opacity=".5" transform="rotate(-180 883.087 1098.93)" class="colord9e0df svgShape"></rect>
      <rect width="8.8" height="3.5" x="887.5" y="1097.2" fill="#d9dbe0" opacity=".35" transform="rotate(-180 891.895 1098.917)" class="colord9e0df svgShape"></rect>
    </g>
    <g fill="#080e24" class="color000000 svgShape">
      <rect width="11.5" height="8.4" x="995" y="1053.8" fill="#e8ebf0" transform="rotate(-180 1000.72 1058.002)" class="colore8f0f0 svgShape"></rect>
      <rect width="11.5" height="8.4" x="995" y="1063.1" fill="#e8ebf0" transform="rotate(-180 1000.708 1067.251)" class="colore8f0f0 svgShape"></rect>
      <rect width="11.5" height="8.4" x="995" y="1072.3" fill="#e8ebf0" transform="rotate(-180 1000.697 1076.5)" class="colore8f0f0 svgShape"></rect>
      <rect width="11.5" height="8.4" x="994.9" y="1081.6" fill="#e8ebf0" transform="rotate(-180 1000.685 1085.75)" class="colore8f0f0 svgShape"></rect>
      <rect width="11.5" height="8.4" x="994.9" y="1090.8" fill="#e8ebf0" transform="rotate(-180 1000.674 1095)" class="colore8f0f0 svgShape"></rect>
      <rect width="11.5" height="8.4" x="994.9" y="1100.1" fill="#e8ebf0" transform="rotate(-180 1000.663 1104.248)" class="colore8f0f0 svgShape"></rect>
      <rect width="11.5" height="8.4" x="994.9" y="1109.3" fill="#e8ebf0" transform="rotate(-180 1000.652 1113.498)" class="colore8f0f0 svgShape"></rect>
      <rect width="11.5" height="8.4" x="994.9" y="1118.6" fill="#e8ebf0" transform="rotate(-180 1000.64 1122.747)" class="colore8f0f0 svgShape"></rect>
      <rect width="11.5" height="8.4" x="994.9" y="1127.8" fill="#e8ebf0" transform="rotate(-180 1000.629 1131.996)" class="colore8f0f0 svgShape"></rect>
      <rect width="11.5" height="8.4" x="994.9" y="1137.1" fill="#e8ebf0" transform="rotate(-180 1000.618 1141.246)" class="colore8f0f0 svgShape"></rect>
      <rect width="11.5" height="8.4" x="994.9" y="1146.3" fill="#e8ebf0" transform="rotate(-180 1000.606 1150.495)" class="colore8f0f0 svgShape"></rect>
      <rect width="11.5" height="8.4" x="994.9" y="1155.6" fill="#e8ebf0" transform="rotate(-180 1000.595 1159.745)" class="colore8f0f0 svgShape"></rect>
      <rect width="11.5" height="8.4" x="994.8" y="1164.8" fill="#e8ebf0" transform="rotate(-180 1000.584 1168.994)" class="colore8f0f0 svgShape"></rect>
      <rect width="11.5" height="8.4" x="994.8" y="1174.1" fill="#e8ebf0" transform="rotate(-180 1000.572 1178.243)" class="colore8f0f0 svgShape"></rect>
      <rect width="11.5" height="8.4" x="994.8" y="1183.3" fill="#e8ebf0" transform="rotate(-180 1000.561 1187.492)" class="colore8f0f0 svgShape"></rect>
      <rect width="11.5" height="8.4" x="994.8" y="1192.6" fill="#e8ebf0" transform="rotate(-180 1000.55 1196.742)" class="colore8f0f0 svgShape"></rect>
    </g>
    <g fill="#080e24" class="color000000 svgShape">
      <rect width="11.5" height="8.4" x="918.8" y="1053.7" fill="#e8ebf0" transform="rotate(-180 924.513 1057.908)" class="colore8f0f0 svgShape"></rect>
      <rect width="11.5" height="8.4" x="918.8" y="1063" fill="#e8ebf0" transform="rotate(-180 924.501 1067.158)" class="colore8f0f0 svgShape"></rect>
      <rect width="11.5" height="8.4" x="918.7" y="1072.2" fill="#e8ebf0" transform="rotate(-180 924.49 1076.407)" class="colore8f0f0 svgShape"></rect>
      <rect width="11.5" height="8.4" x="918.7" y="1081.5" fill="#e8ebf0" transform="rotate(-180 924.479 1085.657)" class="colore8f0f0 svgShape"></rect>
      <rect width="11.5" height="8.4" x="918.7" y="1090.7" fill="#e8ebf0" transform="rotate(-180 924.467 1094.906)" class="colore8f0f0 svgShape"></rect>
      <rect width="11.5" height="8.4" x="918.7" y="1100" fill="#e8ebf0" transform="rotate(-180 924.456 1104.155)" class="colore8f0f0 svgShape"></rect>
      <rect width="11.5" height="8.4" x="918.7" y="1109.2" fill="#e8ebf0" transform="rotate(-180 924.445 1113.404)" class="colore8f0f0 svgShape"></rect>
      <rect width="11.5" height="8.4" x="918.7" y="1118.5" fill="#e8ebf0" transform="rotate(-180 924.433 1122.654)" class="colore8f0f0 svgShape"></rect>
      <rect width="11.5" height="8.4" x="918.7" y="1127.7" fill="#e8ebf0" transform="rotate(-180 924.422 1131.903)" class="colore8f0f0 svgShape"></rect>
      <rect width="11.5" height="8.4" x="918.7" y="1137" fill="#e8ebf0" transform="rotate(-180 924.41 1141.153)" class="colore8f0f0 svgShape"></rect>
      <rect width="11.5" height="8.4" x="918.7" y="1146.2" fill="#e8ebf0" transform="rotate(-180 924.4 1150.402)" class="colore8f0f0 svgShape"></rect>
      <rect width="11.5" height="8.4" x="918.6" y="1155.5" fill="#e8ebf0" transform="rotate(-180 924.388 1159.651)" class="colore8f0f0 svgShape"></rect>
      <rect width="11.5" height="8.4" x="918.6" y="1164.7" fill="#e8ebf0" transform="rotate(-180 924.377 1168.9)" class="colore8f0f0 svgShape"></rect>
      <rect width="11.5" height="8.4" x="918.6" y="1174" fill="#e8ebf0" transform="rotate(-180 924.366 1178.15)" class="colore8f0f0 svgShape"></rect>
      <rect width="11.5" height="8.4" x="918.6" y="1183.2" fill="#e8ebf0" transform="rotate(-180 924.354 1187.4)" class="colore8f0f0 svgShape"></rect>
      <rect width="11.5" height="8.4" x="918.6" y="1192.5" fill="#e8ebf0" transform="rotate(-180 924.343 1196.648)" class="colore8f0f0 svgShape"></rect>
    </g>
    <polygon fill="#d7dbe2" points="924.4 1129.1 1000.6 1129.2 1000.7 1049.7 962.4 1025.3 924.5 1049.6" class="colore2d7de svgShape"></polygon>
    <g fill="#080e24" class="color000000 svgShape">
      <rect width="37.7" height="49.3" x="944.3" y="1080.4" fill="#d9dbe0" transform="rotate(-180 963.144 1105.052)" class="colord9e0df svgShape"></rect>
      <rect width="34.6" height="47.9" x="945.8" y="1081.8" fill="#e8ebf0" transform="rotate(-180 963.143 1105.743)" class="colore8f0f0 svgShape"></rect>
      <polygon fill="#ebeef4" points="945.8 1108.1 980.4 1127.1 980.4 1121.4 964.8 1111.9 980.4 1115.7 980.5 1101.4 945.9 1081.8 945.8 1094.1 963.1 1102.8 945.8 1098" class="colorf4f2eb svgShape"></polygon>
    </g>
    <polygon fill="#e8ebf0" points="924.5 1049.6 924.5 1065.5 962.4 1041.2 1000.7 1065.6 1000.7 1049.7 962.4 1025.3" opacity=".5" class="colore8f0f0 svgShape"></polygon>
    <polygon fill="#e8ebf0" points="875.1 1057.8 907.5 1057.8 962.4 1026.1 1017.3 1057.9 1049.7 1058 978.6 1016.8 962.5 1007.5 946.3 1016.8" opacity=".5" class="colore8f0f0 svgShape"></polygon>
    <polygon fill="#d7dbe2" points="951.6 1025 962.4 1018.8 973.2 1025.1 1024.8 1054.9 1019.4 1064.3 962.4 1031.3 905.3 1064.1 900 1054.8" class="colore2d7de svgShape"></polygon>
    <rect width="95.9" height="3.9" x="915.2" y="1127.2" fill="#d9dbe0" transform="rotate(-180 963.114 1129.188)" class="colord9e0df svgShape"></rect>
    <g fill="#080e24" class="color000000 svgShape">
      <rect width="2.6" height="20" x="1007.2" y="1109.4" fill="#d9dbe0" transform="rotate(-180 1008.545 1119.402)" class="colord9e0df svgShape"></rect>
      <polygon fill="#e8ebf0" points="1007.2 1120.1 1009.9 1112.5 1009.9 1109.4 1007.3 1109.4" opacity=".5" class="colore8f0f0 svgShape"></polygon>
      <rect width="2.6" height="20" x="989.2" y="1109.4" fill="#d9dbe0" transform="rotate(-180 990.476 1119.38)" class="colord9e0df svgShape"></rect>
      <polygon fill="#e8ebf0" points="989.2 1120.1 991.8 1112.4 991.8 1109.4 989.2 1109.4" opacity=".5" class="colore8f0f0 svgShape"></polygon>
      <rect width="2.6" height="20" x="971.1" y="1109.4" fill="#d9dbe0" transform="rotate(-180 972.409 1119.358)" class="colord9e0df svgShape"></rect>
      <polygon fill="#e8ebf0" points="971.1 1120 973.7 1112.4 973.7 1109.4 971.1 1109.4" opacity=".5" class="colore8f0f0 svgShape"></polygon>
      <rect width="2.6" height="20" x="953" y="1109.3" fill="#d9dbe0" transform="rotate(-180 954.34 1119.336)" class="colord9e0df svgShape"></rect>
      <polygon fill="#e8ebf0" points="953 1120 955.7 1112.4 955.7 1109.3 953.1 1109.3" opacity=".5" class="colore8f0f0 svgShape"></polygon>
      <g fill="#080e24" class="color000000 svgShape">
        <rect width="2.6" height="20" x="935" y="1109.3" fill="#d9dbe0" transform="rotate(-180 936.272 1119.314)" class="colord9e0df svgShape"></rect>
        <polygon fill="#e8ebf0" points="935 1120 937.6 1112.4 937.6 1109.3 935 1109.3" opacity=".5" class="colore8f0f0 svgShape"></polygon>
      </g>
      <g fill="#080e24" class="color000000 svgShape">
        <rect width="2.6" height="20" x="916.9" y="1109.3" fill="#d9dbe0" transform="rotate(-180 918.204 1119.292)" class="colord9e0df svgShape"></rect>
        <polygon fill="#e8ebf0" points="916.9 1120 919.5 1112.3 919.5 1109.3 916.9 1109.3" opacity=".5" class="colore8f0f0 svgShape"></polygon>
      </g>
      <rect width="98.3" height="2.3" x="914" y="1108.2" fill="#d9dbe0" transform="rotate(-180 963.138 1109.356)" class="colord9e0df svgShape"></rect>
    </g>
    <g fill="#080e24" class="color000000 svgShape">
      <rect width="8.8" height="3.5" x="959.1" y="1067.7" fill="#c9ccd3" opacity=".31" transform="translate(1.361 -1.225)" class="colord3c9cf svgShape"></rect>
      <rect width="8.8" height="3.5" x="963.2" y="1064.2" fill="#c9ccd3" opacity=".5" transform="translate(1.282 -1.162)" class="colord3c9cf svgShape"></rect>
      <rect width="8.8" height="3.5" x="954.4" y="1064.2" fill="#c9ccd3" opacity=".35" transform="translate(1.282 -1.151)" class="colord3c9cf svgShape"></rect>
    </g>
    <g fill="#080e24" class="color000000 svgShape">
      <path fill="#d7dbe2" d="M823.2,1201.1c0.4,0.8,57.6,0.1,57.6,0.1s4.9-14.1-6.9-19.9c-11.8-5.8-15.6,4-15.6,4s-0.1-4.8-4.3-5.8     c-4.2-1-2.1,6.2-2.1,6.2s-3.3-6.5-8.4-7.2c-5.1-0.7-6.1,6-3.4,12.8C840.2,1191.1,817.5,1191.1,823.2,1201.1z" class="colore2d7de svgShape"></path>
      <path fill="#eaecef" d="M830.9,1201.2c0.3,0.6,43.3,0.1,43.3,0.1s3.7-10.6-5.2-15s-11.8,3-11.8,3s-0.1-3.6-3.2-4.4     c-3.2-0.7-1.6,4.6-1.6,4.6s-2.4-4.9-6.3-5.4c-3.9-0.5-4.6,4.5-2.6,9.6C843.6,1193.7,826.6,1193.7,830.9,1201.2z" class="coloreaefee svgShape"></path>
      <path fill="#c9ccd3" d="M823.7,1200.5l277,0.3c5.2,0,9.4-0.5,9.4,4.7l-295.7-0.4C814.3,1200,818.5,1200.5,823.7,1200.5z" class="colord3c9cf svgShape"></path>
    </g>
    <g fill="#080e24" class="color000000 svgShape">
      <path fill="#d7dbe2" d="M1104.8,1201.2c-0.3,0.6-41.8,0.1-41.8,0.1s-3.6-10.2,5-14.4c8.5-4.2,11.3,2.9,11.3,2.9s0.1-3.5,3.1-4.2     c3-0.7,1.5,4.5,1.5,4.5s2.4-4.7,6.1-5.2c3.7-0.5,4.4,4.3,2.5,9.3C1092.5,1193.9,1108.9,1193.9,1104.8,1201.2z" class="colore2d7de svgShape"></path>
      <path fill="#eaecef" d="M1099.3,1201.2c-0.2,0.4-31.4,0-31.4,0s-2.7-7.7,3.7-10.9c6.4-3.2,8.5,2.2,8.5,2.2s0.1-2.6,2.3-3.2     c2.3-0.5,1.1,3.4,1.1,3.4s1.8-3.5,4.6-3.9c2.8-0.4,3.3,3.3,1.9,7C1090,1195.8,1102.4,1195.8,1099.3,1201.2z" class="coloreaefee svgShape"></path>
    </g>
    <g fill="#080e24" class="color000000 svgShape">
      <path fill="#ffffff" d="M922.4 1467.4H801.7c-4.7 0-9-3.2-9.7-7.8-1-5.9 3.5-10.9 9.2-10.9h121.2c5.2 0 9.4 4.2 9.4 9.4v0C931.8 1463.2 927.6 1467.4 922.4 1467.4zM1128.1 1467.4H953.9c-5.2 0-9.4-4.2-9.4-9.4v0c0-5.2 4.2-9.4 9.4-9.4h174.7c5.7 0 10.2 5.1 9.2 10.9C1137.1 1464.2 1132.8 1467.4 1128.1 1467.4zM1004.2 1421.4H801.7c-4.7 0-9-3.2-9.7-7.8-1-5.9 3.5-10.9 9.2-10.9h203c5.2 0 9.4 4.2 9.4 9.4l0 0C1013.6 1417.2 1009.4 1421.4 1004.2 1421.4zM1004.2 1375.4H801.7c-4.7 0-9-3.2-9.7-7.8-1-5.9 3.5-10.9 9.2-10.9h203c5.2 0 9.4 4.2 9.4 9.4l0 0C1013.6 1371.2 1009.4 1375.4 1004.2 1375.4zM1128.1 1421.4h-92.4c-5.2 0-9.4-4.2-9.4-9.4l0 0c0-5.2 4.2-9.4 9.4-9.4h92.9c5.7 0 10.2 5.1 9.2 10.9C1137.1 1418.2 1132.8 1421.4 1128.1 1421.4z" class="colorffffff svgShape"></path>
    </g>
  </g>
  <g fill="#080e24" class="color000000 svgShape">
    <path fill="#ffe49f" d="M1418.6,2399c0,0-11.2-85.3,1.1-89.7c12.3-4.4,40.1-3.7,45.8,2.5c5.8,6.2-6,94.4-17.9,104.8      C1435.8,2426.8,1422.4,2421.6,1418.6,2399z" class="colorffbf9f svgShape"></path>
    <path fill="#232633" d="M1341.9,2460.5c0,0-0.7,12.3,10.2,17.7c27,13.5,116.3-1.4,120.7-9.7c4.4-8.3,2.8-18.7,2.8-18.7      L1341.9,2460.5z" class="color33232a svgShape"></path>
    <path fill="#232633" d="M1429.4,2371.5c0,0,23.1,0.5,33.6-3.4c9.5-3.5,18.1,81.4,10.2,91.6c-7.9,10.2-64.8,2.2-64.8,2.2      s7.3-20.4,11.6-44C1424.2,2394.3,1408,2376,1429.4,2371.5z" class="color33232a svgShape"></path>
    <path fill="#3a3d49" d="M1407,2404.5c0,0-19.6-37.8-3.4-41.1c16.2-3.4,20.9-0.6,30,4.8c9.1,5.5-5.9,34.6-7.6,39      C1424.3,2411.6,1407,2404.5,1407,2404.5z" class="color493a41 svgShape"></path>
    <path fill="#3a3d49" d="M1383.1,2429.5c0,0,20.3,1.5,28,12.3c7.7,10.8,28.3-24.3,22.2-36.5c-6-12.2-31.4-3.6-31.4-3.6      S1406.9,2425.5,1383.1,2429.5z" class="color493a41 svgShape"></path>
    <path fill="#3a3d49" d="M1344.1,2468.1c14.8,11.9,65.6,14.2,76,1.8c10.4-12.4-1.8-57.6-48-47      C1353.2,2427.2,1333.8,2459.8,1344.1,2468.1z" class="color493a41 svgShape"></path>
    <path fill="#232633" d="M1337.8 1349c16.7 122.4 54.4 749.8 66.1 995.6l72 4.3c0 0 115.5-772.5 150.2-998.8L1337.8 1349zM1711.5 2460.9c3.1 11.3 5.7 19.2 5.7 19.2s40.5 69.2 62.7-10.3l0 0c1.5-5.3 2.7-11.3 4.2-18 14.8-66.1-42.7-43-42.7-43s-18.9-10.6-33 5.8C1698.9 2425.6 1705.2 2437.9 1711.5 2460.9z" class="color33232a svgShape"></path>
    <path fill="#ffe49f" d="M1763.5,2340.1c-0.6,32.5,4.9,98,4.9,98c-8.7,28.4-26.8,33-40.4,17.6c-10.1-11.4-22.1-78.5-32.9-114.7       L1763.5,2340.1z" class="colorffbf9f svgShape"></path>
    <path fill="#232633" d="M1804.6,2509.2c0,0,3,16.1-1.5,20.5c-18.1,17.7-89.9,19.3-104.7,4.3c-7.4-7.5,1.7-28,1.7-28L1804.6,2509.2      z" class="color33232a svgShape"></path>
    <path fill="#3a3d49" d="M1766,2387c0,0,2.7,62.2-4,74.1c-6.7,11.9-24.4,21-31.1,6.6c-6.6-14.4-16.2-73.7-8.5-79.5      C1730.3,2382.4,1764.3,2378.2,1766,2387z" class="color493a41 svgShape"></path>
    <path fill="#3a3d49" d="M1760.6,2466.9c0,0,25-57.8,7.6-48.9c-22.2,11.3-32.8,6.6-49.5,3.3c-13.2-2.6,8.4,43.6,10.6,47.5      C1731.4,2472.8,1760.6,2466.9,1760.6,2466.9z" class="color493a41 svgShape"></path>
    <path fill="#3a3d49" d="M1801.7 2519.2c-19 15.8-84.9 19.8-98.6 4-13.7-15.9 1.1-74.8 61.2-62.1C1789.1 2466.3 1815 2508.2 1801.7 2519.2zM1477.9 1347.7l212.9 1035 83.1-9.6c0 0-25.1-770.4-42.1-1025.3L1477.9 1347.7z" class="color493a41 svgShape"></path>
    <path fill="#0039a9" d="M1428,838.1L1296.7,1127l-156.6,167.2l43,71.8c0,0,121.2-95.5,151.7-136.3c47.8-63.8,137.5-287.7,137.5-287.7   l4.5-116.6L1428,838.1z" class="color00a99d svgShape"></path>
    <path fill="#76a4ff" d="M1279.2,1373.1c0,0,0,39.2,309.7,39c45.7,0,177.1-39,177.1-39c-49.7-227.5-155.3-547.9-155.3-547.9   s-131.4-3.1-136.3,0C1436.4,849,1304.6,1280.9,1279.2,1373.1z" class="color3fc9bc svgShape"></path>
    <path fill="#0039a9" d="M1765.9,1373.1c0,0-131.4,38.9-177.1,39c-309.6,0.2-309.6-39-309.6-39c19-69,97.4-327.7,151.7-463.9   c1.8,45.2,7.5,115.7,25.8,145.6c27.9,45.6,108.5,37.4,110,48.4c1.6,11.1,15.8,228.6,157,99.6   C1739.5,1261.1,1754.3,1319.6,1765.9,1373.1z" opacity=".2" class="color00a99d svgShape"></path>
    <path fill="#0039a9" d="M1442.9,930c1.3,0.4,53.2,3.4,53.2,3.4l-3.9,17.3l-49.3-4.7V930z" class="color00a99d svgShape"></path>
    <g fill="#080e24" class="color000000 svgShape">
      <polygon fill="#efae07" points="1492.2 1112.3 1461 1135.6 1104.9 1135.6 1123.4 1127 1144 1117.3 1154.8 1112.3" class="colorefac07 svgShape"></polygon>
      <rect width="356" height="239.8" x="1104.9" y="1135.6" fill="#f9b300" class="colorf9c300 svgShape"></rect>
      <path fill="#d69d0d" d="M1151.3,1357.6h-23.6v-17.5h23.6V1357.6z M1129.2,1356h20.4v-14.3h-20.4V1356z" class="colord6980d svgShape"></path>
      <path fill="#d69d0d" d="M1140 1348.8h6.8c0 0-1.1-5.7-7.4-5.7-5.5 0-7.4 5.7-7.4 5.7h6.8v4.5h-1.6v1.3h4.2v-1.3h-1.6V1348.8zM1178.4 1357.6h-23.6v-17.5h23.6V1357.6zM1156.4 1356h20.4v-14.3h-20.4V1356z" class="colord6980d svgShape"></path>
      <path fill="#d69d0d" d="M1168.9 1354.6h-5.5v-5.5h5.5V1354.6zM1165 1353h2.3v-2.3h-2.3V1353zM1174.7 1354.6h-5.5v-5.5h5.5V1354.6zM1170.8 1353h2.3v-2.3h-2.3V1353zM1205.3 1357.6h-23.6v-17.5h23.6V1357.6zM1183.3 1356h20.4v-14.3h-20.4V1356z" class="colord6980d svgShape"></path>
      <path fill="#d69d0d" d="M1196.5,1344.5v3.2c0,1.6-1.3,2.9-2.9,2.9s-2.9-1.3-2.9-2.9v-3.2h-2.7v3.4c0,3.1,2.5,5.6,5.6,5.6      c3.1,0,5.6-2.5,5.6-5.6v-3.4H1196.5z" class="colord6980d svgShape"></path>
      <polygon fill="#d69d0d" points="1264.7 1133.9 1274.7 1127 1277.5 1127.8 1286 1127 1288.4 1127.5 1294.3 1127 1296.2 1127.6 1300.4 1127 1304.2 1127.6 1307.4 1127 1308.4 1127.8 1316 1127 1303.6 1135.6 1303.6 1181.9 1299.7 1177.5 1292.3 1181.9 1289 1178.7 1284 1181.9 1281.2 1178.3 1277.9 1181.9 1273.2 1178.1 1270.9 1181.9 1268.8 1177.5 1262.3 1181.9 1262.3 1133.9" class="colord6980d svgShape"></polygon>
      <polygon fill="#d69d0d" points="1311.7 1120.4 1305.8 1121 1303.9 1120.3 1299.7 1121 1296 1120.3 1292.7 1121 1291.8 1120.2 1284.1 1121 1296.5 1112.3 1337.8 1112.3 1325.4 1121 1322.7 1120.2 1314.1 1121" class="colord6980d svgShape"></polygon>
      <polygon fill="#d69d0d" points="1303.6 1377.6 1303.6 1329.6 1297 1334 1295 1329.6 1292.7 1333.4 1288 1329.6 1284.7 1333.2 1281.9 1329.6 1276.8 1332.8 1273.5 1329.6 1266.2 1334 1262.3 1329.6 1262.3 1377.6" class="colord6980d svgShape"></polygon>
      <rect width="85.7" height="48" x="1352" y="1162.7" fill="#ffc531" class="colorffbb01 svgShape"></rect>
      <rect width="308.5" height="72.7" x="1129.2" y="1221.8" fill="#ffc531" class="colorffbb01 svgShape"></rect>
      <polygon fill="#ffc531" points="1461 1135.6 1492.2 1112.3 1492.2 1349.1 1461 1375.4" class="colorffbb01 svgShape"></polygon>
      <path fill="#d69d0d" d="M1474.1 1125.8v22l1.6-2.4.5.7.9-1.6.9 1 1-2.6.9 1.2.8-2.6c0 0 .8 1 .8.8 0-.2.9-1.4.9-1.4l1.1.2v-22.5H1453l1 .8-1.5.2.6.9-1.1.2.2.7-1.5 0 .2 1-1.2.3 1 1-1.5.3.8.9-1.1.5 1.3.8L1474.1 1125.8zM1158.6 1119.9l-3.3.8.7.8-2.8.8.7 1-2.6.4c0 0 .6 1.2.3 1.2-.2 0-2.7.4-2.7.4l-.4 1.6h-25.3l20.7-9.6 16.3.4-2.4 1.7L1158.6 1119.9z" class="colord6980d svgShape"></path>
      <g fill="#080e24" class="color000000 svgShape">
        <polygon fill="#efae07" points="1414 944.7 1392.2 960.9 1144.5 960.9 1157.3 954.9 1171.7 948.2 1179.1 944.7" class="colorefac07 svgShape"></polygon>
        <rect width="247.8" height="166.9" x="1144.5" y="960.9" fill="#f9b300" class="colorf9c300 svgShape"></rect>
        <path fill="#d69d0d" d="M1176.7,1115.4h-16.5v-12.2h16.5V1115.4z M1161.4,1114.3h14.2v-9.9h-14.2V1114.3z" class="colord6980d svgShape"></path>
        <path fill="#d69d0d" d="M1168.9 1109.3h4.7c0 0-.8-4-5.1-4-3.8 0-5.1 4-5.1 4h4.7v3.1h-1.1v.9h2.9v-.9h-1.1V1109.3zM1195.6 1115.4h-16.5v-12.2h16.5V1115.4zM1180.3 1114.3h14.2v-9.9h-14.2V1114.3z" class="colord6980d svgShape"></path>
        <path fill="#d69d0d" d="M1189 1113.3h-3.9v-3.9h3.9V1113.3zM1186.3 1112.2h1.6v-1.6h-1.6V1112.2zM1193.1 1113.3h-3.9v-3.9h3.9V1113.3zM1190.3 1112.2h1.6v-1.6h-1.6V1112.2zM1214.3 1115.4h-16.5v-12.2h16.5V1115.4zM1199 1114.3h14.2v-9.9H1199V1114.3z" class="colord6980d svgShape"></path>
        <path fill="#d69d0d" d="M1208.2,1106.3v2.2c0,1.1-0.9,2-2,2c-1.1,0-2.1-0.9-2.1-2v-2.2h-1.9v2.4c0,2.2,1.8,3.9,3.9,3.9      c2.2,0,3.9-1.8,3.9-3.9v-2.4H1208.2z" class="colord6980d svgShape"></path>
        <polygon fill="#d69d0d" points="1255.7 959.7 1262.6 954.9 1264.6 955.5 1270.5 954.9 1272.2 955.3 1276.3 954.9 1277.6 955.4 1280.5 954.9 1283.1 955.4 1285.4 954.9 1286 955.5 1291.4 954.9 1282.7 960.9 1282.7 993.1 1280 990.1 1274.9 993.1 1272.6 990.9 1269.1 993.1 1267.1 990.7 1264.9 993.1 1261.6 990.5 1260 993.1 1258.5 990.1 1254 993.1 1254 959.7" class="colord6980d svgShape"></polygon>
        <polygon fill="#d69d0d" points="1288.4 950.3 1284.2 950.7 1282.9 950.3 1280 950.7 1277.4 950.3 1275.1 950.7 1274.5 950.2 1269.2 950.7 1277.8 944.7 1306.6 944.7 1297.9 950.7 1296 950.2 1290.1 950.7" class="colord6980d svgShape"></polygon>
        <polygon fill="#d69d0d" points="1282.7 1129.3 1282.7 1096 1278.2 1099 1276.7 1096 1275.1 1098.6 1271.9 1096 1269.6 1098.4 1267.6 1096 1264.1 1098.1 1261.8 1096 1256.7 1099 1254 1096 1254 1129.3" class="colord6980d svgShape"></polygon>
        <rect width="59.7" height="33.4" x="1316.4" y="979.8" fill="#ffc531" class="colorffbb01 svgShape"></rect>
        <rect width="214.7" height="50.6" x="1161.4" y="1020.9" fill="#ffc531" class="colorffbb01 svgShape"></rect>
        <polygon fill="#ffc531" points="1392.2 960.9 1414 944.7 1414 1109.5 1392.2 1127.8" class="colorffbb01 svgShape"></polygon>
        <path fill="#d69d0d" d="M1401.4 954.1v15.3l1.1-1.6.4.5.6-1.1.6.7.7-1.8.6.8.6-1.8c0 0 .5.7.5.5s.6-1 .6-1l.8.2v-15.7h-21.4l.7.6-1 .1.4.6-.8.2.1.5-1 0 .2.7-.8.2.7.7-1.1.2.6.6-.8.3.9.5L1401.4 954.1zM1181.8 950l-2.3.6.5.6-1.9.5.5.7-1.8.3c0 0 .4.9.2.9-.2 0-1.9.3-1.9.3l-.3 1.1h-17.6l14.4-6.7 11.3.3-1.6 1.1L1181.8 950z" class="colord6980d svgShape"></path>
      </g>
    </g>
    <g fill="#080e24" class="color000000 svgShape">
      <path fill="#ffe49f" d="M1502.2,826.3l1.5-88.8l66.3,18.3l4.3,77.2c0,0-2.8,28.6-39,25.6C1505,856.1,1502.2,826.3,1502.2,826.3z" class="colorffbf9f svgShape"></path>
      <path fill="#efd48f" d="M1571.4,778.7l2.7,49.3c-46.4-4-55.6-66.3-55.6-66.3L1571.4,778.7z" class="colorefac8f svgShape"></path>
      <path fill="#c9ccd3" d="M1668.3,667.1l-56.5,5.8c0,0-10.4-20,11.6-20.8C1645.4,651.3,1668.3,667.1,1668.3,667.1z" class="colord3c9cf svgShape"></path>
      <path fill="#232633" d="M1626,650.6c0,2.4,10.2,30.6,4.5,41.9c-5.7,11.3-17.2,1.7-17.2,1.7s-22.2-34.6-20.5-39.6      C1594.7,649.5,1626,650.6,1626,650.6z" class="color33232a svgShape"></path>
      <path fill="#ffe49f" d="M1471,708.3c1.6-17.3,23.5-10.6,23.5-10.6l-8.8-38.4c0,0,99.5-47.9,135.6-7.7      c4.9,56.2,22.4,106.7-21.1,135.1c-43.5,28.4-51.9,11.8-75.6-2.8c-20.4-12.6-23.2-45.2-23.2-45.2S1468.3,738.3,1471,708.3z" class="colorffbf9f svgShape"></path>
      <path fill="#eaecef" d="M1558.3,759.3c0,0,33.6-2.1,33.7,1.9c0.1,4-3.3,12.8-16.7,14C1561.9,776.5,1558.3,759.3,1558.3,759.3z" class="coloreaefee svgShape"></path>
      <path fill="#232633" d="M1483.1 705.4c3.9 3.2 11 13.8 6 21.6 0 0 .2-5.3-2.6-8.6l-7-3.5 7.1-.3L1483.1 705.4zM1629 648.6c0 0-51.3-6.7-68.4-5.6-18 1.2-58.7-3.6-47.9 20.6 10.8 24.2-.2 53.8-6.1 55-4.5 0-19.2-20.7-19.2-20.7s-33.9-60.9 51-90.6C1609.2 582.5 1633.4 634.8 1629 648.6z" class="color33232a svgShape"></path>
      <g fill="#080e24" class="color000000 svgShape">
        <path fill="#232633" d="M1538.3 682.4c0-.7.4-1.4 1.1-1.8 15.8-6.9 26 8.8 26.1 8.9.6.9.3 2-.6 2.5-.9.5-2 .3-2.5-.6-.3-.5-8.6-13.2-21.5-7.5-.9.4-2 0-2.4-.9C1538.4 682.9 1538.3 682.7 1538.3 682.4zM1586 690.3c-.4-.6-.3-1.5.2-2.1 10.8-13.5 27.1-4.3 27.2-4.2.9.5 1.2 1.6.7 2.5-.5.9-1.6 1.2-2.5.7-.6-.3-13.7-7.7-22.5 3.3-.6.8-1.8.9-2.6.3C1586.2 690.7 1586.1 690.5 1586 690.3z" class="color33232a svgShape"></path>
        <path fill="#efd48f" d="M1521.4 737.4c-.7 4.1 3.8 8.3 10 9.3 6.2 1 11.8-1.4 12.5-5.5.7-4.1-3.8-8.3-10-9.3C1527.7 730.8 1522.1 733.3 1521.4 737.4zM1617 735.4c.7 4.1-3.8 8.3-10 9.3-6.2 1-11.8-1.4-12.5-5.5-.7-4.1 3.8-8.3 10-9.3C1610.7 728.9 1616.3 731.3 1617 735.4z" class="colorefac8f svgShape"></path>
        <path fill="#232633" d="M1574.8 742.9c.6 0 1.2-.1 1.8-.3 3.7-1.1 5.2-5.2 5.3-5.4.2-.5.1-1.1-.2-1.5-6.2-9.5-5.1-24.4-6-24.5-1-.1-3.7 15.1 2.6 25.6-.5.9-1.4 2.2-2.7 2.5-1.2.3-6.1-1.8-6.7-1.1C1568.4 739 1573 742.9 1574.8 742.9zM1551.7 707.7c0 5.4-3 9.8-6.7 9.8-3.7 0-6.7-4.4-6.7-9.8 0-5.4 3-9.8 6.7-9.8 1.6 0 3.1.8 4.3 2.3-1.3.3-2.2 1.5-2.2 2.8 0 1.6 1.3 2.9 2.9 2.9.5 0 1.1-.1 1.5-.4C1551.6 706.3 1551.7 707 1551.7 707.7zM1607.8 707.7c0 5.4-3 9.8-6.7 9.8-3.7 0-6.7-4.4-6.7-9.8 0-5.4 3-9.8 6.7-9.8 1.6 0 3.1.8 4.3 2.3-1.3.3-2.2 1.5-2.2 2.8 0 1.6 1.3 2.9 2.9 2.9.5 0 1-.1 1.5-.4C1607.8 706.3 1607.8 707 1607.8 707.7z" class="color33232a svgShape"></path>
      </g>
      <path fill="#76a4ff" d="M1513.6,594.2c-3.9-3.9-6-7.7-2.7-8.4c3.3-0.7,9-3.7,10.3-2.3c1.3,1.4,1.7,8.4,1.7,8.4L1513.6,594.2z" class="color3fc9bc svgShape"></path>
      <path fill="#0039a9" d="M1640.2,647l-111.9,16.7l-50.4,27.7c0,0-26.2-77.7,38.9-100.9C1614.6,555.9,1640.2,647,1640.2,647z" class="color00a99d svgShape"></path>
      <path fill="#76a4ff" d="M1640.5,647.7c0,0-16.2-24.6-39.1-37.7c-8-4.6-47.6-2.4-56.4,13c-10,17.6-12.4,40.1-12.4,40.1L1640.5,647.7z    " class="color3fc9bc svgShape"></path>
      <path fill="#eaecef" d="M1668.3,667.1c0,0-39.9-16.1-69.6-1.2c0,0-39.6,17-70.4-2.2c67.5-23.6,98.4-19.9,98.4-19.9    S1640.2,640.8,1668.3,667.1z" class="coloreaefee svgShape"></path>
      <path fill="#76a4ff" d="M1516.8,590.6c0,0-37.4,46.4-23.5,88.3C1493.2,678.9,1469.7,642.1,1516.8,590.6z" class="color3fc9bc svgShape"></path>
    </g>
    <g fill="#080e24" class="color000000 svgShape">
      <path fill="#ffe49f" d="M1080.4,1305.5c0.9,0.7,4.7-0.2,4.7-0.2s-3.4,1.9-3.7,3.1c-1.1,3.7,1.6,12.4,4.6,14.9     c1.3,1.1,6.7,0.7,6.7,0.7l-2.8,2.5c0,0,0.6,8.6,6.1,10.8c3.1-0.5,50.5-10.3,57.1-18.3c1.8-2.2,1.6-11.4,1.6-11.4     s-12.7,0.4-13.6,0.4c8.4-4,13.3-4.1,17.1-8.5c2-2.3,1.9-11.7,1.9-11.7s-15.8,1.9-20.8,1.6c6.3-2.8,18.7-6.2,20.9-9.7     c1.7-2.6-0.4-11-0.4-11s-14.9,2.9-21.9,3.8c8.8-5.3,15.1-5.9,16.4-10.7c0.8-3-1.2-10.2-1.2-10.2s-43.1,3.2-56.9,9.2     c-2.4,1-17.8,12.6-20.1,16.5c-1.5,2.5,1.2,8.1,1.2,8.1l2.9,1.5c0,0-3,2.3-3.3,3.5C1075.7,1293.9,1077.2,1303.1,1080.4,1305.5z" class="colorffbf9f svgShape"></path>
      <path fill="#efd48f" d="M1113.1 1277.5c-.2-.5 5.9-2.7 13.6-4.2 7.7-1.6 14-2.3 14.1-1.8.1.5-6.1 2.1-13.7 3.7C1119.5 1276.8 1113.3 1278 1113.1 1277.5zM1116.8 1295.1c-.2-.5 5.4-2.6 12.5-4.3 7.1-1.7 12.9-2.5 13-2 .1.5-5.5 2.2-12.6 3.9C1122.7 1294.4 1116.9 1295.6 1116.8 1295.1zM1119.7 1313.2c-.1-.5 4.7-2.2 10.8-3.6 6.1-1.5 11.1-2.2 11.2-1.7.1.5-4.7 2.2-10.8 3.6C1124.9 1313 1119.9 1313.8 1119.7 1313.2z" class="colorefac8f svgShape"></path>
    </g>
    <g fill="#080e24" class="color000000 svgShape">
      <path fill="#0039a9" d="M1610.7,825.3l52.7,8c0,0,128.3,227,163.9,314.9c6.2,15.3-35.6,55.6-35.6,55.6l-98.5-62.1L1610.7,825.3z" class="color00a99d svgShape"></path>
      <path fill="#76a4ff" d="M1754.3,1149c2.4,15.3-61.1-7.1-61.1-7.1C1715.8,1145.6,1752.3,1136.9,1754.3,1149z" class="color3fc9bc svgShape"></path>
      <path fill="#ffe49f" d="M1529.2,1351.8l-6.6-44.9c0,0-19.4,12.1-25.5,13.6c-12.9,3.2-52.9,12.5-66.5,16.6c-9.5,3.2,3,12.1,3,12.1     l30.5,2.6c0,0-13.3,8.9-16.6,10.8c-3.3,1.9-21.4,7.3-32,7.8c-10.6,0.6-25.5,1.4-38.5,6.2c-13,4.8-7.2,16.1-7.2,16.1     s61.9,1.6,77.7-0.4c15.8-2.1,55.2-20.1,55.2-20.1L1529.2,1351.8z" class="colorffbf9f svgShape"></path>
      <path fill="#efd48f" d="M1456.7,1356.7c0.1,0.4-6.6,4.4-17.4,10.5c-6.4,1.2-13.4,2.4-21.2,3.7c-11.3,1.9-21.6,3.5-29,4.5      c-7.4,1-12.1,1.5-12.1,1.2c-0.1-0.3,4.5-1.4,11.9-2.8c7.4-1.4,17.6-3.3,28.9-5.2c7.6-1.3,15.1-2.5,20.9-3.4      C1449.1,1360,1456.6,1356.3,1456.7,1356.7z" class="colorefac8f svgShape"></path>
      <path fill="#0039a9" d="M1791.7,1203.9c-49,41.7-262.5,162-262.5,162l-25.5-57.1l190.1-167.1    C1693.9,1141.8,1789.3,1174.2,1791.7,1203.9z" class="color00a99d svgShape"></path>
    </g>
  </g>
  <g fill="#080e24" class="color000000 svgShape">
    <path fill="#f9b300" d="M840.6,508h436.6c18.2,0,32.9,14.7,32.9,32.9v157.2c0,18.2-14.7,32.9-32.9,32.9h-2.5l5.2,45.9   c0,0-43.9-28.5-69.8-45.9H840.6c-18.2,0-32.9-14.7-32.9-32.9V540.9C807.7,522.7,822.5,508,840.6,508z" class="colorf9c300 svgShape"></path>
    <path fill="#d69d0d" d="M898 550.8h11.3l15.7 36.8 15.7-36.8h11.2v49.5H942V568l-13.3 32.2h-7.5L907.9 568v32.2H898V550.8zM984.7 600.7c-14 0-25.4-10.5-25.4-25.4 0-14.8 11.4-25.3 25.4-25.3 14.1 0 25.3 10.5 25.3 25.3C1010 590.2 998.7 600.7 984.7 600.7zM984.7 591.9c8.9 0 15.1-6.5 15.1-16.5 0-10.1-6.2-16.4-15.1-16.4-9 0-15.2 6.3-15.2 16.4C969.5 585.4 975.7 591.9 984.7 591.9zM1051.2 550.8h10.6l-18.1 49.5h-12l-18.1-49.5h10.6l13.6 39.3L1051.2 550.8zM1067.8 550.8h9.9v49.5h-9.9V550.8zM1129.8 550.7v49.5h-9.9l-22.5-33.9v33.9h-9.9v-49.5h9.9l22.5 34v-34H1129.8zM1185.5 565.6H1174c-2.3-4.2-6.4-6.4-11.6-6.4-8.9 0-15 6.3-15 16.2 0 10.1 6.2 16.3 15.5 16.3 7.7 0 12.5-4.4 14-11.4h-17v-7.6h26.8v8.6c-2 10.1-11 19.3-24.2 19.3-14.4 0-25.3-10.4-25.3-25.2 0-14.8 10.9-25.3 25.2-25.3C1173.5 550.1 1182.3 555.7 1185.5 565.6zM915.1 685.8c-10.3 0-18.2-5.4-18.4-14.7h10.6c.3 4 2.9 6.6 7.5 6.6 4.7 0 7.4-2.5 7.4-6 0-10.7-25.5-4.3-25.4-22.2 0-8.9 7.2-14.3 17.4-14.3 10.1 0 17.1 5.2 17.7 14.1h-10.9c-.2-3.3-2.8-5.8-7.1-5.9-3.9-.1-6.8 1.8-6.8 5.8 0 9.9 25.4 4.4 25.4 21.8C932.6 678.8 926.3 685.8 915.1 685.8zM969.9 643.8h-18.8v12.4h16.7v7.9h-16.7v13.1h18.8v8.1h-28.7v-49.5h28.7V643.8zM997.4 635.8c11.9 0 17.9 6.9 17.9 15.2 0 6-3.3 12.1-11.3 14.2l11.8 20.1h-11.5L993.5 666h-4.7v19.3h-9.9v-49.5H997.4zM997.1 644.1h-8.3v14.5h8.3c5.5 0 8-2.9 8-7.4C1005.1 646.8 1002.6 644.1 997.1 644.1zM1058.2 635.8h10.6l-18.1 49.5h-12l-18.1-49.5h10.6l13.6 39.3L1058.2 635.8zM1074.7 635.8h9.9v49.5h-9.9V635.8zM1117.1 635.2c11 0 19.9 5.9 23.2 16H1129c-2.3-4.7-6.6-7.1-11.9-7.1-8.6 0-14.8 6.3-14.8 16.4 0 10 6.2 16.4 14.8 16.4 5.3 0 9.6-2.3 11.9-7.2h11.4c-3.3 10.2-12.3 16-23.2 16-14.2 0-25.1-10.4-25.1-25.2C1092 645.7 1102.9 635.2 1117.1 635.2zM1177.6 643.8h-18.8v12.4h16.7v7.9h-16.7v13.1h18.8v8.1h-28.7v-49.5h28.7V643.8zM1203.7 685.8c-10.3 0-18.2-5.4-18.4-14.7h10.6c.3 4 2.9 6.6 7.5 6.6 4.7 0 7.4-2.5 7.4-6 0-10.7-25.5-4.3-25.4-22.2 0-8.9 7.2-14.3 17.4-14.3 10.1 0 17.1 5.2 17.7 14.1h-10.9c-.2-3.3-2.8-5.8-7.1-5.9-3.9-.1-6.8 1.8-6.8 5.8 0 9.9 25.4 4.4 25.4 21.8C1221.2 678.8 1215 685.8 1203.7 685.8z" class="colord6980d svgShape"></path>
  </g>
  <g fill="#080e24" class="color000000 svgShape">
    <path fill="#d7dbe2" d="M2443 2021.4c-39.1 42.7-92.9 96.6-96.5 100.2-.1.1-.2.1-.2.1l-12-5.5 103.4-101.8 45.7-45C2485.8 1972.8 2467.2 1994.9 2443 2021.4zM2376.2 1981.3c-15.9 55.7-39.9 128-41.5 132.8-.1.1-.1.2-.1.2l-13.2.4 47-137.3 20.8-60.7C2392.8 1918.6 2386.1 1946.7 2376.2 1981.3z" class="colore2d7de svgShape"></path>
    <path fill="#d4dbe8" d="M2232.1,2543.2c-52.8,0-105.8-3.3-157.4-9.9c-50.8-6.7-89-52.5-87.4-104.3l6.9-224.4    c1.6-50.7,39.4-93.7,87.9-100.1c50.1-6.4,101.1-9.6,152-9.6c81.6,0,164.6,8.2,246.7,24.4c46.5,9.6,82.4,51.4,84,97.4l6.9,199.1    c1.7,48.1-33.8,91.9-82.7,102C2403.1,2534.7,2316.9,2543.2,2232.1,2543.2z" class="colord4e8e6 svgShape"></path>
    <path fill="#eaecef" d="M2440.6 2456.5c-130.4 25.7-263.4 31.3-393.8 14.7-18.8-2.5-33.4-20.8-32.8-40.3 2.3-74.8 4.6-149.6 6.9-224.4.6-19.4 15.6-37.7 33.6-40.1 125.3-15.9 253-10.5 378.3 14.2 18 3.7 33 21.1 33.6 38.3 2.3 66.3 4.6 132.7 6.9 199C2474 2435.1 2459.4 2452.7 2440.6 2456.5zM2545.5 2233.4c0 16-13 29-29 29-16 0-29-13-29-29 0-16 13-29 29-29C2532.5 2204.4 2545.5 2217.4 2545.5 2233.4zM2537.4 2284.6c0 3.7-9.4 6.7-20.9 6.7s-20.9-3-20.9-6.7c0-3.7 9.4-6.7 20.9-6.7S2537.4 2280.8 2537.4 2284.6zM2537.4 2312.3c0 3.7-9.4 6.7-20.9 6.7s-20.9-3-20.9-6.7c0-3.7 9.4-6.7 20.9-6.7S2537.4 2308.6 2537.4 2312.3zM2537.4 2340.1c0 3.7-9.4 6.7-20.9 6.7s-20.9-3-20.9-6.7c0-3.7 9.4-6.7 20.9-6.7S2537.4 2336.3 2537.4 2340.1zM2537.4 2367.8c0 3.7-9.4 6.7-20.9 6.7s-20.9-3-20.9-6.7c0-3.7 9.4-6.8 20.9-6.8S2537.4 2364.1 2537.4 2367.8z" class="coloreaefee svgShape"></path>
    <g fill="#080e24" class="color000000 svgShape">
      <path fill="#abb6ce" d="M1036.4 1780.6c7.5 0 14.4 6 15.4 13.3l102.7 736.3c1 7.3-4.2 13.3-11.7 13.3-7.5 0-14.4-6-15.4-13.3l-102.7-736.3C1023.7 1786.6 1028.9 1780.6 1036.4 1780.6zM748.3 1780.6c7.5 0 14.4 6 15.4 13.3l102.7 736.3c1 7.3-4.2 13.3-11.7 13.3s-14.4-6-15.4-13.3l-102.7-736.3C735.6 1786.6 740.9 1780.6 748.3 1780.6z" class="colorabceca svgShape"></path>
      <polygon fill="#abb6ce" points="764.2 1894.6 1052.3 1894.6 1048.7 1868.7 760.6 1868.7" class="colorabceca svgShape"></polygon>
      <polygon fill="#abb6ce" points="794.4 2110.9 1082.5 2110.9 1078.9 2085 790.8 2085" class="colorabceca svgShape"></polygon>
      <polygon fill="#abb6ce" points="824.5 2327.2 1112.6 2327.2 1109 2301.3 820.9 2301.3" class="colorabceca svgShape"></polygon>
      <path fill="#abb6ce" d="M722.3,1755.8H1055c10.1,0,19.4,7.5,20.8,16.8l4.8,32.3c1.4,9.3-5.7,16.8-15.8,16.8H732.1     c-10.1,0-19.4-7.5-20.8-16.8l-4.8-32.3C705.2,1763.3,712.2,1755.8,722.3,1755.8z" class="colorabceca svgShape"></path>
      <g fill="#080e24" class="color000000 svgShape">
        <path fill="#bdd2fd" d="M724.3 1782.8c-7.5 0-14.4 6.1-15.4 13.5l-102.7 749.3c-1 7.5 4.2 13.5 11.7 13.5s14.4-6.1 15.4-13.5L736 1796.4C737 1788.9 731.8 1782.8 724.3 1782.8zM1012.4 1782.8c-7.5 0-14.4 6.1-15.4 13.5l-102.7 749.3c-1 7.5 4.2 13.5 11.7 13.5s14.4-6.1 15.4-13.5l102.7-749.3C1025.1 1788.9 1019.8 1782.8 1012.4 1782.8z" class="colorbddbd8 svgShape"></path>
        <polygon fill="#bdd2fd" points="996.5 1898.8 708.4 1898.8 712 1872.4 1000.1 1872.4" class="colorbddbd8 svgShape"></polygon>
        <polygon fill="#bdd2fd" points="966.3 2118.9 678.2 2118.9 681.8 2092.6 969.9 2092.6" class="colorbddbd8 svgShape"></polygon>
        <polygon fill="#bdd2fd" points="936.2 2339 648.1 2339 651.7 2312.7 939.8 2312.7" class="colorbddbd8 svgShape"></polygon>
        <path fill="#bdd2fd" d="M1038.4,1755.8H705.7c-10.1,0-19.4,8.2-20.8,18.3l-4.8,35.2c-1.4,10.1,5.7,18.3,15.8,18.3h332.7     c10.1,0,19.4-8.2,20.8-18.3l4.8-35.2C1055.5,1764,1048.5,1755.8,1038.4,1755.8z" class="colorbddbd8 svgShape"></path>
      </g>
    </g>
    <g fill="#080e24" class="color000000 svgShape">
      <polygon fill="#eaecef" points="1413.8 2228.3 1373.7 2258.2 916.1 2258.2 939.9 2247.1 966.4 2234.7 980.2 2228.3" class="coloreaefee svgShape"></polygon>
      <rect width="457.6" height="308.2" x="916.1" y="2258.2" fill="#d4dbe8" class="colord4e8e6 svgShape"></rect>
      <path fill="#abb6ce" d="M975.7,2543.5h-30.4V2521h30.4V2543.5z M947.4,2541.4h26.2v-18.4h-26.2V2541.4z" class="colorabceca svgShape"></path>
      <path fill="#abb6ce" d="M961.2 2532.2h8.8c0 0-1.5-7.4-9.5-7.4-7 0-9.5 7.4-9.5 7.4h8.8v5.8h-2.1v1.7h5.4v-1.7h-2V2532.2zM1010.6 2543.5h-30.4V2521h30.4V2543.5zM982.3 2541.4h26.2v-18.4h-26.2V2541.4z" class="colorabceca svgShape"></path>
      <path fill="#abb6ce" d="M998.4 2539.7h-7.1v-7.1h7.1V2539.7zM993.3 2537.6h3v-3h-3V2537.6zM1005.9 2539.7h-7.1v-7.1h7.1V2539.7zM1000.8 2537.6h3v-3h-3V2537.6zM1045.1 2543.5h-30.4V2521h30.4V2543.5zM1016.8 2541.4h26.2v-18.4h-26.2V2541.4z" class="colorabceca svgShape"></path>
      <path fill="#abb6ce" d="M1033.8,2526.7v4.1c0,2.1-1.7,3.8-3.8,3.8c-2.1,0-3.8-1.7-3.8-3.8v-4.1h-3.5v4.4c0,4,3.2,7.2,7.2,7.2     c4,0,7.2-3.2,7.2-7.2v-4.4H1033.8z" class="colorabceca svgShape"></path>
      <polygon fill="#abb6ce" points="1121.5 2256 1134.4 2247.1 1137.9 2248.1 1148.8 2247.1 1152 2247.8 1159.6 2247.1 1162 2247.9 1167.4 2247.1 1172.2 2248 1176.4 2247.1 1177.6 2248.1 1187.4 2247.1 1171.4 2258.2 1171.4 2317.7 1166.5 2312.1 1157 2317.7 1152.8 2313.6 1146.2 2317.7 1142.7 2313.1 1138.5 2317.7 1132.4 2312.8 1129.4 2317.7 1126.8 2312.1 1118.4 2317.7 1118.4 2256" class="colorabceca svgShape"></polygon>
      <polygon fill="#abb6ce" points="1181.9 2238.7 1174.3 2239.4 1171.9 2238.6 1166.5 2239.4 1161.7 2238.5 1157.5 2239.4 1156.3 2238.4 1146.4 2239.4 1162.4 2228.3 1215.5 2228.3 1199.5 2239.4 1196 2238.4 1185 2239.4" class="colorabceca svgShape"></polygon>
      <polygon fill="#abb6ce" points="1171.4 2569.2 1171.4 2507.6 1163 2513.2 1160.4 2507.6 1157.4 2512.4 1151.4 2507.6 1147.2 2512.1 1143.6 2507.6 1137.1 2511.6 1132.8 2507.6 1123.4 2513.2 1118.4 2507.6 1118.4 2569.2" class="colorabceca svgShape"></polygon>
      <rect width="110.2" height="61.6" x="1233.6" y="2293.1" fill="#eaecef" class="coloreaefee svgShape"></rect>
      <rect width="396.4" height="93.4" x="947.4" y="2369" fill="#eaecef" class="coloreaefee svgShape"></rect>
      <polygon fill="#bdd2fd" points="1373.7 2258.2 1413.8 2228.3 1413.8 2532.6 1373.7 2566.4" class="colorbddbd8 svgShape"></polygon>
      <path fill="#abb6ce" d="M1390.6 2245.6v28.3l2.1-3 .7.9 1.2-2 1.2 1.3 1.3-3.3 1.2 1.5 1.1-3.3c0 0 1 1.3 1 1 0-.3 1.2-1.8 1.2-1.8l1.5.3v-28.9h-39.5l1.2 1.1-1.9.2.8 1.1-1.4.3.2.9-1.9-.1.3 1.3-1.5.4 1.2 1.2-2 .4 1.1 1.1-1.5.6 1.6 1L1390.6 2245.6zM985.2 2238l-4.2 1.1.9 1.1-3.6 1 .9 1.2-3.3.5c0 0 .8 1.6.4 1.6-.3 0-3.4.5-3.4.5l-.5 2.1h-32.5l26.6-12.4 20.9.5-3 2.1L985.2 2238z" class="colorabceca svgShape"></path>
    </g>
    <g fill="#080e24" class="color000000 svgShape">
      <path fill="#d4dbe8" d="M2003.3,2291.6c-3.9-6.3-6.2-9-7.8-10.5c-0.5-0.5-0.9-0.8-1.4-1.1c-1.6-1.1-2.8-1.4-5.4-4.6    c-5.6-6.8,19.1-29.6,11.5-38.7c-7.7-9.2-18.6-6.4-22.6-10.7c-4.1-4.4,21.3-26.1,14.1-40.5c-7.3-14.5-22.8-7.4-27.4-12.4    c-4.6-4.8,16-51.7-15.9-62.7c-31.1-9.5-8.4,61.8-19.4,70c-10.4,9.1-23.7-0.4-27.1,18c-3.5,18.2,16.1,16,14.4,25.2    c-1.8,8.9-25.1,11.7-26.1,20.6c-1.2,8.6,18.4,12.7,15.6,24.1c-3,11.1-24,19.8-18.9,35.6c4.9,15.4,42.5,38.4,42.7,38.5    c9.9,2.4,19.9,5.1,30.1,7.9c10.1-6.4,20.4-12.6,30.9-18.6C1990.6,2331.7,2013,2307.1,2003.3,2291.6z" class="colord4e8e6 svgShape"></path>
      <path fill="#abb6ce" d="M1990.6,2331.7c-10.5,6-20.7,12.2-30.9,18.6c-10.2-2.8-20.2-5.5-30.1-7.9c-0.1-0.1-12.5-7.7-24-17.1    c23.4-3.2,62.7-11.5,54.8-15.1c-10.9-5-8.1-8.8,10.2-36.2c18.3-27.4,7.4-17.5-8.7-22.2c-16.2-4.6,5.3-23.9,14.4-38.9    c9.2-15-26.3,9-18.3-29.9c5.4-26.1-7.9-56.1-17.8-73.1c2.2-0.7,4.9-0.6,8.3,0.4c31.9,11,11.3,58,15.9,62.7    c4.6,5,20.1-2.1,27.4,12.4c7.2,14.3-18.3,36-14.1,40.5c4,4.3,14.9,1.5,22.6,10.7c7.6,9.1-17.1,31.9-11.5,38.7    c2.6,3.1,3.8,3.4,5.4,4.5c0.4,0.3,0.9,0.6,1.4,1.1c1.7,1.5,3.9,4.3,7.8,10.6C2013,2307.1,1990.6,2331.6,1990.6,2331.7z" opacity=".5" class="colorabceca svgShape"></path>
      <path fill="#bdd2fd" d="M1883.8,2441.7c0,5.9,0.4,11.6,1.3,17.4c1.8,13.2,5.7,25.6,11.3,36c6.3,12.1,14.8,21.9,24.5,28.3     c0.1,0.1,0.2,0.2,0.4,0.3h-10.3c-6.8,0-12.3,7.8-12.3,17.4h98.1c0-9.6-5.5-17.4-12.3-17.4h-10.3c0.1-0.1,0.2-0.2,0.4-0.3     c9.7-6.4,18.2-16.2,24.5-28.3c5.6-10.4,9.5-22.7,11.3-36c0.9-5.7,1.3-11.4,1.3-17.4c0-7.3-0.5-14.3-1.8-21.1     c-1.9-11.3-5.3-21.7-10-30.9c-1.8-3.6-3.8-7.1-6-10.3c0.1,0,0.2,0,0.4-0.1c7.9-0.9,14-10.2,14-21.4c0-12.2-7-21.8-15.4-21.8     h-90.1c-8.4,0-15.4,9.6-15.4,21.8c0,11.2,6.2,20.4,13.9,21.4c0.1,0.1,0.2,0.1,0.4,0.1c-2.2,3.2-4.2,6.7-6,10.3     c-4.6,9.2-8.1,19.6-9.9,30.9C1884.3,2427.4,1883.8,2434.4,1883.8,2441.7z" class="colorbddbd8 svgShape"></path>
      <path fill="#abb6ce" d="M1982.7,2379.4l7.1,0c0,0,16.3-35.7-10.4-43.2h5l0,0h8.4c8.4,0,15.4,9.6,15.4,21.8    c0,11.4-6.2,20.7-14.3,21.5c7.7,11.4,13.4,25.4,16,41.2c1.3,6.7,1.8,13.7,1.8,21.1c0,5.9-0.4,11.6-1.3,17.4    c-3.8,28.7-17.8,52.6-36.1,64.5l4.6-5.2C2010.8,2451.3,1993,2422.4,1982.7,2379.4z" class="colorabceca svgShape"></path>
      <path fill="#abb6ce" d="M1999.8 2389.8c-1.8-3.6-3.8-7.1-6-10.3.1 0 .2 0 .4-.1h-93c.1.1.2.1.4.1-2.2 3.2-4.2 6.7-6 10.3H1999.8zM1911.8 2516.1c2.9 2.7 5.9 5.2 9.1 7.3h53.7c3.2-2.1 6.2-4.6 9.1-7.3H1911.8z" class="colorabceca svgShape"></path>
    </g>
  </g>
  <g fill="#080e24" class="color000000 svgShape">
    <path fill="#d4dbe8" d="M2378.1,742.7H1906c-17.4,0-31.5,14.1-31.5,31.5v769.4c0,17.4,14.1,31.5,31.5,31.5h472.1    c17.4,0,31.5-14.1,31.5-31.5V774.2C2409.6,756.8,2395.5,742.7,2378.1,742.7z" class="colord4e8e6 svgShape"></path>
    <rect width="409.5" height="409.5" x="1937.3" y="826.1" fill="#ffffff" opacity=".25" class="colorffffff svgShape"></rect>
    <path fill="#ffffff" d="M2285.8,1050.1c-1.1-3.1-2.7-6.3-2.3-9.7c0.3-3.4,2.6-6.3,2.8-9.7c0.6-6.5-6-11.6-7.1-18.1       c-0.4-2.7,0.1-5.4,0.1-8.2c0-2.7-0.7-5.7-3-7.3c-2.2-1.6-5.4-1.2-7.8,0c-5.4,2.7-8.4,9.3-6.9,15.1c0.9,3.4,3.2,6.7,2.9,10.2       c-0.6,6.3-9,10.7-7.4,16.7c0.6,2.3,2.7,4.4,2.1,6.7c-0.4,1.7-2.2,2.7-3.5,3.8c-3.2,2.7-4.5,7.4-3.3,11.4       c0.9,6.1,4.4,11.9,9.7,15.1c6.8,4,16.5,2.9,21.6-3.1C2289.1,1066.9,2288.6,1057.7,2285.8,1050.1z" class="colorffffff svgShape"></path>
    <path fill="#f2f6ff" d="M2264.6 1022.5c0 .3-.1.6-.2 1 0 0 .1 0 .1-.1.7-.4 1.4-1 1.7-1.8.3-.8.3-1.6.2-2.4-.1-1-.3-1.9-.5-2.8-.2-1-.5-2-.6-3.1-.1-.9-.1-1.9.3-2.7.3-.6.8-.9 1.4-1.2.5-.3 1.1-.7 1.2-1.4.1-.9-.5-1.7-.7-2.6-.1-.4-.1-.8-.1-1.2.1-.4.2-.8.4-1.2.4-.8.9-1.5 1.6-2.1.7-.5 1.4-.8 2.2-1.1.4-.1.9-.2 1.3-.3.4-.1.8-.2 1.2-.2.8 0 1.5.1 2.3.2.6 0 1.2-.1 1.6-.5-.4-.7-1-1.4-1.7-1.9-2.2-1.6-5.4-1.2-7.8 0-5.4 2.7-8.4 9.3-6.9 15.1C2262.6 1015.7 2264.9 1019 2264.6 1022.5zM2254.3 1055c1.1-.6 2.4-1 3.3-2 1.1-1.2 1.3-3 1.7-4.5.2-.9.6-1.7.9-2.5.2-.7.4-1.4.4-2.1 0-.8-.2-1.5-.4-2.3-.3-.9-.6-1.8-.9-2.7-.5-1.6-1.1-3.3-1.4-5-.8 1.6-1.3 3.3-.8 5.1.6 2.3 2.7 4.4 2.1 6.7-.4 1.7-2.2 2.7-3.5 3.8-2 1.7-3.2 4.1-3.6 6.7C2252.9 1055.9 2253.6 1055.5 2254.3 1055z" opacity=".2" class="colorf2faff svgShape"></path>
    <path fill="#bdd2fd" d="M2269.6,1068c0,3.2-0.7,24.8,0,29.4h3.1c0.1-4.8-2.1-36.4-2-40.4c3.7-1.7,6.7-4.6,8.7-8.2       c0.3-0.5-0.5-1-0.8-0.4c-1.8,3.2-4.5,5.9-7.8,7.6c0.1-6,0.3-12,0.5-17.9c0-1.2,0.1-2.3,0.1-3.5c2.4-1.2,4.5-2.7,6.5-4.4       c0.2-0.2,0.1-0.5,0-0.7c-0.2-0.2-0.5-0.1-0.7,0c-1.8,1.5-3.8,2.8-5.8,3.9c0.1-4.5,0.3-8.9,0.4-13.4c0-0.6-0.9-0.6-0.9,0       c-0.1,4.6-0.3,9.3-0.4,13.9c-0.1,0.1-0.1,0.3,0,0.4c-0.1,2.7-0.2,5.5-0.2,8.2c-2.6-0.9-5.1-2.2-7.3-3.7       c-0.5-0.3-0.9,0.5-0.4,0.8c2.4,1.7,5,3,7.7,3.9c-0.1,2.8-0.2,5.6-0.2,8.4c-0.1,4.9-0.2,9.9-0.3,14.8c-3.4-2.4-7.8-3.2-10.7-6.3       c-0.4-0.4-1,0.2-0.6,0.7C2261.3,1064.6,2266.1,1065.2,2269.6,1068z" class="colorbddbd8 svgShape"></path>
    <path fill="#ffffff" d="M2080.8,1180.2c-0.9-2.4-2-4.8-1.8-7.3c0.3-2.6,1.9-4.8,2.2-7.4c0.4-5-4.6-8.8-5.4-13.8       c-0.3-2,0.1-4.1,0.1-6.2c0-2.1-0.5-4.4-2.2-5.5c-1.7-1.2-4.1-0.9-6,0c-4.1,2.1-6.4,7.1-5.2,11.5c0.7,2.6,2.4,5.1,2.2,7.7       c-0.4,4.8-6.8,8.1-5.6,12.7c0.5,1.8,2.1,3.3,1.6,5.1c-0.3,1.3-1.6,2-2.7,2.9c-2.4,2.1-3.4,5.6-2.5,8.7       c0.7,4.7,3.3,9.1,7.4,11.5c5.2,3.1,12.6,2.2,16.4-2.4C2083.3,1193,2082.9,1186,2080.8,1180.2z" class="colorffffff svgShape"></path>
    <path fill="#f2f6ff" d="M2064.7 1159.3c0 .2-.1.5-.1.7 0 0 .1 0 .1-.1.6-.3 1.1-.7 1.3-1.4.2-.6.2-1.2.2-1.8-.1-.7-.2-1.4-.3-2.2-.2-.8-.4-1.6-.4-2.4-.1-.6-.1-1.4.2-2 .2-.4.6-.7 1-.9.4-.2.8-.5.9-1 .1-.7-.3-1.3-.5-2-.1-.3-.1-.6 0-.9.1-.3.2-.6.3-.9.3-.6.7-1.2 1.2-1.6.5-.4 1.1-.6 1.7-.8.3-.1.7-.2 1-.3.3-.1.6-.1.9-.2.6 0 1.2.1 1.8.1.5 0 .9 0 1.2-.4-.3-.6-.7-1-1.3-1.4-1.7-1.2-4.1-.9-6 0-4.1 2.1-6.4 7.1-5.2 11.5C2063.2 1154.1 2064.9 1156.6 2064.7 1159.3zM2056.9 1184c.9-.5 1.8-.7 2.5-1.5.8-.9 1-2.2 1.3-3.4.2-.7.5-1.3.7-1.9.2-.5.3-1 .3-1.6 0-.6-.1-1.2-.3-1.7-.2-.7-.4-1.4-.7-2-.4-1.2-.8-2.5-1-3.8-.6 1.2-1 2.5-.6 3.9.5 1.8 2.1 3.3 1.6 5.1-.3 1.3-1.6 2-2.7 2.9-1.5 1.3-2.4 3.1-2.7 5.1C2055.8 1184.7 2056.3 1184.3 2056.9 1184z" opacity=".2" class="colorf2faff svgShape"></path>
    <path fill="#bdd2fd" d="M2068.5,1193.8c0,2.4-0.6,18.8,0,22.3h2.3c0.1-3.6-1.6-27.6-1.5-30.7c2.8-1.3,5.1-3.5,6.6-6.2       c0.2-0.4-0.4-0.7-0.6-0.3c-1.4,2.5-3.4,4.5-5.9,5.7c0.1-4.5,0.3-9.1,0.4-13.6c0-0.9,0.1-1.8,0.1-2.7c1.8-0.9,3.5-2,5-3.3       c0.1-0.1,0.1-0.4,0-0.5c-0.2-0.1-0.4-0.1-0.5,0c-1.4,1.2-2.8,2.2-4.4,3c0.1-3.4,0.2-6.8,0.3-10.2c0-0.5-0.7-0.4-0.7,0       c-0.1,3.5-0.2,7-0.3,10.5c-0.1,0.1-0.1,0.2,0,0.3c-0.1,2.1-0.1,4.2-0.2,6.3c-2-0.7-3.9-1.6-5.6-2.8c-0.4-0.3-0.7,0.4-0.3,0.6       c1.8,1.3,3.8,2.3,5.9,3c-0.1,2.1-0.1,4.3-0.2,6.4c-0.1,3.7-0.2,7.5-0.2,11.2c-2.6-1.8-5.9-2.4-8.1-4.8       c-0.3-0.3-0.8,0.2-0.5,0.5C2062.2,1191.2,2065.9,1191.7,2068.5,1193.8z" class="colorbddbd8 svgShape"></path>
    <path fill="#ffffff" d="M2283 1128.3c0 7.8-6.4 14.2-14.2 14.2-7.8 0-14.2-6.4-14.2-14.2s6.4-14.2 14.2-14.2C2276.6 1114.1 2283 1120.4 2283 1128.3zM2044.9 1160.7c0 10.5-8.5 19.1-19.1 19.1-10.5 0-19.1-8.5-19.1-19.1s8.5-19.1 19.1-19.1C2036.3 1141.6 2044.9 1150.1 2044.9 1160.7z" class="colorffffff svgShape"></path>
    <rect width="31.5" height="49.9" x="2172.6" y="957.9" fill="#f6f6f6" class="colorf6f6f6 svgShape"></rect>
    <rect width="31.5" height="49.9" x="2248.7" y="1164.7" fill="#f6f6f6" transform="rotate(-90 2264.392 1189.674)" class="colorf6f6f6 svgShape"></rect>
    <rect width="31.5" height="49.9" x="2172.6" y="1064.2" fill="#f6f6f6" class="colorf6f6f6 svgShape"></rect>
    <rect width="48" height="31.5" x="2156" y="1020.2" fill="#ffffff" class="colorffffff svgShape"></rect>
    <rect width="109.1" height="31.5" x="2088.5" y="899.9" fill="#ffffff" class="colorffffff svgShape"></rect>
    <rect width="56.6" height="20.9" x="2070.9" y="838.4" fill="#ffffff" class="colorffffff svgShape"></rect>
    <rect width="31" height="20.9" x="2143" y="838.4" fill="#ffffff" class="colorffffff svgShape"></rect>
    <rect width="31" height="20.8" x="2240.9" y="901.7" fill="#ffffff" class="colorffffff svgShape"></rect>
    <path fill="#ffffff" d="M2346.8,870.6h-51.4l-4.7-44.5H2277l4.7,44.5h-58.5c-3.3-18.3-6.6-33.6-9.2-44.5h-14      c2.5,10.4,5.8,25.7,9.3,44.5h-143.7v-44.5h-13.6v44.5h-114.8v13.6h114.8v57.9h-114.8v31.5h104.8c-35.1,6.9-61.6,37.9-61.6,74.9      c0,18.3,6.5,35.1,17.3,48.3l-59.6,121.8c1.5,5.2,4.7,9.6,9,12.7l60.7-124.2c13.3,11.1,30.3,17.8,49,17.8      c9.2,0,18.1-1.6,26.2-4.7l110.6,91.6l0.4-0.5c-3.5,8.3-7.3,16.4-11.5,24.3h15.6c40.8-81.6,43.7-185.3,38.2-261.8      c-2.4-33.1-6.6-63.7-10.9-89.5h57.6l13,122.5l13.5-1.7l-12.8-120.9h49.9V870.6z M2057,1111.3c-34.6,0-62.8-28.1-62.8-62.8      s28.1-62.8,62.8-62.8c34.6,0,62.8,28.2,62.8,62.8S2091.6,1111.3,2057,1111.3z M2199.3,1198.6l-102.6-84.9      c22-13.4,36.7-37.6,36.7-65.2c0-39.2-29.7-71.6-67.7-75.9v-88.4h146.1c4.4,25.9,8.7,57,11.1,90.7      C2227.7,1040.2,2226.1,1125.7,2199.3,1198.6z" class="colorffffff svgShape"></path>
    <path fill="#bdd2fd" d="M2058.9,962.6h-37.8c-1.4,0-2.5-1.1-2.5-2.5c0-1.4,1.1-2.5,2.5-2.5h35.3v-79.4c0-1.4,1.1-2.5,2.5-2.5h172      c1.4,0,2.5,1.1,2.5,2.5c0,1.4-1.1,2.5-2.5,2.5h-169.5v79.4C2061.4,961.4,2060.2,962.6,2058.9,962.6z" class="colorbddbd8 svgShape"></path>
    <path fill="#0039a9" d="M2286.4,860.7c-1.9-12.2-12.4-21.6-25.1-21.6s-23.3,9.4-25.1,21.6c0,0-0.4,2.7-0.3,3.8      c2,23,25.4,47,25.4,47s25.4-29.5,25.4-47C2286.7,863.4,2286.4,860.7,2286.4,860.7z M2261.3,878.2c-7,0-12.7-5.6-12.7-12.7      c0-7,5.7-12.7,12.7-12.7s12.7,5.7,12.7,12.7C2274,872.6,2268.4,878.2,2261.3,878.2z" class="color00a99d svgShape"></path>
    <path fill="#76a4ff" d="M2274,865.6c0,7-5.6,12.7-12.7,12.7s-12.7-5.6-12.7-12.7c0-7,5.7-12.7,12.7-12.7S2274,858.6,2274,865.6z" class="color3fc9bc svgShape"></path>
    <g fill="#080e24" class="color000000 svgShape">
      <path fill="#ffffff" d="M2097.2 1505.3h-136.8c-5.3 0-10.2-3.6-11-8.8-1.1-6.7 4-12.4 10.5-12.4h137.4c5.9 0 10.6 4.8 10.6 10.6v0C2107.8 1500.6 2103.1 1505.3 2097.2 1505.3zM2330.3 1505.3h-197.4c-5.9 0-10.6-4.8-10.6-10.6v0c0-5.9 4.8-10.6 10.6-10.6h198c6.4 0 11.6 5.8 10.5 12.4C2340.5 1501.7 2335.6 1505.3 2330.3 1505.3zM2189.9 1453.2h-229.5c-5.3 0-10.2-3.6-11-8.8-1.1-6.7 4-12.4 10.5-12.4h230.1c5.9 0 10.6 4.8 10.6 10.6l0 0C2200.5 1448.4 2195.7 1453.2 2189.9 1453.2zM2330.3 1453.2h-104.8c-5.9 0-10.6-4.8-10.6-10.6l0 0c0-5.9 4.8-10.6 10.6-10.6h105.3c6.4 0 11.6 5.8 10.5 12.4C2340.5 1449.6 2335.6 1453.2 2330.3 1453.2z" class="colorffffff svgShape"></path>
    </g>
    <g fill="#080e24" class="color000000 svgShape">
      <path fill="#bdd2fd" d="M2287.9,1313.2h-413.3v104.7h413.3c28.9,0,52.4-23.4,52.4-52.4C2340.2,1336.6,2316.8,1313.2,2287.9,1313.2z" opacity=".5" class="colorbddbd8 svgShape"></path>
      <path fill="#eaecef" d="M2298.3,1292h-423.9c-28.9,0-52.4,23.4-52.4,52.4s23.4,52.4,52.4,52.4h423.9c28.9,0,52.4-23.4,52.4-52.4    S2327.2,1292,2298.3,1292z" class="coloreaefee svgShape"></path>
      <polygon fill="#f9b300" points="1944.9 1348 1952.4 1371.3 1952.1 1371.1 1932.7 1356.9 1912.8 1371.3 1920.4 1348 1900.6 1333.7 1925.1 1333.7 1932.7 1310.4 1940.2 1333.7 1964.6 1333.7" class="colorf9c300 svgShape"></polygon>
      <polygon fill="#f9b300" points="2021.7 1348 2029.3 1371.3 2029 1371.1 2009.5 1356.9 1989.7 1371.3 1997.3 1348 1977.5 1333.7 2002 1333.7 2009.5 1310.4 2017 1333.7 2041.5 1333.7" class="colorf9c300 svgShape"></polygon>
      <polygon fill="#f9b300" points="2098.6 1348 2106.2 1371.3 2105.9 1371.1 2086.4 1356.9 2066.6 1371.3 2074.1 1348 2054.4 1333.7 2078.8 1333.7 2086.4 1310.4 2093.9 1333.7 2118.4 1333.7" class="colorf9c300 svgShape"></polygon>
      <polygon fill="#f9b300" points="2175.5 1348 2183.1 1371.3 2182.8 1371.1 2163.3 1356.9 2143.4 1371.3 2151 1348 2131.2 1333.7 2155.7 1333.7 2163.3 1310.4 2170.8 1333.7 2195.3 1333.7" class="colorf9c300 svgShape"></polygon>
      <polygon fill="#f9b300" points="2252.4 1348 2259.9 1371.3 2259.6 1371.1 2240.2 1356.9 2220.3 1371.3 2227.9 1348 2208.1 1333.7 2232.6 1333.7 2240.2 1310.4 2247.7 1333.7 2272.1 1333.7" class="colorf9c300 svgShape"></polygon>
    </g>
  </g>
</svg>
