<svg xmlns="http://www.w3.org/2000/svg" xml:space="preserve" id="Preparingtomovehouse" x="0" y="0" version="1.1" viewBox="0 0 3800 3000" enable-background="new 0 0 3800 3000">
  <path d="M3309.99 1610.35c-66.81 285.49-256.56 478-487.48 575.98-85.74 36.51-176.99 60.35-273.46 73.28-166.73 22.46-348.9 12.46-544.64-20.35-121.04-21.25-239.54-47.76-352.99-78.06-174.66-46.73-337.34-102.46-478.69-162.03-231.69-101.86-405.36-214.11-443.9-399.5-37.67-180.83 68.11-419.81 301.7-647.27 231.26-223.93 590.33-436.36 1005.78-483.34 413.9-52.76 788.01 82.29 1017.51 311.44 233.41 227.41 322.13 548.93 256.17 829.85z" fill="#f6f6f6" class="colorf6f6f6 svgShape"></path>
  <path d="M360.92 1593.9c42.38 181.1 162.75 303.22 309.23 365.37 54.39 23.16 112.27 38.28 173.47 46.48 105.77 14.25 221.32 7.9 345.49-12.91 76.78-13.48 151.95-30.3 223.92-49.52 110.8-29.64 213.99-65 303.66-102.79 146.97-64.61 257.14-135.82 281.59-253.42 23.9-114.71-43.2-266.3-191.38-410.6-146.7-142.05-374.48-276.8-638.02-306.61-262.56-33.47-499.88 52.2-645.46 197.56-148.07 144.28-204.34 348.24-162.5 526.44z" fill="#f6f6f6" class="colorf6f6f6 svgShape"></path>
  <path d="M3447.07 2426.11c-2.61 3.91-339.55 0-339.55 0s-28.87-71.51 40.55-100.96c69.42-29.45 92.11 20.19 92.11 20.19s.69-24.56 25.43-29.52c24.74-4.97 12.37 31.21 12.37 31.21s19.25-32.81 49.49-36.18c30.24-3.36 35.74 30.29 19.93 64.78.01 0 133.35 0 99.67 50.48z" fill="#d7dbe2" class="colore2d7de svgShape"></path>
  <path d="M3345.48 2426.54c-1.96 2.94-255.15 0-255.15 0s-21.69-53.74 30.47-75.86c52.17-22.13 69.21 15.17 69.21 15.17s.52-18.45 19.11-22.19c18.59-3.73 9.3 23.45 9.3 23.45s14.46-24.66 37.19-27.18c22.73-2.53 26.86 22.76 14.98 48.68-.01 0 100.19 0 74.89 37.93z" fill="#c9ccd3" class="colord3c9cf svgShape"></path>
  <path d="M535.52 2307.75c4.61 6.91 600.43 0 600.43 0s51.05-126.45-71.71-178.52c-122.76-52.07-162.87 35.7-162.87 35.7s-1.21-43.42-44.97-52.21-21.88 55.18-21.88 55.18-34.03-58.02-87.51-63.97c-53.48-5.95-63.2 53.56-35.25 114.55 0 .01-235.8.01-176.24 89.27z" fill="#d7dbe2" class="colore2d7de svgShape"></path>
  <path d="M614.77 2308.51c3.47 5.19 451.18 0 451.18 0s38.36-95.02-53.89-134.14c-92.25-39.13-122.38 26.83-122.38 26.83s-.91-32.63-33.79-39.23c-32.88-6.6-16.44 41.47-16.44 41.47s-25.57-43.6-65.76-48.07c-40.19-4.47-47.49 40.24-26.49 86.08 0-.01-177.19-.01-132.43 67.06z" fill="#eaecef" class="coloreaefee svgShape"></path>
  <path d="M954.29 1128.46h1955.28v1156.8H954.29z" fill="#eaecef" class="coloreaefee svgShape"></path>
  <path d="M2909.57 1396.72 954.29 1220.51v-92.05h1955.28z" opacity=".5" fill="#e8ebf0" class="colore8f0f0 svgShape"></path>
  <path d="M2932.57 1595.07H931.29c-37.4 0-67.73-3.54-67.73 33.86h2136.73c0-37.4-30.32-33.86-67.72-33.86z" fill="#d9dbe0" class="colord9e0df svgShape"></path>
  <path d="M3002.37 1128.43H807.1l186.53-459.4h1822.21z" fill="#c9ccd3" class="colord3c9cf svgShape"></path>
  <path d="M2436.16 1590.85h296.75v505.17h-296.75z" transform="rotate(-90 2584.532 1843.44)" fill="#d9dbe0" class="colord9e0df svgShape"></path>
  <path d="M2455.6 1605.23h257.86v476.43H2455.6z" transform="rotate(-90 2584.53 1843.44)" fill="#e8ebf0" class="colore8f0f0 svgShape"></path>
  <path d="m2623.62 1714.51 199.13 257.86h-59.14l-100.67-116.25 40.58 116.25h-150.91l-206.29-257.86h130.2l91.3 128.93-50.72-128.93z" fill="#ebeef4" class="colorf4f2eb svgShape"></path>
  <path d="M2441.23 1836.88h286.61V1850h-286.61z" transform="rotate(-90 2584.53 1843.44)" fill="#d9dbe0" class="colord9e0df svgShape"></path>
  <path d="M1126.85 1590.85h296.75v505.17h-296.75z" transform="rotate(-90 1275.23 1843.44)" fill="#d9dbe0" class="colord9e0df svgShape"></path>
  <path d="M1146.3 1605.23h257.86v476.43H1146.3z" transform="rotate(-90 1275.23 1843.44)" fill="#e8ebf0" class="colore8f0f0 svgShape"></path>
  <path d="m1314.32 1714.51 199.12 257.86h-59.13l-100.68-116.25 40.59 116.25h-150.91l-206.29-257.86h130.19l91.31 128.93-50.72-128.93z" fill="#ebeef4" class="colorf4f2eb svgShape"></path>
  <path d="M1131.93 1836.88h286.61V1850h-286.61z" transform="rotate(-90 1275.23 1843.44)" fill="#d9dbe0" class="colord9e0df svgShape"></path>
  <path d="M1726.04 1750.29h412.63v540.43h-412.63z" fill="#d9dbe0" class="colord9e0df svgShape"></path>
  <path d="M1742.67 1765.44h379.38v525.28h-379.38z" fill="#e8ebf0" class="colore8f0f0 svgShape"></path>
  <path d="m2122.04 2054.12-379.37 207.29v-61.56l171.03-104.8-171.03 42.24v-157.1l379.37-214.75v135.54l-189.69 95.05 189.69-52.8z" fill="#ebeef4" class="colorf4f2eb svgShape"></path>
  <path d="M1926.94 1754.17h10.82v536.55h-10.82zM1951.6 2033.13h30.3v4.99h-30.3zM1878.74 2033.13h30.3v4.99h-30.3z" fill="#d9dbe0" class="colord9e0df svgShape"></path>
  <path d="M1152.16 2155.1h70.92v28.37h-70.92z" transform="rotate(-180 1187.622 2169.281)" opacity=".55" fill="#d9dbe0" class="colord9e0df svgShape"></path>
  <path d="M1114.17 2126.73h70.92v28.37h-70.92z" transform="rotate(-180 1149.63 2140.914)" fill="#d9dbe0" opacity=".31" class="colord9e0df svgShape"></path>
  <path d="M1080.92 2098.17h70.92v28.37h-70.92z" transform="rotate(-180 1116.377 2112.351)" opacity=".5" fill="#d9dbe0" class="colord9e0df svgShape"></path>
  <path d="M1152.16 2098.36h70.92v28.37h-70.92z" transform="rotate(-180 1187.622 2112.547)" fill="#d9dbe0" opacity=".35" class="colord9e0df svgShape"></path>
  <path d="M1397.76 1336.13h70.92v28.37h-70.92z" transform="rotate(-180 1433.22 1350.317)" opacity=".55" fill="#d9dbe0" class="colord9e0df svgShape"></path>
  <path d="M1359.77 1307.77h70.92v28.37h-70.92z" transform="rotate(-180 1395.229 1321.95)" fill="#d9dbe0" opacity=".31" class="colord9e0df svgShape"></path>
  <path d="M1326.52 1279.2h70.92v28.37h-70.92z" transform="rotate(-180 1361.976 1293.386)" opacity=".5" fill="#d9dbe0" class="colord9e0df svgShape"></path>
  <path d="M1397.76 1279.4h70.92v28.37h-70.92z" transform="rotate(-180 1433.22 1293.582)" fill="#d9dbe0" opacity=".35" class="colord9e0df svgShape"></path>
  <path d="M2667.91 2141.11h70.92v28.37h-70.92z" transform="rotate(-180 2703.374 2155.294)" fill="#d9dbe0" opacity=".31" class="colord9e0df svgShape"></path>
  <path d="M2634.66 2112.55h70.92v28.37h-70.92z" transform="rotate(-180 2670.121 2126.731)" opacity=".5" fill="#d9dbe0" class="colord9e0df svgShape"></path>
  <path d="M2705.91 2112.74h70.92v28.37h-70.92z" transform="rotate(-180 2741.366 2126.927)" fill="#d9dbe0" opacity=".35" class="colord9e0df svgShape"></path>
  <path d="M2504.16 1418.67h70.92v28.37h-70.92z" fill="#d9dbe0" opacity=".31" class="colord9e0df svgShape"></path>
  <path d="M2537.41 1447.23h70.92v28.37h-70.92z" opacity=".5" fill="#d9dbe0" class="colord9e0df svgShape"></path>
  <path d="M2466.17 1447.03h70.92v28.37h-70.92z" fill="#d9dbe0" opacity=".35" class="colord9e0df svgShape"></path>
  <path d="M1575.38 1095.33h92.89v67.76h-92.89zM1575.38 1170.14h92.89v67.76h-92.89zM1575.38 1244.95h92.89v67.76h-92.89zM1575.38 1319.76h92.89v67.76h-92.89zM1575.38 1394.57h92.89v67.76h-92.89zM1575.38 1469.38h92.89v67.76h-92.89zM1575.38 1544.19h92.89v67.76h-92.89zM1575.38 1619.01h92.89v67.76h-92.89zM1575.38 1693.82h92.89v67.76h-92.89zM1575.38 1768.63h92.89v67.76h-92.89zM1575.38 1843.44h92.89v67.76h-92.89zM1575.38 1918.25h92.89v67.76h-92.89zM1575.38 1993.06h92.89v67.76h-92.89zM1575.38 2067.88h92.89v67.76h-92.89zM1575.38 2142.69h92.89v67.76h-92.89zM1575.38 2217.5h92.89v67.76h-92.89zM2191.77 1095.33h92.89v67.76h-92.89zM2191.77 1170.14h92.89v67.76h-92.89zM2191.77 1244.95h92.89v67.76h-92.89zM2191.77 1319.76h92.89v67.76h-92.89zM2191.77 1394.57h92.89v67.76h-92.89zM2191.77 1469.38h92.89v67.76h-92.89zM2191.77 1544.19h92.89v67.76h-92.89zM2191.77 1619.01h92.89v67.76h-92.89zM2191.77 1693.82h92.89v67.76h-92.89zM2191.77 1768.63h92.89v67.76h-92.89zM2191.77 1843.44h92.89v67.76h-92.89zM2191.77 1918.25h92.89v67.76h-92.89zM2191.77 1993.06h92.89v67.76h-92.89zM2191.77 2067.88h92.89v67.76h-92.89zM2191.77 2142.69h92.89v67.76h-92.89zM2191.77 2217.5h92.89v67.76h-92.89z" fill="#e8ebf0" class="colore8f0f0 svgShape"></path>
  <path d="M2238.21 1705.35h-616.38v-643.02l310.1-197.31 306.28 197.31z" fill="#d7dbe2" class="colore2d7de svgShape"></path>
  <path d="M1772.99 1310.67h304.58v398.92h-304.58z" fill="#d9dbe0" class="colord9e0df svgShape"></path>
  <path d="M1785.27 1321.85h280.04v387.74h-280.04z" fill="#e8ebf0" class="colore8f0f0 svgShape"></path>
  <path d="m2065.31 1534.94-280.04 153.01v-45.44l126.24-77.36-126.24 31.18v-115.96l280.04-158.52v100.05l-140.02 70.16 140.02-38.98z" fill="#ebeef4" class="colorf4f2eb svgShape"></path>
  <path d="M2238.18 1062.37v128.58L1931.86 993.6l-310.04 197.35v-128.58l310.04-197.34z" opacity=".5" fill="#e8ebf0" class="colore8f0f0 svgShape"></path>
  <path d="M2637.93 1128.43h-261.88l-444.19-256.65-444.2 256.65h-261.71l575.13-332.17 130.78-75.52 130.94 75.52z" opacity=".5" fill="#e8ebf0" class="colore8f0f0 svgShape"></path>
  <path d="m2019.11 862.99-87.18-50.35-87.18 50.35-417.67 241.27 43.59 75.53 461.26-266.45 461.26 266.45 43.59-75.53z" fill="#d7dbe2" class="colore2d7de svgShape"></path>
  <path d="M1537.39 1689.49h775.79v31.73h-775.79z" fill="#d9dbe0" class="colord9e0df svgShape"></path>
  <path d="M1547.39 1544.94h21.08v161.62h-21.08z" fill="#d9dbe0" class="colord9e0df svgShape"></path>
  <path d="m1568.47 1631.28-21.08-61.72v-24.62h21.08z" opacity=".5" fill="#e8ebf0" class="colore8f0f0 svgShape"></path>
  <path d="M1693.53 1544.94h21.08v161.62h-21.08z" fill="#d9dbe0" class="colord9e0df svgShape"></path>
  <path d="m1714.61 1631.28-21.08-61.72v-24.62h21.08z" opacity=".5" fill="#e8ebf0" class="colore8f0f0 svgShape"></path>
  <path d="M1839.67 1544.94h21.08v161.62h-21.08z" fill="#d9dbe0" class="colord9e0df svgShape"></path>
  <path d="m1860.75 1631.28-21.08-61.72v-24.62h21.08z" opacity=".5" fill="#e8ebf0" class="colore8f0f0 svgShape"></path>
  <path d="M1985.81 1544.94h21.08v161.62h-21.08z" fill="#d9dbe0" class="colord9e0df svgShape"></path>
  <path d="m2006.89 1631.28-21.08-61.72v-24.62h21.08z" opacity=".5" fill="#e8ebf0" class="colore8f0f0 svgShape"></path>
  <path d="M2131.95 1544.94h21.08v161.62h-21.08z" fill="#d9dbe0" class="colord9e0df svgShape"></path>
  <path d="m2153.03 1631.28-21.08-61.72v-24.62h21.08z" opacity=".5" fill="#e8ebf0" class="colore8f0f0 svgShape"></path>
  <path d="M2278.09 1544.94h21.08v161.62h-21.08z" fill="#d9dbe0" class="colord9e0df svgShape"></path>
  <path d="m2299.17 1631.28-21.08-61.72v-24.62h21.08z" opacity=".5" fill="#e8ebf0" class="colore8f0f0 svgShape"></path>
  <path d="M1527.82 1535.64h794.94v18.61h-794.94z" fill="#d9dbe0" class="colord9e0df svgShape"></path>
  <path d="M1887.46 1208.35h70.92v28.37h-70.92z" transform="rotate(-180 1922.916 1222.535)" opacity=".31" fill="#c9ccd3" class="colord3c9cf svgShape"></path>
  <path d="M1854.2 1179.79h70.92v28.37h-70.92z" transform="rotate(-180 1889.663 1193.972)" opacity=".5" fill="#c9ccd3" class="colord3c9cf svgShape"></path>
  <path d="M1925.45 1179.98h70.92v28.37h-70.92z" transform="rotate(-180 1960.908 1194.168)" opacity=".35" fill="#c9ccd3" class="colord3c9cf svgShape"></path>
  <path d="M2932.57 2285.26H931.29c-37.4 0-67.73-3.54-67.73 33.86h2136.73c0-37.4-30.32-33.86-67.72-33.86zM697.87 1946.23h76.32v380.88h-76.32z" fill="#c9ccd3" class="colord3c9cf svgShape"></path>
  <path d="m774.19 2068.26-76.32-32.81v-89.22h76.32z" opacity=".35" fill="#cfd1d6" class="colorcfd5d6 svgShape"></path>
  <path d="M479.78 1834.34h516.06v173.84H479.78z" fill="#ffc531" class="colorf9c300 svgShape"></path>
  <path d="M972.82 1898.47c-9.92 5.28-20.81 6.59-31.83 7.61-8.5.79-17.01 2.38-22.7 9.26-5.94 7.18-9.85 15.81-16.54 22.43-6.84 6.77-15.6 11.12-24.78 13.73-20.25 5.75-42.42 3.53-62.84-.11-21.11-3.77-42.25-9.1-62.34-16.59-6.88-2.56-13.88-5.2-21.2-6.17-7.11-.94-14.1.19-20.79 2.69-12.5 4.66-23.59 11.95-36.7 15.09-30.98 7.42-62.18-.94-92.77-6.02-7.72-1.28-15.3-3.37-23.08-4.28-8.07-.94-15.39.15-23.02 2.83-10.39 3.65-19.81 7.7-31.09 6.78-7.9-.64-15.75-2.71-23.38-5.42v67.88h516.06v-132.71c-5.97 9.24-12.96 17.66-23 23z" opacity=".35" fill="#cfd1d6" class="colorcfd5d6 svgShape"></path>
  <path d="M616.75 1962.3c-17.86 0-31.67-9.36-31.91-25.63h18.48c.49 6.9 5.05 11.46 13.06 11.46 8.13 0 12.94-4.31 12.94-10.47 0-18.61-44.36-7.39-44.24-38.57 0-15.53 12.57-24.89 30.31-24.89 17.62 0 29.69 8.99 30.8 24.52h-18.97c-.37-5.67-4.93-10.1-12.33-10.23-6.78-.25-11.83 3.08-11.83 10.1 0 17.25 44.11 7.64 44.11 37.95.02 13.56-10.83 25.76-30.42 25.76zM702.02 1962.3c-24.27 0-44.11-18.24-44.11-44.11 0-25.75 19.84-43.99 44.11-43.99 24.52 0 43.99 18.24 43.99 43.99-.01 25.87-19.59 44.11-43.99 44.11zm0-15.4c15.52 0 26.24-11.21 26.24-28.71s-10.72-28.46-26.24-28.46c-15.65 0-26.37 10.97-26.37 28.46 0 17.49 10.72 28.71 26.37 28.71zM776.07 1875.43v72.33h28.34v13.68h-45.59v-86h17.25zM890.78 1918.56c0 26-17.86 42.88-45.34 42.88h-30.07v-86h30.07c27.48-.01 45.34 17 45.34 43.12zm-45.96 28.21c18.11 0 28.34-10.35 28.34-28.22 0-17.86-10.23-28.58-28.34-28.58h-12.2v56.8h12.2z" fill="#ffffff" class="colorffffff svgShape"></path>
  <path d="M3221.52 1918.82v522.57c0 16.93-13.75 30.69-30.69 30.69h-431.85c-16.93 0-30.69-13.75-30.69-30.69v-522.57h493.23z" fill="#eaecef" class="coloreaefee svgShape"></path>
  <path d="M3221.52 1807.89v110.93H2728.3v-110.93c0-16.93 13.75-30.69 30.69-30.69h431.85c16.92 0 30.68 13.76 30.68 30.69z" fill="#d7dbe2" class="colore2d7de svgShape"></path>
  <circle cx="2974.91" cy="2150.07" r="155.75" fill="#d7dbe2" class="colore2d7de svgShape"></circle>
  <path d="M3112.54 2150.06c0 43.35-20.01 82.03-51.34 107.2-13.85 11.27-29.94 19.81-47.47 24.88-12.31 3.67-25.32 5.61-38.83 5.61-76.02 0-137.64-61.67-137.64-137.69 0-44.59 21.2-84.21 54.07-109.34 9.63-7.4 20.21-13.51 31.63-18.12a137.07 137.07 0 0 1 51.94-10.18c76.02 0 137.64 61.62 137.64 137.64z" fill="#ffffff" class="colorffffff svgShape"></path>
  <path d="M3061.2 2257.27c-13.85 11.27-29.94 19.81-47.47 24.88l-29-40.32 22.15 16.78-65.49-120.31 8.84-5.31-58.89-92.26c9.63-7.4 20.21-13.51 31.63-18.12 18.12 30.44 50.6 85.95 51.89 88.19-1.29-.84-22.84-15.39-22.84-14.1 0 1.34 32.72 53.38 32.72 53.38l2.68-10.92 73.78 118.11zM3061.2 1871.02h46.9v23.01h-46.9zM3126.68 1871.02h46.9v23.01h-46.9z" fill="#eaecef" class="coloreaefee svgShape"></path>
  <path d="M3107.21 2389.98h76.22v37.39h-76.22z" fill="#d7dbe2" class="colore2d7de svgShape"></path>
  <path d="m2736.99 1746.65-207.45 644.1-57.57-10.84 78.68-653.87z" fill="#232633" class="color33232a svgShape"></path>
  <path d="M2561 2290.19c-3.01-11.84-2.75-24.27.31-36.07 6.75-26.1 25.87-46.91 32.71-73.02 3.91-14.91 3.41-29.61.34-44.59-1.63-7.96-3.46-15.89-4.19-24-.77-8.64.02-16.65 2.48-24.95 8.85-29.81 30.86-53.63 39.86-83.41 3.32-10.98 4.61-22.68 5.87-34.06 1.39-12.56 2.28-25.18 2.67-37.81.78-24.93.55-51.61-7.47-75.51-3.54-10.56-9.46-19.33-17.64-26.9-10.01-9.28-20.83-17.03-28.1-28.89-4.75-7.75-8.16-16.44-11.34-24.92-3.24-8.63-5.99-17.45-8.23-26.39-1.83-7.3-3.2-14.7-4.32-22.14l173.03 19.13-175.55 545.05c-.12-.52-.3-1.01-.43-1.52z" opacity=".15" fill="#000000" class="color000000 svgShape"></path>
  <path d="M2478.01 2428.13s.91-57.89 9.54-59.65 27.06 1.44 30.28 6.17c3.22 4.73-13.23 62.31-22.18 68.02-8.95 5.72-17.34.89-17.64-14.54z" fill="#ffe49f" class="colorffbf9f svgShape"></path>
  <path d="M2496.64 2420.12c-3.03-8.9-5.56-17.96-7.94-27.05-1.15-4.4-2.25-8.8-3.68-13.12-.55-1.67-1.11-3.34-1.65-5.01-4.77 15.46-5.37 53.2-5.37 53.2.3 15.43 8.7 20.26 17.64 14.54 1.62-1.03 3.48-3.78 5.43-7.59-1.34-5.03-2.75-10.03-4.43-14.97z" fill="#efd48f" class="colorefac8f svgShape"></path>
  <path d="M2489.12 2394.98c-3.15-1.51-6.12-3.36-9.23-4.95-6.87 24.43-2.43 38.49-2.43 38.49.31 16.13 9.09 21.18 18.45 15.21 5.47-3.49 13.61-25.51 18.76-44.19-8.18 2.24-18.73-1.28-25.55-4.56z" fill="#bdd2fd" class="colorced9ef svgShape"></path>
  <path d="M2485.59 2488.88s-96.22-28.1-90.13-38.58c6.09-10.48 7.81-7.57 7.81-7.57s101.63 32.27 99.84 39.22c-1.78 6.96 1.15 13.58-17.52 6.93z" fill="#0039a9" class="color00a99d svgShape"></path>
  <path d="M2398.06 2446.8s94.27 43.5 103.36 39.35c9.09-4.15 14.33-69.65 8.51-71.61-5.83-1.96-25.63-7.2-26.83-6.73-1.2.46-1.79 25.63-19.1 32.92-17.31 7.29-32.07 1.03-32.79.23-.72-.8-26.17-13.51-33.15 5.84z" fill="#232633" class="color33232a svgShape"></path>
  <path d="M2474.58 2407.94c-4.3 2.21-4.49 16.78-7.09 26.93-.16-.2-.25-.42-.44-.61-4.4-4.52-34.47 8.59-34.47 8.59s21.01 4.14 28.48 4.53c31.29 1.65 19.92-42.73 13.52-39.44z" fill="#3a3d49" class="color493a41 svgShape"></path>
  <path d="M2469.38 2361.2c-1.4 8.85-6.1 19.93 0 21.55 6.1 1.63 59.37 10.98 61.4 10.17 2.03-.81 13.82-23.18 7.73-22.36-6.1.81-67.88-17.26-69.13-9.36z" fill="#c9ccd3" class="colord3c9cf svgShape"></path>
  <path d="m2799.86 1711.86 41.84 372.5 135.35 128.04-26.08 53.35s-185.41-86.07-223.29-139.98c-54.18-77.1-80.11-368.33-80.11-368.33l152.29-45.58z" fill="#3a3d49" class="color493a41 svgShape"></path>
  <path d="M3011.61 2272.92s-56.22-13.87-55.99-22.67c.22-8.8 7.47-26.05 12.8-28.12 5.33-2.08 57.76 26.86 61.32 36.86 3.57 9.99-3.02 17.09-18.13 13.93z" fill="#ffe49f" class="colorffbf9f svgShape"></path>
  <path d="M3007.98 2252.96c-9.35.96-18.75 1.39-28.14 1.67-4.55.13-9.08.22-13.61.65-1.75.16-3.5.33-5.25.48 13.99 8.12 50.64 17.16 50.64 17.16 15.1 3.16 21.69-3.93 18.13-13.93-.64-1.81-2.9-4.24-6.18-6.99-5.2.18-10.4.43-15.59.96z" fill="#efd48f" class="colorefac8f svgShape"></path>
  <path d="M2981.8 2254.65c-2.18 2.73-4.64 5.21-6.89 7.89 22.27 12.17 36.97 11 36.97 11 15.79 3.31 22.68-4.11 18.95-14.57-2.18-6.11-21.81-18.98-38.86-28.19.35 8.47-5.44 17.96-10.17 23.87z" fill="#bdd2fd" class="colorced9ef svgShape"></path>
  <path d="M3072.52 2279.14s-48.95 87.47-57.8 79.19c-8.85-8.28-5.62-9.31-5.62-9.31s54.23-91.81 60.6-88.51c6.38 3.3 13.48 1.93 2.82 18.63z" fill="#0039a9" class="color00a99d svgShape"></path>
  <path d="M3011.89 2355.01s63.52-82.12 61.52-91.91c-2.01-9.79-64.66-29.58-67.88-24.34-3.22 5.24-12.76 23.36-12.58 24.64.18 1.27 24.57 7.49 27.8 26 3.22 18.5-6.18 31.48-7.13 32-.94.52-19.03 22.47-1.73 33.61z" fill="#232633" class="color33232a svgShape"></path>
  <path d="M2991.17 2271.74c1.19 4.68 15.35 8.14 24.66 12.95-.23.11-.47.15-.7.29-5.4 3.27.65 35.52.65 35.52s8.74-19.55 10.8-26.74c8.62-30.14-37.19-29-35.41-22.02z" fill="#3a3d49" class="color493a41 svgShape"></path>
  <path d="M2940.49 2268.12c8.01 4.01 17.15 11.84 20.54 6.51 3.39-5.32 28.41-53.27 28.25-55.46-.16-2.18-17.92-20.18-18.98-14.12-1.07 6.06-36.96 59.5-29.81 63.07z" fill="#c9ccd3" class="colord3c9cf svgShape"></path>
  <path d="M2580.86 1554.72c-2.27-2.27-120.57-37.39-120.57-37.39l-14.1 42.81 122.53 66.15 12.14-71.57z" fill="#efd48f" class="colorefac8f svgShape"></path>
  <path d="M2812.28 1739.17s-123.72 115.76-267.05-7.84c0 0-18.63-390.66 125.74-378.66 75.27 6.29 109.19 81.38 127.07 216.47 2.77 21.11 5.19 43.66 7.27 67.66 2.76 31.66 5.01 65.8 6.97 102.37z" fill="#76a4ff" class="color3fc9bc svgShape"></path>
  <path d="M2591.5 1505.38c2.74-.54 76.72 0 76.72 0s5.02 44.49-39.31 45.54c-43.91 1.05-37.41-45.54-37.41-45.54z" fill="#76a4ff" class="color3fc9bc svgShape"></path>
  <path d="m2448.76 1519.51 19.52 14.54h222.57l-11.55-5.39-12.92-6.03-6.69-3.12z" fill="#c9ccd3" class="colord3c9cf svgShape"></path>
  <path d="M2468.28 1534.04h222.56v149.89h-222.56z" transform="rotate(-180 2579.561 1608.989)" fill="#d7dbe2" class="colore2d7de svgShape"></path>
  <g opacity=".5" fill="#000000" class="color000000 svgShape">
    <path d="M2661.87 1661.86h14.78v10.97h-14.78v-10.97zm13.76 1.02h-12.75v8.94h12.75v-8.94z" fill="#3a3d49" class="color493a41 svgShape"></path>
    <path d="M2668.92 1667.32h-4.26s.72-3.58 4.6-3.58c3.41 0 4.6 3.58 4.6 3.58h-4.26v2.81h1v.83h-2.64v-.83h.97v-2.81zM2644.91 1661.86h14.78v10.97h-14.78v-10.97zm13.77 1.02h-12.75v8.94h12.75v-8.94z" fill="#3a3d49" class="color493a41 svgShape"></path>
    <path d="M2650.84 1667.49h3.47v3.47h-3.47v-3.47zm2.45 1.01h-1.44v1.44h1.44v-1.44zM2647.19 1667.49h3.47v3.47h-3.47v-3.47zm2.46 1.01h-1.44v1.44h1.44v-1.44zM2628.11 1661.86h14.78v10.97h-14.78v-10.97zm13.76 1.02h-12.75v8.94h12.75v-8.94z" fill="#3a3d49" class="color493a41 svgShape"></path>
    <path d="M2633.62 1664.66v1.99c0 1.02.82 1.84 1.84 1.84s1.84-.82 1.84-1.84v-1.99h1.68v2.15c0 1.95-1.58 3.52-3.52 3.52-1.95 0-3.52-1.58-3.52-3.52v-2.15h1.68z" fill="#3a3d49" class="color493a41 svgShape"></path>
  </g>
  <path d="M2592.47 1532.99v29.97l-4.09-2.72-1.29 2.72-1.43-2.34-2.96 2.34-2.04-2.19-1.74 2.19-3.18-1.97-2.05 1.97-4.61-2.72-2.43 2.72v-29.97z" fill="#c9ccd3" class="colord3c9cf svgShape"></path>
  <path d="m2566.65 1534.05-7.77-5.4 4.79.49.58-.49 2.05.42 2.34-.42 2.61.4 1.18-.4 3.69.36 1.53-.36 5.32.49 1.72-.49 7.78 5.4zM2571.05 1519.51l7.78 5.39-4.79-.49-.58.49-2.05-.42-2.34.42-2.62-.39-1.17.39-3.69-.35-1.53.35-5.33-.49-1.71.49-7.78-5.39z" opacity=".5" fill="#3a3d49" class="color493a41 svgShape"></path>
  <path d="M2566.65 1685.32v-29.98l4.09 2.73 1.29-2.73 1.44 2.35 2.95-2.35 2.04 2.2 1.75-2.2 3.17 1.97 2.05-1.97 4.62 2.73 2.42-2.73v29.98z" fill="#c9ccd3" class="colord3c9cf svgShape"></path>
  <path d="M2482.82 1551h53.6v29.98h-53.6z" transform="rotate(-180 2509.614 1565.99)" fill="#eaecef" class="coloreaefee svgShape"></path>
  <path d="M2482.82 1587.94h192.82v45.42h-192.82z" transform="rotate(-180 2579.225 1610.654)" fill="#eaecef" class="coloreaefee svgShape"></path>
  <path d="m2468.28 1534.04-19.53-14.53v147.99l19.53 16.43z" fill="#c9ccd3" class="colord3c9cf svgShape"></path>
  <path d="M2460.07 1527.93v13.76l-1.02-1.48-.34.42-.57-.98-.57.64-.64-1.63-.57.72-.53-1.63s-.49.64-.49.49c0-.15-.57-.87-.57-.87l-.72.15v-14.07h19.23l-.6.51.91.11-.4.54.68.14-.11.45.91-.03-.14.62.74.2-.6.6.97.17-.51.54.71.28-.79.48-14.98-.13zM2657.27 1524.24l2.05.53-.42.53 1.74.49-.45.61 1.62.25s-.37.77-.22.77 1.67.23 1.67.23l.23 1.01h15.83l-12.92-6.03-10.17.25 1.48 1.03-.44.33z" opacity=".5" fill="#3a3d49" class="color493a41 svgShape"></path>
  <path d="M2545.58 1712.85c-.99-6.16 23.71-18.8 23.71-18.8s-42.49 13.87-43.09 6.97c-.61-6.89 36.01-19.83 36.01-19.83s-47.01 13.71-51.42 7.69c-4.41-6.02 47.1-19.58 47.1-19.58s-46.14 4.2-47.15-2.57c-1.02-6.77 45.59-10.83 55-13.76 6.11-1.9 8.29-7.51 2.01-9.86-6.28-2.36-12.08-14.33-8.57-17.89s18.03 13.17 26.05 12.21c8.02-.96 17.56.18 20.74 3.31 9.64 4.85 67.57-16.36 67.57-16.36 1.44 2.63 8.83 18.5 9.7 31.16l-63.39 16.95s-6.54 10.66-17.82 16.94c-11.29 6.29-55.46 29.58-56.45 23.42z" fill="#ffe49f" class="colorffbf9f svgShape"></path>
  <g opacity=".2" fill="#000000" class="color000000 svgShape">
    <path d="M2560.15 1625.32c1.54-.39 3.74 1.43 4.61 2.2 0 0-.43 2.33-1.71 1.74-1.28-.58-4.44-3.55-2.9-3.94zM2511.4 1666.57c.18-1.63 5.18-2.96 5.71-2.7 0 0 .32 4.19.05 4.93-.27.74-5.94-.61-5.76-2.23zM2512.17 1688.3c-.26-1.62 4.19-4.25 4.77-4.14 0 0 1.44 3.95 1.38 4.73-.06.8-5.88 1.03-6.15-.59zM2528.09 1700.73c-.33-1.6 4-4.43 4.57-4.35 0 0 1.62 3.88 1.59 4.67-.02.79-5.82 1.29-6.16-.32zM2546.75 1712.34c-.4-1.3 2.98-3.98 3.46-3.96 0 0 1.64 3.1 1.68 3.75.04.66-4.74 1.52-5.14.21z" fill="#ffffff" class="colorffffff svgShape"></path>
  </g>
  <path d="m2726.16 1468.66-.55 110.03-118.32 63.61 11.4 29.52s100.24-14 153.16-51.45c44.11-31.22 45.49-101.82 25.76-155.12-23.81 1.38-47.61 3.11-71.45 3.41z" fill="#ffe49f" class="colorffbf9f svgShape"></path>
  <path d="M2674.02 1618.47c14.2-4.83 25.63-15.06 38.35-22.62 3.97-2.36 7.94-4.76 12.19-6.59 4.45-1.91 9.06-2.9 13.89-3.19 8.16-.5 16.27.56 24.32 1.85-3.03-2.62-6.68-4.49-10.46-5.9-4.7-1.76-9.61-2.89-14.54-3.79-4.34-.79-8.05-1.84-11.38-4.89-.27-.25-.5-.53-.75-.79l-.03 6.13-116.66 62.71c6.74 3.33 57.94-20.49 65.07-22.92z" opacity=".65" fill="#eaecef" class="coloreaefee svgShape"></path>
  <path d="M2749.83 1295.74c1.22-2.08 1.97-4.47 1.99-7.06.03-5.11-2.66-9.58-6.68-12.12 2.54-3.97 4.05-8.67 4.08-13.74.05-8.99-4.5-16.94-11.44-21.6.04-.54.09-1.07.09-1.62.04-5.85-1.9-11.23-5.14-15.58 1.76-3.03 2.78-6.53 2.81-10.27.07-10.93-8.32-19.91-19.04-20.8-2.46-11.63-12.74-20.39-25.11-20.47-.99-.01-1.96.06-2.92.16-3.77-9.49-13-16.24-23.85-16.3a25.666 25.666 0 0 0-14.08 4.09 20.714 20.714 0 0 0-10.99-3.25c-8.58-.05-15.98 5.12-19.19 12.53-10.27 3.37-17.72 12.98-17.79 24.38-.02 4.11.94 7.98 2.62 11.44-7.74 4.42-13 12.72-13.06 22.28-.03 5.02 1.39 9.69 3.85 13.67-8.5 4.19-14.39 12.89-14.45 23.01a25.767 25.767 0 0 0 7.57 18.42c-3.98 2.51-6.65 6.9-6.68 11.95-.05 7.87 6.29 14.28 14.15 14.34-.6 2.16-.95 4.42-.97 6.77-.09 14.27 11.41 25.91 25.68 25.99 10.19.06 19.02-5.81 23.28-14.36 7.14 7.23 17.04 11.73 28 11.8 6.08.04 11.83-1.34 16.99-3.75 3.7 3.53 8.69 5.73 14.21 5.77 5.38.03 10.28-2 13.99-5.33 4.53 4.03 10.47 6.52 17.01 6.56 14.27.09 25.91-11.41 25.99-25.68.04-8.76-4.28-16.52-10.92-21.23z" fill="#232633" class="color33232a svgShape"></path>
  <path d="M2631.17 1369.41c-.11 9.09 16.39 16.65 36.86 16.9s37.15-6.92 37.26-16.01c.11-9.09-16.39-16.65-36.86-16.9-20.47-.24-37.15 6.92-37.26 16.01z" fill="#0039a9" class="color00a99d svgShape"></path>
  <path d="M2642.89 1367.12s8.81 8.6 24.81 8.8c16 .19 25.98-7.7 25.98-7.7s-2.11-15.73-3.66-27.37c-.91-7.05-1.65-12.82-1.74-13.76l-40.07-.48-2.36 17.89-2.96 22.62z" fill="#ffe49f" class="colorffbf9f svgShape"></path>
  <path d="M2645.86 1344.49c6.33 6.59 13.81 11.12 19.88 11.2 7.36.09 16.97-6.25 24.29-14.84-.91-7.05-1.65-12.82-1.74-13.76l-40.07-.48-2.36 17.88z" fill="#efd48f" class="colorefac8f svgShape"></path>
  <path d="M2734.15 1256.21c-4.46-8.83-12.68-6.36-17.34-3.98-.09-18.86-2.24-33.26-2.24-33.26a9.189 9.189 0 0 0-.94-2.88c-9.28-17-77.8-18.05-91.8-2.53-1.34 1.43-2.15 3.08-2.43 4.83 0 0-2.18 14.45-2.34 33.38-4.58-2.47-12.99-5.32-17.65 3.63-6.5 12.49 7.83 31.23 20.03 30.79 4.56 27.71 34.74 53.53 46.81 53.6 15.52.09 43.19-25.36 47.97-53.01 12.1.09 26.2-18.17 19.93-30.57z" fill="#ffe49f" class="colorffbf9f svgShape"></path>
  <path d="M2700.87 1288.5c.49 3.04-2.84 6.11-7.44 6.86-4.6.75-8.73-1.11-9.22-4.15-.49-3.04 2.83-6.11 7.43-6.86 4.61-.74 8.74 1.12 9.23 4.15zM2632.3 1288.09c-.53 3.04 2.76 6.15 7.35 6.95 4.59.8 8.74-1.01 9.27-4.04.53-3.03-2.76-6.14-7.35-6.95-4.59-.8-8.74 1.01-9.27 4.04z" fill="#efd48f" class="colorefac8f svgShape"></path>
  <path d="M2666.08 1321.41c-5.27-.03-8.33-4.48-8.37-4.55-.48-.72-.46-1.86.04-2.56.5-.69 17.64-.4 18 .45.36.85.17 1.96-.42 2.49-3.55 3.14-6.66 4.18-9.25 4.17z" fill="#eaecef" class="coloreaefee svgShape"></path>
  <path d="M2664.26 1285.03c-1.64-3.77.83-8.02.94-8.2a1.758 1.758 0 0 1 3.03 1.78c-.48.82-1.48 3.33-.7 5.11.61 1.28 2.21 2.12 4.76 2.51.96.15 1.62 1.04 1.47 2-.15.96-1.04 1.62-2 1.47-3.78-.57-6.27-2.09-7.41-4.49-.03-.05-.06-.11-.09-.18zM2697.33 1262.52c-.02 3.07-2.15 5.54-4.74 5.53-2.59-.02-4.69-2.51-4.67-5.59.02-3.07 2.15-5.56 4.74-5.54.73 0 1.41.2 2.03.57-.92.27-1.61 1.25-1.62 2.43-.01 1.39.95 2.53 2.12 2.54.86.01 1.62-.61 1.96-1.48.12.5.18 1.01.18 1.54zM2648.96 1261.53c-.02 3.07-2.15 5.54-4.74 5.53-2.59-.02-4.69-2.51-4.67-5.59.02-3.07 2.15-5.56 4.74-5.54.73 0 1.41.2 2.03.57-.92.27-1.61 1.25-1.62 2.43-.01 1.39.95 2.53 2.13 2.54.86 0 1.62-.61 1.96-1.48.1.49.17 1 .17 1.54zM2730.34 1267.08c.34 0 .67-.2.8-.54 2.97-7.45-4.48-11.92-4.56-11.96a.859.859 0 0 0-.87 1.48c.26.15 6.25 3.78 3.83 9.85a.856.856 0 0 0 .8 1.17zM2602 1266.38c-.34 0-.66-.21-.79-.55-2.88-7.49 4.63-11.86 4.7-11.91.41-.24.93-.09 1.17.32.23.41.09.93-.32 1.17-.26.15-6.3 3.7-3.95 9.8a.86.86 0 0 1-.49 1.11c-.11.05-.22.06-.32.06zM2655.18 1251.03s-17.89-1.01-19.68-2.78c-1.79-1.77 3.83-5.46 11.71-3.41 7.88 2.03 10.02 6.14 7.97 6.19zM2683.04 1251.19s17.9-.79 19.71-2.54c1.81-1.75-3.77-5.5-11.67-3.55-7.9 1.94-10.09 6.02-8.04 6.09z" fill="#232633" class="color33232a svgShape"></path>
  <path d="M2644.52 1248.37c-10.03-.06-18.22 8.03-18.28 18.06-.06 10.07 8.03 18.26 18.06 18.32 10.07.06 18.26-8.03 18.32-18.1.06-10.03-8.03-18.22-18.1-18.28zm-.2 33.8c-8.62-.05-15.55-7.09-15.49-15.72.05-8.62 7.06-15.55 15.68-15.49 8.62.05 15.58 7.06 15.53 15.68-.06 8.62-7.1 15.58-15.72 15.53zM2689.56 1248.64c-10.04-.06-18.22 8.03-18.28 18.06-.06 10.07 8.03 18.26 18.06 18.32 10.07.06 18.26-8.03 18.32-18.1.06-10.03-8.03-18.22-18.1-18.28zm-.21 33.8c-8.62-.05-15.55-7.09-15.49-15.72.05-8.62 7.06-15.55 15.68-15.49 8.62.05 15.58 7.06 15.53 15.68-.05 8.62-7.09 15.58-15.72 15.53zM2715.91 1211.2c-1.82-.01-3.54.38-5.1 1.06-1.21-7.93-7.97-14.05-16.25-14.1-4.44-.03-8.46 1.72-11.46 4.54-2.06-6.76-8.26-11.73-15.7-11.77-7.15-.04-13.22 4.47-15.59 10.79-2.37-1.33-5.06-2.16-7.97-2.18-.09 0-.17.02-.26.03-3.01-3.32-7.31-5.45-12.15-5.48-9.16-.06-16.64 7.33-16.69 16.49 0 .26.06.51.07.77-3.97 2.1-6.72 6.21-6.75 11.02-.04 6.96 5.56 12.63 12.52 12.68 5.05.03 9.38-2.93 11.42-7.2 2.98 2.99 7.09 4.85 11.64 4.88 7.15.04 13.22-4.47 15.59-10.79 2.37 1.33 5.06 2.16 7.97 2.18 4.44.03 8.46-1.72 11.46-4.54 2.06 6.76 8.26 11.73 15.7 11.78 3.63.02 6.97-1.16 9.71-3.12 1.79 4.74 6.32 8.13 11.68 8.16 6.96.04 12.63-5.56 12.67-12.52.06-6.96-5.55-12.64-12.51-12.68z" fill="#232633" class="color33232a svgShape"></path>
  <path d="M2818.88 1496.45c-16.96-65.14-72.12-118.09-95.06-123.45l-4.13 117.92c23.1-.27 76.11 6.89 99.19 5.53z" fill="#0039a9" class="color00a99d svgShape"></path>
  <path d="M2461.32 1506.99s3.74 2.77 9.76-.08 13.72-9.43 16.61-7.51c2.89 1.92-8.6 20.59-15.98 25.75-7.38 5.16-10.15-12.99-10.39-18.16z" fill="#efd48f" class="colorefac8f svgShape"></path>
  <path d="M2461.32 1506.99s25.44 27.9 19.52 34.54c-2.77 3.11-5.3 2.98-14.04-6.05 10.28 11.43 8.5 12.84 4.04 14.68-3.43 1.41-4.52.48-13.57-8.16 5.66 6.49 8 10.63 5.48 13.41-3.21 3.55-6.81 1.94-14.58-7.07 4.26 5.68 6.47 9.4 3.8 11.57-2.36 1.92-6.09 1.8-11.39-3.83-5.99-6.37-6.77-5.34-8.76-8.87-1.54-2.72-3.43-5.37-3.59-8.17-.75-13.49 26.24-34.9 33.09-32.05z" fill="#ffe49f" class="colorffbf9f svgShape"></path>
  <path d="M2460.27 1528.66c3.75 4.85 9.37 10.37 9.65 10.64a.474.474 0 0 0 .66-.68c-.08-.08-8.1-7.96-11.36-13.08a.46.46 0 0 0-.65-.14c-.22.14-.28.43-.14.65.51.82 1.14 1.7 1.84 2.61zM2452.52 1537.03c3.33 4.31 7.33 8.5 7.38 8.55.18.19.48.2.67.01.19-.18.2-.47.01-.67-.07-.07-6.56-6.87-9.82-12a.483.483 0 0 0-.65-.15c-.22.14-.28.43-.14.65.72 1.17 1.61 2.4 2.55 3.61zM2444.01 1544.36c3.22 4.17 6.97 8.04 7.02 8.09a.474.474 0 1 0 .68-.66c-.06-.06-6.15-6.34-9.41-11.46a.469.469 0 0 0-.65-.14c-.22.14-.28.43-.14.65.72 1.14 1.59 2.34 2.5 3.52zM2432.27 1534.23c.06.08.14.13.24.16.25.07.51-.07.58-.32 2.97-10.16 11.26-11.86 11.34-11.88.13-.02.24-.1.31-.22 4.18-6.76 11.7-7.3 11.78-7.31a.47.47 0 1 0-.06-.94c-.33.02-7.96.55-12.42 7.58-1.36.35-9 2.7-11.86 12.49-.04.17 0 .33.09.44z" fill="#efd48f" class="colorefac8f svgShape"></path>
  <path d="M1262.46 2533.83h-64.74v-157.69h100.49zM2329.17 2533.83h64.74v-157.69h-100.5z" fill="#a7aebc" class="colorbca7b5 svgShape"></path>
  <path d="M2162.32 1743.97h-683.63c-167.59 0-303.45 135.86-303.45 303.45v234.59c0 4.83 3.91 8.74 8.74 8.74h1273.05c4.83 0 8.74-3.91 8.74-8.74v-234.59c0-167.59-135.86-303.45-303.45-303.45z" fill="#ffc531" class="colorf9c300 svgShape"></path>
  <path d="M2444.17 2139.69c-38.69 33.75-87.39 52.72-139 50.19-37.67-1.84-71.74-14.96-107.12-26.82-18.35-6.15-37.11-11.69-56.5-13.14-19.43-1.45-37.2 2.86-54.6 11.39-15.59 7.64-30.02 17.37-45.23 25.69-17.14 9.38-35.38 15.76-54.21 20.86-37.98 10.31-77.51 12.91-116.67 9.96-76-5.74-149.03-30.8-225.03-36.66-73.18-5.64-142.57 23.84-215.29 24.23-36.47.19-71.78-8.95-103.28-27.44-28.54-16.76-53.44-39.89-73.5-66.13-38.23-50.02-59.2-110.94-71.82-172.01-2.57-12.42-4.72-24.9-6.68-37.41v330.09c0 32.18 26.09 58.27 58.27 58.27H2407.5c32.18 0 58.27-26.09 58.27-58.27v-114.14c-6.84 7.45-13.95 14.67-21.6 21.34z" opacity=".15" fill="#000000" class="color000000 svgShape"></path>
  <path d="M1554.77 1863.95c-.84-16.76-1.67-34.93-7.66-50.96a590.443 590.443 0 0 0-8.54 47.22c-5.32 38.09-7.97 77-4.98 115.41 2.44 31.43 8.27 66.24 27.67 92.15 12.49-10.09 15.56-27.43 15.71-42.82.35-33.94-11.34-66.36-17.44-99.36-3.75-20.32-3.72-41.07-4.76-61.64zM2009.16 1848.9c-2.77 12.37-5.36 24.78-7.61 37.25-6.43 35.58-11.11 71.87-10.53 108.1.44 27.48 3.39 61.24 22.61 82.88 11.12-12.22 17.51-28.03 20.67-44.16 7.28-37.13 1.73-76.3-5.98-112.9-5.08-24.05-11.69-47.75-19.16-71.17z" opacity=".15" fill="#000000" class="color000000 svgShape"></path>
  <path d="M2543.52 2406.85H1097.49c0-134.24 108.82-152.24 243.06-152.24h959.91c134.24 0 243.06 18 243.06 152.24z" fill="#ffc531" class="colorf9c300 svgShape"></path>
  <path d="M1082.89 2041.79c-51 0-92.35 41.35-92.35 92.35v149.66c0 51 41.35 92.35 92.35 92.35 51 0 92.35-41.35 92.35-92.35v-149.66c0-51.01-41.34-92.35-92.35-92.35z" fill="#d69d0d" class="colord6980d svgShape"></path>
  <path d="M1082.89 2041.79c-23.98 0-45.76 9.22-62.17 24.21 29.63 4.1 58.47 15.82 81.84 33.85 30.23 23.33 50.45 58.45 46.73 97.46-1.05 10.97-4.07 21.32-7.74 31.65-3.72 10.49-10.49 18.56-16.12 28-3.56 5.96-5.94 12.02-5.26 19.04.54 5.56 2.01 10.98 3.18 16.43 2.55 11.93 2.99 23.71-1.83 35.16-10.09 23.97-33.44 38.97-58.2 46.43 6.31 1.36 12.85 2.12 19.57 2.12 51 0 92.35-41.35 92.35-92.35v-149.66c0-51-41.34-92.34-92.35-92.34z" opacity=".15" fill="#000000" class="color000000 svgShape"></path>
  <path d="M2543.52 2041.79c-51 0-92.35 41.35-92.35 92.35v149.66c0 51 41.35 92.35 92.35 92.35 51 0 92.35-41.35 92.35-92.35v-149.66c0-51.01-41.34-92.35-92.35-92.35z" fill="#d69d0d" class="colord6980d svgShape"></path>
  <path d="M2543.52 2041.79c23.98 0 45.76 9.22 62.17 24.21-29.63 4.1-58.48 15.82-81.84 33.85-30.23 23.33-50.45 58.45-46.73 97.46 1.05 10.97 4.07 21.32 7.74 31.65 3.72 10.49 10.49 18.56 16.12 28 3.56 5.96 5.94 12.02 5.25 19.04-.54 5.56-2.01 10.98-3.18 16.43-2.55 11.93-2.99 23.71 1.83 35.16 10.09 23.97 33.44 38.97 58.2 46.43-6.31 1.36-12.85 2.12-19.57 2.12-51 0-92.35-41.35-92.35-92.35v-149.66c.02-51 41.36-92.34 92.36-92.34z" opacity=".15" fill="#000000" class="color000000 svgShape"></path>
  <path d="M2606.65 2376.19c0 14.08-5.72 26.79-14.89 36.05-9.26 9.17-21.98 14.89-36.15 14.89H1085.34c-28.15 0-51.04-22.8-51.04-50.95 0-3.36.36-6.63.91-9.81 2-10.17 6.99-19.25 14.08-26.34 9.26-9.17 21.98-14.89 36.05-14.89h1470.27c14.26 0 27.25 5.81 36.51 15.26 8.99 9.27 14.53 21.8 14.53 35.79z" fill="#d69d0d" class="colord6980d svgShape"></path>
  <path d="M2592.12 2340.4c-2 10.26-6.99 19.34-13.99 26.43-9.26 9.17-21.98 14.89-36.06 14.89H1071.72c-14.26 0-27.25-5.9-36.51-15.35 2-10.17 6.99-19.25 14.08-26.34 9.26-9.17 21.98-14.89 36.05-14.89h1470.27c14.26 0 27.25 5.82 36.51 15.26z" opacity=".05" fill="#000000" class="color000000 svgShape"></path>
  <path d="m2687.46 2128.78-43.99 32.76H2141.9l26.01-12.14 29.12-13.59 15.08-7.03z" fill="#c9ccd3" class="colord3c9cf svgShape"></path>
  <path d="M2141.91 2161.54h501.55v337.78h-501.55z" fill="#d7dbe2" class="colore2d7de svgShape"></path>
  <g opacity=".5" fill="#000000" class="color000000 svgShape">
    <path d="M2207.2 2474.3h-33.31v-24.71h33.31v24.71zm-31.02-2.29h28.74v-20.14h-28.74v20.14z" fill="#3a3d49" class="color493a41 svgShape"></path>
    <path d="M2191.3 2461.89h9.6s-1.62-8.08-10.36-8.08c-7.68 0-10.36 8.08-10.36 8.08h9.6v6.32h-2.25v1.86h5.95v-1.86h-2.19v-6.32zM2245.41 2474.3h-33.31v-24.71h33.31v24.71zm-31.02-2.29h28.74v-20.14h-28.74v20.14z" fill="#3a3d49" class="color493a41 svgShape"></path>
    <path d="M2232.05 2470.07h-7.81v-7.82h7.81v7.82zm-5.53-2.28h3.24v-3.24h-3.24v3.24zM2240.27 2470.07h-7.82v-7.82h7.82v7.82zm-5.53-2.28h3.24v-3.24h-3.24v3.24zM2283.28 2474.3h-33.31v-24.71h33.31v24.71zm-31.02-2.29H2281v-20.14h-28.74v20.14z" fill="#3a3d49" class="color493a41 svgShape"></path>
    <path d="M2270.86 2455.89v4.49c0 2.29-1.86 4.15-4.15 4.15s-4.15-1.86-4.15-4.15v-4.49h-3.79v4.84c0 4.39 3.55 7.94 7.94 7.94a7.94 7.94 0 0 0 7.94-7.94v-4.84h-3.79z" fill="#3a3d49" class="color493a41 svgShape"></path>
  </g>
  <path d="M2363.6 2159.15v67.56l9.21-6.14 2.9 6.14 3.24-5.29 6.65 5.29 4.61-4.95 3.92 4.95 7.17-4.44 4.6 4.44 10.41-6.14 5.46 6.14v-67.56z" fill="#c9ccd3" class="colord3c9cf svgShape"></path>
  <path d="m2421.77 2161.54 17.53-12.15-10.81 1.1-1.3-1.1-4.62.95-5.28-.95-5.89.89-2.64-.89-8.31.8-3.46-.8-12 1.1-3.86-1.1-17.53 12.15zM2411.85 2128.79l-17.53 12.15 10.81-1.1 1.31 1.1 4.61-.95 5.28.95 5.89-.89 2.64.89 8.32-.8 3.45.8 12-1.1 3.87 1.1 17.53-12.15z" opacity=".5" fill="#3a3d49" class="color493a41 svgShape"></path>
  <path d="M2421.77 2502.45v-67.56l-9.21 6.14-2.9-6.14-3.24 5.29-6.66-5.29-4.6 4.95-3.93-4.95-7.16 4.44-4.61-4.44-10.41 6.14-5.45-6.14v67.56z" fill="#c9ccd3" class="colord3c9cf svgShape"></path>
  <path d="M2489.92 2199.75h120.78v67.56h-120.78zM2176.18 2283h434.52v102.36h-434.52zM2643.46 2161.54l44.01-32.75v333.49l-44.01 37.04z" fill="#eaecef" class="coloreaefee svgShape"></path>
  <path d="M2661.96 2147.77v31l2.31-3.33.77.94 1.28-2.22 1.28 1.45 1.45-3.67 1.28 1.62 1.19-3.67s1.11 1.45 1.11 1.11c0-.34 1.28-1.96 1.28-1.96l1.62.34v-31.72h-43.33l1.34 1.16-2.05.26.9 1.22-1.54.32.26 1.02-2.05-.06.32 1.41-1.66.45 1.34 1.34-2.17.38 1.15 1.22-1.6.64 1.79 1.09 33.73-.34zM2217.57 2139.45l-4.61 1.19.94 1.19-3.92 1.11 1.02 1.36-3.65.56s.84 1.74.49 1.74c-.34 0-3.75.51-3.75.51l-.51 2.27h-35.67l29.12-13.58 22.92.57-3.33 2.33.95.75z" opacity=".5" fill="#3a3d49" class="color493a41 svgShape"></path>
  <path d="M2470.03 2161.54h173.43v337.78h-173.43z" opacity=".35" fill="#3a3d49" class="color493a41 svgShape"></path>
  <path d="m2485.97 2199.89 48.64-26.68 496.93-6.07-44.02 118.73z" fill="#3a3d49" class="color493a41 svgShape"></path>
  <path d="M2659.93 2224.52c.76-2.95 16.03-2.88 16.03-2.88s-11.52-.36-13.11-3.88c-1.59-3.53-5.16-22.19.31-23.86 5.01-1.52 110.99 2.49 128.84 3.18-.01 1.46.3 2.91.63 4.34-1.42.05-9.51.34-13.97.15 4.59 1.01 12.97 3.21 12.97 3.21l-.11 8.33-14.11 2.17 14.06 1.13-.13 9.84-14.46 1.46 14.42 1.76s.38 7.1.36 9.14c-.03 2.03-116.59 3-128.57 1.75-6.53-2.27-3.85-13.15-3.16-15.84z" fill="#ffffff" class="colorffffff svgShape"></path>
  <path d="M2675.96 2221.64s-11.52-.36-13.11-3.88c-1.17-2.59-3.4-13.33-2.34-19.52.13.37.26.74.39 1.09 1.23 3.26 2.77 6.65 4.8 9.51 2.73 3.84 7.61 5.3 10.88 8.54.71.71 1.31 1.49 1.61 2.46.41 1.31-.06 2.37-.62 3.55-.93 1.98-1.41 3.97.07 5.83 2.47 3.1 7.34 3.63 10.97 4.26 6.84 1.19 13.61.42 20.46-.21 3.45-.32 6.92-.55 10.38-.38 3.54.18 7.04.72 10.54 1.22 5.42.76 10.94 1.14 16.42 1.31 2.16.07 4.47.08 6.55-.58 1.66-.53 3.68-1.91 3.98-3.76.34-2.08-2.18-3-3.2-4.42-.7-.97-1.09-2.13-.6-3.27 1.04-2.41 3.95-3.88 5.75-5.66 2.05-2.03 3.16-4.58 1.94-7.37-1.74-4-6.25-5.97-10.15-7.2-4.39-1.39-8.96-1.99-13.48-2.82-6.2-1.14-12.58-2.56-18.44-4.91-.72-.29-1.45-.61-2.16-.95 31.05.91 65.85 2.24 75.41 2.6-.01 1.46.3 2.91.63 4.34-1.42.05-9.51.34-13.97.15 4.59 1.01 12.97 3.21 12.97 3.21l-.11 8.33-14.11 2.17 14.06 1.13-.13 9.84-14.46 1.46 14.42 1.76s.38 7.1.36 9.14c-.03 2.03-116.59 3-128.57 1.75-6.54-2.27-3.86-13.15-3.17-15.83.76-2.96 16.03-2.89 16.03-2.89z" opacity=".1" fill="#080e24" class="color231f20 svgShape"></path>
  <path d="M2763.71 2239.97c.76-2.41 1.75-4.79 2.62-7.16.76-2.07 2.01-4 2.28-6.23.25-2.07-.92-3.44-2.38-4.72-3.65-3.21-.01-7.77 1.34-11.2 1.67-4.25-.09-8.81-3.72-11.44-2.21-1.6-4.9-2.36-7.39-3.46 16.46.58 30.1 1.1 35.54 1.31-.01 1.46.3 2.91.63 4.34-1.42.05-9.51.34-13.97.15 4.59 1.01 12.97 3.21 12.97 3.21l-.11 8.33-14.11 2.17 14.06 1.13-.13 9.84-14.46 1.46 14.42 1.76s.38 7.1.36 9.14c-.01.64-11.69 1.18-28.02 1.57.03-.06.05-.13.07-.2z" opacity=".1" fill="#080e24" class="color231f20 svgShape"></path>
  <path d="M2718.92 2198.54s-54.71-1.26-55.25-1.4c-.54-.14-.15 1.36-.02 1.36l55.27.04zM2718.41 2236.86s-54.71-1.26-55.25-1.4c-.54-.14-.15 1.36-.02 1.36.14.01 55.27.04 55.27.04zM2718.72 2213.82s-54.71-1.26-55.25-1.4c-.54-.14-.15 1.36-.02 1.36l55.27.04zM2699.29 2209.85s-35.52-1.01-35.88-1.15c-.35-.14-.11 1.36-.02 1.36.1.01 35.9-.21 35.9-.21zM2718.48 2231.97s-54.71-1.26-55.25-1.4c-.54-.14-.15 1.36-.02 1.36l55.27.04zM2699.06 2228s-35.52-1.01-35.88-1.15c-.35-.14-.11 1.36-.02 1.36.09.01 35.9-.21 35.9-.21zM2684.88 2201.8s-21.22-.82-21.43-.96c-.21-.14-.07 1.36-.02 1.36.05.01 21.45-.4 21.45-.4z" fill="#080e24" opacity=".2" class="color231f20 svgShape"></path>
  <path d="M2802.73 2184.86c-.68-2.97-15.95-3.3-15.95-3.3s11.52-.05 13.2-3.54c1.68-3.49 5.74-22.05.31-23.86-4.97-1.66-111.02-.42-128.88-.2-.03 1.46-.38 2.9-.74 4.32 1.42.09 9.5.59 13.96.52-4.62.89-13.05 2.87-13.05 2.87l-.11 8.33 14.04 2.54-14.09.76-.13 9.84 14.42 1.84-14.46 1.38s-.57 7.09-.6 9.13 116.47 6.06 128.48 5.12c6.62-2.11 4.22-13.05 3.6-15.75z" fill="#ffffff" class="colorffffff svgShape"></path>
  <path d="M2786.79 2181.55s11.52-.05 13.2-3.54c1.23-2.56 3.75-13.24 2.85-19.46-.14.37-.28.73-.42 1.08-1.31 3.23-2.95 6.58-5.05 9.38-2.83 3.77-7.74 5.09-11.1 8.25-.73.69-1.34 1.46-1.67 2.42-.45 1.3 0 2.37.52 3.57.88 2.01 1.3 4.01-.22 5.82-2.55 3.04-7.43 3.43-11.08 3.97-6.87 1.01-13.61.07-20.45-.74-3.44-.41-6.9-.73-10.37-.65-3.54.08-7.05.54-10.57.94-5.44.62-10.97.85-16.45.88-2.16.01-4.47-.04-6.53-.75-1.64-.57-3.62-2.01-3.88-3.86-.29-2.09 2.26-2.95 3.31-4.33.72-.95 1.15-2.1.69-3.26-.97-2.43-3.85-3.98-5.6-5.8-2-2.08-3.04-4.66-1.75-7.42 1.85-3.95 6.41-5.8 10.34-6.93 4.43-1.27 9.01-1.75 13.55-2.46 6.23-.98 12.64-2.23 18.57-4.43.73-.27 1.46-.57 2.19-.9-31.07.1-65.89.51-75.45.63-.03 1.46-.38 2.9-.74 4.32 1.42.09 9.5.59 13.96.52-4.62.89-13.05 2.87-13.05 2.87l-.11 8.33 14.04 2.54-14.09.76-.13 9.84 14.42 1.84-14.46 1.38s-.57 7.09-.6 9.13 116.47 6.06 128.48 5.12c6.6-2.1 4.2-13.04 3.58-15.74-.67-2.98-15.93-3.32-15.93-3.32z" opacity=".1" fill="#080e24" class="color231f20 svgShape"></path>
  <path d="M2698.59 2197.58c-.69-2.43-1.62-4.83-2.43-7.22-.7-2.09-1.91-4.05-2.12-6.28-.2-2.08 1.01-3.41 2.5-4.65 3.74-3.11.21-7.77-1.04-11.23-1.56-4.3.33-8.81 4.02-11.34 2.25-1.54 4.96-2.23 7.47-3.27-16.47.15-30.12.31-35.57.37-.03 1.46-.38 2.9-.74 4.32 1.42.09 9.5.59 13.96.52-4.62.89-13.05 2.87-13.05 2.87l-.11 8.33 14.04 2.54-14.09.76-.13 9.84 14.42 1.84-14.46 1.38s-.57 7.09-.6 9.13c-.01.64 11.65 1.49 27.97 2.31-.01-.08-.02-.15-.04-.22z" opacity=".1" fill="#080e24" class="color231f20 svgShape"></path>
  <path d="M2744.45 2157.33s54.72.18 55.27.05c.55-.13.12 1.37-.02 1.36-.14 0-55.25-1.41-55.25-1.41zM2743.95 2195.66s54.72.18 55.27.05c.55-.13.12 1.37-.02 1.36-.14 0-55.25-1.41-55.25-1.41zM2744.25 2172.61s54.72.18 55.27.05c.55-.13.12 1.37-.02 1.36s-55.25-1.41-55.25-1.41zM2763.77 2169.16s35.54-.08 35.89-.21c.36-.13.07 1.36-.02 1.36-.08.01-35.87-1.15-35.87-1.15zM2744.01 2190.76s54.72.18 55.27.05c.55-.13.12 1.37-.02 1.36-.14 0-55.25-1.41-55.25-1.41zM2763.53 2187.31s35.54-.08 35.89-.21c.36-.13.07 1.36-.02 1.36-.08.01-35.87-1.15-35.87-1.15zM2778.39 2161.49s21.23-.26 21.45-.4c.21-.13.03 1.36-.02 1.36s-21.43-.96-21.43-.96z" fill="#080e24" opacity=".2" class="color231f20 svgShape"></path>
  <path d="m2682.61 2173.67-15.47 79.5c-1.54 7.9-9.19 13.06-17.08 11.52l-122.88-23.92c-7.89-1.54-13.04-9.18-11.51-17.08l15.47-79.5 151.47 29.48z" fill="#dce1ea" class="colordceaea svgShape"></path>
  <path d="m2682.65 2173.5-15.5 79.66c-1.54 7.9-9.18 13.06-17.08 11.52l-114.19-22.22c-7.89-1.54-13.04-9.18-11.51-17.08l15.5-79.66 142.78 27.78z" fill="#efefef" class="colorefefef svgShape"></path>
  <path d="m2684.13 2165.9-1.48 7.61-142.78-27.79 1.48-7.61c1.54-7.9 9.18-13.04 17.07-11.51l114.19 22.22c7.9 1.54 13.06 9.18 11.52 17.08z" fill="#c9ccd3" class="colord3c9cf svgShape"></path>
  <path d="M2558.42 2126.6c-7.89-1.54-15.53 3.61-17.07 11.51l-1.48 7.61-8.7-1.69 1.48-7.61c1.54-7.9 9.18-13.04 17.07-11.51l8.7 1.69z" fill="#d7dbe2" class="colore2d7de svgShape"></path>
  <path d="m2585.93 2167.87-34.96-6.8a.318.318 0 0 1-.25-.37l.81-4.15c.03-.17.2-.28.37-.25l34.96 6.8c.17.03.28.2.25.37l-.81 4.15c-.04.17-.2.28-.37.25zM2560.45 2183.99l-12.24-2.38a.92.92 0 0 1-.73-1.08l2.53-12.99c.1-.5.58-.83 1.08-.73l12.24 2.38c.5.1.83.58.73 1.08l-2.53 12.99c-.09.5-.58.83-1.08.73zM2580.77 2187.95l-12.23-2.38a.92.92 0 0 1-.73-1.08l2.53-12.99c.1-.5.58-.83 1.08-.73l12.24 2.38c.5.1.83.58.73 1.08l-2.53 12.99c-.11.5-.59.82-1.09.73zM2601.08 2191.9l-12.24-2.38a.92.92 0 0 1-.73-1.08l2.53-12.99c.1-.5.58-.83 1.08-.73l12.23 2.38c.5.1.83.58.73 1.08l-2.53 12.99c-.09.5-.57.83-1.07.73zM2621.39 2195.85l-12.24-2.38a.92.92 0 0 1-.73-1.08l2.53-12.99c.1-.5.58-.83 1.08-.73l12.23 2.38c.5.1.83.58.73 1.08l-2.53 12.99c-.08.5-.57.83-1.07.73zM2641.71 2199.81l-12.24-2.38a.92.92 0 0 1-.73-1.08l2.53-12.99c.1-.5.58-.83 1.08-.73l12.23 2.38c.5.1.83.58.73 1.08l-2.53 12.99c-.09.5-.57.82-1.07.73zM2662.02 2203.76l-12.24-2.38a.92.92 0 0 1-.73-1.08l2.53-12.99c.1-.5.58-.83 1.08-.73l12.23 2.38c.5.1.83.58.73 1.08l-2.53 12.99c-.09.5-.57.83-1.07.73z" fill="#ffffff" class="colorffffff svgShape"></path>
  <path d="m2556.16 2206.06-12.24-2.38a.92.92 0 0 1-.73-1.08l2.53-12.99c.1-.5.58-.83 1.08-.73l12.23 2.38c.5.1.83.58.73 1.08l-2.53 12.99c-.09.5-.57.83-1.07.73zM2576.47 2210.02l-12.23-2.38a.92.92 0 0 1-.73-1.08l2.53-12.99c.1-.5.58-.83 1.08-.73l12.24 2.38c.5.1.83.58.73 1.08l-2.53 12.99c-.1.5-.59.82-1.09.73z" fill="#879dca" class="color87ca9b svgShape"></path>
  <path d="m2617.1 2217.92-12.24-2.38a.92.92 0 0 1-.73-1.08l2.53-12.99c.1-.5.58-.83 1.08-.73l12.24 2.38c.5.1.83.58.73 1.08l-2.53 12.99c-.1.5-.58.83-1.08.73zM2637.41 2221.87l-12.23-2.38a.92.92 0 0 1-.73-1.08l2.53-12.99c.1-.5.58-.83 1.08-.73l12.24 2.38c.5.1.83.58.73 1.08l-2.53 12.99c-.1.51-.59.83-1.09.73zM2657.73 2225.83l-12.24-2.38a.92.92 0 0 1-.73-1.08l2.53-12.99c.1-.5.58-.83 1.08-.73l12.23 2.38c.5.1.83.58.73 1.08l-2.53 12.99c-.09.5-.57.83-1.07.73zM2551.87 2228.13l-12.24-2.38a.92.92 0 0 1-.73-1.08l2.53-12.99c.1-.5.58-.83 1.08-.73l12.24 2.38c.5.1.83.58.73 1.08l-2.53 12.99c-.1.5-.59.83-1.08.73zM2572.18 2232.08l-12.23-2.38a.92.92 0 0 1-.73-1.08l2.53-12.99c.1-.5.58-.83 1.08-.73l12.24 2.38c.5.1.83.58.73 1.08l-2.53 12.99c-.11.5-.59.83-1.09.73zM2592.49 2236.04l-12.24-2.38a.92.92 0 0 1-.73-1.08l2.53-12.99c.1-.5.58-.83 1.08-.73l12.23 2.38c.5.1.83.58.73 1.08l-2.53 12.99c-.09.5-.57.82-1.07.73zM2612.8 2239.99l-12.23-2.38a.92.92 0 0 1-.73-1.08l2.53-12.99c.1-.5.58-.83 1.08-.73l12.24 2.38c.5.1.83.58.73 1.08l-2.53 12.99c-.1.5-.59.83-1.09.73zM2633.12 2243.94l-12.24-2.38a.92.92 0 0 1-.73-1.08l2.53-12.99c.1-.5.58-.83 1.08-.73l12.24 2.38c.5.1.83.58.73 1.08l-2.53 12.99c-.1.5-.58.83-1.08.73zM2653.43 2247.9l-12.23-2.38a.92.92 0 0 1-.73-1.08l2.53-12.99c.1-.5.58-.83 1.08-.73l12.24 2.38c.5.1.83.58.73 1.08l-2.53 12.99c-.11.5-.59.82-1.09.73z" fill="#ffffff" class="colorffffff svgShape"></path>
  <path d="M2550.91 2200.53c-.1-.02-.2-.05-.29-.09-.37-.15-.66-.45-.81-.82l-1.51-3.77c-.31-.76.06-1.63.83-1.94.77-.31 1.63.06 1.94.83l.95 2.36 7.91-3.32c.76-.32 1.63.04 1.95.8.32.76-.04 1.63-.8 1.95l-9.3 3.91c-.29.11-.59.14-.87.09zM2570.3 2204.3c-.1-.02-.2-.05-.29-.09-.37-.15-.66-.45-.81-.82l-1.51-3.77c-.31-.76.06-1.63.83-1.94.77-.31 1.63.06 1.94.83l.95 2.36 7.91-3.32c.76-.32 1.64.04 1.95.8.32.76-.04 1.63-.8 1.95l-9.3 3.91c-.28.12-.58.15-.87.09z" fill="#f1f6ff" class="colorf7f1ff svgShape"></path>
  <path d="m2596.79 2213.97-12.24-2.38a.92.92 0 0 1-.73-1.08l2.53-12.99c.1-.5.58-.83 1.08-.73l12.23 2.38c.5.1.83.58.73 1.08l-2.53 12.99c-.09.5-.57.83-1.07.73z" fill="#879dca" class="color87ca9b svgShape"></path>
  <path d="M2589.69 2208.08c-.1-.02-.2-.05-.29-.09-.37-.15-.66-.45-.81-.82l-1.51-3.77c-.31-.76.06-1.63.83-1.94.77-.31 1.63.06 1.94.83l.95 2.36 7.91-3.32c.76-.32 1.63.04 1.95.8.32.76-.04 1.63-.8 1.95l-9.3 3.91c-.28.11-.58.14-.87.09z" fill="#f1f6ff" class="colorf7f1ff svgShape"></path>
  <path d="m2580.77 2187.95-12.23-2.38a.92.92 0 0 1-.73-1.08l2.53-12.99c.1-.5.58-.83 1.08-.73l12.24 2.38c.5.1.83.58.73 1.08l-2.53 12.99c-.11.5-.59.82-1.09.73z" fill="#879dca" class="color87ca9b svgShape"></path>
  <path d="M2573.67 2182.05c-.1-.02-.2-.05-.29-.09-.37-.15-.66-.45-.81-.82l-1.51-3.77c-.31-.76.06-1.63.83-1.94.77-.31 1.63.06 1.94.83l.95 2.36 7.91-3.32c.76-.32 1.63.04 1.95.8.32.76-.04 1.63-.8 1.95l-9.3 3.91c-.28.12-.58.15-.87.09z" fill="#f1f6ff" class="colorf7f1ff svgShape"></path>
  <path d="M2562.79 2137.68a4.343 4.343 0 0 1-5.09 3.43 4.343 4.343 0 0 1-3.43-5.09 4.343 4.343 0 0 1 5.09-3.43c2.36.46 3.89 2.74 3.43 5.09zM2583.11 2141.64a4.343 4.343 0 0 1-5.09 3.43 4.343 4.343 0 0 1-3.43-5.09 4.343 4.343 0 0 1 5.09-3.43c2.35.45 3.89 2.73 3.43 5.09zM2603.42 2145.59a4.343 4.343 0 0 1-5.09 3.43 4.343 4.343 0 0 1-3.43-5.09 4.343 4.343 0 0 1 5.09-3.43c2.35.46 3.89 2.74 3.43 5.09zM2623.73 2149.54a4.343 4.343 0 0 1-5.09 3.43 4.343 4.343 0 0 1-3.43-5.09 4.343 4.343 0 0 1 5.09-3.43c2.36.46 3.89 2.74 3.43 5.09zM2644.05 2153.5a4.343 4.343 0 0 1-5.09 3.43 4.343 4.343 0 0 1-3.43-5.09 4.343 4.343 0 0 1 5.09-3.43c2.35.45 3.89 2.73 3.43 5.09zM2664.36 2157.45a4.343 4.343 0 0 1-5.09 3.43 4.343 4.343 0 0 1-3.43-5.09 4.343 4.343 0 0 1 5.09-3.43c2.35.46 3.89 2.74 3.43 5.09z" fill="#d7dbe2" class="colore2d7de svgShape"></path>
  <path d="m2561.13 2136.39-4.88-.95a.365.365 0 0 1-.29-.43l2.59-13.33c.04-.2.23-.33.43-.29l4.88.95c.2.04.33.23.29.43l-2.59 13.33a.36.36 0 0 1-.43.29zM2581.43 2140.34l-4.88-.95a.365.365 0 0 1-.29-.43l2.59-13.33c.04-.2.23-.33.43-.29l4.88.95c.2.04.33.23.29.43l-2.59 13.33c-.04.2-.23.33-.43.29zM2601.73 2144.29l-4.88-.95a.365.365 0 0 1-.29-.43l2.59-13.33c.04-.2.23-.33.43-.29l4.88.95c.2.04.33.23.29.43l-2.6 13.33a.35.35 0 0 1-.42.29zM2622.02 2148.24l-4.88-.95a.365.365 0 0 1-.29-.43l2.59-13.33c.04-.2.23-.33.43-.29l4.88.95c.2.04.33.23.29.43l-2.59 13.33a.36.36 0 0 1-.43.29zM2642.32 2152.19l-4.88-.95a.365.365 0 0 1-.29-.43l2.59-13.33c.04-.2.23-.33.43-.29l4.88.95c.2.04.33.23.29.43l-2.59 13.33c-.04.2-.23.33-.43.29zM2662.62 2156.14l-4.88-.95a.365.365 0 0 1-.29-.43l2.59-13.33c.04-.2.23-.33.43-.29l4.88.95c.2.04.33.23.29.43l-2.59 13.33c-.04.2-.23.33-.43.29z" fill="#4b5370" class="color704b67 svgShape"></path>
  <path d="M2485.97 2199.89h501.55v337.78h-501.55z" fill="#d7dbe2" class="colore2d7de svgShape"></path>
  <g opacity=".5" fill="#000000" class="color000000 svgShape">
    <path d="M2551.27 2512.65h-33.31v-24.71h33.31v24.71zm-31.03-2.29h28.74v-20.14h-28.74v20.14z" fill="#3a3d49" class="color493a41 svgShape"></path>
    <path d="M2535.37 2500.24h9.6s-1.62-8.08-10.36-8.08c-7.68 0-10.36 8.08-10.36 8.08h9.6v6.32h-2.25v1.86h5.95v-1.86h-2.18v-6.32zM2589.48 2512.65h-33.31v-24.71h33.31v24.71zm-31.02-2.29h28.74v-20.14h-28.74v20.14z" fill="#3a3d49" class="color493a41 svgShape"></path>
    <path d="M2576.12 2508.43h-7.81v-7.82h7.81v7.82zm-5.53-2.29h3.24v-3.24h-3.24v3.24zM2584.33 2508.43h-7.82v-7.82h7.82v7.82zm-5.53-2.29h3.24v-3.24h-3.24v3.24zM2627.35 2512.65h-33.31v-24.71h33.31v24.71zm-31.02-2.29h28.74v-20.14h-28.74v20.14z" fill="#3a3d49" class="color493a41 svgShape"></path>
    <path d="M2614.93 2494.24v4.49c0 2.29-1.86 4.15-4.15 4.15s-4.15-1.86-4.15-4.15v-4.49h-3.79v4.84a7.94 7.94 0 0 0 7.94 7.94c4.39 0 7.94-3.55 7.94-7.94v-4.84h-3.79z" fill="#3a3d49" class="color493a41 svgShape"></path>
  </g>
  <path d="M2765.83 2540.8v-67.56l-9.21 6.14-2.9-6.14-3.24 5.29-6.65-5.29-4.61 4.95-3.92-4.95-7.17 4.44-4.6-4.44-10.41 6.14-5.46-6.14v67.56z" fill="#c9ccd3" class="colord3c9cf svgShape"></path>
  <path d="M2833.99 2238.1h120.78v67.56h-120.78zM2520.24 2321.35h434.52v102.36h-434.52z" fill="#eaecef" class="coloreaefee svgShape"></path>
  <g opacity=".35" fill="#000000" class="color000000 svgShape">
    <path d="M2616.16 2362.98c0 1.56-.38 2.98-1.15 4.25-.77 1.28-1.8 2.34-3.08 3.2.68.14 1.26.37 1.76.69.5.33.91.73 1.24 1.2.33.47.58 1.01.75 1.61.17.6.25 1.23.25 1.88 0 1.29-.3 2.41-.9 3.37-.6.96-1.37 1.75-2.32 2.37-.95.62-2 1.08-3.17 1.39-1.16.3-2.32.46-3.47.46-.63 0-1.26-.05-1.9-.14a8.21 8.21 0 0 1-1.8-.47c-.2-.07-.37-.34-.51-.83-.14-.49-.24-1.08-.32-1.78-.08-.7-.14-1.46-.19-2.27-.04-.81-.08-1.59-.1-2.34-.02-.75-.03-1.4-.03-1.96v-3.58c0-.8.02-1.6.07-2.39 0-.2.01-.52.02-.95.01-.43.02-.91.03-1.44.01-.53.03-1.09.07-1.68.03-.59.08-1.14.14-1.64.06-.51.14-.94.24-1.3.1-.36.22-.59.36-.68.52-.34 1.1-.66 1.73-.97.63-.3 1.29-.57 1.96-.8.68-.23 1.36-.41 2.03-.54.68-.14 1.32-.2 1.93-.2.84 0 1.64.12 2.42.36s1.46.59 2.03 1.07 1.04 1.06 1.39 1.74.52 1.49.52 2.37zm-5.62 1.8c0-.38-.12-.67-.36-.85-.24-.18-.55-.27-.93-.27-.32 0-.65.07-1 .2-.35.14-.65.32-.9.54-.07.07-.13.26-.19.58-.06.32-.1.67-.14 1.07-.03.4-.06.77-.07 1.12-.01.35-.02.58-.02.69v.22c0 .1.01.21.02.32.01.11.03.21.05.31.02.09.06.14.1.14.38 0 .78-.14 1.19-.42.41-.28.77-.63 1.1-1.05.33-.42.6-.86.81-1.34.23-.48.34-.9.34-1.26zm-.13 9.79c0-.38-.14-.65-.41-.81-.27-.16-.58-.24-.91-.24-.32 0-.65.07-1 .22s-.64.32-.86.53c-.07.05-.12.16-.15.34-.03.18-.06.38-.07.59l-.03.61c-.01.19-.02.32-.02.39v.27c0 .14.01.28.02.42.01.15.03.28.07.41.03.12.07.19.12.19.32 0 .67-.09 1.05-.27.38-.18.74-.41 1.07-.68.33-.27.6-.58.81-.93.2-.36.31-.7.31-1.04zM2625.86 2383.99c-1.15 0-2.16-.31-3.02-.91-.86-.61-1.58-1.39-2.17-2.34-.59-.95-1.03-2-1.32-3.17-.29-1.16-.44-2.31-.44-3.44 0-1.2.15-2.43.44-3.71.29-1.28.75-2.44 1.35-3.49.61-1.05 1.39-1.91 2.34-2.57.95-.67 2.08-1 3.39-1 1.26 0 2.34.34 3.24 1.03.89.69 1.61 1.55 2.15 2.57.54 1.03.93 2.15 1.15 3.37.23 1.22.3 2.37.24 3.46-.07 1.2-.25 2.41-.56 3.62-.3 1.22-.75 2.31-1.34 3.29-.59.97-1.33 1.76-2.24 2.37-.89.61-1.97.92-3.21.92zm.34-15.32c-.34 0-.64.18-.9.54-.26.36-.47.8-.64 1.32-.17.52-.3 1.07-.39 1.64-.09.58-.14 1.08-.14 1.51 0 .54.05 1.13.15 1.76.1.63.24 1.21.42 1.74s.4.97.66 1.32c.26.35.56.53.9.53.36 0 .67-.17.93-.51.26-.34.47-.77.63-1.29.16-.52.27-1.09.34-1.71.07-.62.1-1.2.1-1.74 0-.5-.04-1.05-.14-1.64-.09-.6-.22-1.16-.39-1.68s-.38-.95-.64-1.29c-.25-.33-.55-.5-.89-.5zM2643.11 2383.99c-1.15 0-2.16-.31-3.02-.91-.86-.61-1.58-1.39-2.17-2.34-.59-.95-1.03-2-1.32-3.17-.29-1.16-.44-2.31-.44-3.44 0-1.2.15-2.43.44-3.71.29-1.28.75-2.44 1.36-3.49.61-1.05 1.39-1.91 2.34-2.57.95-.67 2.08-1 3.39-1 1.27 0 2.34.34 3.24 1.03.89.69 1.61 1.55 2.15 2.57.54 1.03.93 2.15 1.15 3.37.23 1.22.3 2.37.24 3.46-.07 1.2-.25 2.41-.56 3.62-.3 1.22-.75 2.31-1.34 3.29-.59.97-1.33 1.76-2.24 2.37-.9.61-1.97.92-3.22.92zm.34-15.32c-.34 0-.64.18-.9.54-.26.36-.47.8-.64 1.32s-.3 1.07-.39 1.64c-.09.58-.14 1.08-.14 1.51 0 .54.05 1.13.15 1.76.1.63.24 1.21.42 1.74s.4.97.66 1.32c.26.35.56.53.9.53.36 0 .67-.17.93-.51.26-.34.47-.77.63-1.29s.27-1.09.34-1.71c.07-.62.1-1.2.1-1.74 0-.5-.05-1.05-.14-1.64-.09-.6-.22-1.16-.39-1.68s-.38-.95-.64-1.29c-.25-.33-.55-.5-.89-.5zM2668.97 2364.78c0 .63-.16 1.28-.49 1.93-.33.66-.72 1.3-1.19 1.95-.46.64-.95 1.25-1.46 1.83-.51.58-.95 1.1-1.34 1.58.32.5.71 1.16 1.19 1.98.47.82.93 1.7 1.36 2.63.43.93.8 1.83 1.1 2.71.3.88.46 1.61.46 2.2 0 .47-.15.91-.44 1.3-.29.4-.7.59-1.22.59-.38 0-.77-.16-1.17-.49-.4-.33-.79-.76-1.19-1.29-.4-.53-.77-1.12-1.13-1.78-.36-.65-.69-1.3-1-1.93-.3-.63-.58-1.23-.81-1.78-.24-.55-.42-1-.56-1.34-.29.29-.6.54-.93.73-.33.19-.65.41-.97.66 0 .47-.02 1.14-.05 2-.03.86-.14 1.71-.31 2.54s-.45 1.56-.83 2.19c-.38.62-.95.93-1.69.93-.59 0-1.04-.27-1.36-.8-.32-.53-.55-1.15-.69-1.86-.15-.71-.23-1.43-.25-2.17-.02-.73-.03-1.29-.03-1.68 0-1.67.04-3.34.14-5.01s.15-3.34.17-5.01c0-.38.01-.89.02-1.51s.05-1.29.12-2.02c.07-.72.17-1.46.3-2.2.14-.75.33-1.42.58-2.02.25-.6.57-1.08.97-1.46.4-.37.88-.56 1.44-.56.41 0 .75.15 1.03.46.28.31.51.69.68 1.17.17.47.29 1.01.37 1.59.08.59.14 1.17.17 1.74.03.58.05 1.11.05 1.61v1.19c0 .2-.01.5-.02.9l-.03 1.24c-.01.43-.02.82-.02 1.19s.02.62.07.78c.16 0 .4-.15.71-.46.32-.31.68-.69 1.1-1.17.42-.47.87-.98 1.36-1.51.49-.53.98-1.03 1.49-1.51.51-.47 1.01-.86 1.51-1.17.5-.3.96-.46 1.39-.46.45 0 .8.16 1.05.47.22.33.35.69.35 1.1zM2700.56 2378.23c.2.27.45.61.75 1.02.29.41.58.84.85 1.3.27.46.5.91.69 1.36s.29.81.29 1.1c0 .54-.19.98-.58 1.3-.38.33-.81.49-1.29.49-.34 0-.73-.14-1.19-.42-.45-.28-.9-.62-1.36-1-.45-.38-.89-.77-1.3-1.17-.42-.4-.74-.72-.97-.97-1.04.68-2.24 1.2-3.59 1.56-1.35.36-2.64.54-3.86.54-1.06 0-2.03-.16-2.9-.47-.87-.32-1.63-.77-2.27-1.37-.64-.6-1.14-1.33-1.49-2.2-.35-.87-.53-1.85-.53-2.93 0-.86.18-1.68.53-2.46s.8-1.5 1.34-2.17c.54-.67 1.14-1.28 1.8-1.83.66-.55 1.3-1.06 1.93-1.51-.32-.41-.6-.85-.85-1.34a10.721 10.721 0 0 1-1.02-3.09c-.09-.53-.14-1.03-.14-1.51 0-.81.15-1.58.44-2.29.29-.71.69-1.33 1.2-1.86s1.12-.94 1.83-1.24c.71-.29 1.49-.44 2.32-.44.77 0 1.51.16 2.24.47.72.32 1.37.74 1.93 1.27a6.5 6.5 0 0 1 1.37 1.86c.35.71.53 1.47.53 2.29 0 .63-.11 1.23-.32 1.78-.21.55-.5 1.08-.85 1.58s-.73.97-1.15 1.42c-.42.45-.83.88-1.24 1.29.65.99 1.33 1.97 2.02 2.91.69.95 1.38 1.91 2.08 2.88.27-.27.58-.56.92-.86.34-.3.7-.59 1.08-.85.38-.26.78-.47 1.19-.64.41-.17.81-.25 1.22-.25.56 0 .98.15 1.24.46.26.31.39.72.39 1.24 0 .47-.11.94-.34 1.41-.23.46-.5.9-.83 1.3-.33.41-.68.79-1.07 1.14-.38.35-.73.65-1.04.9zm-10.71-6.17a6.12 6.12 0 0 0-1.71 1.85c-.42.71-.63 1.51-.63 2.39 0 1.49.77 2.24 2.3 2.24.63 0 1.29-.12 1.98-.36s1.32-.54 1.88-.9c-.36-.47-.7-.91-1.02-1.32-.32-.41-.62-.81-.91-1.22-.29-.41-.59-.82-.9-1.25-.29-.43-.63-.91-.99-1.43zm1.12-10.81c-.45 0-.77.15-.95.44-.18.29-.27.69-.27 1.19 0 .56.12 1.08.36 1.54s.57.88 1 1.24c.45-.38.85-.84 1.2-1.36.35-.52.53-1.06.53-1.63 0-.38-.21-.72-.63-1-.42-.27-.83-.42-1.24-.42zM2728.62 2359.22c0 .52-.16.97-.49 1.36-.33.38-.72.7-1.17.95-.41.25-.82.51-1.25.8-.43.28-.82.6-1.19.95-.36.35-.66.74-.88 1.17-.23.43-.34.91-.34 1.46 0 .47.11.9.34 1.29.23.38.5.76.83 1.14.33.37.69.76 1.08 1.15.4.4.76.84 1.08 1.32.33.49.6 1.03.83 1.64.23.61.34 1.32.34 2.13 0 .56-.12 1.2-.36 1.91s-.56 1.43-.97 2.15c-.41.72-.89 1.42-1.44 2.1-.55.68-1.14 1.28-1.76 1.81-.62.53-1.27.96-1.95 1.29-.68.33-1.33.49-1.97.49-.7 0-1.32-.19-1.86-.58-.54-.38-.81-.96-.81-1.73 0-.52.12-1 .37-1.44.25-.44.55-.86.91-1.27s.76-.8 1.2-1.19c.44-.38.84-.77 1.2-1.15.36-.38.67-.78.91-1.2.25-.42.37-.86.37-1.34 0-.66-.23-1.33-.69-2.02-.46-.69-.98-1.4-1.54-2.13-.57-.73-1.08-1.49-1.54-2.25-.46-.77-.69-1.55-.69-2.34 0-.97.26-1.99.78-3.07a12.48 12.48 0 0 1 2-2.95c.81-.89 1.73-1.63 2.74-2.22s2.02-.88 3.02-.88c.79 0 1.47.24 2.03.71.59.48.87 1.13.87 1.94zM2739.44 2384.22c-1.6 0-2.85-.21-3.74-.63-.89-.42-1.56-1.01-2-1.78-.44-.77-.71-1.69-.8-2.78-.09-1.08-.14-2.29-.14-3.63 0-1.06.03-2.13.1-3.2.07-1.07.17-2.22.3-3.44-.32 0-.56.01-.75.02-.18.01-.33.02-.44.02-.72 0-1.35-.16-1.88-.47-.53-.32-.8-.8-.8-1.46 0-.41.15-.77.46-1.08.3-.32.69-.59 1.17-.81.47-.23.99-.41 1.54-.54.55-.14 1.08-.23 1.58-.27 0-.63.05-1.33.14-2.1.09-.77.25-1.49.49-2.15s.56-1.22.97-1.68c.41-.45.93-.68 1.56-.68.36 0 .68.11.97.32.28.21.51.49.69.81s.32.69.41 1.1c.09.41.14.8.14 1.19 0 .45-.03.91-.1 1.39-.07.47-.19 1.06-.37 1.76.38-.04.64-.07.78-.08.14-.01.26-.02.37-.02.38 0 .78.03 1.2.1.42.07.8.18 1.15.34s.64.37.86.63c.23.26.34.57.34.93 0 .41-.16.77-.49 1.08-.33.32-.74.59-1.24.81-.5.23-1.03.4-1.59.52-.57.12-1.1.21-1.59.25-.14.93-.23 1.78-.29 2.56-.06.78-.12 1.56-.19 2.35-.04.38-.08.77-.12 1.17-.03.4-.05.8-.05 1.2 0 .29.01.64.03 1.03.02.4.1.77.24 1.13.14.36.35.67.64.93.29.26.7.39 1.22.39.32 0 .64-.03.98-.08.34-.06.68-.08 1.02-.08.59 0 1.01.2 1.27.61s.39.93.39 1.56c0 .47-.14.89-.42 1.24-.28.35-.64.63-1.07.85-.43.21-.91.38-1.44.49-.53.13-1.03.18-1.5.18zM2760.69 2378.23c0 .41-.02.94-.05 1.59-.03.66-.13 1.29-.29 1.91-.16.62-.41 1.16-.75 1.61-.34.45-.81.68-1.42.68-.84 0-1.48-.27-1.93-.81-.45-.54-.67-1.22-.64-2.03-.72.63-1.54 1.13-2.46 1.49-.91.36-1.85.54-2.79.54-.65 0-1.28-.16-1.86-.47-.59-.32-1.11-.72-1.56-1.22s-.81-1.06-1.08-1.68c-.27-.62-.41-1.24-.41-1.85 0-1.08.33-2.03 1-2.85a9.09 9.09 0 0 1 2.46-2.08c.97-.58 2-1.03 3.1-1.37 1.1-.34 2.07-.56 2.93-.68 0-.11.01-.21.02-.3s.02-.19.02-.3c0-.7-.19-1.26-.58-1.69-.38-.43-.93-.64-1.63-.64-.56 0-1.05.1-1.46.29-.41.19-.79.41-1.15.64-.36.24-.72.45-1.08.64-.36.19-.77.29-1.22.29-.5 0-.92-.16-1.27-.47-.35-.32-.53-.72-.53-1.22 0-.74.22-1.42.66-2.03.44-.61.99-1.12 1.66-1.54.67-.42 1.39-.75 2.17-.98s1.5-.36 2.15-.36c.61 0 1.22.07 1.83.22.61.15 1.19.37 1.73.68.54.3 1.03.68 1.47 1.12.44.44.8.95 1.07 1.54.41.84.73 1.72.98 2.66.25.94.44 1.9.58 2.88.14.98.23 1.97.27 2.95.04.96.06 1.91.06 2.84zm-5.42-1.09-.1-2.3c-.05 0-.09-.01-.14-.02-.05-.01-.09-.02-.14-.02-.29 0-.66.07-1.1.22-.44.15-.86.35-1.27.61-.41.26-.75.55-1.03.86-.28.32-.42.64-.42.98 0 .32.11.53.34.64.23.11.49.17.78.17.5 0 1.03-.13 1.59-.39.56-.24 1.06-.5 1.49-.75zM2772.35 2384.22c-1.6 0-2.85-.21-3.74-.63-.89-.42-1.56-1.01-2-1.78-.44-.77-.71-1.69-.8-2.78-.09-1.08-.14-2.29-.14-3.63 0-1.06.03-2.13.1-3.2.07-1.07.17-2.22.3-3.44-.32 0-.56.01-.75.02-.18.01-.33.02-.44.02-.72 0-1.35-.16-1.88-.47-.53-.32-.8-.8-.8-1.46 0-.41.15-.77.46-1.08.3-.32.69-.59 1.17-.81.47-.23.99-.41 1.54-.54.55-.14 1.08-.23 1.57-.27 0-.63.05-1.33.14-2.1.09-.77.25-1.49.49-2.15s.56-1.22.97-1.68c.41-.45.93-.68 1.56-.68.36 0 .68.11.97.32.28.21.51.49.69.81.18.33.32.69.41 1.1.09.41.14.8.14 1.19 0 .45-.03.91-.1 1.39-.07.47-.19 1.06-.37 1.76.38-.04.64-.07.78-.08.14-.01.26-.02.37-.02.38 0 .79.03 1.2.1.42.07.8.18 1.15.34s.64.37.86.63c.23.26.34.57.34.93 0 .41-.16.77-.49 1.08-.33.32-.74.59-1.24.81-.5.23-1.03.4-1.59.52s-1.1.21-1.59.25c-.14.93-.23 1.78-.29 2.56-.06.78-.12 1.56-.19 2.35-.05.38-.08.77-.12 1.17-.03.4-.05.8-.05 1.2 0 .29.01.64.03 1.03.02.4.1.77.24 1.13.14.36.35.67.64.93.29.26.7.39 1.22.39.32 0 .64-.03.98-.08.34-.06.68-.08 1.02-.08.59 0 1.01.2 1.27.61s.39.93.39 1.56c0 .47-.14.89-.42 1.24-.28.35-.64.63-1.07.85-.43.21-.91.38-1.44.49-.51.13-1.02.18-1.49.18zM2785.06 2370.88v1c0 .35-.01.68-.03 1-.02.38-.03.9-.03 1.54s-.02 1.34-.07 2.08c-.04.75-.12 1.5-.22 2.27s-.27 1.47-.49 2.1c-.23.63-.53 1.15-.9 1.54-.37.4-.84.6-1.41.63-.43.02-.79-.15-1.08-.51-.29-.36-.54-.83-.73-1.41-.19-.58-.33-1.22-.42-1.93-.09-.71-.16-1.4-.2-2.07-.04-.67-.07-1.28-.07-1.85v-2.79c0-.67.02-1.38.07-2.15s.13-1.55.25-2.34c.12-.79.3-1.51.54-2.17.24-.65.55-1.19.93-1.59.38-.41.87-.61 1.46-.61.61 0 1.07.3 1.39.91.32.61.55 1.32.71 2.13.16.81.25 1.62.27 2.42.02.82.03 1.41.03 1.8zm-.27-11.52c0 .32-.08.6-.25.85-.17.25-.39.47-.66.66-.27.19-.56.34-.88.44-.32.1-.61.15-.88.15-.45 0-.85-.11-1.19-.34-.34-.23-.51-.58-.51-1.05 0-.34.08-.64.25-.9.17-.26.38-.47.63-.64.25-.17.53-.3.85-.39.32-.09.62-.14.91-.14.43 0 .82.1 1.19.31.36.2.54.55.54 1.05zM2795.64 2383.99c-1.15 0-2.16-.31-3.02-.91-.86-.61-1.58-1.39-2.17-2.34-.59-.95-1.03-2-1.32-3.17-.29-1.16-.44-2.31-.44-3.44 0-1.2.15-2.43.44-3.71.29-1.28.75-2.44 1.36-3.49.61-1.05 1.39-1.91 2.34-2.57.95-.67 2.08-1 3.39-1 1.26 0 2.34.34 3.24 1.03.89.69 1.61 1.55 2.15 2.57.54 1.03.93 2.15 1.15 3.37.23 1.22.31 2.37.24 3.46-.07 1.2-.25 2.41-.56 3.62-.3 1.22-.75 2.31-1.34 3.29-.59.97-1.33 1.76-2.24 2.37-.91.61-1.98.92-3.22.92zm.34-15.32c-.34 0-.64.18-.9.54-.26.36-.47.8-.64 1.32s-.3 1.07-.39 1.64-.14 1.08-.14 1.51c0 .54.05 1.13.15 1.76.1.63.24 1.21.42 1.74s.4.97.66 1.32c.26.35.56.53.9.53.36 0 .67-.17.93-.51.26-.34.47-.77.63-1.29s.27-1.09.34-1.71c.07-.62.1-1.2.1-1.74 0-.5-.05-1.05-.14-1.64-.09-.6-.22-1.16-.39-1.68s-.38-.95-.64-1.29c-.26-.33-.55-.5-.89-.5zM2816.07 2383.95c-.38 0-.69-.17-.91-.52-.23-.35-.4-.75-.51-1.2a7.98 7.98 0 0 1-.22-1.37c-.03-.46-.05-.82-.05-1.07 0-.68.04-1.36.12-2.03.08-.68.17-1.36.27-2.03.1-.68.19-1.36.27-2.03.08-.68.12-1.36.12-2.03 0-.27-.01-.56-.03-.88a4.23 4.23 0 0 0-.15-.9 1.56 1.56 0 0 0-.39-.69c-.18-.18-.42-.27-.71-.27-.2 0-.43.16-.68.49-.25.33-.48.7-.69 1.12-.21.42-.4.84-.54 1.25-.15.42-.22.73-.22.93 0 .5.01 1 .02 1.51s.02 1.02.02 1.54v1.97c-.02.41-.06.82-.1 1.25-.05.43-.11.85-.2 1.25-.07.41-.17.8-.31 1.17-.14.37-.31.7-.52.98-.21.28-.47.51-.76.69-.29.18-.64.27-1.05.27-.45 0-.82-.15-1.12-.44-.29-.29-.53-.67-.71-1.14-.18-.46-.31-.98-.39-1.56-.08-.58-.14-1.14-.17-1.69s-.04-1.06-.03-1.52c.01-.46.02-.83.02-1.1v-1.59c0-.86-.02-1.71-.05-2.54-.03-.84-.05-1.67-.05-2.51 0-.45.01-1.03.02-1.73s.1-1.38.25-2.05c.16-.67.42-1.24.78-1.71.36-.47.89-.71 1.59-.71.32 0 .6.1.85.3.25.2.47.45.66.75.19.29.35.61.47.95.12.34.22.63.29.88.23-.32.49-.62.8-.92.31-.29.65-.55 1.03-.78.38-.23.81-.41 1.29-.54.47-.14 1.02-.2 1.63-.2 1.15 0 2.05.28 2.69.83.64.55 1.12 1.24 1.42 2.07.3.82.49 1.71.56 2.66.07.95.1 1.81.1 2.57 0 .38-.03.95-.1 1.71s-.18 1.59-.32 2.51c-.15.91-.34 1.85-.59 2.81-.25.96-.54 1.83-.88 2.63-.34.79-.74 1.43-1.2 1.93-.5.49-1.03.73-1.62.73zM2838.58 2376.97c0 .77-.24 1.52-.73 2.25s-1.1 1.39-1.83 1.97c-.73.58-1.52 1.04-2.35 1.39-.84.35-1.6.52-2.3.52-1.2 0-2.26-.3-3.2-.9-.94-.6-1.72-1.36-2.35-2.29-.63-.93-1.11-1.95-1.44-3.07s-.49-2.21-.49-3.27c0-1.13.16-2.34.47-3.62.32-1.29.8-2.47 1.44-3.56a9.073 9.073 0 0 1 2.44-2.71c.98-.72 2.15-1.08 3.51-1.08.77 0 1.5.13 2.2.39.7.26 1.31.63 1.83 1.1.52.47.94 1.04 1.25 1.69.32.66.47 1.39.47 2.2 0 1.06-.23 2.06-.68 2.98-.45.93-1.05 1.73-1.8 2.41a9.02 9.02 0 0 1-2.57 1.64c-.97.42-1.97.65-2.98.69.09.66.36 1.13.8 1.42.44.29.97.44 1.58.44.45 0 .89-.11 1.32-.34s.85-.48 1.25-.76c.41-.28.81-.54 1.2-.76.4-.23.8-.34 1.2-.34.45 0 .86.15 1.22.44.36.32.54.7.54 1.17zm-5.49-8.3c0-.29-.08-.6-.24-.91-.16-.32-.41-.47-.75-.47-.5 0-.91.13-1.25.39-.34.26-.62.59-.85.98-.23.4-.4.82-.52 1.27-.12.45-.2.87-.22 1.25.32-.07.69-.16 1.13-.27.44-.11.86-.27 1.25-.46.4-.19.73-.44 1.02-.73.29-.29.43-.64.43-1.05zM2853.42 2370.33c-.32.02-.59-.01-.81-.08-.23-.08-.45-.16-.68-.25-.2-.09-.41-.17-.61-.25-.2-.08-.43-.11-.68-.08-.45.02-.85.15-1.2.37-.35.23-.67.51-.95.85-.28.34-.53.72-.73 1.14-.2.42-.36.83-.47 1.24-.07.27-.12.68-.15 1.24-.03.55-.05 1.15-.05 1.78-.02.65-.03 1.28-.03 1.86s-.02 1.05-.07 1.39c-.02.36-.08.78-.17 1.27-.09.49-.23.94-.42 1.37-.19.43-.45.79-.76 1.08-.32.29-.72.44-1.22.44-.38 0-.72-.11-1-.34-.28-.23-.52-.52-.71-.9a5.98 5.98 0 0 1-.47-1.3c-.12-.5-.22-1.01-.29-1.52-.07-.54-.12-1.08-.15-1.63-.03-.54-.06-1.06-.07-1.54-.01-.49-.01-.93 0-1.34.01-.41.02-.73.02-.98-.02-.79-.06-1.59-.12-2.39s-.08-1.6-.08-2.39c0-.5.02-1.05.07-1.66.05-.61.17-1.18.37-1.71.2-.53.5-.98.9-1.34.4-.36.94-.54 1.64-.54.38 0 .71.12.98.37s.49.55.66.91c.17.36.3.75.39 1.15.09.41.15.78.17 1.12.54-.88 1.15-1.6 1.83-2.15.68-.55 1.56-.85 2.64-.9.54-.02 1.08.03 1.61.15s1.02.33 1.46.61c.44.28.8.65 1.08 1.1.28.45.43.98.46 1.59.05.72-.17 1.28-.64 1.66-.49.38-1.07.58-1.75.6zM2865.39 2392.86c-.54 0-1.16-.08-1.85-.25-.69-.17-1.34-.41-1.95-.73-.61-.32-1.12-.7-1.54-1.15-.42-.45-.63-.97-.63-1.56 0-.23.06-.45.17-.68.11-.23.27-.42.46-.59.19-.17.4-.3.63-.41.23-.1.46-.15.71-.15.27 0 .54.04.8.12.26.08.52.18.8.29.29.11.58.21.86.31.28.09.58.14.9.14.57 0 1.06-.19 1.47-.58.42-.38.77-.89 1.07-1.51.29-.62.53-1.31.71-2.07.18-.76.32-1.51.42-2.25.1-.75.18-1.45.22-2.1.05-.65.08-1.19.1-1.59-.79 1.2-1.58 2.12-2.35 2.76-.78.64-1.73.97-2.86.97-.86 0-1.61-.18-2.25-.54a5.45 5.45 0 0 1-1.64-1.42 8.36 8.36 0 0 1-1.12-2.02c-.29-.76-.51-1.54-.66-2.35-.15-.81-.24-1.61-.29-2.39-.04-.78-.04-1.5 0-2.15.02-.5.08-1.15.19-1.95.1-.8.27-1.59.49-2.35.23-.77.54-1.42.95-1.95.41-.53.94-.77 1.59-.73.43.02.78.21 1.05.56.27.35.49.78.66 1.3s.29 1.09.37 1.71.13 1.24.15 1.85c.02.61.03 1.17.02 1.68s-.02.9-.02 1.17c0 .38.01.77.03 1.15.02.38.1.73.24 1.03.14.3.34.55.63.73.28.18.68.27 1.2.27.59 0 1.06-.15 1.41-.44.35-.29.61-.66.78-1.1.17-.44.28-.91.32-1.42.05-.51.07-.99.07-1.44v-1.15c0-.45.01-.93.02-1.42s.06-.99.14-1.47c.08-.49.2-.93.37-1.32.17-.4.4-.72.68-.97s.65-.37 1.1-.37c.56 0 1.05.22 1.46.66.41.44.75 1.02 1.03 1.73s.51 1.5.68 2.35c.17.86.3 1.71.39 2.56s.15 1.63.19 2.34c.03.71.05 1.27.05 1.68 0 .95-.03 2.03-.1 3.24-.07 1.21-.2 2.45-.39 3.73-.19 1.28-.48 2.53-.86 3.76a13.5 13.5 0 0 1-1.51 3.3c-.62.97-1.38 1.75-2.29 2.34-.92.55-2.01.84-3.27.84z" fill="#3a3d49" class="color493a41 svgShape"></path>
  </g>
  <path d="m2987.52 2199.89 44.02-32.75v333.49l-44.02 37.04z" fill="#eaecef" class="coloreaefee svgShape"></path>
  <path d="M2485.97 2271.88v31.73h468.8l32.75-103.72z" opacity=".15" fill="#3a3d49" class="color493a41 svgShape"></path>
  <path d="M2944.99 2285.87h-501.56l42.54-85.98h501.55z" fill="#c9ccd3" class="colord3c9cf svgShape"></path>
  <path d="m2987.52 2199.89 25.59 67.05 17.92-6.66v-26.87z" opacity=".15" fill="#3a3d49" class="color493a41 svgShape"></path>
  <path d="m2987.52 2199.89 50.67 74.72 46.57-42.54-53.22-64.93z" fill="#c9ccd3" class="colord3c9cf svgShape"></path>
  <path d="M2396.99 2149.39s60.29 374.39-144.73 349.93c-205.03-24.46 144.73-349.93 144.73-349.93z" opacity=".5" fill="#3a3d49" class="color493a41 svgShape"></path>
  <path d="M2192.98 2491.59c-48.02-5.75-88.42-38.81-114.03-92.48-24.47-51.32-32.68-116.04-23.45-182.46 9.17-65.95 34.58-126.7 71.75-171.59 38.47-46.46 85.43-71.17 132.63-69.37 47.91 1.82 89.87 30.69 117.95 81.88 27.7 50.5 38.56 116.85 30.2 186.63-8.42 70.31-35.29 135.19-75.43 182.08-41.14 48.06-90.87 71.16-139.62 65.31z" fill="#c9ccd3" class="colord3c9cf svgShape"></path>
  <path d="M2396.1 2243.28c-17 141.1-108.5 247.92-201.64 236.93-90.48-10.68-146.75-128.96-128.24-262.71 18.25-131.85 103.24-234.56 192.26-231.02 91.57 3.64 154.36 117.82 137.62 256.8z" opacity=".15" fill="#3a3d49" class="color493a41 svgShape"></path>
  <path d="M2195.19 2474.52c-87.27-10.22-141.65-125.97-123.6-256.6 17.8-128.82 100.3-229.53 186.19-226.04 88.26 3.59 148.74 115.4 132.37 250.94-16.62 137.55-105.22 242.2-194.96 231.7z" fill="#eaecef" class="coloreaefee svgShape"></path>
  <path d="M2388.17 2256.94a369.502 369.502 0 0 1-9.07 41.45c-38.35-15.65-77.66-43.44-78.97-39.37-1.16 3.59 72.81 59.17 71.54 62.74-2.43 6.8-5.04 13.44-7.82 19.91l-271.12-205.71c3.99-10.29 8.42-20.19 13.22-29.65 1.28-2.53 53.95 40.16 55.3 37.67.67-1.24-50.04-47.6-49.36-48.81 5.68-10.14 11.82-19.7 18.33-28.61l257.95 190.38zM2353.95 2362.67c-4.01 7.8-8.31 15.31-12.84 22.45l-262.86-202.67c2.03-8.6 4.38-17.01 6.98-25.21l268.72 205.43zM2261.32 2130.74l121.02 98.2 2.57-21.2zM2086.61 2206.42l143.48 115.29-146.87-90.69c.01 0-1.19-5.47 3.39-24.6z" fill="#ffffff" class="colorffffff svgShape"></path>
  <path d="M1958.75 2306.4h313.65v211.24h-313.65z" fill="#d7dbe2" class="colore2d7de svgShape"></path>
  <g opacity=".5" fill="#000000" class="color000000 svgShape">
    <path d="M1999.58 2501.99h-20.83v-15.45h20.83v15.45zm-19.4-1.43h17.97v-12.59h-17.97v12.59z" fill="#3a3d49" class="color493a41 svgShape"></path>
    <path d="M1989.64 2494.23h6.01s-1.01-5.05-6.48-5.05c-4.8 0-6.48 5.05-6.48 5.05h6.01v3.96h-1.41v1.16h3.72v-1.16h-1.37v-3.96zM2023.48 2501.99h-20.83v-15.45h20.83v15.45zm-19.41-1.43h17.97v-12.59h-17.97v12.59z" fill="#3a3d49" class="color493a41 svgShape"></path>
    <path d="M2015.12 2499.35h-4.89v-4.89h4.89v4.89zm-3.46-1.43h2.03v-2.03h-2.03v2.03zM2020.26 2499.35h-4.89v-4.89h4.89v4.89zm-3.46-1.43h2.03v-2.03h-2.03v2.03zM2047.16 2501.99h-20.83v-15.45h20.83v15.45zm-19.4-1.43h17.97v-12.59h-17.97v12.59z" fill="#3a3d49" class="color493a41 svgShape"></path>
    <path d="M2039.39 2490.48v2.81c0 1.43-1.16 2.59-2.6 2.59a2.59 2.59 0 0 1-2.59-2.59v-2.81h-2.37v3.03a4.97 4.97 0 1 0 9.94 0v-3.03h-2.38z" fill="#3a3d49" class="color493a41 svgShape"></path>
  </g>
  <path d="M2097.38 2304.91v42.24l5.76-3.84 1.82 3.84 2.03-3.31 4.16 3.31 2.88-3.09 2.45 3.09 4.48-2.77 2.88 2.77 6.51-3.84 3.41 3.84v-42.24zM2133.76 2519.59v-42.25l-5.76 3.84-1.81-3.84-2.03 3.31-4.16-3.31-2.88 3.1-2.45-3.1-4.48 2.78-2.89-2.78-6.5 3.84-3.42-3.84v42.25z" fill="#c9ccd3" class="colord3c9cf svgShape"></path>
  <path d="M2176.38 2330.3h75.53v42.25h-75.53zM1980.18 2382.36h271.74v64.01h-271.74z" fill="#eaecef" class="coloreaefee svgShape"></path>
  <g opacity=".35" fill="#000000" class="color000000 svgShape">
    <path d="M2081.77 2409.01c0 .37-.04.75-.13 1.16-.09.4-.23.78-.42 1.13-.19.35-.44.64-.75.87-.31.23-.68.35-1.13.35-.67 0-1.17-.12-1.5-.36-.33-.24-.56-.54-.69-.91-.13-.37-.21-.76-.22-1.17s-.02-.8-.04-1.17c-.02-.37-.08-.67-.19-.91s-.33-.36-.68-.36c-.39 0-.72.14-1.01.42-.29.28-.54.64-.75 1.08-.21.44-.39.94-.53 1.5s-.26 1.11-.35 1.66-.15 1.07-.19 1.56-.06.89-.06 1.2c0 .4.01.89.04 1.44.03.56.12 1.09.27 1.6.15.51.39.94.69 1.3.31.36.75.53 1.33.53.39 0 .76-.05 1.13-.14.37-.1.73-.21 1.1-.33.37-.13.74-.24 1.11-.33.38-.1.76-.14 1.14-.14.44 0 .81.18 1.1.53.29.36.43.76.43 1.2 0 .62-.19 1.19-.58 1.72-.39.53-.86 1-1.43 1.4-.57.4-1.18.72-1.85.95-.66.23-1.27.35-1.81.35-1.39 0-2.56-.31-3.52-.94a7.449 7.449 0 0 1-2.34-2.43c-.6-.99-1.03-2.1-1.29-3.32-.26-1.22-.39-2.44-.39-3.65 0-.81.08-1.69.23-2.66.15-.96.39-1.93.69-2.9.31-.97.7-1.91 1.17-2.82.47-.9 1.03-1.7 1.66-2.4.64-.69 1.35-1.25 2.15-1.68.8-.42 1.68-.64 2.64-.64.94 0 1.73.24 2.37.71s1.15 1.07 1.53 1.79c.39.72.65 1.51.81 2.37.18.86.26 1.67.26 2.44zM2089.8 2406.21c0 1.04-.04 2.08-.13 3.13-.09 1.05-.13 2.1-.13 3.16 0 1.37.04 2.73.13 4.1.09 1.37.13 2.74.13 4.13 0 .35-.02.74-.06 1.17-.04.43-.13.83-.27 1.2s-.36.67-.65.92c-.29.25-.67.38-1.15.38-.46 0-.86-.23-1.2-.68-.34-.45-.62-1.03-.84-1.73-.22-.7-.4-1.49-.55-2.35-.14-.87-.25-1.71-.32-2.53-.07-.82-.12-1.57-.14-2.25-.03-.68-.04-1.19-.04-1.52 0-.37.01-.9.04-1.59.03-.69.09-1.44.19-2.25s.23-1.63.39-2.47c.16-.84.38-1.6.65-2.28.27-.68.59-1.24.97-1.68.38-.43.82-.65 1.34-.65.42 0 .75.14.97.42.22.28.38.62.48 1.01.1.39.15.81.17 1.24.01.44.02.81.02 1.12zM2098.96 2424.55c-.98 0-1.84-.26-2.57-.78-.73-.52-1.35-1.18-1.85-1.99s-.88-1.71-1.13-2.7c-.25-.99-.38-1.97-.38-2.93 0-1.02.12-2.07.38-3.16.25-1.09.64-2.08 1.16-2.97.52-.9 1.18-1.63 1.99-2.19.81-.57 1.77-.85 2.89-.85 1.08 0 2 .29 2.76.88.76.59 1.37 1.32 1.83 2.19.46.88.79 1.83.98 2.87.19 1.04.26 2.02.2 2.95-.06 1.02-.22 2.05-.48 3.09s-.64 1.97-1.14 2.8c-.5.83-1.14 1.5-1.91 2.02-.75.51-1.67.77-2.73.77zm.29-13.05c-.29 0-.54.15-.77.46-.22.31-.4.68-.55 1.13-.14.44-.26.91-.33 1.4-.08.49-.12.92-.12 1.29a10.162 10.162 0 0 0 .49 2.99c.15.45.34.83.56 1.13.22.3.48.45.77.45.31 0 .57-.14.79-.43.22-.29.4-.65.53-1.1.13-.44.23-.93.29-1.46.06-.53.09-1.03.09-1.49 0-.42-.04-.89-.12-1.4-.08-.51-.19-.99-.33-1.43a3.65 3.65 0 0 0-.55-1.1c-.2-.3-.46-.44-.75-.44zM2114.91 2424.75c-1.37 0-2.43-.18-3.19-.53-.76-.36-1.33-.86-1.7-1.52-.38-.65-.6-1.44-.68-2.37-.08-.92-.12-1.95-.12-3.09 0-.9.03-1.81.09-2.73.06-.91.14-1.89.26-2.93-.27 0-.48 0-.64.01-.15.01-.28.01-.38.01-.62 0-1.15-.14-1.6-.4-.45-.27-.68-.68-.68-1.24 0-.35.13-.65.39-.92s.59-.5 1-.69c.4-.19.84-.35 1.31-.46.47-.12.92-.19 1.34-.23 0-.54.04-1.14.12-1.79.08-.65.22-1.27.42-1.83.2-.57.48-1.04.82-1.43.35-.38.79-.58 1.33-.58.31 0 .58.09.82.27.24.18.44.41.59.69.15.28.27.59.35.94.08.35.12.68.12 1.01 0 .39-.03.78-.09 1.18-.06.4-.16.9-.32 1.5.33-.04.55-.06.66-.07.12-.01.22-.01.32-.01.33 0 .67.03 1.03.09s.68.15.98.29c.3.13.54.31.74.53.19.22.29.49.29.79 0 .35-.14.65-.42.92s-.63.5-1.05.69c-.42.19-.88.34-1.36.45-.48.11-.93.18-1.36.22-.12.79-.2 1.52-.25 2.18-.05.66-.1 1.33-.16 2.01-.04.33-.07.66-.1 1-.03.34-.04.68-.04 1.02 0 .25.01.54.03.88.02.34.09.66.2.97.12.31.3.57.55.79.25.22.6.33 1.04.33.27 0 .55-.02.84-.07.29-.05.58-.07.87-.07.5 0 .86.17 1.08.52.22.35.33.79.33 1.33 0 .4-.12.76-.36 1.05-.24.3-.54.54-.91.72-.37.18-.77.32-1.23.42-.45.1-.88.15-1.28.15zM2133.86 2416.23c0 .33-.01.81-.01 1.46-.01.65-.04 1.32-.09 2.02-.05.7-.11 1.37-.19 1.99-.08.63-.17 1.08-.29 1.37a3.1 3.1 0 0 1-.61.95c-.25.27-.59.4-1.01.4-.66 0-1.13-.26-1.42-.78-.29-.52-.48-1.16-.58-1.94-.1-.77-.14-1.61-.12-2.51.02-.91.01-1.74-.03-2.51-.04-.77-.14-1.42-.32-1.94-.17-.52-.49-.78-.95-.78-.64 0-1.12.1-1.46.3-.34.2-.58.47-.72.79-.14.33-.23.7-.26 1.13-.03.42-.06.87-.1 1.33-.04.44-.07 1.04-.09 1.79-.02.75-.11 1.49-.26 2.22-.15.73-.41 1.36-.77 1.89-.36.53-.88.79-1.57.79-.42 0-.77-.16-1.03-.49-.26-.33-.47-.75-.62-1.27-.15-.52-.26-1.1-.33-1.73-.07-.64-.11-1.26-.12-1.86-.01-.61-.01-1.16 0-1.66s.01-.88.01-1.13c0-.39.01-1.02.04-1.91.03-.89.09-1.87.19-2.96.1-1.09.22-2.21.38-3.36.15-1.15.36-2.21.61-3.16.25-.95.55-1.73.91-2.33.36-.6.78-.89 1.26-.87.31.02.57.15.79.4.22.25.4.57.55.97.14.4.26.82.36 1.29.1.46.17.92.22 1.37.05.45.08.87.09 1.26.01.38.01.68.01.9a37.526 37.526 0 0 1-.12 3c.44-.6 1.03-1.09 1.78-1.47.74-.39 1.49-.58 2.24-.58.96 0 1.69.26 2.18.79s.84 1.18 1.05 1.96c.21.78.33 1.61.35 2.48.04.91.05 1.7.05 2.39zM2149.49 2418.57c0 .65-.21 1.29-.62 1.92-.41.63-.93 1.18-1.56 1.68-.63.49-1.29.89-2.01 1.18-.71.3-1.37.45-1.96.45-1.02 0-1.93-.26-2.73-.77s-1.47-1.16-2.01-1.95c-.54-.79-.95-1.66-1.23-2.61a9.84 9.84 0 0 1-.42-2.79c0-.96.13-1.99.4-3.09.27-1.1.68-2.11 1.23-3.03.55-.92 1.24-1.69 2.08-2.31.84-.62 1.83-.92 2.99-.92.66 0 1.28.11 1.88.33.6.22 1.12.53 1.56.94.44.4.8.89 1.07 1.44.27.56.4 1.18.4 1.88 0 .91-.19 1.75-.58 2.54-.39.79-.9 1.47-1.53 2.05a8.03 8.03 0 0 1-2.19 1.4c-.83.36-1.68.55-2.54.59.08.56.3.96.68 1.21.38.25.82.38 1.34.38.39 0 .76-.1 1.13-.29.37-.19.72-.41 1.07-.65.35-.24.69-.46 1.03-.65.34-.19.68-.29 1.03-.29.38 0 .73.12 1.04.38.3.25.45.58.45.98zm-4.68-7.07c0-.25-.07-.51-.2-.78-.14-.27-.35-.4-.64-.4-.42 0-.78.11-1.07.33-.29.22-.53.5-.72.84a5.13 5.13 0 0 0-.64 2.15c.27-.06.59-.13.97-.23s.73-.23 1.07-.39c.34-.16.63-.37.87-.62s.36-.56.36-.9zM2160.59 2407.83c0 .56-.19.97-.56 1.24-.38.27-.79.52-1.26.77-.46.24-.88.53-1.26.85-.38.33-.56.82-.56 1.47 0 .35.08.64.25.9.16.25.37.48.61.68.24.2.51.41.79.62.29.21.55.45.79.72.24.27.44.6.61.98.16.39.25.86.25 1.42 0 .81-.21 1.6-.62 2.38-.41.78-.94 1.47-1.59 2.08a8.01 8.01 0 0 1-2.18 1.46c-.81.37-1.61.55-2.4.55-.33 0-.65-.02-.98-.07-.33-.05-.62-.14-.88-.27s-.48-.32-.65-.56c-.17-.24-.26-.55-.26-.94 0-.54.11-.96.32-1.26.21-.3.48-.53.81-.71.33-.17.68-.31 1.05-.4.38-.1.73-.22 1.05-.36.33-.14.6-.33.81-.56.21-.23.32-.56.32-.98 0-.4-.16-.82-.48-1.26-.32-.43-.67-.9-1.05-1.39-.39-.49-.74-1.02-1.05-1.57-.32-.56-.48-1.17-.48-1.85 0-.83.17-1.59.51-2.3.34-.7.79-1.31 1.36-1.83.57-.52 1.22-.93 1.95-1.23s1.5-.45 2.31-.45c.31 0 .61.03.91.09.3.06.56.16.79.3.23.14.42.34.56.58.14.23.21.53.21.9z" fill="#3a3d49" class="color493a41 svgShape"></path>
  </g>
  <path d="m1353.43 1735.38 218.19 677.45 60.56-11.41-82.76-687.71z" fill="#232633" class="color33232a svgShape"></path>
  <path d="M1538.53 2307.06c3.17-12.45 2.89-25.52-.32-37.94-7.1-27.45-27.21-49.34-34.41-76.8-4.11-15.68-3.58-31.14-.36-46.9 1.71-8.37 3.64-16.72 4.41-25.25.81-9.08-.02-17.51-2.61-26.24-9.3-31.35-32.46-56.41-41.93-87.73-3.49-11.55-4.85-23.86-6.17-35.82-1.47-13.21-2.4-26.48-2.81-39.77-.82-26.22-.58-54.28 7.86-79.42 3.73-11.11 9.95-20.33 18.55-28.29 10.53-9.76 21.91-17.91 29.56-30.39 4.99-8.15 8.58-17.29 11.93-26.21 3.41-9.08 6.3-18.35 8.66-27.76 1.93-7.68 3.37-15.46 4.54-23.29l-181.99 20.12 184.64 573.26c.13-.52.32-1.04.45-1.57z" opacity=".15" fill="#000000" class="color000000 svgShape"></path>
  <path d="M1625.82 2452.14s-.96-60.89-10.04-62.74c-9.08-1.85-28.46 1.52-31.85 6.49-3.38 4.97 13.92 65.53 23.32 71.55 9.43 6.01 18.26.93 18.57-15.3z" fill="#ffe49f" class="colorffbf9f svgShape"></path>
  <path d="M1606.22 2443.72c3.19-9.36 5.85-18.89 8.35-28.45 1.21-4.63 2.37-9.25 3.87-13.8.58-1.76 1.17-3.51 1.73-5.27 5.02 16.26 5.65 55.95 5.65 55.95-.32 16.23-9.15 21.31-18.56 15.29-1.7-1.09-3.66-3.98-5.71-7.98 1.43-5.28 2.9-10.55 4.67-15.74z" fill="#efd48f" class="colorefac8f svgShape"></path>
  <path d="M1614.13 2417.28c3.31-1.59 6.44-3.53 9.71-5.21 7.22 25.69 2.56 40.49 2.56 40.49-.33 16.97-9.56 22.28-19.4 15.99-5.75-3.67-14.31-26.83-19.74-46.48 8.61 2.36 19.7-1.34 26.87-4.79z" fill="#bdd2fd" class="colorced9ef svgShape"></path>
  <path d="M1617.84 2516.04s101.2-29.56 94.79-40.58c-6.4-11.02-8.21-7.96-8.21-7.96s-106.89 33.94-105.01 41.25c1.88 7.32-1.2 14.28 18.43 7.29z" fill="#0039a9" class="color00a99d svgShape"></path>
  <path d="M1709.91 2471.78s-99.15 45.75-108.71 41.39c-9.56-4.36-15.07-73.25-8.95-75.31 6.13-2.06 26.96-7.57 28.22-7.08 1.26.49 1.89 26.96 20.09 34.62 18.2 7.67 33.73 1.08 34.48.24.76-.85 27.53-14.22 34.87 6.14z" fill="#232633" class="color33232a svgShape"></path>
  <path d="M1629.43 2430.91c4.52 2.33 4.72 17.65 7.46 28.32.17-.21.27-.45.46-.64 4.62-4.76 36.26 9.04 36.26 9.04s-22.1 4.35-29.95 4.77c-32.93 1.73-20.96-44.96-14.23-41.49z" fill="#3a3d49" class="color493a41 svgShape"></path>
  <path d="M1634.9 2381.75c1.47 9.3 6.42 20.96 0 22.67-6.42 1.71-62.44 11.55-64.58 10.69-2.14-.86-14.54-24.38-8.13-23.52 6.42.85 71.4-18.15 72.71-9.84z" fill="#ffffff" class="colorffffff svgShape"></path>
  <path d="M1273.32 2474.67s19.06-57.84 11.09-62.56c-7.97-4.72-27.39-7.9-32.21-4.31-4.83 3.59-8.34 66.47-1.42 75.24 6.91 8.75 16.92 6.85 22.54-8.37z" fill="#ffe49f" class="colorffbf9f svgShape"></path>
  <path d="M1257.57 2460.28c6.08-7.8 11.72-15.93 17.21-24.14 2.66-3.98 5.27-7.96 8.18-11.77 1.13-1.47 2.25-2.94 3.37-4.41-.59 17.01-13.01 54.71-13.01 54.71-5.62 15.23-15.63 17.13-22.55 8.36-1.25-1.59-2.16-4.96-2.78-9.41 3.08-4.52 6.2-9.02 9.58-13.34z" fill="#efd48f" class="colorefac8f svgShape"></path>
  <path d="M1273.71 2437.89c3.65-.42 7.24-1.22 10.88-1.74-1.6 26.64-10.86 39.09-10.86 39.09-5.88 15.92-16.34 17.91-23.58 8.75-4.23-5.36-4.73-30.04-3.4-50.38 7.36 5.05 19.05 5.19 26.96 4.28z" fill="#bdd2fd" class="colorced9ef svgShape"></path>
  <path d="M1244.83 2532.41s105.29 5.26 102.86-7.25c-2.43-12.51-5.15-10.21-5.15-10.21s-112.11-2.99-112.73 4.54c-.63 7.52-5.82 13.09 15.02 12.92z" fill="#0039a9" class="color00a99d svgShape"></path>
  <path d="M1346.31 2520.79s-108.67 10.71-116.27 3.45c-7.6-7.26 9.78-74.15 16.24-74.08 6.46.06 27.95 1.69 28.98 2.56 1.03.87-7.06 26.08 7.63 39.29 14.68 13.21 31.51 12.08 32.5 11.53 1-.54 30.67-4.39 30.92 17.25z" fill="#232633" class="color33232a svgShape"></path>
  <path d="M1283.69 2455.79c3.51 3.68-1.33 18.22-2.24 29.2.23-.14.4-.33.65-.46 5.93-2.98 31.29 20.43 31.29 20.43s-22.31-3.13-29.86-5.32c-31.67-9.15-5.06-49.34.16-43.85z" fill="#3a3d49" class="color493a41 svgShape"></path>
  <path d="M1520.8 1504.83c2.39-2.39 164.98 10.46 164.98 10.46l1.06 41.04-153.28 23.76-12.76-75.26z" fill="#ffe49f" class="colorffbf9f svgShape"></path>
  <path d="m1674.2 1509.87-20.53 15.29h-234.09l12.14-5.67 13.59-6.33 7.04-3.29z" fill="#0039a9" class="color00a99d svgShape"></path>
  <path d="M1419.58 1525.16h234.08v157.65h-234.08z" fill="#09258c" class="color098c7f svgShape"></path>
  <g opacity=".5" fill="#000000" class="color000000 svgShape">
    <path d="M1450.06 1671.13h-15.55v-11.53h15.55v11.53zm-14.48-1.06h13.41v-9.4h-13.41v9.4z" fill="#3a3d49" class="color493a41 svgShape"></path>
    <path d="M1442.64 1665.34h4.48s-.76-3.77-4.84-3.77c-3.59 0-4.84 3.77-4.84 3.77h4.48v2.95h-1.05v.87h2.78v-.87h-1.02v-2.95zM1467.89 1671.13h-15.55v-11.53h15.55v11.53zm-14.48-1.06h13.41v-9.4h-13.41v9.4z" fill="#3a3d49" class="color493a41 svgShape"></path>
    <path d="M1461.65 1669.16H1458v-3.65h3.65v3.65zm-2.58-1.07h1.51v-1.51h-1.51v1.51zM1465.49 1669.16h-3.65v-3.65h3.65v3.65zm-2.58-1.07h1.51v-1.51h-1.51v1.51zM1485.57 1671.13h-15.55v-11.53h15.55v11.53zm-14.48-1.06h13.41v-9.4h-13.41v9.4z" fill="#3a3d49" class="color493a41 svgShape"></path>
    <path d="M1479.77 1662.54v2.1c0 1.07-.87 1.94-1.94 1.94-1.07 0-1.94-.87-1.94-1.94v-2.1h-1.77v2.26c0 2.05 1.66 3.71 3.71 3.71s3.71-1.66 3.71-3.71v-2.26h-1.77z" fill="#3a3d49" class="color493a41 svgShape"></path>
  </g>
  <path d="M1523.05 1524.05v31.53l4.3-2.87 1.35 2.87 1.51-2.47 3.11 2.47 2.15-2.31 1.83 2.31 3.34-2.07 2.15 2.07 4.86-2.87 2.55 2.87v-31.53z" opacity=".5" fill="#3a3d49" class="color493a41 svgShape"></path>
  <path d="m1550.2 1525.16 8.18-5.67-5.04.52-.61-.52-2.16.45-2.46-.45-2.75.42-1.23-.42-3.88.37-1.62-.37-5.6.52-1.8-.52-8.18 5.67zM1545.57 1509.88l-8.18 5.67 5.04-.52.61.52 2.15-.44 2.47.44 2.75-.42 1.23.42 3.88-.37 1.61.37 5.6-.52 1.81.52 8.18-5.67z" opacity=".5" fill="#3a3d49" class="color493a41 svgShape"></path>
  <path d="M1550.2 1684.27v-31.53l-4.3 2.87-1.36-2.87-1.51 2.47-3.1-2.47-2.15 2.31-1.83-2.31-3.35 2.07-2.15-2.07-4.85 2.87-2.55-2.87v31.53z" fill="#c9ccd3" class="colord3c9cf svgShape"></path>
  <path d="M1582.01 1543h56.37v31.53h-56.37zM1435.58 1581.85h202.8v47.77h-202.8z" fill="#0039a9" class="color00a99d svgShape"></path>
  <path d="m1653.66 1525.16 20.54-15.28v155.64l-20.54 17.29z" fill="#76a4ff" class="color3fc9bc svgShape"></path>
  <path d="M1662.3 1518.74v14.47l1.08-1.55.36.44.6-1.04.6.68.68-1.71.6.76.56-1.71s.52.68.52.52c0-.16.6-.92.6-.92l.76.16v-14.8h-20.22l.63.54-.96.12.42.57-.72.15.12.48-.96-.03.15.66-.78.21.63.63-1.02.18.54.57-.75.3.84.51 15.72-.19zM1454.9 1514.85l-2.15.56.44.56-1.83.52.48.64-1.7.26s.39.81.23.81-1.75.24-1.75.24l-.24 1.06h-16.65l13.59-6.34 10.7.26-1.56 1.09.44.34z" opacity=".5" fill="#3a3d49" class="color493a41 svgShape"></path>
  <path d="m1638.71 1384.56-16.23 12.09h-185.03l9.59-4.49 10.75-5.01 5.56-2.59z" fill="#0039a9" class="color00a99d svgShape"></path>
  <path d="M1437.45 1396.65h185.03v124.61h-185.03z" fill="#09258c" class="color098c7f svgShape"></path>
  <path d="M1622.48 1521.26h-185.03v-27l185.03 14.17z" opacity=".1" fill="#3a3d49" class="color493a41 svgShape"></path>
  <g opacity=".5" fill="#000000" class="color000000 svgShape">
    <path d="M1461.54 1512.03h-12.29v-9.12h12.29v9.12zm-11.45-.85h10.6v-7.43h-10.6v7.43z" fill="#3a3d49" class="color493a41 svgShape"></path>
    <path d="M1455.67 1507.45h3.54s-.6-2.98-3.82-2.98c-2.83 0-3.82 2.98-3.82 2.98h3.54v2.33h-.83v.69h2.2v-.69h-.81v-2.33zM1475.64 1512.03h-12.29v-9.12h12.29v9.12zm-11.45-.85h10.6v-7.43h-10.6v7.43z" fill="#3a3d49" class="color493a41 svgShape"></path>
    <path d="M1470.71 1510.47h-2.88v-2.88h2.88v2.88zm-2.04-.85h1.2v-1.2h-1.2v1.2zM1473.74 1510.47h-2.88v-2.88h2.88v2.88zm-2.04-.85h1.2v-1.2h-1.2v1.2zM1489.61 1512.03h-12.29v-9.12h12.29v9.12zm-11.45-.85h10.6v-7.43h-10.6v7.43z" fill="#3a3d49" class="color493a41 svgShape"></path>
    <path d="M1485.02 1505.24v1.66a1.53 1.53 0 1 1-3.06 0v-1.66h-1.4v1.79c0 1.62 1.31 2.93 2.93 2.93s2.93-1.31 2.93-2.93v-1.79h-1.4z" fill="#3a3d49" class="color493a41 svgShape"></path>
  </g>
  <path d="M1519.23 1395.76v24.93l3.4-2.27 1.07 2.27 1.2-1.95 2.45 1.95 1.7-1.83 1.45 1.83 2.64-1.64 1.7 1.64 3.84-2.27 2.02 2.27v-24.93z" opacity=".5" fill="#3a3d49" class="color493a41 svgShape"></path>
  <path d="m1540.7 1396.65 6.46-4.49-3.98.41-.49-.41-1.7.35-1.95-.35-2.17.33-.97-.33-3.07.3-1.27-.3-4.43.41-1.43-.41-6.47 4.49zM1537.04 1384.56l-6.47 4.49 3.99-.41.48.41 1.7-.36 1.95.36 2.17-.33.98.33 3.06-.3 1.28.3 4.43-.41 1.42.41 6.47-4.49zM1540.7 1522.41v-24.92l-3.4 2.26-1.07-2.26-1.2 1.95-2.45-1.95-1.7 1.82-1.45-1.82-2.64 1.64-1.7-1.64-3.84 2.26-2.02-2.26v24.92z" opacity=".5" fill="#3a3d49" class="color493a41 svgShape"></path>
  <path d="M1565.84 1410.74h44.56v24.92h-44.56zM1450.09 1441.46h160.3v37.76h-160.3z" fill="#0039a9" class="color00a99d svgShape"></path>
  <path d="m1622.48 1396.65 16.24-12.09v123.03l-16.24 13.67z" fill="#76a4ff" class="color3fc9bc svgShape"></path>
  <path d="M1629.31 1391.57V1403l.85-1.23.28.35.47-.82.47.53.54-1.35.47.6.44-1.35s.41.53.41.41.47-.72.47-.72l.6.13v-11.7h-15.99l.5.43-.76.09.33.45-.57.12.09.38-.76-.02.12.52-.61.17.5.5-.8.14.42.45-.59.24.66.4 12.46-.15zM1465.36 1388.5l-1.7.44.35.44-1.45.41.38.5-1.35.21s.31.64.18.64-1.38.19-1.38.19l-.19.84h-13.16l10.74-5.01 8.46.21-1.23.86.35.27z" opacity=".5" fill="#3a3d49" class="color493a41 svgShape"></path>
  <path d="M1422.86 1321.03c-107.85 8.99-149.89 135.35-163.58 389.68 0 0 127.31 132.67 278.07 2.65 0-.01 37.36-404.99-114.49-392.33z" fill="#76a4ff" class="color3fc9bc svgShape"></path>
  <path d="m1247.64 1737.88-8.31 676.62 60.94 9.08 147.22-676.85z" fill="#3a3d49" class="color493a41 svgShape"></path>
  <path d="M1308.79 2408.61c-.91 9.37.96 21.9-5.68 21.94-6.64.05-63.34-4.46-65.2-5.82-1.86-1.36-7.97-27.24-1.98-24.81 6.01 2.44 73.68.32 72.86 8.69z" fill="#ffffff" class="colorffffff svgShape"></path>
  <path d="m1520.8 1437.25-115.44-1.82s-21.71 126.02-57.53 139.71c-35.82 13.69-60.45-9.8-67.47-59.88-25.6 93.52-33.36 232.66-33.36 232.66s.24 58.16 158.36 51.32c158.12-6.84 160.9-85.54 160.9-85.54s-20.37-238.82-45.46-276.45z" fill="#0039a9" class="color00a99d svgShape"></path>
  <path d="M1526.42 1522.94c1.66 10.74 4.85 20.76 8.65 30.92 5.59 14.97 11.6 30.7 9.83 46.98-.46 4.28-1.46 8.53-2.92 12.58-1.45 4.01-3.36 7.81-4.61 11.9-2.42 7.93-3.06 16.34-2.19 24.57 1.69 15.95 8.31 30.84 15 45.23 4.61 9.9 9.35 19.77 13.55 29.86 2.34-6.82 2.52-11.27 2.52-11.27s-13.53-158.61-32.12-237.68c-10.48 11.45-10 32.1-7.71 46.91zM1285.85 1786.05c2.4-4.45 4.5-9.01 6.23-13.49 2.47-6.4 4.75-13.29 4.88-20.21.11-6.22-1.29-12.45-2.91-18.42-3.85-14.13-9.74-27.6-14.3-41.5-3.73-11.38-7.84-24.46-4.77-36.47 3.66-14.32 19.3-19.34 32.19-22.07 9.23-1.96 18.67-3.08 27.71-5.87 9.25-2.86 17.1-8.19 23.96-14.95 13.63-13.44 22.8-31.32 29.18-49.18 8.48-23.74 14.06-53.27 6.07-78.13-9.83 36.78-25.72 81.54-46.25 89.38-35.82 13.69-60.45-9.8-67.47-59.88-25.6 93.52-33.36 232.66-33.36 232.66s.08 22.76 38.84 38.13z" opacity=".63" fill="#cfd1d6" class="colorcfd5d6 svgShape"></path>
  <path d="M1414.07 1448.26s-24.89-102.58-43.81-111.31c3.61-12.44 16.69-9.12 16.69-9.12s28.08 41.53 44.4 119.08c0 0-6.78 6.77-17.28 1.35zM1465.79 1329.49s6.64-6.45 17.33 3.47c10.69 9.92 43.62 114.27 39.77 118.98-3.85 4.7-16.68 6.42-19.25 0-2.56-6.42-19.26-104.61-37.85-122.45z" fill="#0039a9" class="color00a99d svgShape"></path>
  <path d="M1492.8 1440.99c0 2.6 2.11 4.71 4.7 4.71 2.6 0 4.7-2.11 4.7-4.71a4.7 4.7 0 0 0-9.4 0z" opacity=".2" fill="#232633" class="color33232a svgShape"></path>
  <path d="M1495.69 1439.67c0 1.87 1.52 3.39 3.39 3.39s3.39-1.52 3.39-3.39-1.52-3.39-3.39-3.39a3.393 3.393 0 0 0-3.39 3.39z" fill="#76a4ff" class="color3fc9bc svgShape"></path>
  <circle cx="1421.06" cy="1441.95" r="4.7" opacity=".2" fill="#232633" class="color33232a svgShape"></circle>
  <path d="M1419.24 1440.63c0 1.87 1.52 3.39 3.39 3.39s3.39-1.52 3.39-3.39-1.52-3.39-3.39-3.39c-1.87.01-3.39 1.52-3.39 3.39zM1506.45 1481.62c-2.89-.57-80.69 0-80.69 0s-5.28 46.79 41.34 47.9c46.19 1.1 39.35-47.9 39.35-47.9z" fill="#76a4ff" class="color3fc9bc svgShape"></path>
  <path d="M1488.59 1177.88c4.32-4.31 7-10.27 7-16.85 0-13.14-10.65-23.8-23.8-23.8-2.58 0-5.06.42-7.38 1.18-2.42-16-16.19-28.28-32.86-28.28-12.26 0-22.93 6.64-28.71 16.51-5.19-3.12-11.25-4.95-17.76-4.95-19.09 0-34.57 15.48-34.57 34.57 0 1.61.15 3.18.36 4.73-8.44 3.86-14.31 12.36-14.31 22.24 0 12.47 9.33 22.74 21.39 24.26-.09.76-.14 1.54-.14 2.32 0 11.47 9.3 20.77 20.77 20.77 9.17 0 16.93-5.94 19.68-14.18 8.62 8.34 20.35 13.49 33.29 13.49 12.13 0 23.18-4.55 31.63-11.98 4.47 4.77 10.81 7.77 17.87 7.77 13.53 0 24.5-10.97 24.5-24.5 0-10.89-7.12-20.12-16.96-23.3z" fill="#232633" class="color33232a svgShape"></path>
  <path d="M1390.92 1329.53c-.05 8.84 16.04 16.1 35.95 16.22 19.91.12 36.09-6.95 36.14-15.79.05-8.84-16.04-16.1-35.95-16.22-19.91-.12-36.09 6.95-36.14 15.79z" fill="#0039a9" class="color00a99d svgShape"></path>
  <path d="M1402.3 1327.22s8.62 8.31 24.19 8.41c15.57.09 25.23-7.64 25.23-7.64s-2.15-15.29-3.72-26.6c-.92-6.85-1.68-12.46-1.77-13.38l-38.98-.24-2.19 17.42-2.76 22.03z" fill="#ffe49f" class="colorffbf9f svgShape"></path>
  <path d="M1405.05 1305.2c6.2 6.37 13.5 10.74 19.4 10.78 7.16.04 16.47-6.18 23.54-14.58-.92-6.85-1.68-12.46-1.77-13.38l-38.98-.24-2.19 17.42z" fill="#efd48f" class="colorefac8f svgShape"></path>
  <path d="M1490.41 1218.81c-4.39-8.57-12.37-6.11-16.89-3.77-.2-18.34-2.37-32.34-2.37-32.34-.16-.98-.47-1.92-.93-2.8-9.12-16.48-75.78-17.1-89.3-1.92-1.3 1.4-2.07 3.01-2.33 4.72 0 0-2.03 14.07-2.08 32.48-4.47-2.38-12.67-5.1-17.15 3.64-6.25 12.19 7.8 30.33 19.67 29.83 4.6 26.93 16.72 51.86 45.85 51.86 29.69 0 41.86-24.92 46.34-51.84 11.76.01 25.36-17.83 19.19-29.86z" fill="#ffe49f" class="colorffbf9f svgShape"></path>
  <path d="M1458.12 1244.9c.5 2.96-2.72 5.96-7.19 6.71-4.47.75-8.5-1.03-8.99-3.99-.5-2.95 2.72-5.96 7.19-6.71 4.46-.75 8.49 1.04 8.99 3.99zM1391.42 1244.9c-.5 2.96 2.72 5.96 7.19 6.71 4.47.75 8.5-1.03 8.99-3.99.5-2.95-2.72-5.96-7.19-6.71-4.47-.75-8.49 1.04-8.99 3.99z" fill="#efd48f" class="colorefac8f svgShape"></path>
  <path d="M1379.02 1248.64s15.6 6.16 19.4 16.62c0 0 8.57-5.98 29.95-5.98s23.34 7.2 23.34 7.2 5.99-15.28 19.5-17.82c0 0 .31 50.07-43.45 53.21-43.77 3.15-52.21-39.36-48.74-53.23z" fill="#232633" class="color33232a svgShape"></path>
  <path d="M1398.43 1184.07c49.02 23.22 72.69 3.01 73.29 2.87-.32-2.7-.56-4.24-.56-4.24-.16-.98-.47-1.92-.93-2.8-9.12-16.48-75.78-17.1-89.3-1.92-1.3 1.4-2.07 3.01-2.33 4.72 0 0-.62 5.15-1.07 9.93 4.22.71 15.07-.33 20.9-8.56z" fill="#efd48f" class="colorefac8f svgShape"></path>
  <path d="M1424.59 1282.63c-5.13 0-8.12-2.99-8.17-3.03a1.216 1.216 0 1 1 1.74-1.7c.22.21 5.38 5.23 14.12-.18.57-.36 1.32-.18 1.68.4.35.57.18 1.32-.39 1.68-3.44 2.11-6.46 2.83-8.98 2.83z" fill="#eaecef" class="coloreaefee svgShape"></path>
  <path d="M1393.99 1174.87s39.39 20.37 80.19 12.17c40.81-8.2-58.41-44.04-82.36-32.15-23.95 11.88-19.99 39.43-19.99 39.43s19.64-3.51 22.16-19.45zM1422.61 1247.26c-1.62-3.66.76-7.81.87-7.98.48-.81 1.52-1.09 2.33-.61.82.47 1.09 1.52.62 2.33-.46.81-1.42 3.25-.65 4.97.6 1.24 2.17 2.05 4.64 2.42.93.14 1.58 1 1.45 1.94-.14.94-1 1.58-1.94 1.45-3.68-.54-6.11-1.99-7.24-4.33-.03-.07-.06-.13-.08-.19zM1454.64 1225.17c0 2.99-2.06 5.4-4.58 5.4s-4.58-2.42-4.58-5.4c0-2.99 2.06-5.42 4.58-5.42.71 0 1.37.19 1.97.55-.89.27-1.56 1.23-1.56 2.38 0 1.35.93 2.46 2.08 2.46.84 0 1.57-.6 1.89-1.46.13.48.2.97.2 1.49zM1407.58 1224.48c0 2.99-2.06 5.41-4.58 5.41s-4.58-2.42-4.58-5.41 2.06-5.42 4.58-5.42c.71 0 1.37.19 1.98.55-.89.27-1.56 1.23-1.56 2.38 0 1.35.93 2.46 2.08 2.46.84 0 1.57-.6 1.89-1.46.12.48.19.97.19 1.49zM1486.77 1229.41c.33 0 .65-.2.78-.53 2.84-7.27-4.43-11.57-4.5-11.61a.841.841 0 0 0-1.14.3c-.23.4-.09.91.3 1.14.25.15 6.1 3.64 3.79 9.56-.17.43.04.91.47 1.08.1.04.2.06.3.06zM1361.94 1229.49c-.33 0-.65-.2-.78-.53-2.84-7.27 4.43-11.57 4.5-11.61.4-.23.91-.09 1.14.3.23.4.09.91-.3 1.14-.25.15-6.11 3.64-3.79 9.56a.83.83 0 0 1-.47 1.08c-.1.04-.2.06-.3.06zM1413.57 1214.23s-17.4-.87-19.15-2.59c-1.75-1.71 3.7-5.33 11.37-3.39 7.67 1.95 9.78 5.93 7.78 5.98zM1440.67 1214.23s17.4-.87 19.15-2.59c1.75-1.71-3.7-5.33-11.37-3.39-7.66 1.95-9.77 5.93-7.78 5.98z" fill="#232633" class="color33232a svgShape"></path>
  <path d="M1370.26 1336.95s-70.2 37.7-128.03 66.05c-18.09 8.87 7.04 109.55 38.12 112.26 31.08 2.72 89.91-178.31 89.91-178.31z" fill="#76a4ff" class="color3fc9bc svgShape"></path>
  <path d="M1240.8 1410.74c-24.07 9.94-109.67 76.09-97.83 141.84 11.84 65.75 207.09-10.81 207.09-10.81l5.95-47.7-98.14-1.4c0 .01 2.37-74.18-17.07-81.93z" fill="#ffe49f" class="colorffbf9f svgShape"></path>
  <path d="M1337.93 1494.65c-11.29 4.24-21.44 13.01-26.28 23.45-2.04 4.41-3.2 9.2-5.63 13.43-2.84 4.96-7.58 8.19-12.83 10.23-6.35 2.47-12.8 4.23-18.57 8.01-4.73 3.1-8.76 7.15-12.72 11.16-4.03 4.08-8.06 7.9-12.59 11.25 50.87-10.86 100.75-30.41 100.75-30.41l5.95-47.7-18.08.58zM1337.77 1477.83s7.64-1.1 11.38-11.5c3.75-10.4 5.13-27.13 10.77-28.24 5.64-1.11 13.94 34.28 11.29 48.98-2.65 14.69-27.13-3.44-33.44-9.24z" fill="#efd48f" class="colorefac8f svgShape"></path>
  <path d="M1337.77 1477.83s62.54 3.1 63.33 17.84c.37 6.89-2.75 9.71-23.59 9.29 25.45 1.44 25 5.17 21.9 12.55-2.38 5.67-4.75 5.85-25.5 6.26 14.24 1.02 21.84 3.15 22.12 9.38.36 7.93-5.74 10.24-25.43 8.72 11.66 1.71 18.6 3.51 18 9.18-.53 5.02-5.06 9.24-17.87 8.8-14.49-.49-14.21 1.63-20.67-.2-4.99-1.41-10.31-2.31-13.77-5.43-16.66-14.99-9.92-71.73 1.48-76.39z" fill="#ffe49f" class="colorffbf9f svgShape"></path>
  <path d="M1361.84 1504.56c10.07 1.33 23.14 1.25 23.79 1.25.43 0 .78-.36.78-.79 0-.43-.35-.79-.79-.78-.19 0-18.84.11-28.66-2.11-.44-.1-.84.17-.94.59-.1.42.17.84.59.94 1.58.35 3.35.65 5.23.9zM1362.51 1523.47c8.96 1.18 18.55 1.44 18.67 1.44a.781.781 0 0 0 .04-1.56c-.16 0-15.75-.42-25.58-2.64a.79.79 0 0 0-.94.59c-.1.42.17.84.59.94 2.21.49 4.69.9 7.22 1.23zM1361.06 1542.03c8.66 1.14 17.6 1.31 17.71 1.31.43.01.79-.34.8-.77.01-.43-.34-.8-.77-.8-.14 0-14.64-.28-24.47-2.49a.79.79 0 0 0-.94.59c-.09.42.17.84.59.94 2.2.5 4.63.9 7.08 1.22zM1335.4 1543.84a.781.781 0 0 0 .78-1.15c-8.38-15.43-.61-27.12-.53-27.23.12-.18.17-.41.12-.62-2.99-12.84 5.24-22.27 5.32-22.36.29-.32.26-.82-.06-1.11a.776.776 0 0 0-1.1.06c-.36.4-8.73 9.95-5.75 23.44-1.2 2-7.43 13.7.64 28.56.12.24.34.38.58.41zM1698.64 1510.49s-5.56-.8-8.28-8.37c-2.73-7.57-3.73-19.75-7.84-20.56-4.11-.81-10.15 24.95-8.22 35.65 1.93 10.7 19.74-2.49 24.34-6.72z" fill="#efd48f" class="colorefac8f svgShape"></path>
  <path d="M1698.64 1510.49s-45.52 2.26-46.1 12.99c-.27 5.02 2 7.06 17.17 6.76-18.53 1.05-18.2 3.77-15.94 9.14 1.74 4.13 3.46 4.26 18.56 4.56-10.37.74-15.89 2.29-16.1 6.83-.26 5.77 4.18 7.46 18.51 6.34-8.49 1.24-13.54 2.55-13.1 6.68.39 3.65 3.69 6.72 13.01 6.41 10.54-.36 10.34 1.18 15.05-.15 3.63-1.02 7.5-1.68 10.02-3.95 12.13-10.92 7.22-52.22-1.08-55.61z" fill="#ffe49f" class="colorffbf9f svgShape"></path>
  <path d="M1681.12 1529.95c-7.33.97-16.85.91-17.32.91a.57.57 0 1 1 0-1.14c.14 0 13.71.08 20.86-1.53.32-.07.61.12.68.43.07.31-.12.61-.43.68-1.14.25-2.43.47-3.79.65zM1680.63 1543.72c-6.52.86-13.5 1.04-13.59 1.05a.563.563 0 0 1-.58-.56c-.01-.31.23-.58.55-.58.11 0 11.46-.3 18.62-1.92.31-.06.61.12.68.43.07.31-.12.61-.43.68-1.6.36-3.41.65-5.25.9zM1681.69 1557.23c-6.31.83-12.81.95-12.89.95a.57.57 0 0 1-.58-.56c-.01-.32.25-.58.56-.58.11 0 10.66-.2 17.81-1.81.31-.07.61.12.68.43.07.31-.12.61-.43.68-1.6.36-3.37.65-5.15.89zM1700.36 1558.54a.702.702 0 0 1-.35-.06.566.566 0 0 1-.23-.77c6.1-11.23.45-19.74.39-19.82a.548.548 0 0 1-.08-.45c2.18-9.35-3.81-16.21-3.88-16.28a.56.56 0 0 1 .05-.8.56.56 0 0 1 .8.05c.26.29 6.35 7.25 4.19 17.06.87 1.46 5.41 9.97-.46 20.79-.09.15-.25.26-.43.28z" fill="#efd48f" class="colorefac8f svgShape"></path>
  <path d="M1082.16 2167.64c-28.38 31.02-67.49 70.17-70.08 72.8-.09.05-.14.09-.14.09l-8.72-4 75.07-73.94 33.2-32.7c1.78 2.46-11.71 18.54-29.33 37.75z" fill="#d7dbe2" class="colore2d7de svgShape"></path>
  <path d="M1031.02 2218.85c-2.51 1.19-4.84 1.76-7.62 1.72-1.18-.02-2.37-.15-3.52-.43l-16.65 16.4 8.72 4s.05-.05.14-.09c1.19-1.22 10.21-10.25 22.31-22.63-1.16.19-2.28.5-3.38 1.03z" fill="#c9ccd3" class="colord3c9cf svgShape"></path>
  <path d="M1033.66 2138.5c-11.53 40.44-29.01 92.93-30.15 96.45-.06.08-.08.14-.08.14l-9.59.32 34.11-99.7 15.08-44.09c2.68 1.41-2.2 21.82-9.37 46.88z" fill="#d7dbe2" class="colore2d7de svgShape"></path>
  <path d="M1010.8 2207.16c-1.71 2.19-3.54 3.73-6.05 4.94a16.4 16.4 0 0 1-3.34 1.19l-7.56 22.11 9.59-.32s.02-.06.08-.14c.53-1.62 4.55-13.73 9.84-30.22-.95.7-1.81 1.49-2.56 2.44z" fill="#c9ccd3" class="colord3c9cf svgShape"></path>
  <path d="M928.99 2546.62c-38.37 0-76.84-2.42-114.35-7.18-36.9-4.9-64.66-38.15-63.48-75.72l5-162.97c1.17-36.79 28.6-68.03 63.82-72.72 36.38-4.63 73.42-6.95 110.37-6.95 59.27 0 119.55 5.95 179.18 17.69 33.78 6.99 59.83 37.36 61.03 70.73l5 144.62c1.25 34.9-24.57 66.77-60.05 74.05-62.31 12.26-124.94 18.45-186.52 18.45z" fill="#d7dbe2" class="colore2d7de svgShape"></path>
  <path d="M1080.46 2483.68c-94.71 18.65-191.28 22.73-286 10.7-13.62-1.81-24.25-15.12-23.8-29.23 1.66-54.34 3.33-108.67 4.99-163.01.45-14.11 11.35-27.36 24.42-29.1 91-11.56 183.78-7.63 274.78 10.28 13.06 2.7 23.97 15.33 24.42 27.8 1.67 48.19 3.33 96.37 4.99 144.56.45 12.46-10.18 25.2-23.8 28z" fill="#eaecef" class="coloreaefee svgShape"></path>
  <circle cx="1135.56" cy="2321.6" r="21.04" fill="#eaecef" class="coloreaefee svgShape"></circle>
  <path d="M1150.74 2358.79c0 2.71-6.79 4.9-15.18 4.9s-15.18-2.19-15.18-4.9c0-2.71 6.79-4.9 15.18-4.9s15.18 2.19 15.18 4.9zM1150.74 2378.94c0 2.71-6.79 4.9-15.18 4.9s-15.18-2.19-15.18-4.9c0-2.71 6.79-4.9 15.18-4.9s15.18 2.2 15.18 4.9zM1150.74 2399.1c0 2.71-6.79 4.9-15.18 4.9s-15.18-2.19-15.18-4.9c0-2.71 6.79-4.9 15.18-4.9s15.18 2.19 15.18 4.9zM1150.74 2419.25c0 2.71-6.79 4.9-15.18 4.9s-15.18-2.19-15.18-4.9c0-2.71 6.79-4.9 15.18-4.9s15.18 2.19 15.18 4.9z" fill="#eaecef" class="coloreaefee svgShape"></path>
</svg>
