<svg xmlns="http://www.w3.org/2000/svg" xml:space="preserve" id="Relocationserviceapplication" x="0" y="0" version="1.1" viewBox="0 0 3800 3000" enable-background="new 0 0 3800 3000">
  <path d="M1853.53 2706.11h1386.72l-192.06-74.29s32.61-86.97-85.16-103.28c0 0-5.44-86.97-110.53-92.41-105.09-5.44-114.15 79.72-114.15 79.72s-28.99-121.4-157.64-126.83c-128.65-5.43-184.82 92.41-184.82 92.41s-101.47-50.73-154.01-16.31-50.73 97.84-50.73 97.84-74.29-74.29-125.02-30.8c-50.73 43.48 12.68 92.4 12.68 92.4s-303.79-34.42-225.28 81.55z" fill="#eaecef" class="coloreaefee svgShape"></path>
  <path d="M2243.11 2706.11h997.14l-138.11-53.42s23.45-62.54-61.24-74.26c0 0-3.91-62.54-79.48-66.45-75.57-3.91-82.08 57.33-82.08 57.33s-20.85-87.29-113.35-91.2c-92.51-3.91-132.9 66.45-132.9 66.45s-72.96-36.48-110.74-11.73-36.48 70.36-36.48 70.36-53.42-53.42-89.9-22.15c-36.48 31.27 9.12 66.44 9.12 66.44s-218.44-24.76-161.98 58.63z" fill="#d7dbe2" class="colore2d7de svgShape"></path>
  <path d="M3230.26 1648.18c-69.24 295.84-265.87 495.33-505.16 596.86-88.85 37.83-183.41 62.54-283.38 75.94-172.78 23.27-361.55 12.91-564.39-21.08-125.43-22.02-248.22-49.49-365.79-80.9-181-48.42-349.58-106.18-496.04-167.91-240.09-105.55-420.06-221.87-460-413.99-39.04-187.38 70.58-435.03 312.63-670.74 239.65-232.05 611.74-452.18 1042.25-500.87 428.91-54.67 816.58 85.27 1054.4 322.73 241.89 235.68 333.82 568.86 265.48 859.96z" fill="#eaecef" class="coloreaefee svgShape"></path>
  <path d="M2763.81 2330.55s505.35-245.71 130.98-921.05c.01-.01-597.57 443.5-130.98 921.05z" fill="#c9ccd3" class="colord3c9cf svgShape"></path>
  <path d="m2891.6 1420.4-48.27 223.91c-15.71 74.63-31.29 149.23-44.96 224.13-7.05 37.4-13.67 74.89-19.45 112.47-6.09 37.54-11.3 75.2-15.63 112.92-4.09 37.74-7.46 75.58-8.06 113.48-.83 37.84.97 76.06 12.43 112.62-7.8-17.4-13.76-36-16.62-55.04-3.55-18.94-5.38-38.16-6.64-57.36-1.99-38.46-.91-76.96 1.73-115.26 5.3-76.65 16.85-152.54 30.54-227.86 14.2-75.26 30.76-149.99 49.95-224.04 18.91-74.08 40.44-147.52 64.98-219.97z" fill="#eaecef" opacity=".52" class="coloreaefee svgShape"></path>
  <path d="M2993.29 2035.85c-5.67-28.84-75.13 34.77-93.3 51.99 6.35-29.38 12.89-58.03 19.47-84.75 2.22-.51 91.71-21.34 83.82-48.19-7.84-26.67-81.06 45.38-83.79 48.08 5.51-22.39 11.06-43.41 16.54-62.34 11.33-2.17 100.18-20.05 87.18-43.8-12.73-23.23-76.29 33.05-86.84 42.63 1.24-4.28 2.49-8.44 3.72-12.5l.59.96-.32-1.84c5.62-18.32 11.15-34.2 16.51-46.88 15.84-18.2 77.67-92.92 50-120.05-25.75-25.24-45.09 72.89-51.39 110.21l-.11-.07c-5.52 11.91-11.24 27.48-17.06 45.75-5.77-30.05-21.04-101.4-33.47-87.25-12.9 14.66 19.65 72.92 31.62 93.14-6.25 20.14-12.6 43.29-18.94 68.4-4.18-28.54-15.61-91.46-35.01-89.75-21.3 1.87 20.16 75.24 33.13 97.29-7.01 28.23-13.98 58.69-20.73 89.95-3.5-23.87-19.55-122.46-45.06-117.82-26.69 4.86 34.5 104.91 44.41 120.81-5.86 27.2-11.54 54.92-16.95 82.25-8.06-41.84-31.52-150.54-55.77-140.03-25.8 11.17 36.35 118.78 54.11 148.45-7.43 37.76-14.33 74.58-20.36 107.84-4.33-16.9-50.72-195.68-71.76-183.87-21.23 11.91 64.93 171.99 71.66 184.42-7.49 41.35-13.67 77.17-17.95 102.56-6.59-20.3-62.01-187.92-90.63-177.32-29.07 10.76 80.45 164.27 90.48 178.23-4.01 23.78-6.33 38.19-6.45 38.98l5.01 1.37c.13-.83 2.69-16.72 7.09-42.75 9.75-4.78 97.34-48.8 90.22-83.36-7.03-34.13-80.21 68.28-90.03 82.22 4.34-25.65 10.44-60.9 17.75-101.19 22.14-9.5 109.18-49.01 94-76.72-14.48-26.45-73.69 46.05-92.93 70.83 5.39-29.57 11.43-61.72 17.88-94.66.37.61.63 1.02.63 1.02s-.14-.82-.39-2.24c.39-2 .77-3.97 1.17-5.98 11.56-4.12 99.93-36.5 85.56-59.78-14.05-22.78-74.99 46.44-85.3 58.44 5.72-29 11.76-58.51 17.98-87.39 18.26-4.38 99.83-25.79 94.01-55.29z" fill="#eaecef" class="coloreaefee svgShape"></path>
  <path d="M2751.8 2514.15c-30.19-7.26-60.44-13.76-90.75-19.51a2633.145 2633.145 0 0 0-42.64-67.92c.06-.59-30.16-109.89-12.2-147.5 18.05-38.59 72.83-18.03 98.04-33.56 25.28-16.42-4.28-58.69 13.14-72.66 17.51-14.8 66.21 20.86 85.33 7.36 19.27-14.46-21.38-44.73 17.29-72.8 38.85-28.64 47.09 12.73 82.67 13.96 34.92 3.95 117.82-169.89 159.56-97.28 40.43 76.96-80.85 128.68-80.69 145.76-.16 17.46 41.46 31.45 29.61 71.57-11.8 39.45-97.72 35.46-97.76 51.1-.02 15.12 25.32 29.22 23.58 59.95-1.74 30.41-88.32 29.83-89.71 52.36-.67 10.53 1.05 13.23 2.1 18.06.28 1.27.51 2.7.64 4.46.42 5.67-.26 14.88-3.9 33.53-9.06 46.32-94.3 52.9-94.31 53.12z" fill="#d7dbe2" class="colore2d7de svgShape"></path>
  <path d="M2850.38 2240.68c1.35-46.27 2.77-92.93 4.26-140-3.02 49.08-5.95 97.61-8.78 145.59-8.19 10.16-16.44 20.41-24.93 31.02-20.2 25.27-39.36 49.43-56.73 71.27-.38.48-.76.95-1.14 1.44-1.56 1.99-3.09 3.89-4.63 5.83-4.34-21.84-25.21-170.26-25.24-170.05-6.48 19.49 6.12 92.71 14.65 138.03 3.71 19.56 6.66 33.81 7.04 35.61l.73-.06c-22.02 27.7-40.66 51.02-54.29 68.04-7.91-12.91-47.71-76.54-59.14-123.26-3.62-15.14-4.19-41.28-4.19-41.3-4.23 10.96-3.9 24.44-.75 39.08 11.11 50.38 56.2 119.9 61.48 128.74-13.52 16.88-21.42 26.7-21.66 27.05 1.2.88 2.4 1.78 3.6 2.67.51-.67 10.82-13.5 27.88-34.76 47.18-.43 94.34.19 141.47 1.86-.09-2.74-138.16-6.9-138.19-5.94 14.49-18.04 33.24-41.54 54.99-68.85a3192.3 3192.3 0 0 1 165.77-2 2888.95 2888.95 0 0 0-162.28-2.38c23.68-29.73 50.66-63.67 79.02-98.83 53.46-6.57 107.07-12.07 160.8-16.49-52.34 2.65-104.59 6.46-156.73 11.43 73.13-89.57 207.47-221.7 207.95-222.53-45.24 22.07-118.12 103.33-210.96 218.79z" fill="#eaecef" class="coloreaefee svgShape"></path>
  <path d="M507.01 2695.95h2785.98v21.57H507.01z" fill="#cbced3" class="colord3cbcb svgShape"></path>
  <path d="M471.33 2706.74h2857.34v63.49H471.33z" fill="#e0e1e3" class="colore3e0e1 svgShape"></path>
  <path d="M1349.86 625.77c-10.9 0-19.74 8.84-19.74 19.73v83.35c0 10.9 8.84 19.74 19.74 19.74 10.9 0 19.73-8.84 19.73-19.74V645.5c0-10.89-8.84-19.73-19.73-19.73zM1364.44 817.27c-18.96 0-34.32 15.37-34.32 34.32v144.97c0 18.96 15.37 34.32 34.32 34.32 18.96 0 34.33-15.37 34.33-34.32V851.59c0-18.95-15.37-34.32-34.33-34.32z" fill="#1b2136" class="color1b2e36 svgShape"></path>
  <path d="M1364.44 1026.5c-18.96 0-34.32 15.37-34.32 34.32v144.97c0 18.95 15.37 34.32 34.32 34.32 18.96 0 34.33-15.37 34.33-34.32v-144.97c0-18.95-15.37-34.32-34.33-34.32z" fill="#1b2136" class="color1b2e36 svgShape"></path>
  <path d="M2757.36 445.11v2038.23c0 118.86-96.42 215.33-215.33 215.33h-389.09c-17.12 0-33.86.5-50.2-4.09-3.41-.84-6.94-1.4-10.63-1.4h-83.83c-3.75 0-7.22.56-10.52 1.4-16.45 4.59-33.18 4.09-50.31 4.09h-389.09c-118.91 0-215.33-96.48-215.33-215.33V445.11c0-118.91 96.42-215.33 215.33-215.33h983.66c118.92-.01 215.34 96.41 215.34 215.33z" fill="#c9ccd3" class="colord3c9cf svgShape"></path>
  <path d="M1363.79 534.14c27.17-14.11 41.26-42.04 51.64-69.54 12.19-32.33 20.63-66.13 36.04-97.2 7.49-15.09 16.79-29.46 28.68-41.47 12.52-12.64 28.19-22.17 44.19-29.75 37.68-17.85 79.95-23.46 121.27-24.06 84.11-1.23 166.68 17.78 250.17 24.77 65.29 5.47 130.88 7.83 196.39 6.7 74.14-1.28 148.45-6.93 221.47-20.14 61.33-11.09 122.65-27.37 179.37-53.68h-934.67c-118.92 0-215.32 96.4-215.32 215.32v94.83c6.78-.36 13.73-2.12 20.77-5.78z" opacity=".2" fill="#f2f6ff" class="colorf2faff svgShape"></path>
  <path d="M2744.91 1747.34c-1.2 60.01 2.63 120.21-.64 180.17-2.18 40.02-8.11 80.31-14.75 119.8-7.99 47.47-19.1 320.06-38.92 364.11-16.3 36.22-40.18 70.23-71.49 95.06-28.03 22.22-61.01 37.09-95.39 46.49-78.06 21.33-161.82 17.82-241.44 8.73-79.25-9.05-157.32-25.39-235.41-41.25-42.63-8.66-85.47-16.19-128.36-23.44-55.62-9.4-111.74-17.39-168.25-17.82-55.52-.43-111.28 7.03-163.1 27.64-43.46 17.27-83.92 42.64-107.48 84.23-14.91 26.32-21.19 54.82-20.63 83.18 29.73 15.49 63.45 24.38 99.3 24.38h389.16c17.05 0 33.78.62 50.2-3.97 3.36-.94 6.89-1.44 10.53-1.44h83.91c3.65 0 7.18.5 10.53 1.44 16.42 4.59 33.15 3.97 50.2 3.97h389.16c118.92 0 215.32-96.4 215.32-215.32v-864.88c-9.41 42.16-11.6 86.39-12.45 128.92z" opacity=".15" fill="#3a3d49" class="color493a41 svgShape"></path>
  <path d="M2536.95 309.84H1563.46c-78.14 0-141.5 63.35-141.5 141.5v2025.71c0 78.15 63.35 141.5 141.5 141.5h973.49c78.15 0 141.5-63.35 141.5-141.5V451.34c0-78.15-63.35-141.5-141.5-141.5z" fill="#f6f6f6" class="colorf6f6f6 svgShape"></path>
  <path d="M2549.44 435.05h-997.16c-36.1 0-65.37 29.27-65.37 65.37v997.16c0 36.1 29.27 65.37 65.37 65.37h997.16c36.1 0 65.37-29.27 65.37-65.37V500.42c0-36.11-29.27-65.37-65.37-65.37z" fill="#c9ccd3" class="colord3c9cf svgShape"></path>
  <path d="M2484.14 309.84h-105.29l-956.88 956.88v102.25c352.83-354.26 706.84-707.36 1062.17-1059.13zM2678.45 668.58V451.34c0-77.04-61.6-139.57-138.21-141.33 7.87 11.51 9.09 27.23-3.74 39.93-372.9 369.13-744.38 739.67-1114.53 1111.56v465.21c418.48-419.71 837.38-839.02 1256.48-1258.13z" opacity=".2" fill="#f2f6ff" class="colorf2faff svgShape"></path>
  <path d="M1918.96 1873.22c.98 2.36 1.48 4.07 1.48 5.12 0 2.5-2.04 4.6-6.11 6.3-2.1.92-3.79 1.38-5.07 1.38-1.28 0-2.33-.31-3.15-.94-.82-.62-1.43-1.26-1.82-1.92-.66-1.24-3.22-7.19-7.68-17.82l-3.05.2h-12.41v11.13c0 1.51-.05 2.65-.15 3.4-.1.76-.41 1.63-.94 2.61-.92 1.77-3.48 2.66-7.68 2.66-4.6 0-7.29-1.21-8.07-3.64-.39-1.12-.59-2.82-.59-5.12v-54.66c0-1.51.05-2.64.15-3.4.1-.75.41-1.62.94-2.61.92-1.77 3.48-2.66 7.68-2.66h21.27c5.78 0 11.39 2.1 16.84 6.3 2.63 2.04 4.79 4.79 6.5 8.27 1.71 3.48 2.56 7.35 2.56 11.62 0 7.42-2.46 13.53-7.39 18.32 1.43 3.48 3.67 8.63 6.69 15.46zm-37.82-25.12h12.6c1.9 0 3.81-.72 5.71-2.17 1.9-1.44 2.86-3.61 2.86-6.5s-.95-5.07-2.86-6.55c-1.9-1.48-3.87-2.22-5.91-2.22h-12.41v17.44zM1948.2 1868h30.33c1.51 0 2.64.05 3.4.15.76.1 1.63.41 2.61.94 1.77.92 2.66 3.48 2.66 7.68 0 4.6-1.21 7.29-3.64 8.08-1.12.39-2.82.59-5.12.59h-39c-4.6 0-7.29-1.25-8.07-3.74-.39-1.05-.59-2.72-.59-5.02v-54.75c0-3.35.62-5.63 1.87-6.84 1.24-1.21 3.61-1.82 7.09-1.82h38.8c1.51 0 2.64.05 3.4.15.76.1 1.63.41 2.61.94 1.77.92 2.66 3.48 2.66 7.68 0 4.6-1.21 7.29-3.64 8.08-1.12.39-2.82.59-5.12.59h-30.23v9.95h19.5c1.51 0 2.64.05 3.4.15.75.1 1.62.41 2.61.94 1.77.92 2.66 3.48 2.66 7.68 0 4.6-1.25 7.29-3.74 8.07-1.12.39-2.82.59-5.12.59h-19.3v9.91zM2015.96 1870.85h26.79c2.16 0 3.74.25 4.73.74.99.49 1.64 1.26 1.97 2.31.33 1.05.49 2.45.49 4.18 0 1.74-.16 3.14-.49 4.19-.33 1.05-.89 1.77-1.67 2.17-1.25.66-2.95.98-5.12.98h-35.45c-4.6 0-7.29-1.25-8.07-3.74-.39-1.05-.59-2.72-.59-5.02v-54.75c0-1.51.05-2.64.15-3.4.1-.75.41-1.62.94-2.61.92-1.77 3.48-2.66 7.68-2.66 4.6 0 7.32 1.21 8.17 3.64.33 1.12.49 2.83.49 5.12v48.85zM2095.13 1812.36c9.72 0 18.15 3.51 25.31 10.54 7.15 7.03 10.73 15.74 10.73 26.15 0 10.41-3.41 19.27-10.24 26.59s-15.23 10.98-25.21 10.98-18.47-3.61-25.46-10.83c-6.99-7.22-10.49-15.82-10.49-25.8 0-5.45.98-10.55 2.95-15.31 1.97-4.76 4.59-8.75 7.88-11.97 3.28-3.21 7.06-5.74 11.33-7.58 4.27-1.85 8.67-2.77 13.2-2.77zm-17.92 37.12c0 5.84 1.89 10.59 5.66 14.23 3.77 3.64 7.99 5.47 12.65 5.47s8.86-1.77 12.6-5.32c3.74-3.55 5.61-8.3 5.61-14.28 0-5.98-1.89-10.77-5.66-14.38-3.78-3.61-7.99-5.42-12.65-5.42s-8.86 1.82-12.6 5.47c-3.74 3.64-5.61 8.39-5.61 14.23zM2187.61 1866.52l1.77-1.28c2.23-1.31 3.81-1.97 4.73-1.97 2.04 0 4.23 1.84 6.6 5.52 1.44 2.3 2.17 4.14 2.17 5.52s-.44 2.53-1.33 3.44c-.89.92-1.92 1.74-3.1 2.46-1.18.72-2.31 1.41-3.4 2.07-1.08.66-3.3 1.51-6.65 2.56-3.35 1.05-6.58 1.58-9.7 1.58-3.12 0-6.27-.41-9.46-1.23-3.18-.82-6.47-2.2-9.85-4.14-3.38-1.93-6.42-4.3-9.11-7.09-2.69-2.79-4.91-6.37-6.65-10.74-1.74-4.36-2.61-9.11-2.61-14.23 0-5.12.85-9.76 2.56-13.93 1.7-4.17 3.89-7.62 6.55-10.34 2.66-2.72 5.7-5 9.11-6.84 6.43-3.54 12.9-5.32 19.4-5.32 3.09 0 6.22.48 9.4 1.43 3.18.95 5.6 1.92 7.24 2.9l2.36 1.38c1.18.73 2.1 1.32 2.76 1.77 1.71 1.38 2.56 2.94 2.56 4.68 0 1.74-.69 3.56-2.07 5.47-2.56 3.55-4.86 5.32-6.9 5.32-1.18 0-2.86-.72-5.02-2.17-2.75-2.23-6.43-3.35-11.03-3.35-4.27 0-8.47 1.48-12.6 4.43-1.97 1.44-3.61 3.48-4.92 6.1-1.31 2.63-1.97 5.6-1.97 8.91 0 3.32.66 6.29 1.97 8.91 1.31 2.63 2.99 4.7 5.02 6.2 4 2.89 8.17 4.33 12.51 4.33 2.04 0 3.95-.26 5.76-.79 1.81-.51 3.11-1.04 3.9-1.56zM2253.98 1818.36l26.59 54.95c1.12 2.23 1.67 3.91 1.67 5.02 0 2.36-1.9 4.5-5.71 6.4-2.24 1.12-3.99 1.67-5.27 1.67-1.28 0-2.33-.3-3.15-.89-.82-.59-1.41-1.21-1.77-1.87-.36-.66-.87-1.64-1.53-2.95l-5.12-10.63h-27.28l-5.12 10.63c-.66 1.32-1.17 2.27-1.53 2.86-.36.59-.95 1.2-1.77 1.82-.82.62-1.87.94-3.15.94-1.28 0-3.04-.56-5.27-1.67-3.81-1.84-5.71-3.94-5.71-6.3 0-1.11.56-2.79 1.67-5.02l26.59-55.05c.72-1.51 1.82-2.72 3.3-3.64 1.48-.92 3.04-1.38 4.68-1.38 3.55-.01 6.17 1.7 7.88 5.11zM2246 1842l-6.5 13.49h13.1L2246 1842zM2278.9 1813.14h54.75c2.1 0 3.64.25 4.63.74.98.49 1.64 1.26 1.97 2.32.33 1.05.49 2.43.49 4.13 0 1.71-.16 3.07-.49 4.09-.33 1.02-.89 1.72-1.67 2.12-1.18.59-2.86.89-5.02.89h-18.81v49.53c0 1.51-.05 2.63-.15 3.35-.1.72-.39 1.56-.89 2.51-.49.95-1.36 1.62-2.61 2.02-1.25.39-2.89.59-4.92.59-2.04 0-3.66-.2-4.88-.59-1.21-.39-2.07-1.07-2.56-2.02-.49-.95-.79-1.81-.89-2.56-.1-.75-.15-1.89-.15-3.4v-49.43h-18.91c-2.1 0-3.64-.25-4.63-.74-.98-.49-1.64-1.26-1.97-2.32-.33-1.05-.49-2.43-.49-4.14 0-1.7.16-3.07.49-4.08.33-1.02.89-1.72 1.67-2.12 1.2-.59 2.87-.89 5.04-.89zM2351.08 1821.91c0-1.51.05-2.64.15-3.4.1-.75.41-1.62.94-2.61.92-1.77 3.48-2.66 7.68-2.66 4.6 0 7.32 1.21 8.18 3.64.33 1.12.49 2.83.49 5.12v54.75c0 1.58-.05 2.73-.15 3.45-.1.72-.41 1.58-.94 2.56-.92 1.77-3.48 2.66-7.68 2.66-4.6 0-7.29-1.25-8.07-3.74-.39-1.05-.59-2.72-.59-5.02v-54.75zM2415.19 1812.36c9.72 0 18.15 3.51 25.31 10.54 7.15 7.03 10.73 15.74 10.73 26.15 0 10.41-3.41 19.27-10.24 26.59s-15.23 10.98-25.21 10.98-18.47-3.61-25.46-10.83c-6.99-7.22-10.49-15.82-10.49-25.8 0-5.45.98-10.55 2.95-15.31 1.97-4.76 4.59-8.75 7.88-11.97 3.28-3.21 7.06-5.74 11.33-7.58 4.27-1.85 8.67-2.77 13.2-2.77zm-17.93 37.12c0 5.84 1.89 10.59 5.66 14.23 3.77 3.64 7.99 5.47 12.65 5.47s8.86-1.77 12.6-5.32c3.74-3.55 5.61-8.3 5.61-14.28 0-5.98-1.89-10.77-5.66-14.38-3.78-3.61-7.99-5.42-12.65-5.42s-8.86 1.82-12.6 5.47c-3.73 3.64-5.61 8.39-5.61 14.23zM2509.19 1816.25c.62-1.15 1.56-1.92 2.81-2.32 1.25-.39 2.81-.59 4.68-.59 1.87 0 3.38.16 4.53.49 1.15.33 2 .72 2.56 1.18.56.46.97 1.15 1.23 2.07.39 1.05.59 2.73.59 5.02v54.66c0 1.58-.05 2.73-.15 3.45-.1.72-.41 1.58-.94 2.56-.92 1.77-3.48 2.66-7.68 2.66-2.56 0-4.33-.2-5.32-.59a5.672 5.672 0 0 1-2.46-1.87c-14.77-19.7-24.49-32.56-29.15-38.6v32.4c0 1.58-.05 2.73-.15 3.45-.1.72-.41 1.58-.94 2.56-.92 1.77-3.48 2.66-7.68 2.66-4.07 0-6.56-.89-7.48-2.66-.53-.98-.84-1.87-.94-2.66-.1-.79-.15-1.93-.15-3.45v-54.95c0-2.49.31-4.31.94-5.46.62-1.15 1.56-1.92 2.81-2.32 1.25-.39 2.85-.59 4.82-.59 1.97 0 3.53.18 4.68.54 1.15.36 1.95.77 2.41 1.23.26.2 1.02 1.05 2.27 2.56 13.85 18.85 23.11 31.29 27.77 37.33v-33.29c0-2.5.31-4.32.94-5.47zM1865.9 1965.26c-1.46-1.8-2.19-3.42-2.19-4.85 0-1.43 1.21-3.33 3.63-5.7 1.41-1.35 2.9-2.03 4.47-2.03 1.57 0 3.77 1.41 6.58 4.22.79.95 1.91 1.87 3.37 2.74 1.46.88 2.81 1.31 4.05 1.31 5.23 0 7.85-2.14 7.85-6.41 0-1.29-.72-2.38-2.15-3.25-1.44-.87-3.22-1.5-5.36-1.9-2.14-.39-4.45-1.02-6.92-1.9a45.44 45.44 0 0 1-6.92-3.08c-2.14-1.18-3.92-3.05-5.36-5.61-1.44-2.56-2.15-5.64-2.15-9.24 0-4.95 1.84-9.27 5.53-12.95 3.68-3.68 8.7-5.53 15.06-5.53 3.38 0 6.45.44 9.24 1.31 2.78.87 4.71 1.76 5.78 2.66l2.11 1.6c1.74 1.63 2.62 3.01 2.62 4.13 0 1.13-.67 2.67-2.03 4.64-1.91 2.81-3.88 4.22-5.91 4.22-1.18 0-2.64-.56-4.39-1.69-.17-.11-.49-.39-.97-.84-.48-.45-.91-.81-1.3-1.1-1.18-.73-2.69-1.1-4.51-1.1-1.83 0-3.35.44-4.56 1.31-1.21.87-1.82 2.08-1.82 3.63 0 1.55.72 2.8 2.15 3.76 1.44.95 3.22 1.6 5.36 1.94 2.14.34 4.47.86 7 1.56 2.53.7 4.87 1.56 7 2.57 2.14 1.01 3.92 2.77 5.36 5.27 1.44 2.5 2.15 5.58 2.15 9.24s-.73 6.88-2.19 9.66c-1.46 2.78-3.38 4.94-5.74 6.46-4.56 2.98-9.42 4.47-14.6 4.47-2.65 0-5.15-.33-7.51-.97-2.36-.65-4.27-1.45-5.74-2.4-2.98-1.8-5.06-3.54-6.24-5.23l-.75-.92zM1933.32 1959.02h25.99c1.29 0 2.27.04 2.91.13.65.08 1.39.35 2.24.8 1.52.79 2.28 2.98 2.28 6.58 0 3.94-1.04 6.25-3.12 6.92-.96.34-2.42.5-4.39.5h-33.42c-3.94 0-6.25-1.07-6.92-3.21-.34-.9-.5-2.33-.5-4.3v-46.92c0-2.87.54-4.82 1.6-5.86 1.07-1.04 3.09-1.56 6.07-1.56h33.25c1.29 0 2.27.04 2.91.13.65.08 1.39.35 2.24.8 1.52.79 2.28 2.98 2.28 6.58 0 3.94-1.04 6.25-3.12 6.92-.96.34-2.42.51-4.39.51h-25.91v8.52h16.71c1.29 0 2.26.04 2.91.13.65.08 1.39.35 2.23.8 1.52.79 2.28 2.98 2.28 6.58 0 3.94-1.07 6.25-3.21 6.92-.96.34-2.42.51-4.39.51h-16.54v8.52zM2023.78 1963.49c.85 2.02 1.27 3.49 1.27 4.39 0 2.14-1.74 3.94-5.23 5.4-1.8.79-3.25 1.18-4.35 1.18-1.1 0-1.99-.26-2.7-.8-.7-.54-1.22-1.08-1.56-1.64-.56-1.07-2.76-6.16-6.58-15.28l-2.61.17h-10.63v9.54c0 1.29-.04 2.26-.13 2.91-.08.65-.35 1.39-.8 2.23-.79 1.52-2.98 2.28-6.58 2.28-3.94 0-6.25-1.04-6.92-3.12-.34-.95-.5-2.42-.5-4.39v-46.83c0-1.29.04-2.26.13-2.91.08-.65.35-1.39.8-2.24.79-1.52 2.98-2.28 6.58-2.28h18.23c4.95 0 9.76 1.8 14.43 5.4 2.25 1.74 4.11 4.11 5.57 7.09 1.46 2.98 2.19 6.3 2.19 9.96 0 6.36-2.11 11.59-6.33 15.69 1.22 2.99 3.13 7.4 5.72 13.25zm-32.4-21.52h10.8c1.63 0 3.26-.62 4.89-1.86 1.63-1.24 2.45-3.09 2.45-5.57 0-2.48-.82-4.35-2.45-5.61-1.63-1.27-3.32-1.9-5.06-1.9h-10.63v14.94zM2087.83 1913.03c3.32 1.63 4.98 3.43 4.98 5.4 0 .9-.42 2.25-1.26 4.05l-23.29 47.25c-.62 1.24-1.56 2.23-2.83 3-1.26.76-2.57 1.14-3.92 1.14h-.84c-1.41 0-2.74-.38-4.01-1.14-1.27-.76-2.21-1.76-2.83-3l-23.29-47.25c-.84-1.8-1.26-3.15-1.26-4.05 0-1.97 1.66-3.77 4.98-5.4 1.85-.95 3.28-1.44 4.26-1.44s1.73.11 2.23.34c.5.22.98.62 1.44 1.18.5.67.97 1.42 1.39 2.23.42.82 1.5 3.15 3.25 7 1.74 3.85 3.62 7.95 5.61 12.28 1.99 4.33 3.88 8.42 5.65 12.28 1.77 3.86 2.77 6.01 3 6.45l16.88-36.96c.45-1.07.84-1.91 1.18-2.53 1.01-1.52 2.25-2.28 3.71-2.28s3.11.49 4.97 1.45zM2101.67 1919.53c0-1.29.04-2.26.13-2.91.08-.65.35-1.39.8-2.24.79-1.52 2.98-2.28 6.58-2.28 3.94 0 6.27 1.04 7 3.12.28.96.42 2.42.42 4.39v46.92c0 1.35-.04 2.33-.13 2.95-.08.62-.35 1.35-.8 2.19-.79 1.52-2.98 2.28-6.58 2.28-3.94 0-6.25-1.07-6.92-3.21-.34-.9-.5-2.33-.5-4.3v-46.91zM2166.22 1957.75l1.52-1.1c1.91-1.13 3.26-1.69 4.05-1.69 1.74 0 3.63 1.58 5.65 4.73 1.24 1.97 1.86 3.54 1.86 4.72 0 1.18-.38 2.17-1.14 2.95-.76.79-1.64 1.49-2.66 2.11-1.01.62-1.98 1.21-2.91 1.78-.93.56-2.83 1.29-5.7 2.19-2.87.9-5.64 1.35-8.31 1.35-2.68 0-5.37-.35-8.1-1.05-2.73-.7-5.54-1.88-8.44-3.55-2.9-1.66-5.5-3.68-7.8-6.07-2.31-2.39-4.21-5.46-5.7-9.2-1.49-3.74-2.24-7.8-2.24-12.19s.73-8.37 2.19-11.94c1.46-3.57 3.33-6.52 5.61-8.86 2.28-2.33 4.88-4.29 7.8-5.86 5.51-3.04 11.05-4.56 16.62-4.56 2.64 0 5.33.41 8.06 1.22 2.73.82 4.8 1.64 6.2 2.49l2.03 1.18c1.01.62 1.8 1.13 2.36 1.52 1.46 1.18 2.19 2.52 2.19 4.01 0 1.49-.59 3.05-1.77 4.68-2.19 3.04-4.17 4.56-5.91 4.56-1.01 0-2.44-.62-4.3-1.86-2.36-1.91-5.51-2.87-9.45-2.87-3.66 0-7.25 1.26-10.8 3.8-1.69 1.24-3.1 2.98-4.22 5.23-1.13 2.25-1.69 4.8-1.69 7.64s.56 5.39 1.69 7.64c1.12 2.25 2.56 4.02 4.3 5.32 3.43 2.48 7 3.71 10.72 3.71 1.74 0 3.39-.22 4.94-.67 1.56-.46 2.67-.91 3.35-1.36zM2204.02 1959.02h25.99c1.29 0 2.27.04 2.91.13.65.08 1.39.35 2.24.8 1.52.79 2.28 2.98 2.28 6.58 0 3.94-1.04 6.25-3.12 6.92-.96.34-2.42.5-4.39.5h-33.42c-3.94 0-6.25-1.07-6.92-3.21-.34-.9-.5-2.33-.5-4.3v-46.92c0-2.87.54-4.82 1.6-5.86 1.07-1.04 3.09-1.56 6.07-1.56h33.25c1.29 0 2.27.04 2.91.13.65.08 1.39.35 2.24.8 1.52.79 2.28 2.98 2.28 6.58 0 3.94-1.04 6.25-3.12 6.92-.96.34-2.42.51-4.39.51h-25.91v8.52h16.71c1.29 0 2.26.04 2.91.13.65.08 1.39.35 2.23.8 1.52.79 2.28 2.98 2.28 6.58 0 3.94-1.07 6.25-3.21 6.92-.96.34-2.42.51-4.39.51h-16.54v8.52zM2248.07 1965.26c-1.46-1.8-2.19-3.42-2.19-4.85 0-1.43 1.21-3.33 3.63-5.7 1.41-1.35 2.9-2.03 4.47-2.03 1.57 0 3.77 1.41 6.58 4.22.79.95 1.91 1.87 3.38 2.74 1.46.88 2.81 1.31 4.05 1.31 5.23 0 7.85-2.14 7.85-6.41 0-1.29-.72-2.38-2.15-3.25-1.44-.87-3.22-1.5-5.36-1.9-2.14-.39-4.45-1.02-6.92-1.9a45.44 45.44 0 0 1-6.92-3.08c-2.14-1.18-3.92-3.05-5.36-5.61-1.43-2.56-2.15-5.64-2.15-9.24 0-4.95 1.84-9.27 5.53-12.95 3.68-3.68 8.7-5.53 15.06-5.53 3.38 0 6.46.44 9.24 1.31 2.78.87 4.71 1.76 5.78 2.66l2.11 1.6c1.74 1.63 2.62 3.01 2.62 4.13 0 1.13-.67 2.67-2.03 4.64-1.91 2.81-3.88 4.22-5.91 4.22-1.18 0-2.64-.56-4.39-1.69-.17-.11-.49-.39-.97-.84-.48-.45-.91-.81-1.3-1.1-1.18-.73-2.69-1.1-4.52-1.1-1.83 0-3.35.44-4.56 1.31-1.21.87-1.82 2.08-1.82 3.63 0 1.55.72 2.8 2.15 3.76 1.44.95 3.22 1.6 5.36 1.94 2.14.34 4.47.86 7 1.56 2.53.7 4.87 1.56 7 2.57 2.14 1.01 3.92 2.77 5.36 5.27 1.44 2.5 2.15 5.58 2.15 9.24s-.73 6.88-2.19 9.66-3.38 4.94-5.74 6.46c-4.56 2.98-9.42 4.47-14.6 4.47-2.65 0-5.15-.33-7.51-.97-2.36-.65-4.27-1.45-5.74-2.4-2.98-1.8-5.06-3.54-6.24-5.23l-.75-.92zM2107.97 2143.59h-233.88c-9.05 0-17.43 6.18-18.88 15.11-1.85 11.37 6.88 21.2 17.91 21.2h234.85c10.03 0 18.15-8.13 18.15-18.15 0-10.04-8.12-18.16-18.15-18.16zM2506.45 2143.59h-337.51c-10.03 0-18.16 8.13-18.16 18.16 0 10.02 8.13 18.15 18.16 18.15h338.49c11.02 0 19.75-9.83 17.91-21.2-1.45-8.93-9.84-15.11-18.89-15.11zM2266.41 2232.71h-392.32c-9.04 0-17.42 6.18-18.88 15.1-1.85 11.37 6.88 21.21 17.91 21.21h393.29c10.03 0 18.16-8.13 18.16-18.16 0-10.02-8.13-18.15-18.16-18.15zM2266.41 2321.83h-392.32c-9.04 0-17.42 6.18-18.88 15.1-1.85 11.37 6.88 21.21 17.91 21.21h393.29c10.03 0 18.16-8.13 18.16-18.16 0-10.02-8.13-18.15-18.16-18.15zM2506.45 2232.71h-179.07c-10.02 0-18.16 8.13-18.16 18.15 0 10.03 8.13 18.16 18.16 18.16h180.05c11.02 0 19.76-9.84 17.91-21.21-1.46-8.92-9.85-15.1-18.89-15.1z" fill="#c9ccd3" class="colord3c9cf svgShape"></path>
  <path d="M2443.17 1082.92c-2.59-7.12-6.01-14.35-5.24-21.89.78-7.63 5.78-14.36 6.44-22.01 1.28-14.82-13.6-26.31-16.04-40.98-1.01-6.09.21-12.31.21-18.49 0-6.18-1.63-12.96-6.7-16.5-5.09-3.56-12.19-2.69-17.73.11-12.11 6.11-18.92 21.16-15.52 34.29 2.02 7.8 7.21 15.05 6.48 23.08-1.29 14.16-20.38 24.16-16.67 37.88 1.42 5.24 6.17 9.96 4.8 15.22-1 3.85-4.88 6.05-7.9 8.64-7.19 6.18-10.16 16.76-7.48 25.82 2.15 13.91 9.91 27 21.98 34.12 15.43 9.11 37.4 6.62 48.94-7.09 11.79-13.99 10.7-35 4.43-52.2z" fill="#ffffff" class="colorffffff svgShape"></path>
  <g opacity=".2" fill="#080e24" class="color000000 svgShape">
    <path d="M2395.07 1020.54c-.07.73-.19 1.45-.35 2.17.11-.06.22-.11.32-.17 1.67-.99 3.19-2.19 3.89-4.07.64-1.72.61-3.61.46-5.41-.18-2.17-.57-4.29-1.04-6.42-.52-2.32-1.07-4.64-1.28-7.01-.17-1.93-.28-4.27.65-6.04.67-1.28 1.87-2.04 3.06-2.78 1.19-.74 2.44-1.61 2.61-3.13.22-2.03-1.02-3.96-1.54-5.85-.25-.91-.31-1.77-.13-2.69.18-.93.48-1.84.86-2.71.79-1.77 1.95-3.49 3.51-4.68 1.5-1.14 3.16-1.89 4.95-2.45.99-.31 1.99-.56 3-.77.89-.18 1.81-.41 2.71-.45 1.75-.09 3.5.31 5.24.39 1.36.06 2.75-.14 3.66-1.19-.97-1.64-2.22-3.08-3.82-4.19-5.09-3.56-12.19-2.69-17.73.11-12.11 6.11-18.92 21.16-15.52 34.29 2.03 7.77 7.22 15.02 6.49 23.05z" fill="#f2f6ff" class="colorf2faff svgShape"></path>
  </g>
  <g opacity=".2" fill="#080e24" class="color000000 svgShape">
    <path d="M2371.84 1094.21c2.54-1.4 5.5-2.21 7.49-4.44 2.48-2.78 2.95-6.68 3.84-10.14.5-1.96 1.44-3.78 2.09-5.7.51-1.51.85-3.07.85-4.67-.01-1.76-.43-3.49-.92-5.17-.61-2.05-1.28-4.07-1.95-6.1-1.22-3.67-2.44-7.38-3.07-11.2-1.92 3.69-2.89 7.49-1.77 11.64 1.42 5.24 6.17 9.96 4.8 15.22-1 3.85-4.88 6.05-7.9 8.64-4.44 3.82-7.26 9.31-8.15 15.08 1.49-1.17 3.03-2.25 4.69-3.16z" fill="#f2f6ff" class="colorf2faff svgShape"></path>
  </g>
  <g opacity=".5" fill="#080e24" class="color000000 svgShape">
    <path d="M2443.17 1082.92c-2.59-7.12-6.01-14.35-5.24-21.89.34-3.32 1.48-6.47 2.71-9.6-2.68 3.05-4.03 7.48-4.81 11.26-1.25 6.09-1.48 12.49-.95 18.68.16 1.94.4 3.86.84 5.75.59 2.55 1.43 5.03 2.24 7.52 1.58 4.84 2.97 9.79 2.34 14.92-.64 5.28-2.82 10.24-4.86 15.1-1.83 4.37-3.55 8.77-5.76 12.97-1.3 2.46-2.75 4.85-4.39 7.09 5.17-2.08 9.83-5.28 13.46-9.59 11.78-14 10.69-35.01 4.42-52.21z" fill="#e0e1e3" class="colore3e0e1 svgShape"></path>
  </g>
  <g opacity=".5" fill="#080e24" class="color000000 svgShape">
    <path d="M2428.41 1083.04c-2.23 1.88-4.37 3.87-6.62 5.73-1.17.97-2.37 1.92-3.62 2.78-.98.67-2.01 1.34-3.13 1.74-4.42 1.56-4.8-4.68-4.74-7.5.11-5.54 1.29-11.04 2.34-16.46.34-1.76.77-3.54.9-5.34.32-4.38-.99-8.77.03-13.12.39-1.67 1.12-3.12 2.3-4.37 1.07-1.14 2.33-2.07 3.58-2.99 2.04-1.51 4.86-3.29 5.26-6-2.46.6-4.67 2.26-6.76 3.6-1.72 1.1-3.7 2.55-5.81 2.67-1.55.09-2.52-.83-3.11-2.04-.88 2.78-1.15 5.75-1.23 8.66-.05 1.7-.02 3.4.01 5.1.03 1.53-.01 3.07.08 4.6.09 1.5.75 3.89-.75 4.92-.89.61-2.07.58-3.1.62-1.11.05-2.19-.33-3.2-.75-2-.83-3.86-2.09-5.88-2.89 1.51 2.29 4.15 3.74 6.04 5.67 2.45 2.5 3.78 6.02 4.5 9.39.75 3.47.81 7.08.86 10.62.06 3.76-.04 7.52-.14 11.28-.09 3.49-.23 7-.16 10.49.05 2.19.24 4.42-.03 6.6-.21 1.65-.76 3.41-2.3 4.27-1.87 1.05-4.45-2.87-6.37-3.47-.98-.31-10.42-5.22-11.35-5.67.77.52 10.03 8.94 10.76 9.53 2.11 1.71 3.77 3.71 4.81 6.23 2.51 6.06 2.44 12.85 4.88 18.93 1.25-1.8 2.03-3.91 2.62-6.01.76-2.74 1.2-5.57 1.48-8.4.52-5.1.41-10.16.32-15.28-.09-5.39.43-11.01 4.15-15.23 2.78-3.15 6.26-5.6 9.22-8.58 2.57-2.58 5.21-5.91 4.64-9.72-.16.13-.33.25-.48.39z" fill="#e0e1e3" class="colore3e0e1 svgShape"></path>
  </g>
  <path d="M2426.7 1079.19c-4.05 7.34-10.26 13.29-17.7 17.11.32-13.54.75-27.08 1.14-40.61.08-2.64.15-5.27.23-7.91 5.33-2.68 10.29-6 14.82-9.88.44-.37.33-1.13-.05-1.49-.45-.43-1.06-.32-1.49.05a71.876 71.876 0 0 1-13.2 8.93l.87-30.31c.04-1.36-2.07-1.28-2.11.07-.3 10.48-.61 20.95-.92 31.43-.24.3-.21.69-.03 1.02-.18 6.21-.35 12.42-.53 18.63a65.18 65.18 0 0 1-16.59-8.48c-1.11-.79-2.1 1.08-1 1.86 5.37 3.8 11.28 6.75 17.53 8.82-.18 6.35-.37 12.71-.54 19.06-.3 11.16-.55 22.32-.66 33.48-7.66-5.47-17.7-7.24-24.27-14.25-.93-.99-2.37.56-1.44 1.54 7.02 7.49 17.87 8.96 25.68 15.32-.06 7.81-.03 15.62.11 23.43l-.14.24s-1.93 40.36.48 44.57c1.1 1.92 5.32 2.62 6.43-.44 1.09-3-4.37-44.23-4.71-47.76-.07-5.31-.1-10.62-.08-15.92.04-9.68.2-19.37.42-29.05 8.27-3.92 15.18-10.46 19.61-18.47.66-1.18-1.2-2.18-1.86-.99z" fill="#cbced3" class="colord3cbcb svgShape"></path>
  <path d="M2572.57 756.83c0 17.76-14.4 32.16-32.16 32.16-17.76 0-32.16-14.4-32.16-32.16s14.4-32.16 32.16-32.16c17.76-.01 32.16 14.39 32.16 32.16z" fill="#ffffff" class="colorffffff svgShape"></path>
  <circle cx="1854.64" cy="1333.27" r="43.17" transform="rotate(-77.719 1854.593 1333.307)" fill="#ffffff" class="colorffffff svgShape"></circle>
  <path d="M1650.14 676.85h922.44v30.81h-922.44z" fill="#ffffff" class="colorffffff svgShape"></path>
  <path d="m2420.05 580.09 46.67 408.76 30.61-3.49-46.3-405.53c-10.33.09-20.65.17-30.98.26zM2273.76 581.34c-10.62.09-21.25.17-31.87.28 7.94 28.26 45.46 168.43 58.9 340.21 13.37 170.89 4.81 407.51-108.72 577.25h36.6c107.98-175.43 116.15-409.46 102.83-579.65-12.65-161.54-46.33-295.95-57.74-338.09zM1925.27 1252.27c-95.32 0-172.88-77.55-172.88-172.88s77.55-172.88 172.88-172.88 172.88 77.55 172.88 172.88-77.56 172.88-172.88 172.88zm0-314.95c-78.34 0-142.07 63.73-142.07 142.07s63.73 142.07 142.07 142.07 142.07-63.73 142.07-142.07c0-78.33-63.74-142.07-142.07-142.07z" fill="#ffffff" class="colorffffff svgShape"></path>
  <path d="M1914.15 586.04h30.81v335.88h-30.81z" fill="#ffffff" class="colorffffff svgShape"></path>
  <path d="M2100.82 1163.55h30.81v334.13h-30.81z" transform="rotate(-50.372 2116.13 1330.604)" fill="#ffffff" class="colorffffff svgShape"></path>
  <path d="m1673.93 1499.07 146.6-299.67-27.67-13.54-153.22 313.21z" fill="#ffffff" class="colorffffff svgShape"></path>
  <path d="M2186.83 874.22h71.2V987.1h-71.2zM2186.83 1114.95h71.2v112.88h-71.2z" fill="#cbced3" class="colord3cbcb svgShape"></path>
  <path d="M2149.45 1015.23h108.58v71.2h-108.58zM1996.5 743.01h247v71.2h-247zM1956.74 603.83h128.13v47.19h-128.13zM2120.01 603.83h70.07v47.19h-70.07zM2341.6 747.01h70.07v47.19h-70.07zM1640.14 838.62h247.01v71.2h-247.01z" fill="#ffffff" class="colorffffff svgShape"></path>
  <path d="M1929.55 884.86h-85.46c-3.09 0-5.6-2.51-5.6-5.6s2.51-5.6 5.6-5.6h79.86v-179.6c0-3.09 2.51-5.6 5.6-5.6h389.26c3.09 0 5.6 2.51 5.6 5.6s-2.51 5.6-5.6 5.6h-383.67v179.6c.01 3.09-2.5 5.6-5.59 5.6zM2444.56 654.3c-4.24-27.63-28.01-48.88-56.77-48.88-28.8 0-52.61 21.25-56.77 48.88 0 0-.96 6.18-.76 8.57 4.43 52.1 57.53 106.4 57.53 106.4s57.4-66.72 57.4-106.4c0-2.4-.63-8.57-.63-8.57zm-56.77 39.76c-15.87 0-28.72-12.77-28.72-28.64 0-15.83 12.85-28.72 28.72-28.72 15.83 0 28.64 12.89 28.64 28.72 0 15.88-12.81 28.64-28.64 28.64z" fill="#0039a9" class="color00a99d svgShape"></path>
  <path d="m1455.97 1465.67-348.81 1082.99-96.81-18.23 132.3-1099.4z" fill="#232633" class="color33232a svgShape"></path>
  <path d="M1020.51 2611.52s1.53-97.34 16.04-100.3c14.51-2.96 45.5 2.43 50.91 10.37 5.41 7.94-22.25 104.77-37.29 114.38s-29.15 1.49-29.66-24.45z" fill="#ffe49f" class="colorffbf9f svgShape"></path>
  <path d="M1051.84 2598.04c-5.1-14.96-9.35-30.2-13.34-45.49-1.93-7.4-3.79-14.79-6.19-22.06-.93-2.81-1.86-5.61-2.77-8.43-8.03 25.99-9.03 89.45-9.03 89.45.51 25.94 14.62 34.06 29.66 24.45 2.72-1.74 5.85-6.35 9.13-12.75-2.27-8.44-4.63-16.86-7.46-25.17z" fill="#efd48f" class="colorefac8f svgShape"></path>
  <path d="M1039.2 2555.78c-5.29-2.55-10.29-5.64-15.52-8.32-11.55 41.08-4.09 64.72-4.09 64.72.53 27.13 15.29 35.62 31.02 25.57 9.19-5.87 22.88-42.89 31.55-74.3-13.76 3.76-31.49-2.15-42.96-7.67z" fill="#bdd2fd" class="colorced9ef svgShape"></path>
  <path d="M1033.27 2713.67s-161.78-47.25-151.54-64.87c10.23-17.62 13.13-12.72 13.13-12.72s170.88 54.26 167.88 65.95c-3.01 11.68 1.92 22.81-29.47 11.64z" fill="#0039a9" class="color00a99d svgShape"></path>
  <path d="M886.09 2642.91s158.5 73.14 173.79 66.17c15.29-6.98 24.1-117.1 14.3-120.4-9.8-3.29-43.09-12.1-45.11-11.32-2.02.78-3.02 43.09-32.12 55.35-29.1 12.25-53.91 1.73-55.13.38-1.21-1.36-44-22.73-55.73 9.82z" fill="#232633" class="color33232a svgShape"></path>
  <path d="M1014.74 2577.57c-7.22 3.72-7.55 28.22-11.92 45.28-.27-.34-.43-.71-.74-1.03-7.39-7.61-57.96 14.45-57.96 14.45s35.33 6.96 47.88 7.62c52.63 2.77 33.51-71.86 22.74-66.32z" fill="#3a3d49" class="color493a41 svgShape"></path>
  <path d="M1006 2498.98c-2.35 14.87-10.26 33.5 0 36.24 10.26 2.73 99.82 18.46 103.24 17.09 3.42-1.37 23.25-38.97 12.99-37.6-10.25 1.36-114.13-29.01-116.23-15.73z" fill="#c9ccd3" class="colord3c9cf svgShape"></path>
  <path d="m1612.96 1413.85 25.42 1137.49-97.44 14.51-235.34-1082.04z" fill="#3a3d49" class="color493a41 svgShape"></path>
  <path d="M1584.03 2647.52s-30.47-92.46-17.73-100.01c12.74-7.55 43.78-12.63 51.5-6.89 7.71 5.73 13.34 106.27 2.28 120.28-11.07 14.01-27.06 10.96-36.05-13.38z" fill="#ffe49f" class="colorffbf9f svgShape"></path>
  <path d="M1609.21 2624.52c-9.72-12.46-18.73-25.46-27.52-38.6-4.25-6.36-8.43-12.73-13.08-18.81-1.8-2.35-3.6-4.69-5.38-7.05.94 27.19 20.8 87.46 20.8 87.46 8.99 24.34 24.98 27.38 36.04 13.37 2-2.53 3.45-7.92 4.44-15.04-4.91-7.23-9.9-14.41-15.3-21.33z" fill="#efd48f" class="colorefac8f svgShape"></path>
  <path d="M1583.41 2588.73c-5.83-.67-11.58-1.96-17.39-2.77 2.56 42.59 17.36 62.49 17.36 62.49 9.4 25.45 26.12 28.63 37.69 13.98 6.76-8.56 7.55-48.02 5.44-80.54-11.76 8.08-30.45 8.3-43.1 6.84z" fill="#bdd2fd" class="colorced9ef svgShape"></path>
  <path d="M1629.58 2739.84s-168.32 8.41-164.43-11.59c3.89-20 8.23-16.32 8.23-16.32s179.22-4.77 180.22 7.25c.99 12.03 9.3 20.92-24.02 20.66z" fill="#0039a9" class="color00a99d svgShape"></path>
  <path d="M1467.34 2721.26s173.72 17.13 185.88 5.52c12.16-11.6-15.63-118.53-25.97-118.43-10.33.1-44.68 2.7-46.33 4.09-1.65 1.4 11.28 41.7-12.2 62.82-23.48 21.12-50.37 19.31-51.95 18.44-1.59-.88-49.02-7.04-49.43 27.56z" fill="#232633" class="color33232a svgShape"></path>
  <path d="M1567.45 2617.34c-5.61 5.88 2.12 29.13 3.58 46.69-.36-.23-.64-.53-1.03-.73-9.48-4.76-50.02 32.66-50.02 32.66s35.66-5.01 47.73-8.5c50.63-14.65 8.1-78.88-.26-70.12z" fill="#3a3d49" class="color493a41 svgShape"></path>
  <path d="M1527.32 2541.93c1.45 14.99-1.54 35 9.08 35.08 10.61.08 101.26-7.13 104.23-9.31 2.97-2.18 12.74-43.55 3.16-39.66-9.59 3.89-117.76.5-116.47 13.89z" fill="#c9ccd3" class="colord3c9cf svgShape"></path>
  <path d="M1193.45 1142.96c-3.82-3.82-202.72-62.87-202.72-62.87l-23.7 71.99 206.02 111.22 20.4-120.34z" fill="#76a4ff" class="color3fc9bc svgShape"></path>
  <path d="M1344.98 803.28c172.41 14.38 219.61 212.97 241.49 619.55 0 0-183.51 215.48-424.52 7.64 0 0-59.72-647.43 183.03-627.19z" fill="#76a4ff" class="color3fc9bc svgShape"></path>
  <path d="m1388.84 824.51-9.52-78.39-57.47 1.1-12.69 77.29s-.09 14.65 39.84 14.99c33.61.28 39.84-14.99 39.84-14.99z" fill="#ffe49f" class="colorffbf9f svgShape"></path>
  <path d="M1330.47 791.34c3.29-3.03 7.66-3.74 11.97-3.46 4.78.32 9.39 1.81 14.2 1.83 4.27.01 8.53-.77 12.37-2.68 5.96-2.96 10.24-8.15 13.58-13.82l-3.29-27.08-57.47 1.1-6.42 39.12c.02-.01 10.9 8.82 15.06 4.99z" fill="#efd48f" class="colorefac8f svgShape"></path>
  <path d="M1437.65 697.71c-1.73-19.06-25.86-11.69-25.86-11.69s24.48-19.78 10.79-61.44c-13.7-41.65-109.43-52.68-149.16-8.46-39.74 44.22-8.39 87.85-8.39 87.85s-16.27 29.49 31.6 60.68c47.87 31.18 57.06 13 83.15-3.07 22.44-13.82 24.36-30.49 24.36-30.49s36.51-.36 33.51-33.38z" fill="#ffe49f" class="colorffbf9f svgShape"></path>
  <path d="M1266.04 616.05s38.02 6.71 54.37-10.57c0 0 37.24 35.53 58.01 24.05 20.77-11.47 39.89-5.52 28 21.05-11.89 26.58-17.76 49.93-5.81 50.93 11.95 1 22.38-16.85 22.38-16.85s36.95-85.22-58.24-117.22-115.73 79.77-98.71 48.61zM1427.93 706.54c.49 0 .95-.29 1.13-.77 4.15-10.62-6.47-16.9-6.58-16.96-.59-.34-1.32-.13-1.66.44-.34.58-.14 1.32.44 1.66.37.21 8.92 5.31 5.53 13.96-.25.63.06 1.33.69 1.58.15.06.3.09.45.09z" fill="#232633" class="color33232a svgShape"></path>
  <path d="M1364.75 650.06c.03-.81-.42-1.59-1.21-1.94-17.39-7.62-28.56 9.65-28.67 9.82-.61.95-.31 2.19.63 2.79.94.6 2.19.32 2.79-.62.38-.59 9.44-14.49 23.61-8.28 1.03.45 2.22-.02 2.67-1.04.12-.24.17-.48.18-.73zM1311.07 661.67c.31-.74.16-1.64-.45-2.24-13.6-13.26-30.12-1.02-30.29-.9-.91.68-1.06 1.94-.4 2.84.67.89 1.94 1.07 2.83.4.57-.42 13.94-10.24 25.01.57.8.78 2.09.77 2.87-.03.2-.2.34-.41.43-.64z" fill="#232633" class="color33232a svgShape"></path>
  <path d="M1329.24 757c-6.85 1.16-12.98-1.56-13.74-6.05-.09-.58-.09-1.11-.04-1.69.18-1.29.76-2.53 1.69-3.69 8.27 3.42 15.03-.4 18.9-3.73 1.33.62 2.4 1.51 3.16 2.53.49.71.89 1.51 1.02 2.4.75 4.49-4.19 9.11-10.99 10.23z" fill="#efd48f" class="colorefac8f svgShape"></path>
  <path d="M1342.44 739.89c-.04.04-1.33 1.78-3.65 3.82-4.58 4.09-13.16 9.38-23.74 4.89-.62-.22-1.29-.53-1.91-.84-.76-.4-1.16-1.25-1.07-2.05.04-.22.09-.49.22-.71.53-.98 1.73-1.38 2.76-.84.58.31 1.16.58 1.69.76 8.27 3.42 15.03-.4 18.9-3.73 2.13-1.82 3.38-3.47 3.51-3.65a2.02 2.02 0 0 1 2.85-.44c.89.65 1.11 1.9.44 2.79z" fill="#232633" class="color33232a svgShape"></path>
  <path d="M1383.35 710.45c.76 4.51-4.16 9.1-10.98 10.25-6.82 1.15-12.97-1.57-13.73-6.08-.76-4.51 4.15-9.1 10.98-10.25 6.82-1.15 12.96 1.57 13.73 6.08zM1305.67 714.47c.76 4.51-4.16 9.1-10.98 10.25-6.82 1.15-12.97-1.57-13.73-6.08-.76-4.51 4.15-9.1 10.98-10.25 6.82-1.15 12.96 1.58 13.73 6.08z" fill="#efd48f" class="colorefac8f svgShape"></path>
  <path d="M1324.61 716.56c-.66 0-1.31-.09-1.95-.28-4.04-1.18-5.75-5.73-5.82-5.92-.21-.57-.13-1.2.19-1.7 6.84-10.5 5.03-24.69 5.01-24.83-.14-1.05.59-2.01 1.63-2.15 1.07-.15 2.01.59 2.14 1.63.09.62 1.92 14.98-5.02 26.52.55 1 1.57 2.39 2.95 2.78 1.29.36 2.86-.14 4.66-1.52a1.9 1.9 0 1 1 2.31 3.02c-2.1 1.63-4.15 2.45-6.1 2.45zM1350.07 677.88c0 5.96 3.28 10.76 7.34 10.76 4.06 0 7.34-4.8 7.34-10.76 0-5.91-3.28-10.76-7.34-10.76-1.8 0-3.46.92-4.76 2.54 1.43.37 2.45 1.62 2.45 3.09 0 1.8-1.43 3.23-3.23 3.23-.6 0-1.15-.14-1.62-.46-.13.75-.18 1.58-.18 2.36zM1288.29 677.88c0 5.96 3.28 10.76 7.34 10.76 4.06 0 7.34-4.8 7.34-10.76 0-5.91-3.28-10.76-7.34-10.76-1.8 0-3.46.92-4.76 2.54 1.43.37 2.45 1.62 2.45 3.09 0 1.8-1.43 3.23-3.23 3.23-.6 0-1.15-.14-1.62-.46-.13.75-.18 1.58-.18 2.36z" fill="#232633" class="color33232a svgShape"></path>
  <path d="m1247.03 610.8 128.74 18.65 55.41 30.51s28.85-85.48-42.73-110.91c-107.57-38.2-141.42 61.75-141.42 61.75z" fill="#0039a9" class="color00a99d svgShape"></path>
  <path d="M1253.28 608.63s31.64-46.22 70.82-47.01c39.18-.79 46.9 67.14 46.9 67.14l-117.72-20.13z" fill="#76a4ff" class="color3fc9bc svgShape"></path>
  <path d="m1160.38 643.99 103.21-9.38s-12.49-14.67-42.37-15.75c-29.87-1.09-60.84 25.13-60.84 25.13z" fill="#c9ccd3" class="colord3c9cf svgShape"></path>
  <path d="M1160.38 643.99s56.22-33.19 119.15-6.03c0 0 41.04 34.63 99.55-9.25-91.57-32.02-137.56-20.72-137.56-20.72s-43.11.3-81.14 36z" fill="#eaecef" class="coloreaefee svgShape"></path>
  <path d="M1388.45 549.06s41.1 51.02 25.89 97.12c0 0 25.89-40.45-25.89-97.12z" fill="#76a4ff" class="color3fc9bc svgShape"></path>
  <path d="M1202.23 986.17h170.74s34.7 201.47 91.97 223.34c57.27 21.88 96.64-15.67 107.86-95.72 40.92 149.5 53.33 371.94 53.33 371.94s-.38 92.98-253.16 82.04c-252.78-10.94-257.22-136.74-257.22-136.74s46.36-384.7 86.48-444.86z" fill="#0039a9" class="color00a99d svgShape"></path>
  <path d="M1572.79 1113.79c-11.23 80.05-50.59 117.6-107.86 95.72-57.27-21.88-91.97-223.34-91.97-223.34h-109.68c12.91 8.16 27.92 13.31 41.55 19.73 7.73 3.64 11.02 10.1 14.88 17.44 2.17 4.12 4.19 8.63 7.8 11.73 3 2.59 6.66 4.42 9.87 6.73 10.47 7.52 18.96 15.86 25.1 27.33 5.99 11.19 9.61 23.7 11.47 36.22 1.95 13.17 4.08 26.51 5.17 39.78 1.07 13.05.75 26.85-5.04 38.87-2.64 5.48-6.13 10.45-10.62 14.55-4.58 4.19-9.8 7.62-14.38 11.82-5.21 4.78-8.92 10.73-10.86 17.55-1.99 6.97-2.41 14.28-4.39 21.26-5.93 20.9-14.42 42.75-27.18 60.45-5.78 8.03-13.01 15.59-22.59 18.81-10.75 3.61-22.22 4.16-33.47 3.59-24.92-1.26-49.4-7.98-74.43-7.6-11.27.17-22.77 2.17-32.56 8.02-2.62 1.56-6.3 3.75-6.66 7.14-.26 2.44 1.47 4.73 2.99 6.45 4.88 5.52 11.87 9.51 18.25 13.03 25.91 14.31 57.36 11.43 85.84 11.11 35.11-.41 70.1-1.65 105.16-3.73 17.65-1.05 35.29-2.16 52.94-3.13 9.46-.52 18.96-1.26 28.44-1.28 27.57-.08 55.76 3.01 82.58 9.34 13.71 3.24 27.9 7.49 39.74 15.38 9 6 16.41 15.08 15.41 26.48-.56 6.33-3.45 12.26-6.98 17.45-5.5 8.07-12.8 12.81-21.9 16.12-8.42 3.06-18.74 5.11-24.72 12.37-8.25 10.02-5.76 23.85-1.36 34.88 2.52 6.33 5.61 12.4 8.31 18.65 2.66 6.16 4.43 12.47 6.06 18.97 2.05 8.22 3.67 16.65 4.05 25.09 94.18-22.94 94.39-71.05 94.39-71.05s-12.43-222.42-53.35-371.93z" opacity=".1" fill="#232633" class="color33232a svgShape"></path>
  <path d="M1359.02 1006.68s39.79-163.98 70.03-177.94c-5.77-19.88-26.68-14.58-26.68-14.58s-44.89 66.39-70.98 190.36c.01 0 10.85 10.81 27.63 2.16zM1299.67 807.97s-10.62-10.31-27.71 5.54c-17.09 15.85-69.74 182.68-63.59 190.2 6.15 7.52 26.66 10.26 30.77 0 4.11-10.25 30.82-167.22 60.53-195.74z" fill="#0039a9" class="color00a99d svgShape"></path>
  <circle cx="1225.64" cy="995.05" r="7.52" opacity=".2" fill="#232633" class="color33232a svgShape"></circle>
  <path d="M1228.55 992.95c0 2.99-2.42 5.41-5.41 5.41s-5.41-2.42-5.41-5.41 2.42-5.41 5.41-5.41c2.98-.01 5.41 2.42 5.41 5.41z" fill="#76a4ff" class="color3fc9bc svgShape"></path>
  <path d="M1355.38 996.59c0 4.15-3.37 7.52-7.52 7.52-4.15 0-7.52-3.37-7.52-7.52 0-4.15 3.37-7.52 7.52-7.52 4.15 0 7.52 3.37 7.52 7.52z" opacity=".2" fill="#232633" class="color33232a svgShape"></path>
  <path d="M1350.76 994.48c0 2.99-2.42 5.41-5.41 5.41s-5.41-2.42-5.41-5.41 2.42-5.41 5.41-5.41 5.41 2.43 5.41 5.41zM1211.34 1060.01c4.61-.91 128.99 0 128.99 0s8.44 74.8-66.09 76.58c-73.84 1.75-62.9-76.58-62.9-76.58z" fill="#76a4ff" class="color3fc9bc svgShape"></path>
  <path d="m1438.56 837.43-1.74 345.85-182.06 97.87 13.67 60.67s207.65 12.8 276.78-78.52c104.16-137.57-21.83-406.08-106.65-425.87z" fill="#76a4ff" class="color3fc9bc svgShape"></path>
  <path d="M1350.08 1250.17c23.88-8.13 43.1-25.31 64.49-38.03 6.67-3.97 13.34-8.01 20.49-11.07 7.49-3.21 15.23-4.88 23.35-5.37 13.72-.83 27.36.94 40.9 3.11-5.09-4.41-11.24-7.56-17.58-9.93-7.9-2.95-16.15-4.86-24.44-6.37-7.3-1.33-13.53-3.09-19.14-8.22-.45-.41-.83-.89-1.27-1.32l-.05 10.31-122.78 66c11.32 5.57 24.05 4.96 36.03.89z" opacity=".65" fill="#eaecef" class="coloreaefee svgShape"></path>
  <path d="m1290.94 1053.41-35.39 26.36H852.08l20.93-9.77 23.42-10.93 12.13-5.66z" fill="#efae07" class="colorefac07 svgShape"></path>
  <path d="M852.09 1079.77h403.46v271.72H852.09z" fill="#f9b300" class="colorf9c300 svgShape"></path>
  <g opacity=".5" fill="#080e24" class="color000000 svgShape">
    <path d="M904.62 1331.36h-26.8v-19.88h26.8v19.88zm-24.96-1.84h23.12v-16.2h-23.12v16.2z" fill="#3a3d49" class="color493a41 svgShape"></path>
    <path d="M891.83 1321.37h7.73s-1.3-6.5-8.33-6.5c-6.18 0-8.33 6.5-8.33 6.5h7.73v5.09h-1.81v1.5h4.79v-1.5h-1.76v-5.09zM935.35 1331.36h-26.79v-19.88h26.79v19.88zm-24.95-1.84h23.12v-16.2H910.4v16.2z" fill="#3a3d49" class="color493a41 svgShape"></path>
    <path d="M924.6 1327.96h-6.29v-6.29h6.29v6.29zm-4.44-1.84h2.61v-2.61h-2.61v2.61zM931.21 1327.96h-6.29v-6.29h6.29v6.29zm-4.44-1.84h2.61v-2.61h-2.61v2.61zM965.82 1331.36h-26.79v-19.88h26.79v19.88zm-24.96-1.84h23.12v-16.2h-23.12v16.2z" fill="#3a3d49" class="color493a41 svgShape"></path>
    <path d="M955.82 1316.55v3.62c0 1.84-1.49 3.34-3.34 3.34s-3.34-1.49-3.34-3.34v-3.62h-3.05v3.89c0 3.53 2.86 6.39 6.39 6.39s6.39-2.86 6.39-6.39v-3.89h-3.05z" fill="#3a3d49" class="color493a41 svgShape"></path>
  </g>
  <path d="M1030.42 1077.85v54.34l7.41-4.94 2.33 4.94 2.61-4.25 5.35 4.25 3.71-3.98 3.15 3.98 5.77-3.57 3.7 3.57 8.37-4.94 4.4 4.94v-54.34z" opacity=".5" fill="#3a3d49" class="color493a41 svgShape"></path>
  <path d="m1077.22 1079.77 14.1-9.78-8.7.89-1.05-.89-3.71.77-4.25-.77-4.73.72-2.13-.72-6.69.64-2.78-.64-9.65.89-3.11-.89-14.1 9.78zM1069.24 1053.42l-14.1 9.78 8.69-.89 1.05.89 3.71-.77 4.25.77 4.74-.72 2.12.72 6.69-.64 2.78.64 9.65-.89 3.11.89 14.11-9.78zM1077.22 1354v-54.34l-7.42 4.94-2.33-4.94-2.61 4.25-5.35-4.25-3.7 3.98-3.16-3.98-5.76 3.56-3.71-3.56-8.37 4.94-4.39-4.94V1354z" opacity=".5" fill="#3a3d49" class="color493a41 svgShape"></path>
  <path d="M1132.04 1110.51h97.16v54.34h-97.16zM879.66 1177.48h349.54v82.34H879.66z" fill="#efae07" class="colorefac07 svgShape"></path>
  <path d="m1255.55 1079.77 35.4-26.35v268.27l-35.4 29.79z" fill="#ffc531" class="colorffbb01 svgShape"></path>
  <path d="M1270.43 1068.69v24.94l1.86-2.68.62.76 1.03-1.78 1.03 1.17 1.17-2.95 1.03 1.3.96-2.95s.89 1.17.89.89c0-.27 1.03-1.58 1.03-1.58l1.3.27v-25.51h-34.86l1.08.93-1.65.21.72.98-1.24.26.21.82-1.65-.05.26 1.13-1.34.36 1.08 1.08-1.75.31.93.98-1.29.51 1.44.87 27.14-.27zM912.96 1062l-3.71.96.75.96-3.16.89.82 1.1-2.93.45s.67 1.4.4 1.4c-.28 0-3.02.41-3.02.41l-.41 1.83h-28.69l23.42-10.93 18.44.45-2.68 1.87.77.61z" opacity=".5" fill="#3a3d49" class="color493a41 svgShape"></path>
  <path d="m1229.78 837.43-27.98 20.83H882.88l16.54-7.72 18.52-8.64 9.59-4.47z" fill="#efae07" class="colorefac07 svgShape"></path>
  <path d="M882.89 858.26h318.91v214.78H882.89z" fill="#f9b300" class="colorf9c300 svgShape"></path>
  <path d="M1201.8 1073.04H882.89v-46.54l318.91 24.43z" opacity=".1" fill="#3a3d49" class="color493a41 svgShape"></path>
  <g opacity=".5" fill="#080e24" class="color000000 svgShape">
    <path d="M924.41 1057.13h-21.18v-15.71h21.18v15.71zm-19.73-1.46h18.27v-12.81h-18.27v12.81z" fill="#3a3d49" class="color493a41 svgShape"></path>
    <path d="M914.3 1049.24h6.11s-1.03-5.14-6.59-5.14c-4.88 0-6.59 5.14-6.59 5.14h6.11v4.02h-1.43v1.18h3.79v-1.18h-1.39v-4.02zM948.7 1057.13h-21.18v-15.71h21.18v15.71zm-19.72-1.46h18.27v-12.81h-18.27v12.81z" fill="#3a3d49" class="color493a41 svgShape"></path>
    <path d="M940.21 1054.44h-4.97v-4.97h4.97v4.97zm-3.52-1.45h2.06v-2.06h-2.06v2.06zM945.43 1054.44h-4.97v-4.97h4.97v4.97zm-3.52-1.45h2.06v-2.06h-2.06v2.06zM972.78 1057.13H951.6v-15.71h21.18v15.71zm-19.72-1.46h18.27v-12.81h-18.27v12.81z" fill="#3a3d49" class="color493a41 svgShape"></path>
    <path d="M964.88 1045.42v2.86c0 1.46-1.18 2.64-2.64 2.64-1.46 0-2.64-1.18-2.64-2.64v-2.86h-2.41v3.08c0 2.79 2.26 5.05 5.05 5.05s5.05-2.26 5.05-5.05v-3.08h-2.41z" fill="#3a3d49" class="color493a41 svgShape"></path>
  </g>
  <path d="M1023.85 856.74v42.96l5.86-3.91 1.84 3.91 2.06-3.37 4.23 3.37 2.93-3.15 2.5 3.15 4.55-2.82 2.93 2.82 6.62-3.91 3.47 3.91v-42.96z" opacity=".5" fill="#3a3d49" class="color493a41 svgShape"></path>
  <path d="m1060.84 858.26 11.15-7.73-6.88.7-.83-.7-2.93.61-3.36-.61-3.74.57-1.68-.57-5.29.51-2.2-.51-7.63.7-2.45-.7-11.15 7.73zM1054.53 837.43l-11.14 7.73 6.87-.7.83.7 2.93-.6 3.36.6 3.75-.57 1.67.57 5.29-.51 2.2.51 7.63-.7 2.46.7 11.14-7.73zM1060.84 1075.03v-42.96l-5.86 3.9-1.84-3.9-2.06 3.36-4.23-3.36-2.93 3.15-2.5-3.15-4.55 2.82-2.93-2.82-6.62 3.9-3.47-3.9v42.96z" opacity=".5" fill="#3a3d49" class="color493a41 svgShape"></path>
  <path d="M1104.17 882.56h76.8v42.96h-76.8zM904.68 935.49h276.29v65.08H904.68z" fill="#efae07" class="colorefac07 svgShape"></path>
  <path d="m1201.8 858.26 27.99-20.83v212.05l-27.99 23.56z" fill="#ffc531" class="colorffbb01 svgShape"></path>
  <path d="M1213.57 849.5v19.71l1.47-2.12.49.6.81-1.41.81.92.92-2.33.81 1.03.76-2.33s.71.92.71.71c0-.22.81-1.25.81-1.25l1.03.22v-20.17h-27.55l.85.74-1.3.16.57.77-.98.2.16.65-1.3-.04.2.89-1.06.28.85.85-1.38.24.73.77-1.02.41 1.14.69 21.47-.19zM931 844.21l-2.93.76.6.76-2.49.71.65.87-2.32.36s.53 1.11.31 1.11c-.22 0-2.39.33-2.39.33l-.32 1.44h-22.68l18.52-8.64 14.57.36-2.12 1.48.6.46z" opacity=".5" fill="#3a3d49" class="color493a41 svgShape"></path>
  <path d="M846.98 1057.03s6.99-12.27 15.65-37.28c4.68-13.5 11.02-19.02 17.85-16.05 6.82 2.96 10.41 45.76-3.2 59.45-13.61 13.68-27.84 4.7-30.3-6.12z" fill="#efd48f" class="colorefac8f svgShape"></path>
  <path d="M849.56 1049.78c17.67-2.92 68.12 1.83 68.51 20.91.18 8.92-7.11 12.12-13.14 12.45 7.04 1.29 15 3.28 13.21 14.07-1.28 7.71-5.77 10.33-18.11 9.96 4.6.76 15.67 4.02 14.47 11.99-2.04 13.52-13.07 12.98-17.43 13.2 2.77.54 3.67 5.06 2.37 10.15-1.62 6.32-1.33 13.07-20.62 11.36-6.41-.57-8.94 3.06-17.21.42-6.38-2.04-13.22-3.44-17.56-7.61-20.89-20.08-10.18-94.31 5.51-96.9z" fill="#fde39f" class="colorfdbf9f svgShape"></path>
  <path d="M882.24 1081.78c9.92 1.65 20.47 2.14 21.04 2.17.56.02 1.03-.41 1.06-.97.02-.56-.41-1.03-.97-1.06-.18-.01-18.17-.85-29.1-3.92a1.012 1.012 0 1 0-.55 1.95c2.59.73 5.52 1.33 8.52 1.83zM878.2 1106.06c9.92 1.65 20.47 2.14 21.04 2.17.56.02 1.03-.41 1.06-.97a1.03 1.03 0 0 0-.97-1.06c-.18-.01-18.17-.85-29.1-3.92a1.012 1.012 0 1 0-.55 1.95c2.59.73 5.53 1.33 8.52 1.83zM874.18 1130.34c9.92 1.65 20.46 2.14 21.04 2.17.56.02 1.03-.41 1.06-.97a1.03 1.03 0 0 0-.97-1.06c-.18-.01-18.17-.85-29.1-3.92a1.012 1.012 0 1 0-.55 1.95c2.58.73 5.52 1.33 8.52 1.83z" fill="#f2d894" class="colorf2b294 svgShape"></path>
  <path d="M1329.33 1254.72s-11.68-5.01-21.7-15.02-20.75-28.67-27.9-26.88c-7.15 1.79.1 29.86 11.19 45.46 11.1 15.59 34.25 6.62 38.41-3.56z" fill="#efd48f" class="colorefac8f svgShape"></path>
  <path d="M1329.33 1254.72s-100.77-7.27-104.25 11.33c-1.63 8.7 22.65 13.54 49.2 16.49-32.59-2.42-68.61-.94-65.9 8.96 2.08 7.61 41.04 11.56 67.33 15.55-18.27-1.08-59.31-2.13-60.71 5.73-1.79 10.02 36.61 16.46 61.89 17.81-15.1.22-41.92 1.54-42.1 8.85-.17 6.47 7.15 12.4 38.94 13.97 18.56.92 17.79 4.44 26.3 3.2 6.57-.95 13.49-1.21 18.41-4.59 23.68-16.24 24.59-89.47 10.89-97.3z" fill="#ffe49f" class="colorffbf9f svgShape"></path>
  <path d="M1237.3 1340.65c.67-3.37 11.35-5.28 12.4-4.64 0 0-.06 8.82-.76 10.32-.7 1.49-12.31-2.32-11.64-5.68zM1216.17 1313.54c.67-3.37 11.35-5.28 12.4-4.64 0 0-.07 8.82-.76 10.32-.7 1.49-12.31-2.31-11.64-5.68zM1211.13 1289.98c.67-3.37 11.36-5.28 12.4-4.64 0 0-.06 8.82-.76 10.31-.69 1.5-12.31-2.31-11.64-5.67zM1228.6 1265.06c.67-3.37 11.35-5.28 12.4-4.64 0 0-.06 8.82-.76 10.32-.7 1.49-12.31-2.31-11.64-5.68z" opacity=".2" fill="#ffffff" class="colorffffff svgShape"></path>
  <path d="M1294.27 1284.66c-13.03 0-29.62-2.28-30.44-2.39a1.01 1.01 0 0 1-.86-1.13c.08-.55.58-.94 1.13-.86.24.03 23.92 3.28 36.77 2.11a.989.989 0 0 1 1.09.91c.05.55-.36 1.04-.91 1.09-2.05.19-4.35.27-6.78.27zM1290.25 1308.59c-11.58 0-23.82-1.28-23.97-1.3a1 1 0 0 1-.89-1.1c.06-.55.54-.95 1.1-.89.2.02 20.08 2.1 32.95.93.56-.04 1.04.36 1.09.91.05.55-.36 1.04-.91 1.09-2.87.25-6.1.36-9.37.36zM1289 1332.42c-11.2 0-22.58-1.28-22.72-1.3a.995.995 0 0 1-.88-1.11c.06-.55.57-.96 1.11-.88.18.02 18.65 2.09 31.51.93.56-.04 1.04.36 1.09.91.05.55-.36 1.04-.91 1.09-2.89.25-6.04.36-9.2.36zM1321.3 1339a.996.996 0 0 1-.81-1.59c13.23-18.2 5.31-34.36 5.23-34.52a.993.993 0 0 1-.04-.81c5.95-15.82-2.94-29.17-3.03-29.31-.31-.46-.19-1.08.26-1.39.46-.31 1.08-.19 1.39.26.39.57 9.43 14.11 3.39 30.75 1.19 2.74 7.16 18.66-5.59 36.19-.19.28-.49.42-.8.42z" fill="#efd48f" class="colorefac8f svgShape"></path>
  <circle cx="840.52" cy="564.1" r="59.78" transform="rotate(-22.5 840.482 564.076)" fill="#d7dbe2" class="colore2d7de svgShape"></circle>
  <path d="M828.33 618.3c-34.86 0-63.22-28.36-63.22-63.22s28.36-63.22 63.22-63.22 63.22 28.36 63.22 63.22-28.36 63.22-63.22 63.22zm0-119.56c-31.07 0-56.35 25.28-56.35 56.35s25.28 56.35 56.35 56.35 56.35-25.28 56.35-56.35c0-31.08-25.28-56.35-56.35-56.35z" fill="#c9ccd3" class="colord3c9cf svgShape"></path>
  <circle cx="3078.32" cy="2402.67" r="59.78" transform="rotate(-31.717 3078.515 2402.816)" fill="#d7dbe2" class="colore2d7de svgShape"></circle>
  <path d="M3066.13 2456.87c-34.86 0-63.22-28.36-63.22-63.22s28.36-63.22 63.22-63.22 63.22 28.36 63.22 63.22-28.36 63.22-63.22 63.22zm0-119.56c-31.07 0-56.35 25.28-56.35 56.35s25.28 56.35 56.35 56.35 56.35-25.28 56.35-56.35c0-31.08-25.28-56.35-56.35-56.35zM3197.37 1147.63h-239.34V781.59c2.29 2.18 4.53 4.42 6.77 6.66 107.39 104.65 185.23 228.49 232.57 359.38zM2958.03 1173.64h239.34v405.6h-239.34zM3243.32 1579.25h-16V1247.4c26.41 110.24 31.95 223.17 16 331.85z" fill="#c9ccd3" class="colord3c9cf svgShape"></path>
  <path d="M865.47 1689.2h189.98v75.99H865.47z" transform="rotate(180 960.46 1727.196)" opacity=".55" fill="#cbced3" class="colord3cbcb svgShape"></path>
  <path d="M763.58 1613.38h189.98v75.99H763.58z" transform="rotate(180 858.566 1651.37)" opacity=".31" fill="#cbced3" class="colord3cbcb svgShape"></path>
  <path d="M674.38 1537h189.98v75.99H674.38z" transform="rotate(180 769.365 1574.997)" opacity=".5" fill="#cbced3" class="colord3cbcb svgShape"></path>
  <path d="M865.23 1537.22h189.98v75.99H865.23z" transform="rotate(180 960.217 1575.215)" opacity=".35" fill="#cbced3" class="colord3cbcb svgShape"></path>
  <path d="M930.74 2254.43c-11.29 0-17.15-5.25-22.32-9.87-5.08-4.55-9.46-8.47-18.65-8.47-9.19 0-13.57 3.93-18.65 8.47-5.17 4.63-11.03 9.87-22.32 9.87-11.29 0-17.15-5.25-22.32-9.87-5.07-4.55-9.46-8.47-18.65-8.47-9.19 0-13.57 3.93-18.64 8.47-5.17 4.63-11.02 9.87-22.32 9.87-11.29 0-17.15-5.25-22.32-9.87-5.07-4.55-9.46-8.47-18.64-8.47-1.52 0-2.75-1.23-2.75-2.75s1.23-2.75 2.75-2.75c11.29 0 17.15 5.25 22.32 9.87 5.07 4.55 9.46 8.47 18.64 8.47 9.19 0 13.57-3.93 18.64-8.47 5.17-4.63 11.02-9.87 22.32-9.87 11.29 0 17.15 5.24 22.32 9.87 5.08 4.55 9.46 8.47 18.65 8.47 9.19 0 13.57-3.93 18.65-8.47 5.17-4.63 11.03-9.87 22.32-9.87 11.29 0 17.15 5.24 22.32 9.87 5.08 4.55 9.46 8.47 18.65 8.47 1.52 0 2.75 1.23 2.75 2.75s-1.23 2.75-2.75 2.75z" fill="#c9ccd3" class="colord3c9cf svgShape"></path>
  <path d="M930.74 2230.72c-11.29 0-17.15-5.25-22.32-9.87-5.08-4.54-9.46-8.47-18.65-8.47-9.19 0-13.57 3.93-18.65 8.47-5.17 4.63-11.03 9.87-22.32 9.87-11.29 0-17.15-5.25-22.32-9.87-5.07-4.54-9.46-8.47-18.65-8.47-9.19 0-13.57 3.93-18.64 8.47-5.17 4.63-11.02 9.87-22.32 9.87-11.29 0-17.15-5.25-22.32-9.87-5.07-4.54-9.46-8.47-18.64-8.47-1.52 0-2.75-1.23-2.75-2.75s1.23-2.75 2.75-2.75c11.29 0 17.15 5.25 22.32 9.87 5.07 4.54 9.46 8.47 18.64 8.47 9.19 0 13.57-3.93 18.64-8.47 5.17-4.63 11.02-9.87 22.32-9.87 11.29 0 17.15 5.25 22.32 9.87 5.08 4.55 9.46 8.47 18.65 8.47 9.19 0 13.57-3.93 18.65-8.47 5.17-4.63 11.03-9.87 22.32-9.87 11.29 0 17.15 5.25 22.32 9.87 5.08 4.55 9.46 8.47 18.65 8.47 1.52 0 2.75 1.23 2.75 2.75 0 1.51-1.23 2.75-2.75 2.75z" fill="#c9ccd3" class="colord3c9cf svgShape"></path>
  <path d="M2757.36 1257.04v138.28h-384.44c-38.16 0-69.11-30.95-69.11-69.11 0-38.22 30.95-69.17 69.11-69.17h384.44z" opacity=".15" fill="#3a3d49" class="color493a41 svgShape"></path>
  <path d="M2963 1202.89h-559.82c-38.19 0-69.15 30.96-69.15 69.15 0 38.19 30.96 69.15 69.15 69.15H2963c38.19 0 69.15-30.96 69.15-69.15 0-38.19-30.96-69.15-69.15-69.15z" fill="#ffffff" class="colorffffff svgShape"></path>
  <path d="m2467.13 1278.3 11.57 35.53-.45-.34-29.74-21.57-30.3 21.91 11.57-35.53-30.18-21.9h37.34l11.57-35.53 11.47 35.53h37.34zM2584.44 1278.3l11.58 35.53-.45-.34-29.74-21.57-30.3 21.91 11.57-35.53-30.18-21.9h37.34l11.57-35.53 11.46 35.53h37.35zM2701.76 1278.3l11.58 35.53-.45-.34-29.74-21.57-30.31 21.91 11.58-35.53-30.19-21.9h37.35l11.57-35.53 11.46 35.53h37.34zM2819.08 1278.3l11.57 35.53-.45-.34-29.74-21.57-30.3 21.91 11.58-35.53-30.19-21.9h37.34l11.57-35.53 11.47 35.53h37.34zM2936.39 1278.3l11.58 35.53-.45-.34-29.74-21.57-30.31 21.91 11.58-35.53-30.18-21.9h37.34l11.57-35.53 11.47 35.53h37.34z" fill="#f9b300" class="colorf9c300 svgShape"></path>
  <path d="M1314.48 2003.18v664.53c0 21.53-17.49 39.02-39.02 39.02H726.29c-21.53 0-39.02-17.49-39.02-39.02v-664.53h627.21z" fill="#eaecef" class="coloreaefee svgShape"></path>
  <path d="M1314.48 1862.12v141.07H687.27v-141.07c0-21.53 17.49-39.02 39.02-39.02h549.17c21.53-.01 39.02 17.48 39.02 39.02z" fill="#c9ccd3" class="colord3c9cf svgShape"></path>
  <circle cx="1000.87" cy="2297.26" r="198.06" transform="rotate(-45.001 1000.853 2297.284)" fill="#d7dbe2" class="colore2d7de svgShape"></circle>
  <path d="M1175.9 2297.25c0 55.12-25.45 104.31-65.29 136.33-17.62 14.33-38.08 25.2-60.37 31.64-15.66 4.67-32.2 7.14-49.38 7.14-96.67 0-175.04-78.43-175.04-175.1 0-56.7 26.96-107.09 68.76-139.04 12.25-9.41 25.7-17.18 40.22-23.05 20.4-8.34 42.69-12.95 66.05-12.95 96.69-.01 175.05 78.35 175.05 175.03z" fill="#ffffff" class="colorffffff svgShape"></path>
  <path d="M1110.61 2433.57c-17.62 14.33-38.08 25.2-60.37 31.64l-36.88-51.27 28.16 21.34-83.29-153 11.24-6.76-74.89-117.32c12.25-9.41 25.7-17.18 40.22-23.05 23.05 38.71 64.34 109.3 65.99 112.14-1.64-1.07-29.05-19.57-29.05-17.93 0 1.7 41.61 67.88 41.61 67.88l3.41-13.89 93.85 150.22zM1110.61 1942.4h59.64v29.26h-59.64zM1193.88 1942.4h59.64v29.26h-59.64z" fill="#eaecef" class="coloreaefee svgShape"></path>
  <path d="M1169.11 2602.34h96.92v47.55h-96.92z" fill="#d7dbe2" class="colore2d7de svgShape"></path>
  <path d="m1467.22 2454.33-32.25 24.02h-367.75l19.07-8.9 21.35-9.96 11.06-5.16z" fill="#c9ccd3" class="colord3c9cf svgShape"></path>
  <path d="M1067.22 2478.35h367.74v247.66h-367.74z" fill="#d7dbe2" class="colore2d7de svgShape"></path>
  <g opacity=".5" fill="#080e24" class="color000000 svgShape">
    <path d="M1115.1 2707.66h-24.42v-18.12h24.42v18.12zm-22.75-1.67h21.07v-14.77h-21.07v14.77z" fill="#3a3d49" class="color493a41 svgShape"></path>
    <path d="M1103.44 2698.57h7.04s-1.19-5.92-7.6-5.92c-5.63 0-7.6 5.92-7.6 5.92h7.04v4.64h-1.65v1.36h4.36v-1.36h-1.6v-4.64zM1143.11 2707.66h-24.42v-18.12h24.42v18.12zm-22.74-1.67h21.07v-14.77h-21.07v14.77z" fill="#3a3d49" class="color493a41 svgShape"></path>
    <path d="M1133.32 2704.57h-5.73v-5.73h5.73v5.73zm-4.06-1.68h2.38v-2.38h-2.38v2.38zM1139.34 2704.57h-5.73v-5.73h5.73v5.73zm-4.05-1.68h2.38v-2.38h-2.38v2.38zM1170.88 2707.66h-24.42v-18.12h24.42v18.12zm-22.75-1.67h21.07v-14.77h-21.07v14.77z" fill="#3a3d49" class="color493a41 svgShape"></path>
    <path d="M1161.77 2694.17v3.29c0 1.68-1.36 3.04-3.04 3.04s-3.04-1.36-3.04-3.04v-3.29h-2.78v3.55a5.82 5.82 0 0 0 5.82 5.82 5.82 5.82 0 0 0 5.82-5.82v-3.55h-2.78z" fill="#3a3d49" class="color493a41 svgShape"></path>
  </g>
  <path d="M1229.77 2476.6v49.53l6.75-4.5 2.13 4.5 2.37-3.88 4.88 3.88 3.38-3.63 2.87 3.63 5.26-3.25 3.38 3.25 7.63-4.5 4 4.5v-49.53z" fill="#c9ccd3" class="colord3c9cf svgShape"></path>
  <path d="m1272.42 2478.35 12.85-8.91-7.92.81-.96-.81-3.38.7-3.87-.7-4.32.65-1.94-.65-6.1.58-2.53-.58-8.8.81-2.83-.81-12.85 8.91zM1265.15 2454.33l-12.86 8.92 7.93-.81.96.81 3.38-.7 3.87.7 4.32-.66 1.93.66 6.1-.59 2.53.59 8.8-.81 2.84.81 12.85-8.92z" opacity=".5" fill="#3a3d49" class="color493a41 svgShape"></path>
  <path d="M1272.42 2728.3v-49.53l-6.76 4.5-2.12-4.5-2.38 3.88-4.88-3.88-3.37 3.63-2.88-3.63-5.26 3.25-3.37-3.25-7.63 4.5-4-4.5v49.53z" fill="#c9ccd3" class="colord3c9cf svgShape"></path>
  <path d="M1322.39 2506.37h88.56v49.53h-88.56zM1092.35 2567.41h318.59v75.05h-318.59zM1434.96 2478.35l32.27-24.02v244.52l-32.27 27.16z" fill="#eaecef" class="coloreaefee svgShape"></path>
  <path d="M1448.53 2468.25v22.73l1.69-2.44.56.69.94-1.63.94 1.06 1.06-2.69.94 1.19.88-2.69s.81 1.06.81.81.94-1.44.94-1.44l1.19.25v-23.25h-31.77l.98.85-1.5.19.66.89-1.13.23.19.75-1.5-.05.23 1.03-1.22.33.99.98-1.59.28.84.89-1.17.47 1.31.8 24.73-.23zM1122.7 2462.15l-3.38.87.69.88-2.88.81.75 1-2.67.41s.61 1.28.36 1.28-2.75.38-2.75.38l-.37 1.66h-26.15l21.35-9.96 16.81.41-2.44 1.71.68.55z" opacity=".5" fill="#3a3d49" class="color493a41 svgShape"></path>
  <path d="m1966.73 2303.84-51.63 38.45h-588.55l30.53-14.26 34.17-15.93 17.69-8.26z" fill="#c9ccd3" class="colord3c9cf svgShape"></path>
  <path d="M1326.57 2342.29h588.53v396.35h-588.53z" fill="#d7dbe2" class="colore2d7de svgShape"></path>
  <g opacity=".5" fill="#080e24" class="color000000 svgShape">
    <path d="M1403.19 2709.28h-39.09v-29h39.09v29zm-36.41-2.68h33.72v-23.63h-33.72v23.63z" fill="#3a3d49" class="color493a41 svgShape"></path>
    <path d="M1384.53 2694.72h11.27s-1.9-9.48-12.16-9.48c-9.02 0-12.16 9.48-12.16 9.48h11.27v7.42h-2.65v2.18h6.99v-2.18h-2.56v-7.42zM1448.02 2709.28h-39.09v-29h39.09v29zm-36.4-2.68h33.72v-23.63h-33.72v23.63z" fill="#3a3d49" class="color493a41 svgShape"></path>
    <path d="M1432.34 2704.32h-9.17v-9.17h9.17v9.17zm-6.48-2.68h3.8v-3.81h-3.8v3.81zM1441.98 2704.32h-9.17v-9.17h9.17v9.17zm-6.48-2.68h3.81v-3.81h-3.81v3.81zM1492.46 2709.28h-39.09v-29h39.09v29zm-36.4-2.68h33.72v-23.63h-33.72v23.63z" fill="#3a3d49" class="color493a41 svgShape"></path>
    <path d="M1477.89 2687.68v5.27a4.87 4.87 0 1 1-9.74 0v-5.27h-4.45v5.68c0 5.15 4.17 9.32 9.32 9.32s9.32-4.17 9.32-9.32v-5.68h-4.45z" fill="#3a3d49" class="color493a41 svgShape"></path>
  </g>
  <path d="M1586.7 2339.48v79.27l10.81-7.2 3.4 7.2 3.81-6.2 7.8 6.2 5.41-5.8 4.6 5.8 8.41-5.2 5.4 5.2 12.21-7.2 6.41 7.2v-79.27z" fill="#c9ccd3" class="colord3c9cf svgShape"></path>
  <path d="m1654.96 2342.29 20.57-14.27-12.68 1.3-1.53-1.3-5.42 1.12-6.19-1.12-6.91 1.05-3.1-1.05-9.76.94-4.05-.94-14.08 1.3-4.54-1.3-20.57 14.27zM1643.33 2303.85l-20.57 14.26 12.68-1.29 1.53 1.29 5.41-1.11 6.2 1.11 6.91-1.04 3.1 1.04 9.76-.93 4.05.93 14.08-1.29 4.54 1.29 20.57-14.26z" opacity=".5" fill="#3a3d49" class="color493a41 svgShape"></path>
  <path d="M1654.96 2742.31v-79.27l-10.81 7.21-3.4-7.21-3.81 6.2-7.8-6.2-5.41 5.8-4.6-5.8-8.41 5.2-5.4-5.2-12.21 7.21-6.41-7.21v79.27z" fill="#c9ccd3" class="colord3c9cf svgShape"></path>
  <path d="M1734.93 2387.13h141.73v79.27h-141.73zM1366.78 2484.81h509.88v120.11h-509.88zM1915.09 2342.29l51.65-38.44v391.33l-51.65 43.46z" fill="#eaecef" class="coloreaefee svgShape"></path>
  <path d="M1936.81 2326.13v36.38l2.71-3.9.9 1.1 1.5-2.6 1.5 1.7 1.7-4.3 1.5 1.9 1.4-4.3s1.3 1.7 1.3 1.3c0-.4 1.5-2.3 1.5-2.3l1.9.4v-37.21h-50.85l1.58 1.36-2.4.3 1.05 1.43-1.8.38.3 1.2-2.4-.07.38 1.65-1.95.53 1.58 1.58-2.55.45 1.35 1.43-1.88.75 2.1 1.28 39.58-.44zM1415.35 2316.36l-5.41 1.4 1.1 1.4-4.6 1.3 1.2 1.6-4.28.66s.98 2.04.58 2.04-4.4.6-4.4.6l-.6 2.66h-41.85l34.17-15.94 26.9.66-3.91 2.73 1.1.89z" opacity=".5" fill="#3a3d49" class="color493a41 svgShape"></path>
  <path d="M1108.35 2739.79c-57.25-6.86-105.43-46.27-135.95-110.27-29.18-61.19-38.97-138.35-27.96-217.54 10.93-78.63 41.23-151.06 85.55-204.59 45.86-55.4 101.85-84.85 158.13-82.71 57.12 2.18 107.15 36.59 140.63 97.63 33.02 60.21 45.97 139.32 36 222.52-10.04 83.83-42.07 161.18-89.93 217.09-49.04 57.3-108.34 84.84-166.47 77.87z" fill="#c9ccd3" class="colord3c9cf svgShape"></path>
  <path d="M1350.53 2443.73c-20.27 168.23-129.37 295.59-240.41 282.48-107.88-12.73-174.97-153.76-152.89-313.23 21.76-157.2 123.09-279.66 229.23-275.44 109.17 4.35 184.03 140.49 164.07 306.19z" opacity=".15" fill="#3a3d49" class="color493a41 svgShape"></path>
  <path d="M1110.99 2719.43c-104.05-12.18-168.88-150.19-147.37-305.95 21.22-153.58 119.58-273.66 221.99-269.5 105.24 4.28 177.34 137.59 157.82 299.19-19.8 164.01-125.44 288.79-232.44 276.26z" fill="#eaecef" class="coloreaefee svgShape"></path>
  <path d="M1341.08 2460.02a441.148 441.148 0 0 1-10.81 49.42c-45.73-18.66-92.59-51.79-94.15-46.94-1.38 4.28 86.81 70.55 85.3 74.8-2.89 8.1-6 16.02-9.32 23.74l-323.25-245.27a387.566 387.566 0 0 1 15.76-35.35c1.53-3.01 64.32 47.88 65.93 44.91.8-1.48-59.66-56.75-58.85-58.19 6.78-12.09 14.09-23.49 21.86-34.12l307.53 227zM1300.27 2586.07c-4.78 9.3-9.91 18.25-15.31 26.76l-313.4-241.64c2.42-10.26 5.23-20.28 8.32-30.06l320.39 244.94zM1189.83 2309.55l144.3 117.08 3.06-25.27zM981.53 2399.78l171.07 137.46-175.1-108.13s-1.43-6.51 4.03-29.33z" fill="#ffffff" class="colorffffff svgShape"></path>
  <path d="M1607.72 2308.75c-34.15 37.32-81.19 84.41-84.3 87.58-.11.05-.16.11-.16.11l-10.49-4.81 90.31-88.94 39.94-39.34c2.12 2.95-14.1 22.29-35.3 45.4z" fill="#b2b7c1" class="colorc1b2bc svgShape"></path>
  <path d="M1546.2 2370.36c-3.02 1.44-5.82 2.11-9.17 2.06-1.42-.02-2.85-.18-4.23-.51l-20.03 19.73 10.49 4.81s.05-.05.16-.11c1.44-1.46 12.28-12.33 26.84-27.22-1.39.23-2.74.61-4.06 1.24z" opacity=".5" fill="#3a3d49" class="color493a41 svgShape"></path>
  <path d="M1549.37 2273.7c-13.87 48.64-34.9 111.8-36.26 116.02-.07.1-.1.17-.1.17l-11.53.39 41.03-119.93 18.14-53.04c3.23 1.69-2.64 26.24-11.28 56.39z" fill="#b2b7c1" class="colorc1b2bc svgShape"></path>
  <path d="M1521.87 2356.3c-2.06 2.63-4.26 4.49-7.28 5.95-1.28.62-2.63 1.11-4.02 1.43l-9.1 26.6 11.53-.39s.02-.07.1-.17c.63-1.95 5.47-16.52 11.84-36.35-1.12.84-2.17 1.78-3.07 2.93z" opacity=".5" fill="#3a3d49" class="color493a41 svgShape"></path>
  <path d="M1423.46 2764.66c-46.15 0-92.44-2.91-137.56-8.64-44.39-5.9-77.79-45.89-76.36-91.09l6.01-196.05c1.41-44.26 34.41-81.84 76.77-87.48 43.77-5.57 88.33-8.36 132.77-8.36 71.3 0 143.82 7.16 215.55 21.28 40.64 8.41 71.97 44.95 73.42 85.08l6.01 173.98c1.5 41.99-29.56 80.32-72.24 89.08-74.95 14.76-150.28 22.2-224.37 22.2z" fill="#c9ccd3" class="colord3c9cf svgShape"></path>
  <path d="M1605.68 2688.95c-113.94 22.43-230.11 27.35-344.05 12.87-16.38-2.17-29.17-18.19-28.64-35.17 2-65.37 4.01-130.73 6.01-196.1.54-16.97 13.66-32.91 29.37-35 109.47-13.91 221.09-9.18 330.56 12.37 15.71 3.25 28.83 18.44 29.37 33.44 2 57.97 4.01 115.93 6.01 173.9.54 14.99-12.25 30.32-28.63 33.69z" fill="#eaecef" class="coloreaefee svgShape"></path>
  <circle cx="1671.96" cy="2493.97" r="25.32" transform="rotate(-7.022 1671.604 2493.722)" fill="#eaecef" class="coloreaefee svgShape"></circle>
  <path d="M1690.22 2538.71c0 3.26-8.17 5.9-18.26 5.9-10.08 0-18.26-2.64-18.26-5.9s8.17-5.9 18.26-5.9c10.09 0 18.26 2.64 18.26 5.9zM1690.22 2562.95c0 3.26-8.17 5.9-18.26 5.9-10.08 0-18.26-2.64-18.26-5.9s8.17-5.9 18.26-5.9c10.09 0 18.26 2.64 18.26 5.9zM1690.22 2587.19c0 3.26-8.17 5.9-18.26 5.9-10.08 0-18.26-2.64-18.26-5.9s8.17-5.9 18.26-5.9c10.09.01 18.26 2.65 18.26 5.9zM1690.22 2611.44c0 3.26-8.17 5.9-18.26 5.9-10.08 0-18.26-2.64-18.26-5.9s8.17-5.9 18.26-5.9c10.09 0 18.26 2.64 18.26 5.9z" fill="#eaecef" class="coloreaefee svgShape"></path>
</svg>
