<svg xmlns="http://www.w3.org/2000/svg" xmlns:xlink="http://www.w3.org/1999/xlink" width="500" zoomAndPan="magnify" viewBox="0 0 375 225" height="300" preserveAspectRatio="xMidYMid meet" version="1.0"><defs><g/><clipPath id="674cb387f5"><path d="M 204.527344 64.46875 L 226.066406 64.46875 L 226.066406 97.699219 L 204.527344 97.699219 Z M 204.527344 64.46875 " clip-rule="nonzero"/></clipPath><clipPath id="f46aba6b20"><path d="M 212.769531 64.46875 L 217.820312 64.46875 C 220.007812 64.46875 222.105469 65.335938 223.652344 66.882812 C 225.195312 68.425781 226.066406 70.523438 226.066406 72.710938 L 226.066406 89.429688 C 226.066406 91.617188 225.195312 93.714844 223.652344 95.257812 C 222.105469 96.804688 220.007812 97.671875 217.820312 97.671875 L 212.769531 97.671875 C 210.582031 97.671875 208.488281 96.804688 206.941406 95.257812 C 205.394531 93.714844 204.527344 91.617188 204.527344 89.429688 L 204.527344 72.710938 C 204.527344 70.523438 205.394531 68.425781 206.941406 66.882812 C 208.488281 65.335938 210.582031 64.46875 212.769531 64.46875 Z M 212.769531 64.46875 " clip-rule="nonzero"/></clipPath><clipPath id="3e493eddde"><path d="M 150.421875 64.382812 L 171.597656 64.382812 L 171.597656 97.75 L 150.421875 97.75 Z M 150.421875 64.382812 " clip-rule="nonzero"/></clipPath><clipPath id="8ca834346d"><path d="M 158.75 64.46875 L 163.351562 64.46875 C 165.539062 64.46875 167.636719 65.335938 169.183594 66.882812 C 170.726562 68.425781 171.597656 70.523438 171.597656 72.710938 L 171.597656 89.429688 C 171.597656 91.617188 170.726562 93.714844 169.183594 95.257812 C 167.636719 96.804688 165.539062 97.671875 163.351562 97.671875 L 158.75 97.671875 C 156.5625 97.671875 154.464844 96.804688 152.917969 95.257812 C 151.375 93.714844 150.503906 91.617188 150.503906 89.429688 L 150.503906 72.710938 C 150.503906 70.523438 151.375 68.425781 152.917969 66.882812 C 154.464844 65.335938 156.5625 64.46875 158.75 64.46875 Z M 158.75 64.46875 " clip-rule="nonzero"/></clipPath></defs><g fill="#ffffff" fill-opacity="1"><g transform="translate(0.663949, 201.89264)"><g><path d="M 10.984375 -27.359375 L 0.1875 -27.359375 L 0.1875 -33.703125 L 29.5625 -33.703125 L 29.5625 -27.359375 L 18.78125 -27.359375 L 18.78125 0 L 10.984375 0 Z M 10.984375 -27.359375 "/></g></g></g><g fill="#ffffff" fill-opacity="1"><g transform="translate(30.420832, 201.89264)"><g><path d="M 19.21875 -26.296875 C 22.425781 -26.296875 25.015625 -25.332031 26.984375 -23.40625 C 28.960938 -21.476562 29.953125 -18.617188 29.953125 -14.828125 L 29.953125 0 L 22.4375 0 L 22.4375 -13.671875 C 22.4375 -15.734375 21.988281 -17.269531 21.09375 -18.28125 C 20.195312 -19.289062 18.894531 -19.796875 17.1875 -19.796875 C 15.289062 -19.796875 13.78125 -19.207031 12.65625 -18.03125 C 11.539062 -16.863281 10.984375 -15.125 10.984375 -12.8125 L 10.984375 0 L 3.46875 0 L 3.46875 -35.734375 L 10.984375 -35.734375 L 10.984375 -23.21875 C 11.972656 -24.207031 13.171875 -24.96875 14.578125 -25.5 C 15.992188 -26.03125 17.539062 -26.296875 19.21875 -26.296875 Z M 19.21875 -26.296875 "/></g></g></g><g fill="#ffffff" fill-opacity="1"><g transform="translate(63.692683, 201.89264)"><g><path d="M 28.84375 -12.859375 C 28.84375 -12.765625 28.796875 -12.085938 28.703125 -10.828125 L 9.09375 -10.828125 C 9.445312 -9.222656 10.28125 -7.957031 11.59375 -7.03125 C 12.914062 -6.101562 14.554688 -5.640625 16.515625 -5.640625 C 17.867188 -5.640625 19.066406 -5.835938 20.109375 -6.234375 C 21.148438 -6.640625 22.117188 -7.273438 23.015625 -8.140625 L 27.015625 -3.796875 C 24.578125 -1.003906 21.015625 0.390625 16.328125 0.390625 C 13.398438 0.390625 10.8125 -0.175781 8.5625 -1.3125 C 6.320312 -2.457031 4.59375 -4.039062 3.375 -6.0625 C 2.15625 -8.082031 1.546875 -10.378906 1.546875 -12.953125 C 1.546875 -15.492188 2.144531 -17.78125 3.34375 -19.8125 C 4.550781 -21.851562 6.207031 -23.441406 8.3125 -24.578125 C 10.414062 -25.722656 12.765625 -26.296875 15.359375 -26.296875 C 17.898438 -26.296875 20.195312 -25.75 22.25 -24.65625 C 24.300781 -23.5625 25.910156 -21.992188 27.078125 -19.953125 C 28.253906 -17.921875 28.84375 -15.554688 28.84375 -12.859375 Z M 15.40625 -20.609375 C 13.707031 -20.609375 12.28125 -20.125 11.125 -19.15625 C 9.96875 -18.195312 9.257812 -16.882812 9 -15.21875 L 21.765625 -15.21875 C 21.503906 -16.851562 20.796875 -18.160156 19.640625 -19.140625 C 18.492188 -20.117188 17.082031 -20.609375 15.40625 -20.609375 Z M 15.40625 -20.609375 "/></g></g></g><g fill="#ffffff" fill-opacity="1"><g transform="translate(94.075519, 201.89264)"><g/></g></g><g fill="#ffffff" fill-opacity="1"><g transform="translate(107.70205, 201.89264)"><g><path d="M 28.75 -17.53125 C 30.675781 -16.914062 32.179688 -15.894531 33.265625 -14.46875 C 34.359375 -13.039062 34.90625 -11.285156 34.90625 -9.203125 C 34.90625 -6.242188 33.757812 -3.96875 31.46875 -2.375 C 29.175781 -0.789062 25.828125 0 21.421875 0 L 4 0 L 4 -33.703125 L 20.46875 -33.703125 C 24.570312 -33.703125 27.722656 -32.914062 29.921875 -31.34375 C 32.128906 -29.769531 33.234375 -27.632812 33.234375 -24.9375 C 33.234375 -23.300781 32.835938 -21.84375 32.046875 -20.5625 C 31.265625 -19.28125 30.164062 -18.269531 28.75 -17.53125 Z M 11.75 -27.828125 L 11.75 -19.890625 L 19.5 -19.890625 C 21.425781 -19.890625 22.882812 -20.222656 23.875 -20.890625 C 24.875 -21.566406 25.375 -22.566406 25.375 -23.890625 C 25.375 -25.203125 24.875 -26.1875 23.875 -26.84375 C 22.882812 -27.5 21.425781 -27.828125 19.5 -27.828125 Z M 20.859375 -5.875 C 22.910156 -5.875 24.457031 -6.207031 25.5 -6.875 C 26.539062 -7.550781 27.0625 -8.597656 27.0625 -10.015625 C 27.0625 -12.804688 24.992188 -14.203125 20.859375 -14.203125 L 11.75 -14.203125 L 11.75 -5.875 Z M 20.859375 -5.875 "/></g></g></g><g fill="#ffffff" fill-opacity="1"><g transform="translate(144.537022, 201.89264)"><g><path d="M 28.84375 -12.859375 C 28.84375 -12.765625 28.796875 -12.085938 28.703125 -10.828125 L 9.09375 -10.828125 C 9.445312 -9.222656 10.28125 -7.957031 11.59375 -7.03125 C 12.914062 -6.101562 14.554688 -5.640625 16.515625 -5.640625 C 17.867188 -5.640625 19.066406 -5.835938 20.109375 -6.234375 C 21.148438 -6.640625 22.117188 -7.273438 23.015625 -8.140625 L 27.015625 -3.796875 C 24.578125 -1.003906 21.015625 0.390625 16.328125 0.390625 C 13.398438 0.390625 10.8125 -0.175781 8.5625 -1.3125 C 6.320312 -2.457031 4.59375 -4.039062 3.375 -6.0625 C 2.15625 -8.082031 1.546875 -10.378906 1.546875 -12.953125 C 1.546875 -15.492188 2.144531 -17.78125 3.34375 -19.8125 C 4.550781 -21.851562 6.207031 -23.441406 8.3125 -24.578125 C 10.414062 -25.722656 12.765625 -26.296875 15.359375 -26.296875 C 17.898438 -26.296875 20.195312 -25.75 22.25 -24.65625 C 24.300781 -23.5625 25.910156 -21.992188 27.078125 -19.953125 C 28.253906 -17.921875 28.84375 -15.554688 28.84375 -12.859375 Z M 15.40625 -20.609375 C 13.707031 -20.609375 12.28125 -20.125 11.125 -19.15625 C 9.96875 -18.195312 9.257812 -16.882812 9 -15.21875 L 21.765625 -15.21875 C 21.503906 -16.851562 20.796875 -18.160156 19.640625 -19.140625 C 18.492188 -20.117188 17.082031 -20.609375 15.40625 -20.609375 Z M 15.40625 -20.609375 "/></g></g></g><g fill="#ffffff" fill-opacity="1"><g transform="translate(174.919857, 201.89264)"><g><path d="M 12.1875 0.390625 C 10.03125 0.390625 7.925781 0.125 5.875 -0.40625 C 3.820312 -0.9375 2.1875 -1.601562 0.96875 -2.40625 L 3.46875 -7.796875 C 4.625 -7.054688 6.019531 -6.453125 7.65625 -5.984375 C 9.289062 -5.523438 10.894531 -5.296875 12.46875 -5.296875 C 15.644531 -5.296875 17.234375 -6.082031 17.234375 -7.65625 C 17.234375 -8.394531 16.800781 -8.925781 15.9375 -9.25 C 15.070312 -9.570312 13.738281 -9.84375 11.9375 -10.0625 C 9.820312 -10.382812 8.070312 -10.753906 6.6875 -11.171875 C 5.3125 -11.585938 4.117188 -12.328125 3.109375 -13.390625 C 2.097656 -14.453125 1.59375 -15.960938 1.59375 -17.921875 C 1.59375 -19.554688 2.066406 -21.003906 3.015625 -22.265625 C 3.960938 -23.535156 5.34375 -24.523438 7.15625 -25.234375 C 8.96875 -25.941406 11.109375 -26.296875 13.578125 -26.296875 C 15.410156 -26.296875 17.234375 -26.09375 19.046875 -25.6875 C 20.859375 -25.289062 22.359375 -24.738281 23.546875 -24.03125 L 21.046875 -18.6875 C 18.765625 -19.96875 16.273438 -20.609375 13.578125 -20.609375 C 11.972656 -20.609375 10.769531 -20.382812 9.96875 -19.9375 C 9.164062 -19.488281 8.765625 -18.910156 8.765625 -18.203125 C 8.765625 -17.398438 9.195312 -16.835938 10.0625 -16.515625 C 10.925781 -16.191406 12.304688 -15.890625 14.203125 -15.609375 C 16.328125 -15.253906 18.0625 -14.875 19.40625 -14.46875 C 20.75 -14.070312 21.921875 -13.34375 22.921875 -12.28125 C 23.921875 -11.21875 24.421875 -9.738281 24.421875 -7.84375 C 24.421875 -6.238281 23.9375 -4.8125 22.96875 -3.5625 C 22.007812 -2.3125 20.601562 -1.335938 18.75 -0.640625 C 16.90625 0.046875 14.71875 0.390625 12.1875 0.390625 Z M 12.1875 0.390625 "/></g></g></g><g fill="#ffffff" fill-opacity="1"><g transform="translate(200.487667, 201.89264)"><g><path d="M 20.171875 -1.25 C 19.429688 -0.707031 18.523438 -0.296875 17.453125 -0.015625 C 16.378906 0.253906 15.25 0.390625 14.0625 0.390625 C 10.976562 0.390625 8.59375 -0.394531 6.90625 -1.96875 C 5.21875 -3.539062 4.375 -5.851562 4.375 -8.90625 L 4.375 -19.546875 L 0.390625 -19.546875 L 0.390625 -25.328125 L 4.375 -25.328125 L 4.375 -31.640625 L 11.890625 -31.640625 L 11.890625 -25.328125 L 18.34375 -25.328125 L 18.34375 -19.546875 L 11.890625 -19.546875 L 11.890625 -9 C 11.890625 -7.914062 12.171875 -7.078125 12.734375 -6.484375 C 13.296875 -5.890625 14.09375 -5.59375 15.125 -5.59375 C 16.3125 -5.59375 17.320312 -5.910156 18.15625 -6.546875 Z M 20.171875 -1.25 "/></g></g></g><g fill="#ffffff" fill-opacity="1"><g transform="translate(221.433044, 201.89264)"><g/></g></g><g fill="#ffffff" fill-opacity="1"><g transform="translate(235.059565, 201.89264)"><g><path d="M 34.671875 0 L 34.625 -20.21875 L 24.703125 -3.5625 L 21.1875 -3.5625 L 11.3125 -19.796875 L 11.3125 0 L 4 0 L 4 -33.703125 L 10.453125 -33.703125 L 23.0625 -12.765625 L 35.484375 -33.703125 L 41.890625 -33.703125 L 42 0 Z M 34.671875 0 "/></g></g></g><g fill="#ffffff" fill-opacity="1"><g transform="translate(281.043096, 201.89264)"><g><path d="M 15.796875 0.390625 C 13.066406 0.390625 10.617188 -0.175781 8.453125 -1.3125 C 6.285156 -2.457031 4.59375 -4.039062 3.375 -6.0625 C 2.15625 -8.082031 1.546875 -10.378906 1.546875 -12.953125 C 1.546875 -15.523438 2.15625 -17.820312 3.375 -19.84375 C 4.59375 -21.863281 6.285156 -23.441406 8.453125 -24.578125 C 10.617188 -25.722656 13.066406 -26.296875 15.796875 -26.296875 C 18.523438 -26.296875 20.960938 -25.722656 23.109375 -24.578125 C 25.265625 -23.441406 26.953125 -21.863281 28.171875 -19.84375 C 29.390625 -17.820312 30 -15.523438 30 -12.953125 C 30 -10.378906 29.390625 -8.082031 28.171875 -6.0625 C 26.953125 -4.039062 25.265625 -2.457031 23.109375 -1.3125 C 20.960938 -0.175781 18.523438 0.390625 15.796875 0.390625 Z M 15.796875 -5.78125 C 17.722656 -5.78125 19.300781 -6.425781 20.53125 -7.71875 C 21.769531 -9.019531 22.390625 -10.765625 22.390625 -12.953125 C 22.390625 -15.140625 21.769531 -16.878906 20.53125 -18.171875 C 19.300781 -19.472656 17.722656 -20.125 15.796875 -20.125 C 13.867188 -20.125 12.28125 -19.472656 11.03125 -18.171875 C 9.78125 -16.878906 9.15625 -15.140625 9.15625 -12.953125 C 9.15625 -10.765625 9.78125 -9.019531 11.03125 -7.71875 C 12.28125 -6.425781 13.867188 -5.78125 15.796875 -5.78125 Z M 15.796875 -5.78125 "/></g></g></g><g fill="#ffffff" fill-opacity="1"><g transform="translate(312.581529, 201.89264)"><g><path d="M 29.1875 -25.90625 L 18.25 0 L 10.5 0 L -0.390625 -25.90625 L 7.375 -25.90625 L 14.546875 -8.28125 L 21.953125 -25.90625 Z M 29.1875 -25.90625 "/></g></g></g><g fill="#ffffff" fill-opacity="1"><g transform="translate(341.375397, 201.89264)"><g><path d="M 28.84375 -12.859375 C 28.84375 -12.765625 28.796875 -12.085938 28.703125 -10.828125 L 9.09375 -10.828125 C 9.445312 -9.222656 10.28125 -7.957031 11.59375 -7.03125 C 12.914062 -6.101562 14.554688 -5.640625 16.515625 -5.640625 C 17.867188 -5.640625 19.066406 -5.835938 20.109375 -6.234375 C 21.148438 -6.640625 22.117188 -7.273438 23.015625 -8.140625 L 27.015625 -3.796875 C 24.578125 -1.003906 21.015625 0.390625 16.328125 0.390625 C 13.398438 0.390625 10.8125 -0.175781 8.5625 -1.3125 C 6.320312 -2.457031 4.59375 -4.039062 3.375 -6.0625 C 2.15625 -8.082031 1.546875 -10.378906 1.546875 -12.953125 C 1.546875 -15.492188 2.144531 -17.78125 3.34375 -19.8125 C 4.550781 -21.851562 6.207031 -23.441406 8.3125 -24.578125 C 10.414062 -25.722656 12.765625 -26.296875 15.359375 -26.296875 C 17.898438 -26.296875 20.195312 -25.75 22.25 -24.65625 C 24.300781 -23.5625 25.910156 -21.992188 27.078125 -19.953125 C 28.253906 -17.921875 28.84375 -15.554688 28.84375 -12.859375 Z M 15.40625 -20.609375 C 13.707031 -20.609375 12.28125 -20.125 11.125 -19.15625 C 9.96875 -18.195312 9.257812 -16.882812 9 -15.21875 L 21.765625 -15.21875 C 21.503906 -16.851562 20.796875 -18.160156 19.640625 -19.140625 C 18.492188 -20.117188 17.082031 -20.609375 15.40625 -20.609375 Z M 15.40625 -20.609375 "/></g></g></g><path stroke-linecap="round" transform="matrix(0.75, 0, 0, 0.75, 98.724891, 38.678259)" fill="none" stroke-linejoin="miter" d="M 76.002232 9.501905 L 98.257441 9.501905 C 109.8564 9.501905 119.257442 18.902947 119.257442 30.501906 L 119.257442 84.908158 C 119.257442 95.418575 127.778276 103.934201 138.283484 103.934201 L 157.314735 103.934201 " stroke="#bdd2fd" stroke-width="19" stroke-opacity="1" stroke-miterlimit="4"/><path stroke-linecap="round" transform="matrix(0.75, 0, 0, 0.75, 98.724891, 38.678259)" fill-opacity="1" fill="#bdd2fd" fill-rule="nonzero" stroke-linejoin="round" d="M 9.502229 9.501905 C 9.502229 -6.237679 22.257438 -18.998096 38.00223 -18.998096 C 53.741814 -18.998096 66.502231 -6.237679 66.502231 9.501905 C 66.502231 25.241489 53.741814 38.001906 38.00223 38.001906 C 22.257438 38.001906 9.502229 25.241489 9.502229 9.501905 " stroke="#bdd2fd" stroke-width="19" stroke-opacity="1" stroke-miterlimit="4"/><path stroke-linecap="round" transform="matrix(0.75, 0, 0, 0.75, 98.724891, 38.678259)" fill-opacity="1" fill="#bdd2fd" fill-rule="nonzero" stroke-linejoin="round" d="M 223.814738 103.934201 C 223.814738 119.673785 211.054321 132.434202 195.314737 132.434202 C 179.569944 132.434202 166.814736 119.673785 166.814736 103.934201 C 166.814736 88.194617 179.569944 75.434199 195.314737 75.434199 C 211.054321 75.434199 223.814738 88.194617 223.814738 103.934201 " stroke="#bdd2fd" stroke-width="19" stroke-opacity="1" stroke-miterlimit="4"/><g clip-path="url(#674cb387f5)"><g clip-path="url(#f46aba6b20)"><path fill="#ffc531" d="M 204.527344 64.46875 L 226.066406 64.46875 L 226.066406 97.699219 L 204.527344 97.699219 Z M 204.527344 64.46875 " fill-opacity="1" fill-rule="nonzero"/></g></g><g clip-path="url(#3e493eddde)"><g clip-path="url(#8ca834346d)"><path fill="#76a4ff" d="M 150.503906 64.46875 L 171.597656 64.46875 L 171.597656 97.667969 L 150.503906 97.667969 Z M 150.503906 64.46875 " fill-opacity="1" fill-rule="nonzero"/></g></g></svg>