<svg xmlns="http://www.w3.org/2000/svg" xmlns:xlink="http://www.w3.org/1999/xlink" width="500" zoomAndPan="magnify" viewBox="0 0 375 149.999998" height="200" preserveAspectRatio="xMidYMid meet" version="1.0"><defs><g/><clipPath id="eeb5276809"><path d="M 204.304688 42.230469 L 217.523438 42.230469 L 217.523438 62.628906 L 204.304688 62.628906 Z M 204.304688 42.230469 " clip-rule="nonzero"/></clipPath><clipPath id="51c9f6a305"><path d="M 210.726562 42.230469 L 211.101562 42.230469 C 212.804688 42.230469 214.4375 42.90625 215.644531 44.109375 C 216.847656 45.316406 217.523438 46.949219 217.523438 48.652344 L 217.523438 56.1875 C 217.523438 57.890625 216.847656 59.527344 215.644531 60.730469 C 214.4375 61.9375 212.804688 62.613281 211.101562 62.613281 L 210.726562 62.613281 C 209.023438 62.613281 207.390625 61.9375 206.183594 60.730469 C 204.980469 59.527344 204.304688 57.890625 204.304688 56.1875 L 204.304688 48.652344 C 204.304688 46.949219 204.980469 45.316406 206.183594 44.109375 C 207.390625 42.90625 209.023438 42.230469 210.726562 42.230469 Z M 210.726562 42.230469 " clip-rule="nonzero"/></clipPath><clipPath id="36589b8a80"><path d="M 171.144531 42.230469 L 184.089844 42.230469 L 184.089844 62.660156 L 171.144531 62.660156 Z M 171.144531 42.230469 " clip-rule="nonzero"/></clipPath><clipPath id="7d3904c0b5"><path d="M 177.566406 42.230469 L 177.664062 42.230469 C 179.371094 42.230469 181.003906 42.90625 182.207031 44.109375 C 183.414062 45.316406 184.089844 46.949219 184.089844 48.652344 L 184.089844 56.1875 C 184.089844 57.890625 183.414062 59.527344 182.207031 60.730469 C 181.003906 61.9375 179.371094 62.613281 177.664062 62.613281 L 177.566406 62.613281 C 175.863281 62.613281 174.230469 61.9375 173.023438 60.730469 C 171.820312 59.527344 171.144531 57.890625 171.144531 56.1875 L 171.144531 48.652344 C 171.144531 46.949219 171.820312 45.316406 173.023438 44.109375 C 174.230469 42.90625 175.863281 42.230469 177.566406 42.230469 Z M 177.566406 42.230469 " clip-rule="nonzero"/></clipPath></defs><g fill="#080e24" fill-opacity="1"><g transform="translate(3.108626, 134.734389)"><g><path d="M 10.90625 -27.171875 L 0.1875 -27.171875 L 0.1875 -33.484375 L 29.375 -33.484375 L 29.375 -27.171875 L 18.65625 -27.171875 L 18.65625 0 L 10.90625 0 Z M 10.90625 -27.171875 "/></g></g></g><g fill="#080e24" fill-opacity="1"><g transform="translate(32.678809, 134.734389)"><g><path d="M 19.09375 -26.125 C 22.28125 -26.125 24.851562 -25.164062 26.8125 -23.25 C 28.78125 -21.332031 29.765625 -18.492188 29.765625 -14.734375 L 29.765625 0 L 22.296875 0 L 22.296875 -13.59375 C 22.296875 -15.632812 21.847656 -17.15625 20.953125 -18.15625 C 20.054688 -19.15625 18.765625 -19.65625 17.078125 -19.65625 C 15.191406 -19.65625 13.691406 -19.070312 12.578125 -17.90625 C 11.460938 -16.75 10.90625 -15.019531 10.90625 -12.71875 L 10.90625 0 L 3.4375 0 L 3.4375 -35.5 L 10.90625 -35.5 L 10.90625 -23.0625 C 11.894531 -24.050781 13.09375 -24.804688 14.5 -25.328125 C 15.90625 -25.859375 17.4375 -26.125 19.09375 -26.125 Z M 19.09375 -26.125 "/></g></g></g><g fill="#080e24" fill-opacity="1"><g transform="translate(65.741906, 134.734389)"><g><path d="M 28.65625 -12.78125 C 28.65625 -12.675781 28.609375 -12.003906 28.515625 -10.765625 L 9.046875 -10.765625 C 9.390625 -9.171875 10.210938 -7.910156 11.515625 -6.984375 C 12.828125 -6.054688 14.457031 -5.59375 16.40625 -5.59375 C 17.75 -5.59375 18.9375 -5.789062 19.96875 -6.1875 C 21.007812 -6.59375 21.976562 -7.222656 22.875 -8.078125 L 26.84375 -3.78125 C 24.414062 -1.007812 20.875 0.375 16.21875 0.375 C 13.3125 0.375 10.742188 -0.1875 8.515625 -1.3125 C 6.285156 -2.445312 4.5625 -4.019531 3.34375 -6.03125 C 2.132812 -8.039062 1.53125 -10.320312 1.53125 -12.875 C 1.53125 -15.394531 2.128906 -17.664062 3.328125 -19.6875 C 4.523438 -21.707031 6.164062 -23.285156 8.25 -24.421875 C 10.34375 -25.554688 12.679688 -26.125 15.265625 -26.125 C 17.785156 -26.125 20.066406 -25.582031 22.109375 -24.5 C 24.148438 -23.414062 25.75 -21.859375 26.90625 -19.828125 C 28.070312 -17.804688 28.65625 -15.457031 28.65625 -12.78125 Z M 15.3125 -20.484375 C 13.625 -20.484375 12.203125 -20.003906 11.046875 -19.046875 C 9.898438 -18.085938 9.203125 -16.78125 8.953125 -15.125 L 21.625 -15.125 C 21.375 -16.75 20.671875 -18.046875 19.515625 -19.015625 C 18.367188 -19.992188 16.96875 -20.484375 15.3125 -20.484375 Z M 15.3125 -20.484375 "/></g></g></g><g fill="#080e24" fill-opacity="1"><g transform="translate(95.934114, 134.734389)"><g/></g></g><g fill="#080e24" fill-opacity="1"><g transform="translate(109.47515, 134.734389)"><g><path d="M 28.5625 -17.421875 C 30.476562 -16.804688 31.976562 -15.789062 33.0625 -14.375 C 34.144531 -12.957031 34.6875 -11.210938 34.6875 -9.140625 C 34.6875 -6.203125 33.546875 -3.941406 31.265625 -2.359375 C 28.984375 -0.785156 25.660156 0 21.296875 0 L 3.96875 0 L 3.96875 -33.484375 L 20.328125 -33.484375 C 24.410156 -33.484375 27.546875 -32.703125 29.734375 -31.140625 C 31.921875 -29.578125 33.015625 -27.457031 33.015625 -24.78125 C 33.015625 -23.15625 32.625 -21.703125 31.84375 -20.421875 C 31.0625 -19.148438 29.96875 -18.148438 28.5625 -17.421875 Z M 11.671875 -27.65625 L 11.671875 -19.765625 L 19.375 -19.765625 C 21.289062 -19.765625 22.742188 -20.097656 23.734375 -20.765625 C 24.722656 -21.429688 25.21875 -22.421875 25.21875 -23.734375 C 25.21875 -25.035156 24.722656 -26.015625 23.734375 -26.671875 C 22.742188 -27.328125 21.289062 -27.65625 19.375 -27.65625 Z M 20.71875 -5.84375 C 22.757812 -5.84375 24.296875 -6.175781 25.328125 -6.84375 C 26.367188 -7.507812 26.890625 -8.546875 26.890625 -9.953125 C 26.890625 -12.722656 24.832031 -14.109375 20.71875 -14.109375 L 11.671875 -14.109375 L 11.671875 -5.84375 Z M 20.71875 -5.84375 "/></g></g></g><g fill="#080e24" fill-opacity="1"><g transform="translate(146.079012, 134.734389)"><g><path d="M 28.65625 -12.78125 C 28.65625 -12.675781 28.609375 -12.003906 28.515625 -10.765625 L 9.046875 -10.765625 C 9.390625 -9.171875 10.210938 -7.910156 11.515625 -6.984375 C 12.828125 -6.054688 14.457031 -5.59375 16.40625 -5.59375 C 17.75 -5.59375 18.9375 -5.789062 19.96875 -6.1875 C 21.007812 -6.59375 21.976562 -7.222656 22.875 -8.078125 L 26.84375 -3.78125 C 24.414062 -1.007812 20.875 0.375 16.21875 0.375 C 13.3125 0.375 10.742188 -0.1875 8.515625 -1.3125 C 6.285156 -2.445312 4.5625 -4.019531 3.34375 -6.03125 C 2.132812 -8.039062 1.53125 -10.320312 1.53125 -12.875 C 1.53125 -15.394531 2.128906 -17.664062 3.328125 -19.6875 C 4.523438 -21.707031 6.164062 -23.285156 8.25 -24.421875 C 10.34375 -25.554688 12.679688 -26.125 15.265625 -26.125 C 17.785156 -26.125 20.066406 -25.582031 22.109375 -24.5 C 24.148438 -23.414062 25.75 -21.859375 26.90625 -19.828125 C 28.070312 -17.804688 28.65625 -15.457031 28.65625 -12.78125 Z M 15.3125 -20.484375 C 13.625 -20.484375 12.203125 -20.003906 11.046875 -19.046875 C 9.898438 -18.085938 9.203125 -16.78125 8.953125 -15.125 L 21.625 -15.125 C 21.375 -16.75 20.671875 -18.046875 19.515625 -19.015625 C 18.367188 -19.992188 16.96875 -20.484375 15.3125 -20.484375 Z M 15.3125 -20.484375 "/></g></g></g><g fill="#080e24" fill-opacity="1"><g transform="translate(176.27122, 134.734389)"><g><path d="M 12.109375 0.375 C 9.972656 0.375 7.882812 0.113281 5.84375 -0.40625 C 3.800781 -0.9375 2.171875 -1.597656 0.953125 -2.390625 L 3.4375 -7.75 C 4.59375 -7.019531 5.984375 -6.421875 7.609375 -5.953125 C 9.234375 -5.492188 10.828125 -5.265625 12.390625 -5.265625 C 15.546875 -5.265625 17.125 -6.046875 17.125 -7.609375 C 17.125 -8.335938 16.691406 -8.863281 15.828125 -9.1875 C 14.972656 -9.507812 13.648438 -9.78125 11.859375 -10 C 9.753906 -10.320312 8.015625 -10.6875 6.640625 -11.09375 C 5.273438 -11.507812 4.085938 -12.242188 3.078125 -13.296875 C 2.078125 -14.347656 1.578125 -15.847656 1.578125 -17.796875 C 1.578125 -19.421875 2.046875 -20.863281 2.984375 -22.125 C 3.929688 -23.382812 5.304688 -24.363281 7.109375 -25.0625 C 8.910156 -25.769531 11.035156 -26.125 13.484375 -26.125 C 15.304688 -26.125 17.117188 -25.921875 18.921875 -25.515625 C 20.722656 -25.117188 22.210938 -24.570312 23.390625 -23.875 L 20.90625 -18.5625 C 18.644531 -19.84375 16.171875 -20.484375 13.484375 -20.484375 C 11.890625 -20.484375 10.691406 -20.257812 9.890625 -19.8125 C 9.097656 -19.363281 8.703125 -18.785156 8.703125 -18.078125 C 8.703125 -17.285156 9.132812 -16.726562 10 -16.40625 C 10.863281 -16.09375 12.234375 -15.789062 14.109375 -15.5 C 16.210938 -15.144531 17.9375 -14.769531 19.28125 -14.375 C 20.625 -13.976562 21.785156 -13.253906 22.765625 -12.203125 C 23.753906 -11.148438 24.25 -9.679688 24.25 -7.796875 C 24.25 -6.203125 23.769531 -4.78125 22.8125 -3.53125 C 21.863281 -2.289062 20.472656 -1.328125 18.640625 -0.640625 C 16.804688 0.0351562 14.628906 0.375 12.109375 0.375 Z M 12.109375 0.375 "/></g></g></g><g fill="#080e24" fill-opacity="1"><g transform="translate(201.678613, 134.734389)"><g><path d="M 20.046875 -1.25 C 19.316406 -0.707031 18.414062 -0.300781 17.34375 -0.03125 C 16.269531 0.238281 15.144531 0.375 13.96875 0.375 C 10.90625 0.375 8.535156 -0.40625 6.859375 -1.96875 C 5.191406 -3.53125 4.359375 -5.820312 4.359375 -8.84375 L 4.359375 -19.421875 L 0.375 -19.421875 L 0.375 -25.171875 L 4.359375 -25.171875 L 4.359375 -31.4375 L 11.8125 -31.4375 L 11.8125 -25.171875 L 18.234375 -25.171875 L 18.234375 -19.421875 L 11.8125 -19.421875 L 11.8125 -8.953125 C 11.8125 -7.859375 12.085938 -7.015625 12.640625 -6.421875 C 13.203125 -5.835938 13.992188 -5.546875 15.015625 -5.546875 C 16.203125 -5.546875 17.207031 -5.863281 18.03125 -6.5 Z M 20.046875 -1.25 "/></g></g></g><g fill="#080e24" fill-opacity="1"><g transform="translate(222.492574, 134.734389)"><g/></g></g><g fill="#080e24" fill-opacity="1"><g transform="translate(236.033601, 134.734389)"><g><path d="M 34.453125 0 L 34.40625 -20.09375 L 24.546875 -3.546875 L 21.046875 -3.546875 L 11.25 -19.65625 L 11.25 0 L 3.96875 0 L 3.96875 -33.484375 L 10.375 -33.484375 L 22.921875 -12.671875 L 35.265625 -33.484375 L 41.625 -33.484375 L 41.71875 0 Z M 34.453125 0 "/></g></g></g><g fill="#080e24" fill-opacity="1"><g transform="translate(281.728622, 134.734389)"><g><path d="M 15.6875 0.375 C 12.976562 0.375 10.546875 -0.1875 8.390625 -1.3125 C 6.242188 -2.445312 4.5625 -4.019531 3.34375 -6.03125 C 2.132812 -8.039062 1.53125 -10.320312 1.53125 -12.875 C 1.53125 -15.425781 2.132812 -17.703125 3.34375 -19.703125 C 4.5625 -21.710938 6.242188 -23.285156 8.390625 -24.421875 C 10.546875 -25.554688 12.976562 -26.125 15.6875 -26.125 C 18.40625 -26.125 20.832031 -25.554688 22.96875 -24.421875 C 25.101562 -23.285156 26.773438 -21.710938 27.984375 -19.703125 C 29.203125 -17.703125 29.8125 -15.425781 29.8125 -12.875 C 29.8125 -10.320312 29.203125 -8.039062 27.984375 -6.03125 C 26.773438 -4.019531 25.101562 -2.445312 22.96875 -1.3125 C 20.832031 -0.1875 18.40625 0.375 15.6875 0.375 Z M 15.6875 -5.734375 C 17.601562 -5.734375 19.175781 -6.378906 20.40625 -7.671875 C 21.632812 -8.960938 22.25 -10.695312 22.25 -12.875 C 22.25 -15.039062 21.632812 -16.769531 20.40625 -18.0625 C 19.175781 -19.351562 17.601562 -20 15.6875 -20 C 13.78125 -20 12.203125 -19.351562 10.953125 -18.0625 C 9.710938 -16.769531 9.09375 -15.039062 9.09375 -12.875 C 9.09375 -10.695312 9.710938 -8.960938 10.953125 -7.671875 C 12.203125 -6.378906 13.78125 -5.734375 15.6875 -5.734375 Z M 15.6875 -5.734375 "/></g></g></g><g fill="#080e24" fill-opacity="1"><g transform="translate(313.069178, 134.734389)"><g><path d="M 29 -25.734375 L 18.125 0 L 10.4375 0 L -0.375 -25.734375 L 7.3125 -25.734375 L 14.453125 -8.234375 L 21.8125 -25.734375 Z M 29 -25.734375 "/></g></g></g><g fill="#080e24" fill-opacity="1"><g transform="translate(341.682388, 134.734389)"><g><path d="M 28.65625 -12.78125 C 28.65625 -12.675781 28.609375 -12.003906 28.515625 -10.765625 L 9.046875 -10.765625 C 9.390625 -9.171875 10.210938 -7.910156 11.515625 -6.984375 C 12.828125 -6.054688 14.457031 -5.59375 16.40625 -5.59375 C 17.75 -5.59375 18.9375 -5.789062 19.96875 -6.1875 C 21.007812 -6.59375 21.976562 -7.222656 22.875 -8.078125 L 26.84375 -3.78125 C 24.414062 -1.007812 20.875 0.375 16.21875 0.375 C 13.3125 0.375 10.742188 -0.1875 8.515625 -1.3125 C 6.285156 -2.445312 4.5625 -4.019531 3.34375 -6.03125 C 2.132812 -8.039062 1.53125 -10.320312 1.53125 -12.875 C 1.53125 -15.394531 2.128906 -17.664062 3.328125 -19.6875 C 4.523438 -21.707031 6.164062 -23.285156 8.25 -24.421875 C 10.34375 -25.554688 12.679688 -26.125 15.265625 -26.125 C 17.785156 -26.125 20.066406 -25.582031 22.109375 -24.5 C 24.148438 -23.414062 25.75 -21.859375 26.90625 -19.828125 C 28.070312 -17.804688 28.65625 -15.457031 28.65625 -12.78125 Z M 15.3125 -20.484375 C 13.625 -20.484375 12.203125 -20.003906 11.046875 -19.046875 C 9.898438 -18.085938 9.203125 -16.78125 8.953125 -15.125 L 21.625 -15.125 C 21.375 -16.75 20.671875 -18.046875 19.515625 -19.015625 C 18.367188 -19.992188 16.96875 -20.484375 15.3125 -20.484375 Z M 15.3125 -20.484375 "/></g></g></g><path stroke-linecap="round" transform="matrix(0.75, 0, 0, 0.75, 139.357877, 26.647253)" fill="none" stroke-linejoin="miter" d="M 44.002 5.501579 L 61.205126 5.501579 C 67.835335 5.501579 73.205127 10.871371 73.205127 17.50158 L 73.205127 51.470332 C 73.205127 58.095332 78.580127 63.470333 85.205128 63.470333 L 99.215545 63.470333 " stroke="#76a4ff" stroke-width="11" stroke-opacity="1" stroke-miterlimit="4"/><path stroke-linecap="round" transform="matrix(0.75, 0, 0, 0.75, 139.357877, 26.647253)" fill-opacity="1" fill="#76a4ff" fill-rule="nonzero" stroke-linejoin="round" d="M 5.501998 5.501579 C 5.501998 -3.613005 12.887415 -10.998422 22.001999 -10.998422 C 31.111375 -10.998422 38.502 -3.613005 38.502 5.501579 C 38.502 14.610955 31.111375 22.00158 22.001999 22.00158 C 12.887415 22.00158 5.501998 14.610955 5.501998 5.501579 " stroke="#76a4ff" stroke-width="11" stroke-opacity="1" stroke-miterlimit="4"/><path stroke-linecap="round" transform="matrix(0.75, 0, 0, 0.75, 139.357877, 26.647253)" fill-opacity="1" fill="#76a4ff" fill-rule="nonzero" stroke-linejoin="round" d="M 137.715548 63.470333 C 137.715548 72.579708 130.33013 79.970334 121.215547 79.970334 C 112.106171 79.970334 104.715546 72.579708 104.715546 63.470333 C 104.715546 54.355749 112.106171 46.970332 121.215547 46.970332 C 130.33013 46.970332 137.715548 54.355749 137.715548 63.470333 " stroke="#76a4ff" stroke-width="11" stroke-opacity="1" stroke-miterlimit="4"/><g clip-path="url(#eeb5276809)"><g clip-path="url(#51c9f6a305)"><path fill="#ffc531" d="M 204.304688 42.230469 L 217.523438 42.230469 L 217.523438 62.628906 L 204.304688 62.628906 Z M 204.304688 42.230469 " fill-opacity="1" fill-rule="nonzero"/></g></g><g clip-path="url(#36589b8a80)"><g clip-path="url(#7d3904c0b5)"><path fill="#bdd2fd" d="M 171.144531 42.230469 L 184.089844 42.230469 L 184.089844 62.609375 L 171.144531 62.609375 Z M 171.144531 42.230469 " fill-opacity="1" fill-rule="nonzero"/></g></g></svg>